<svg xmlns="http://www.w3.org/2000/svg" fill="none" viewBox="0 0 24 24"><g fill-rule="evenodd" clip-path="url(#a)" clip-rule="evenodd"><path fill="var(--icon-secondary)" d="m12.01 10.03 5.02 8.67h-3.22l5.45 3.57 2.75-2.42L12 2h.02L2.01 19.85l2.75 2.42 5.44-3.57H6.99l5.02-8.67Z"/><path fill="var(--icon-secondary)" d="m4.76 22.27-2.75-2.42h2.2l.55 2.42Z"/><path fill="var(--icon-primary)" d="M2 19.85 12 2v4.13L4.21 19.85H2Z"/><path fill="var(--icon-primary)" d="M6.99 18.7h3.21l-5.99 1.15 2.78-1.15ZM19.25 22.27l2.74-2.42H19.8l-.55 2.42ZM17.03 18.7l-5.02-8.67-.01-3.9 7.8 13.72-2.77-1.15Z"/><path fill="var(--icon-primary)" d="M17.03 18.7H13.8l6 1.15-2.77-1.15Z"/></g><defs><clipPath id="a"><path fill="#fff" d="M2 2h20.01v20.27H2z"/></clipPath></defs></svg>