<svg xmlns="http://www.w3.org/2000/svg" fill="none" viewBox="0 0 24 24"><g clip-path="url(#a)"><path fill="var(--icon-secondary)" d="M22.2 12.5c-.2 0-.36-.16-.36-.36l-.04-3.56c0-.2.16-.36.36-.37.24.02.36.16.37.36l.04 3.56c0 .2-.16.36-.36.37h-.01Z"/><path fill="var(--icon-primary)" d="m17.7 14.85-1.52 5.72-1.11-.12.9-4.75c.06-.2-.02-.41-.2-.52l-2.55-1.8 1.5-1.67 2.76 2.43c.21.17.29.45.21.71h.01Z"/><path fill="var(--icon-secondary)" d="M18.1 21.14h-3.09c-.21 0-.27-.07-.27-.35 0-.28.18-.69.41-.69 0 0 .15.13.57.16.42.03.58-.08.58-.08 1.34.23 2.08.48 2.08.69 0 .15-.12.27-.27.27h-.01Z"/><path fill="var(--icon-primary)" d="m7.82 15.23-4.95-.96-.07-.7.79-.2 3.69.3c.2.04.41-.07.5-.25l1.54-2.18 2.25 1.45-2.93 2.33c-.33.24-.55.27-.82.22v-.01ZM18.03 8.29l.65.96 2.64.76.4-.22h.65c.21-.02.41.1.51.29l.06.11c.08.15.08.32.02.47l-.09.23c-.1.25-.37.39-.63.34l-.37-.07a.554.554 0 0 1-.22-.1l-.41-.3-3.07-.35a.447.447 0 0 1-.23-.11l-1.23-1.1 1.32-.91ZM13.31 6.8l-1.38-.49-3.16 1.74c-.08.04-.18.05-.27.03l-.41-.09a.405.405 0 0 1-.32-.38v-.22A.39.39 0 0 1 7.98 7l.32-.16c.11-.05.24-.06.35 0l.37.17c.09.04.19.03.26-.03l2.16-1.7c.12-.1.28-.14.43-.11l2.32.4-.89 1.23h.01ZM17.74 5.88l-.61 1.23-1.21-.56.6-1.23 1.22.56Z"/><path fill="var(--icon-secondary)" d="m1.05 15.22 1.74-2.55c.12-.17.19-.19.42-.04.23.15.5.55.37.74 0 0-.15.03-.44.39-.29.36-.28.52-.28.52-.95.97-1.57 1.44-1.75 1.33-.12-.09-.16-.26-.07-.38l.01-.01ZM13.21 13.87l1.7-2-.66-.58-1.91 1.88.87.7Z"/><path fill="var(--icon-secondary)" d="M17.41 6.74a.608.608 0 0 0-.23-.27l-.74-.44c-.26-.16-1.4-.37-1.4-.37l-1.29-.17-.69 1.39.13.02.88-.59-1.95 2.32v.02h-.01c-1.06 1.3-1.46.17-3.12 3.02.61.37 2 1.84 2 1.84l5.17-4.3-.55-.73 1.42 1.02 1.15-.98-.8-1.78h.03Z"/><path fill="var(--icon-primary)" d="M17.82 6.26a1.63 1.63 0 1 0 0-3.26 1.63 1.63 0 0 0 0 3.26Z"/><path fill="var(--icon-secondary)" fill-rule="evenodd" d="M19.16 3.71a1.82 1.82 0 0 1-2.2 2.32c.25.15.54.25.86.25a1.63 1.63 0 0 0 1.34-2.56v-.01Z" clip-rule="evenodd"/></g><defs><clipPath id="a"><path fill="#fff" d="M1 3h22v18.14H1z"/></clipPath></defs></svg>