<svg xmlns="http://www.w3.org/2000/svg" fill="none" viewBox="0 0 24 24"><g clip-path="url(#a)"><path fill="var(--icon-primary)" d="M20 23V6.18c0-.28.22-.5.5-.5s.5.22.5.5V23h-1ZM2 23V6.5c0-.28.22-.5.5-.5s.5.22.5.5V23H2ZM8.43 23c-.28 0-.5-.22-.5-.5v-21c0-.28.22-.5.5-.5s.5.22.5.5v21c0 .28-.22.5-.5.5ZM14.43 23c-.28 0-.5-.22-.5-.5v-21c0-.28.22-.5.5-.5s.5.22.5.5v21c0 .28-.22.5-.5.5Z"/><path fill="var(--icon-secondary)" d="M8.43 16.85c.68 0 1.23.55 1.23 1.23V23H7.19v-4.92c0-.68.55-1.23 1.23-1.23h.01ZM14.43 16.85c.68 0 1.23.55 1.23 1.23V23h-2.47v-4.92c0-.68.55-1.23 1.23-1.23h.01Z"/><path fill="var(--icon-primary)" fill-rule="evenodd" d="M7.31 18.11s.01.1.04 0c.14-.59.67-1.03 1.3-1.03.1 0 .19.04.28.06-.16-.08-.32-.14-.51-.14-.61 0-1.11.5-1.11 1.11ZM13.36 18.11s.01.1.04 0c.14-.59.67-1.03 1.3-1.03.1 0 .19.04.28.06-.16-.08-.32-.14-.51-.14-.61 0-1.11.5-1.11 1.11Z" clip-rule="evenodd"/></g><defs><clipPath id="a"><path fill="#fff" d="M2 1h19v22H2z"/></clipPath></defs></svg>