<svg xmlns="http://www.w3.org/2000/svg" fill="none" viewBox="0 0 24 24"><g clip-path="url(#a)"><path fill="var(--icon-primary)" d="M18.77 8.32c.53.53.89 1.15 1.11 1.81-1.56-.31-3.09.11-4.31 1.09-.74-.35-1.33-.82-1.78-1.4 1.08-1.13 3.06-2.05 4.7-1.76.1.08.19.17.29.26h-.01Zm-1.49-.99c-1.48.15-2.92.93-3.89 1.89a5.1 5.1 0 0 1-.51-1.37c1.3-.94 2.97-1.11 4.4-.52Zm2.78 3.56c.2 1.4-.22 2.8-1.4 3.98.16-.47.27-.99.32-1.52.09-.96.02-1.91-.09-2.63.39 0 .78.05 1.18.16l-.01.01Zm-1.89-.11c.11.65.18 1.6.1 2.51-.1 1.06-.41 2.03-.95 2.45-.86.37-1.82.46-2.72.27 1.17-1.15 1.71-2.67 1.41-4.25a4.67 4.67 0 0 1 2.17-.99l-.01.01Zm-5.89-2.42c.45 1.56 1.49 2.8 3.02 3.51.15.76.08 1.5-.19 2.18-1.48-.39-3.43-1.68-4.1-3.13.13-.93.55-1.83 1.26-2.56h.01Zm2.51 6.32c-.25.4-.58.77-.98 1.1-.55-.22-1.06-.56-1.51-1a4.553 4.553 0 0 1-1.28-2.53c.96 1.19 2.45 2.07 3.77 2.44v-.01Z"/><path fill="var(--icon-secondary)" d="M13.82 15.78c.4-.33.72-.7.97-1.1h-.21c-1.23 0-2.35-.47-3.19-1.24.22.48.53.93.92 1.33.45.45.96.78 1.51 1v.01ZM17.32 15.75c.53-.43.85-1.39.95-2.45l.03-.39c-.66.82-1.59 1.42-2.65 1.67-.25.52-.6 1.01-1.04 1.45.91.19 1.86.1 2.72-.27l-.01-.01ZM19.27 8.91c.06.31.07.7.07 1.02v.12c.18.02.36.04.54.08-.06-.27-.38-.93-.61-1.22ZM18.97 13.36a6.22 6.22 0 0 1-.32 1.52c1.19-1.18 1.6-2.59 1.4-3.98-.26-.07-.53-.12-.79-.14-.06.34-.15.67-.28.98.03.51.03 1.07-.02 1.63l.01-.01Z"/><path fill="var(--icon-primary)" d="M8.14 4.37H5.39v.37h2.75v-.37ZM11.64 4.37H8.89v.37h2.75v-.37ZM4.63 4.37H1.5v.37h3.13v-.37ZM18.65 4.37H15.9v.37h2.75v-.37ZM15.14 4.37h-2.75v.37h2.75v-.37ZM22.5 4.37h-3.1v.37h3.1v-.37ZM19.43 7.98h3.07V7.6h-3.1v.34s.02.03.03.04ZM11.64 7.61H8.89v.38h2.75v-.38ZM4.63 7.61H1.5v.38h3.13v-.38ZM8.14 7.61H5.39v.38h2.75v-.38ZM8.89 10.85v.38h1.43c0-.13.02-.25.04-.38H8.89ZM8.14 10.85H5.39v.38h2.75v-.38ZM4.63 10.85H1.5v.38h3.13v-.38ZM22.5 11.22v-.38h-1.73c.02.12.03.25.04.38h1.69ZM5.14 5.12h-.51v2.49h.51V5.12ZM5.14 8.36h-.51v2.49h.51V8.36ZM5.14 1.67h.24V1.5h-.75v2.87h.51v-2.7ZM5.14 4.37h-.51v.37h.51v-.37ZM5.14 7.61h-.51v.38h.51v-.38ZM5.14 10.85h-.51v.38h.51v-.38ZM8.64 5.12h-.51v2.49h.51V5.12ZM8.64 1.67h.24V1.5h-.75v2.87h.51v-2.7ZM8.64 8.36h-.51v2.49h.51V8.36Z"/><path fill="var(--icon-primary)" d="M8.64 4.37h-.51v.37h.51v-.37ZM8.64 7.61h-.51v.38h.51v-.38ZM8.64 10.85h-.51v.38h.51v-.38ZM12.14 1.67h.25V1.5h-.75v2.87h.5v-2.7ZM12.08 7.61s.04-.03.06-.05V5.12h-.51v2.49h.45ZM12.15 4.37h-.51v.37h.51v-.37Z"/><path fill="var(--icon-primary)" d="M11.69 7.98c.12-.13.25-.25.39-.38h-.45v.38h.06ZM15.56 6.27h.08V5.11h-.51V6.3c.14-.01.28-.04.42-.04l.01.01ZM15.65 1.67h.24V1.5h-.75v2.87h.51v-2.7ZM15.65 4.37h-.51v.37h.51v-.37ZM19.15 1.67h.24V1.5h-.75v2.87h.51v-2.7ZM18.64 7.28c.14.1.27.22.4.33h.11V5.12h-.51v2.16ZM19.15 4.37h-.51v.37h.51v-.37Z"/><path fill="var(--icon-primary)" d="M19.15 7.69V7.6h-.11s.07.06.11.09Z"/><path fill="var(--icon-secondary)" d="M11.64 4.74H8.89v.38h2.75v-.38ZM22.5 4.74h-3.1v.38h3.1v-.38ZM15.14 4.74h-2.75v.38h2.75v-.38ZM4.63 4.74H1.5v.38h3.13v-.38ZM18.65 4.74H15.9v.38h2.75v-.38ZM8.14 4.74H5.39v.38h2.75v-.38ZM5.14 4.74h-.51v.38h.51v-.38Z"/><path fill="var(--icon-secondary)" d="M8.64 4.74h-.51v.38h.51v-.38ZM12.15 4.74h-.51v.38h.51v-.38ZM15.65 4.74h-.51v.38h.51v-.38ZM19.15 4.74h-.51v.38h.51v-.38ZM19.74 8.36h2.76v-.38h-3.07c.11.12.21.25.31.38ZM11.64 7.98H8.89v.38h2.49c.08-.11.17-.21.25-.31v-.07h.01ZM8.14 7.98H5.39v.38h2.75v-.38ZM4.63 7.98H1.5v.38h3.13v-.38ZM5.14 7.98h-.51v.38h.51v-.38Z"/><path fill="var(--icon-secondary)" d="M8.64 7.98h-.51v.38h.51v-.38ZM11.64 8.05s.04-.05.06-.07h-.06v.07ZM20.84 11.55v.05h1.66v-.38h-1.69c0 .11.03.21.03.33ZM10.28 11.55c0-.11.03-.22.03-.33H8.88v.17h-.25v-.17H5.38v.17h-.25v-.17H1.5v.38h8.79v-.05h-.01ZM5.38 5.12h-.24v2.49h.24V5.12ZM5.38 8.36h-.24v2.49h.24V8.36ZM5.38 1.67h-.24v2.7h.24v-2.7ZM5.38 4.37h-.24v.37h.24v-.37ZM5.38 7.61h-.24v.38h.24v-.38Z"/><path fill="var(--icon-secondary)" d="M5.38 10.85h-.24v.38h.24v-.38ZM5.38 4.74h-.24v.38h.24v-.38ZM5.38 7.98h-.24v.38h.24v-.38Z"/><path fill="var(--icon-secondary)" d="M5.14 11.22v.17h.25v-.17h-.25ZM8.88 1.67h-.24v2.7h.24v-2.7ZM8.88 8.36h-.24v2.49h.24V8.36ZM8.88 5.12h-.24v2.49h.24V5.12ZM8.88 4.37h-.24v.37h.24v-.37ZM8.88 7.61h-.24v.38h.24v-.38ZM8.88 10.85h-.24v.38h.24v-.38ZM8.88 4.74h-.24v.38h.24v-.38Z"/><path fill="var(--icon-secondary)" d="M8.88 7.98h-.24v.38h.24v-.38ZM8.64 11.22v.17h.25v-.17h-.25ZM12.38 1.67h-.24v2.7h.24v-2.7ZM12.39 7.35V5.11h-.24v2.44c.08-.07.16-.14.24-.2ZM12.38 4.37h-.24v.37h.24v-.37Z"/><path fill="var(--icon-secondary)" d="M12.38 4.74h-.24v.38h.24v-.38ZM15.9 6.3V5.12h-.01V6.3h.01ZM15.89 6.3V5.12h-.24v1.16c.08 0 .16.02.24.02ZM15.89 1.67h-.24v2.7h.24v-2.7ZM15.89 4.37h-.24v.37h.24v-.37ZM15.89 4.74h-.24v.38h.24v-.38ZM19.39 7.93l.01.01v-.33h-.01v.32ZM19.39 1.67h-.24v2.7h.24v-2.7ZM19.39 5.12h-.24v2.49h.24V5.12ZM19.39 4.37h-.24v.37h.24v-.37Z"/><path fill="var(--icon-secondary)" d="m19.15 7.69.24.24V7.6h-.24v.09ZM19.39 4.74h-.24v.38h.24v-.38Z"/><path fill="var(--icon-secondary)" d="M23 21h-1V2.76a.76.76 0 0 0-.76-.76H2.76a.76.76 0 0 0-.76.76V21H1V2.76C1 1.79 1.79 1 2.76 1h18.49c.97 0 1.76.79 1.76 1.76V21H23Z"/><path fill="var(--icon-primary)" d="M21.24 1H2.76c-.9 0-1.63.67-1.74 1.53.25-.68.9-1.17 1.66-1.17h18.63c.77 0 1.42.49 1.66 1.17A1.75 1.75 0 0 0 21.24 1Z"/><path fill="var(--icon-secondary)" d="m21.38 20.1-1.61-1.07c-1.31-.87-3.36-.87-4.67 0l-1.61 1.07c-.8.53-2.21.53-3.01 0l-1.61-1.07c-1.31-.87-3.36-.87-4.67 0L2.59 20.1c-.43.28-1.03.4-1.62.38v1.51c.88.02 1.76-.19 2.45-.64l1.61-1.07c.8-.53 2.21-.53 3.01 0l1.61 1.07c1.31.87 3.36.87 4.67 0l1.61-1.07c.8-.53 2.21-.53 3.01 0l1.61 1.07c.65.43 1.49.65 2.33.65h.11v-1.51c-.59.02-1.19-.1-1.62-.39h.01Z"/><path fill="var(--icon-primary)" d="m8.64 19.39 1.73 1.07c.86.53 2.38.53 3.24 0l1.73-1.07c1.31-.81 3.3-.85 4.71-.16l-.29-.19c-1.31-.87-3.36-.87-4.67 0l-1.61 1.07c-.8.53-2.21.53-3.01 0l-1.61-1.07c-1.31-.87-3.36-.87-4.67 0l-.29.19c1.41-.69 3.4-.64 4.71.16h.03Z"/></g><defs><clipPath id="a"><path fill="#fff" d="M1 1h22v21H1z"/></clipPath></defs></svg>