<svg xmlns="http://www.w3.org/2000/svg" fill="none" viewBox="0 0 24 24"><g clip-path="url(#a)"><path fill="var(--icon-primary)" d="m5 11.26.99-1.29S6 9.95 6 9.93c.04-1.33.44-2.82.77-3.69l-.67-.9c-.33.32-.6.62-.86 1l-.44.65c-.32.85-.51 1.77-.51 2.73v.08l.16.42c.16.42.37.78.54 1.04H5ZM6.27 14.54c-.95-1.1-1.33-2.26-1.44-2.71 0-.03-.02-.05-.04-.07-.11-.14-.22-.29-.34-.48a7.71 7.71 0 0 0 1.92 3.7c-.02-.1-.04-.21-.04-.31 0-.04-.02-.09-.05-.12l-.01-.01ZM16.92 4.5c-.03.57-.17 1.26-.37 1.81v.05c.89 1.4 1.29 2.71 1.42 3.21.63.23 1.14.48 1.43.64.06-.18.12-.4.17-.59l.12-.46c-.1-1.37-.55-2.64-1.27-3.72l-.35-.24c-.41-.29-.77-.54-1.16-.69l.01-.01ZM10.64 2.49c1.22-.39 2.96-.22 3.47-.16l.02-.03a7.653 7.653 0 0 0-5.25.37c.41-.08 1.05-.17 1.72-.17h.04v-.01ZM9.93 15.92c-.49-.25-.91-.5-1.24-.77-.01 0-.02-.01-.04-.01-.42-.03-1.2-.11-1.83-.28.02.15.06.31.11.49l.06.21a7.704 7.704 0 0 0 5.03 1.87c-.07-.34-.12-.6-.14-.77-.76-.22-1.4-.46-1.95-.74ZM12.75 10.72s-.05-.02-.07-.02c-.02 0-.04 0-.06.02-.73.38-2.15 1.09-3.46 1.61-.15.97-.15 1.93-.14 2.43 0 .05.02.09.06.11.84.61 1.89 1.11 2.96 1.41h.11c.86-.2 2.14-.68 2.68-.99.03-.01.05-.04.06-.07.29-.74.54-1.93.59-2.83 0-.02-.01-.05-.03-.06l-2.68-1.61h-.02ZM12.48 10.22l.4-3.27s0-.03-.02-.04c-.69-.5-1.96-1.43-2.81-1.99-.02-.01-.05-.02-.07 0-.64.25-2.11 1.05-2.71 1.39-.03.02-.05.04-.06.07-.17.44-.33.98-.45 1.52-.19.84-.25 1.55-.27 2.01.36.31 1.55 1.32 2.47 1.98 1.34-.52 2.76-1.24 3.49-1.62.02 0 .03-.02.03-.04v-.01ZM14.27 2.77s-.07-.03-.11-.04c-.81-.12-2.31-.1-3.3.16-.14.38-.41 1.15-.52 1.66.84.56 2.66 1.88 2.87 2.03.01 0 .03.01.04 0 .38-.06 1.94-.3 2.82-.43.03 0 .05-.02.06-.05.2-.55.33-1.21.34-1.7 0-.06-.02-.11-.06-.15-.55-.48-1.7-1.22-2.14-1.48ZM19.32 10.76v-.06c-.27-.15-.79-.42-1.45-.65l-1.89 2.2s-.04.07-.04.11c-.02.41-.09.92-.19 1.45-.11.56-.26 1.11-.41 1.53.31.14.9.26 1.47.3h.16a7.636 7.636 0 0 0 2.37-3.46v-.52c.02-.33 0-.68 0-.9h-.02Z"/><path fill="#000" d="m19.59 9.61.12-.46c-.1-1.37-.55-2.64-1.27-3.72l-.03-.02a8.507 8.507 0 0 1 .2 4.42c.34.15.62.29.81.39.06-.18.12-.4.17-.59v-.02ZM12.02 17.44c-.07-.34-.12-.6-.14-.77-.17-.05-.34-.1-.5-.15-.39.05-.78.09-1.18.09-.76 0-1.5-.11-2.21-.3 1.17.72 2.54 1.14 4.02 1.14l.01-.01ZM16.8 15.63h.16a7.636 7.636 0 0 0 2.37-3.46v-.52c.02-.33 0-.68 0-.9v-.06c-.18-.1-.47-.25-.84-.41a8.57 8.57 0 0 1-2.97 4.46c-.06.21-.12.41-.18.58.31.14.9.26 1.47.3l-.01.01Z" opacity=".25"/><path fill="var(--icon-secondary)" d="m21.38 20.37-1.61-1.07c-1.31-.87-3.36-.87-4.67 0l-1.61 1.07c-.8.53-2.21.53-3.01 0L8.87 19.3c-1.31-.87-3.36-.87-4.67 0l-1.61 1.07c-.43.28-1.03.4-1.62.38v1.51c.88.02 1.76-.19 2.45-.64l1.61-1.07c.8-.53 2.21-.53 3.01 0l1.61 1.07c1.31.87 3.36.87 4.67 0l1.61-1.07c.8-.53 2.21-.53 3.01 0l1.61 1.07c.65.43 1.49.65 2.33.65h.11v-1.51c-.59.02-1.19-.1-1.62-.39h.01Z"/><path fill="var(--icon-primary)" d="m8.64 19.66 1.73 1.07c.86.53 2.38.53 3.24 0l1.73-1.07c1.31-.81 3.3-.85 4.71-.16l-.29-.19c-1.31-.87-3.36-.87-4.67 0l-1.61 1.07c-.8.53-2.21.53-3.01 0l-1.61-1.07c-1.31-.87-3.36-.87-4.67 0l-.29.19c1.41-.69 3.4-.64 4.71.16h.03Z"/></g><defs><clipPath id="a"><path fill="#fff" d="M1 2h22v20.27H1z"/></clipPath></defs></svg>