<svg xmlns="http://www.w3.org/2000/svg" fill="none" viewBox="0 0 24 24"><g clip-path="url(#a)"><path fill="var(--icon-secondary)" d="M15.27 22H5.98c-.55 0-1.04-.3-1.29-.79-.25-.49-.21-1.06.11-1.51l1.66-2.31.81.58-1.66 2.31c-.15.2-.07.39-.04.47.03.08.15.25.4.25h9.29c.25 0 .36-.17.4-.25a.43.43 0 0 0-.04-.47l-1.66-2.31.81-.58 1.66 2.31c.32.44.36 1.02.11 1.51s-.74.79-1.29.79h.02Z"/><path fill="var(--icon-primary)" d="M22.81 11.88h-1.68a.38.38 0 0 1-.38-.38V9.88H1.62a.38.38 0 1 1 0-.76h19.5c.21 0 .38.17.38.38v1.62h1.31a.38.38 0 1 1 0 .76Z"/><path fill="var(--icon-secondary)" d="M20.58 9.66H1.62c-.13 0-.23-.28-.3-.37-.04.06-.07.13-.07.21 0 .21.17.38.38.38h19.12s0-.21-.17-.21v-.01ZM22.81 11.64h-1.68c-.29 0-.38-.35-.38-.56v.42c0 .21.17.38.38.38h1.68c.21 0 .38-.17.38-.38 0-.08-.03-.15-.07-.21.07.21-.17.35-.3.35h-.01Z"/><path fill="var(--icon-primary)" stroke="var(--icon-primary)" stroke-miterlimit="10" stroke-width=".25" d="M10.62 19c-5.23 0-9.5-4.26-9.5-9.5v-1c0-.28.22-.5.5-.5s.5.22.5.5v1c0 4.69 3.81 8.5 8.5 8.5 4.69 0 8.5-3.81 8.5-8.5v-1c0-.28.22-.5.5-.5s.5.22.5.5v1c0 5.24-4.26 9.5-9.5 9.5Z"/><path fill="var(--icon-primary)" d="M10.62 17c-4.14 0-7.5-3.36-7.5-7.5 0-4.14 3.37-7.5 7.5-7.5s7.5 3.36 7.5 7.5c0 4.14-3.36 7.5-7.5 7.5Zm0-14c-3.58 0-6.5 2.92-6.5 6.5s2.92 6.5 6.5 6.5 6.5-2.92 6.5-6.5S14.21 3 10.62 3Z"/><path fill="var(--icon-secondary)" d="M10.62 16.53c-4.08 0-7.4-3.27-7.49-7.33v.17c0 4.14 3.36 7.5 7.5 7.5 4.14 0 7.5-3.36 7.5-7.5V9.2c-.09 4.06-3.41 7.33-7.49 7.33h-.02Z"/><path fill="var(--icon-primary)" d="M10.62 13.47c-4.21 0-7.5-1.75-7.5-3.97s3.29-3.97 7.5-3.97 7.5 1.75 7.5 3.97-3.29 3.97-7.5 3.97Zm0-6.94c-3.89 0-6.5 1.54-6.5 2.97 0 1.43 2.61 2.97 6.5 2.97s6.5-1.54 6.5-2.97c0-1.43-2.61-2.97-6.5-2.97Z"/><path fill="var(--icon-secondary)" d="M10.62 6.42c3.7 0 6.24 1.4 6.48 2.77.01-.07.02-.14.02-.2 0-1.44-2.61-2.97-6.5-2.97s-6.5 1.54-6.5 2.97c0 .07.01.14.02.2.23-1.37 2.77-2.77 6.48-2.77Z"/><path fill="var(--icon-secondary)" d="M10.62 2.85c3.53 0 6.4 2.82 6.49 6.33v-.17c0-3.58-2.92-6.5-6.5-6.5S4.12 5.42 4.12 9v.17c.09-3.5 2.97-6.33 6.49-6.33l.01.01Z"/><path fill="var(--icon-secondary)" d="M10.62 18.52c-5.23 0-9.5-4.27-9.5-9.5v.48c0 5.24 4.26 9.5 9.5 9.5s9.5-4.26 9.5-9.5v-.48c0 5.24-4.26 9.5-9.5 9.5Z"/><path fill="var(--icon-secondary)" d="M10.62 13.06c-4.08 0-7.29-1.64-7.48-3.77 0 .07-.02.14-.02.2 0 2.23 3.29 3.97 7.5 3.97s7.5-1.75 7.5-3.97c0-.07-.01-.14-.02-.2-.2 2.13-3.41 3.77-7.48 3.77Z"/><path fill="var(--icon-primary)" d="M4.13 9.53c0 1.44 2.61 2.97 6.5 2.97s6.5-1.54 6.5-2.97h1c0 2.23-3.29 3.97-7.5 3.97s-7.5-1.75-7.5-3.97h1Z"/><path fill="var(--icon-secondary)" d="M10.63 12.89c-4.08 0-7.29-1.64-7.48-3.77 0 .07-.02.14-.02.2 0 2.23 3.29 3.97 7.5 3.97s7.5-1.75 7.5-3.97c0-.07-.01-.14-.02-.2-.2 2.13-3.41 3.77-7.48 3.77Z"/><path fill="var(--icon-primary)" d="M15.27 22c.55 0 1.04-.3 1.29-.79.25-.49.21-1.06-.11-1.51l-.79-1.1c-.34.1-.63.3-.86.52l.84 1.16c.15.2.07.39.04.47-.04.07-.15.25-.4.25h-9.3c-.25 0-.36-.17-.4-.25a.431.431 0 0 1 .04-.47l1.03-1.43c-.27-.15-.62-.25-1.03-.28l-.81 1.13c-.32.44-.36 1.02-.11 1.51s.74.79 1.29.79h9.29-.01Z"/><path fill="var(--icon-secondary)" d="M16.56 20.93c-.25.49-.74.79-1.29.79H5.98c-.55 0-1.04-.3-1.29-.79-.09-.18-.13-.36-.14-.55-.03.28 0 .57.14.83.25.49.74.79 1.29.79h9.29a1.435 1.435 0 0 0 1.43-1.62c-.01.19-.05.38-.14.55Z"/></g><defs><clipPath id="a"><path fill="#fff" d="M1 2h22.18v20H1z"/></clipPath></defs></svg>