<svg xmlns="http://www.w3.org/2000/svg" fill="none" viewBox="0 0 24 24"><g clip-path="url(#a)"><path fill="var(--icon-primary)" d="M8.15 3.16c0-1.02-.7-1.97-1.71-2.13a2.05 2.05 0 0 0-2.39 2.02v2.1h4.09V3.16h.01ZM8.15 7.19V6.17h-4.1v1.02c0 .16-.03.34-.07.51h4.23c-.04-.18-.07-.35-.07-.51h.01ZM8.54 8.72H3.67C3.08 10.24 2 12.25 2 14.91c0 3 1.38 5.84 1.87 6.76.1.2.31.31.53.31h3.4c.22 0 .42-.12.53-.31.5-.92 1.87-3.76 1.87-6.76 0-2.65-1.07-4.66-1.67-6.19h.01Z"/><path fill="var(--icon-secondary)" d="M7.95 8.72c.24.34 1.11 3.97 1.11 6.86s-1.55 5.84-2.55 5.84H4.92c-.63 0-.71.08-1.46-.61.16.36.32.66.42.85.1.2.31.31.53.31h3.4c.22 0 .42-.12.53-.31.5-.92 1.87-3.76 1.87-6.76 0-2.65-1.07-4.66-1.67-6.19h-.59v.01ZM6.44 1.03c1.01.16 1.7 1.11 1.7 2.13v1.99h-.43c0-1.11.05-1.95-.12-2.54-.36-1.38-1.15-1.58-1.15-1.58ZM7.72 6.17v1.54h.5c-.04-.18-.07-.35-.07-.51V6.18h-.43v-.01Z"/><path fill="var(--icon-primary)" d="M10.43 19.31c1 .48 2.12.76 3.31.76 4.24 0 7.67-3.43 7.67-7.67 0-.35-.03-.68-.08-1.02.1.22.2.45.28.69-.96-2.77-3.58-4.76-6.67-4.76-1.97 0-3.75.81-5.03 2.11.58 1.39 1.3 3.23 1.3 5.49 0 1.59-.35 3.13-.77 4.4h-.01Zm8.48-7.56c.52 0 .95.42.95.95s-.42.95-.95.95-.95-.42-.95-.95.42-.95.95-.95Zm-2.23-2.41c.52 0 .95.42.95.95s-.42.95-.95.95-.95-.42-.95-.95.42-.95.95-.95Zm-.94 2.84c.52 0 .95.42.95.95s-.42.95-.95.95-.95-.42-.95-.95.42-.95.95-.95Z"/><path fill="var(--icon-secondary)" d="M10.29 19.68c.43.38.91.71 1.43.97-.52-.27-1-.6-1.43-.98v.01Z"/><path fill="var(--icon-secondary)" d="M21.4 12.4c0 4.24-3.43 7.67-7.67 7.67-1.19 0-2.3-.28-3.31-.76-.04.13-.09.25-.13.37.43.38.91.71 1.43.98.05.02.1.05.15.07.17.08.35.16.54.23.07.03.14.05.21.08.17.06.34.11.51.15.08.02.16.04.25.06.18.04.36.07.54.1.08.01.15.03.23.04.26.03.52.05.79.05a7.07 7.07 0 0 0 7.03-7.84c0-.04-.01-.09-.02-.13-.03-.21-.06-.43-.11-.63 0-.03-.01-.05-.02-.08-.05-.23-.12-.45-.19-.67v-.02c-.08-.24-.18-.47-.28-.69.04.33.08.67.08 1.02h-.03Z"/></g><defs><clipPath id="a"><path fill="#fff" d="M2 1h20v20.99H2z"/></clipPath></defs></svg>