<svg xmlns="http://www.w3.org/2000/svg" fill="none" viewBox="0 0 24 24"><g clip-path="url(#a)"><path fill="var(--icon-primary)" d="M19.46 15.94c-1.4 0-2.54 1.14-2.54 2.54 0 1.4 1.14 2.54 2.54 2.54 1.4 0 2.54-1.14 2.54-2.54 0-1.4-1.14-2.54-2.54-2.54Z"/><path fill="var(--icon-secondary)" d="M21.76 17.4c.02.12.03.24.03.37 0 1.52-1.23 2.75-2.75 2.75a2.7 2.7 0 0 1-1.58-.5c.46.6 1.19.99 2.01.99 1.4 0 2.54-1.14 2.54-2.54 0-.38-.09-.75-.24-1.07h-.01ZM9.07 20.08c3.9 0 7.07-3.16 7.07-7.07s-3.16-7.07-7.07-7.07A7.07 7.07 0 0 0 2 13.01c0 3.9 3.16 7.07 7.07 7.07Z"/><path fill="var(--icon-primary)" d="M3.52 15.25a6.11 6.11 0 0 1-.06-.86c0-3.6 2.92-6.52 6.52-6.52 1.39 0 2.67.44 3.73 1.18a6.003 6.003 0 0 0-4.75-2.34 5.994 5.994 0 0 0-5.44 8.54Z"/><path fill="var(--icon-secondary)" d="M22 7.75A5.75 5.75 0 0 0 16.25 2c-2.27 0-4.23 1.32-5.16 3.23.22.06.44.12.66.2.78-1.66 2.46-2.82 4.41-2.82 1.57 0 2.97.75 3.86 1.9-.86-.6-1.9-.96-3.03-.96-1.8 0-3.38.9-4.34 2.26a8.023 8.023 0 0 1 4.44 7.18c0 .14-.02.28-.03.43 2.79-.4 4.93-2.79 4.93-5.68l.01.01Z"/><path fill="var(--icon-primary)" d="M17 3.56c1.13 0 2.17.36 3.03.96a4.851 4.851 0 0 0-3.86-1.9 4.86 4.86 0 0 0-4.41 2.82c.31.11.62.24.91.39a5.278 5.278 0 0 1 4.34-2.26L17 3.56Z"/></g><defs><clipPath id="a"><path fill="#fff" d="M2 2h20v19.01H2z"/></clipPath></defs></svg>