<svg xmlns="http://www.w3.org/2000/svg" fill="none" viewBox="0 0 24 24"><g clip-path="url(#a)"><path fill="var(--icon-primary)" d="M16.44 1.41v1.83c0 .14-.11.25-.25.25h-2.45c-.14 0-.25-.11-.25-.25V1.41c0-.22-.18-.41-.41-.41h-2.14c-.22 0-.41.18-.41.41v1.83c0 .14-.11.25-.25.25H7.83c-.14 0-.25-.11-.25-.25V1.41c0-.22-.18-.41-.41-.41H5.03c-.22 0-.41.18-.41.41v4c0 .65.53 1.18 1.18 1.18h12.42c.65 0 1.18-.53 1.18-1.18v-4c0-.22-.18-.41-.41-.41h-2.14c-.22 0-.41.18-.41.41ZM6.04 15.48c-.84 0-1.52.68-1.52 1.52v1.89h14.96V17c0-.84-.68-1.52-1.52-1.52H6.04ZM4.52 19.59c-.84 0-1.52.68-1.52 1.52V23h18v-1.89c0-.84-.68-1.52-1.52-1.52H4.52ZM16.43 7.3H7.58v7.47h8.85V7.3Z"/><path fill="var(--icon-secondary)" d="M13.47 18.33H4.52v.55h14.96v-2.02c0-.48-.48-1.38-1.52-1.38H13.8c1.42.21 1.52 1.35 1.52 1.7 0 0-.15 1.15-1.85 1.15ZM19.48 19.59h-4.09c-.3 0 1.76.41 1.76 1.68 0 .9-1 1.17-1.65 1.17H3v.55h18V21.1c0-.72-.52-1.52-1.52-1.52v.01ZM15.04 7.3H7.58v1.68c.52-1.68 5.48-2.04 5.48.65v3.87c0 .4-.32.72-.72.72H7.58v.55h8.85V7.3h-1.39ZM19.36 1.25a.396.396 0 0 0-.38-.25h-2.14c-.23 0-.41.18-.41.41v1.83c0 .14-.11.25-.25.25h-1.29c0 .07.01.13.01.2 0 .86-.39 2.35-3.86 2.35H4.95c-.05 0-.12-.02-.17-.03.21.34.58.58 1 .58h12.43c.65 0 1.18-.53 1.18-1.18v-4c0-.06-.01-.11-.03-.16Z"/></g><defs><clipPath id="a"><path fill="#fff" d="M3 1h18v22H3z"/></clipPath></defs></svg>