<svg xmlns="http://www.w3.org/2000/svg" fill="none" viewBox="0 0 24 24"><g clip-path="url(#a)"><path fill="var(--icon-primary)" d="M20.72 9.35 23 5l-.32.17s-1.55.82-2.05 1.06c-.48.23-1.65.19-1.66.19h-5.15c-.09 0-1.45-.06-2.07 1.59 0 0-1.91 5.52-2.02 5.83-.14-.14-1.41-1.35-2.39-2.32l.54-1.1h2.39s.82-2.3.82-2.33l.05-.14H2.59S1 8 1 9.83v2.61l1.16-1.34c.08-.09.17-.16.28-.16.26-.03.56.22.58.23l8.26 8.26 2.05-6.03h4.63l1.03-2.6h-4.8l.5-1.46h6.05l-.02.01Z"/><path fill="var(--icon-secondary)" d="m13.06 12.58-2.05 6.03-8.26-8.25s-.31-.26-.58-.23c-.11 0-.2.06-.28.16l-.9 1.53v.64l1.16-1.34c.08-.09.17-.16.28-.16.26-.03.56.22.58.23l8.26 8.26 2.05-6.03h4.63l1.03-2.6h-.59l-.7 1.77h-4.63v-.01Z"/><path fill="var(--icon-secondary)" d="m7.62 9.58-.73 1.49c.15.14.3.29.45.44l.54-1.1h2.39s.82-2.3.82-2.33l.05-.14h-.54c-.24.69-.59 1.65-.59 1.65H7.62v-.01ZM20.72 9.35 23 5l-.32.17s-.29.16-.64.34l-1.58 3.02h-6.05l-.78 2.29h.54l.5-1.46h6.05v-.01Z"/></g><defs><clipPath id="a"><path fill="#fff" d="M1 5h22v14.44H1z"/></clipPath></defs></svg>