<svg xmlns="http://www.w3.org/2000/svg" fill="none" viewBox="0 0 24 24"><g clip-path="url(#a)"><path fill="var(--icon-secondary)" d="M15.7 9.39v-.83c0-2.27-1.85-4.12-4.12-4.12H5.92c-.68 0-1.22-.55-1.22-1.22C4.7 2.55 5.25 2 5.92 2h5.66c3.62 0 6.56 2.94 6.56 6.56V10s-.31-.26-.89-.26c-.58 0-1.56-.35-1.56-.35h.01Z"/><path fill="var(--icon-primary)" d="M15.25 4.28a.33.33 0 0 1-.19-.06c-1.01-.77-2.27-1.21-3.47-1.21H6.03c-.17 0-.31-.14-.31-.31 0-.17.14-.31.31-.31h5.56c1.35 0 2.71.48 3.84 1.34.13.1.16.29.06.43-.06.08-.15.12-.24.12Z"/><path fill="var(--icon-secondary)" fill-rule="evenodd" d="M1 16.02c0 .4.04.79.12 1.16h21.77c.07-.38.12-.76.12-1.16 0-.4-.04-.79-.12-1.16H1.12c-.07.38-.12.76-.12 1.16Z" clip-rule="evenodd"/><path fill="var(--icon-primary)" fill-rule="evenodd" d="M7.14 22h9.78c2.93 0 5.37-2.06 5.97-4.81H1.12C1.72 19.94 4.21 22 7.14 22Z" clip-rule="evenodd"/><path fill="var(--icon-secondary)" fill-rule="evenodd" d="M17.99 19.99H6.07c-1.92 0-3.69-.91-4.81-2.29.77 2.49 3.14 4.31 5.89 4.31h9.78c2.74 0 5.06-1.82 5.83-4.31A6.113 6.113 0 0 1 18 19.99h-.01ZM4.63 10.43c0-.88 3.31-1.59 7.39-1.59s7.39.71 7.39 1.59H4.63Z" clip-rule="evenodd"/><path fill="var(--icon-primary)" d="M1.12 14.86h21.77a6.133 6.133 0 0 0-2.54-3.74H3.72c-1.27.87-2.26 2.18-2.6 3.74Z"/></g><defs><clipPath id="a"><path fill="#fff" d="M1 2h22v20H1z"/></clipPath></defs></svg>