<svg xmlns="http://www.w3.org/2000/svg" fill="none" viewBox="0 0 24 24"><g clip-path="url(#a)"><path fill="var(--icon-primary)" d="M20.31 12.58c.31-1.27.6-6.56-5.35-8.78C8.63 1.45 2.45 4.93 1.21 5.69 5 8.75 15.45 11.65 20.29 12.64c0-.02.01-.03.02-.06Z"/><path fill="var(--icon-secondary)" d="m1.08 7.3.15.23s1.38 5.11 2.8 5.37c1.42.25 3.33-.67 5.21-.48 1.88.19 2.04 1.14 3.41 1.47 1.29.31 5.39.33 7.24-.71C14.99 12.15 4.96 9.4 1 6.29l.08 1.02V7.3Z"/><path fill="var(--icon-secondary)" d="m6.74 13.21 3.48 2.8.95-.64-3.12-2.41c-.37 0-1.32.24-1.32.24l.01.01ZM10.22 16.01c-.06.52.39 5.48.39 5.48l1.1-.18-.53-5.94-.95.64h-.01Z"/><path fill="var(--icon-secondary)" d="m11.05 13.65-.95 2.01 1.04.39.94-1.83c-.34-.05-1.03-.56-1.03-.56v-.01ZM9.51 3.84c3.04.08 5.6.6 8.48 3.21.07.07.11.04.05-.04-2.57-3.37-6.95-3.37-8.52-3.25-.37.03-.19.07 0 .07l-.01.01Z"/><path fill="var(--icon-secondary)" d="M6.17 4.98c3.12.42 9.07 1.99 12.43 4.59.06.05.12.02.08-.04C15.46 3.93 7.77 4.67 6.16 4.9c-.19.03-.1.07 0 .08h.01Z"/><path fill="var(--icon-secondary)" d="M15.41 9.91c-.25.09.95 1.4 3.93 2.44 2.03.71 2.8.7 3.13.7.33 0 .53-.15-.11-.7-1.01-.87-2.26-4.03-2.38-4.3-.12-.27-.28-.12-.24 0 .04.12.53 1.9.42 2.12-.7 1.37-4.5-.35-4.76-.26h.01Z"/></g><defs><clipPath id="a"><path fill="#fff" d="M1 3h21.79v18.49H1z"/></clipPath></defs></svg>