<svg xmlns="http://www.w3.org/2000/svg" fill="none" viewBox="0 0 24 24"><g clip-path="url(#a)"><path fill="var(--icon-primary)" d="M22.99 8.54c.02-.33-.11-.65-.34-.88-.23-.23-.55-.36-.88-.35-.11.01-.22.04-.33.09-3.4.96-7 .95-10.4-.03a1.25 1.25 0 0 0-1.51.85c-.02.11-.04.22-.05.33v5.87c-.01 1.44.52 2.84 1.48 3.91a12.5 12.5 0 0 0 4.84 3.26c.27.1.57.1.84 0 1.85-.69 3.52-1.81 4.86-3.27a5.71 5.71 0 0 0 1.48-3.91V8.54h.01Zm-9.83 2.55c-.21 0-.4.08-.55.23-.15.15-.23.34-.23.55 0 .24-.2.44-.44.44s-.44-.2-.44-.44c0-.44.17-.86.49-1.17.31-.31.73-.48 1.17-.48.91 0 1.66.75 1.66 1.66 0 .24-.2.44-.44.44s-.44-.2-.44-.44c0-.43-.35-.78-.78-.78v-.01Zm4.65 7.22c-.47.3-1.01.45-1.55.45s-1.09-.15-1.56-.46a2.928 2.928 0 0 1-1.31-2.83c.03-.24.26-.41.5-.38.24.03.41.25.38.5-.11.77.25 1.55.91 1.97.66.42 1.51.42 2.17 0 .66-.42 1.02-1.19.92-1.96-.03-.24.14-.46.38-.49.25-.04.46.14.49.38.15 1.11-.37 2.22-1.32 2.82h-.01Zm2.71-6c-.24 0-.44-.2-.44-.44 0-.43-.35-.78-.77-.78-.21 0-.4.08-.55.23-.15.15-.23.34-.23.55 0 .24-.2.44-.44.44s-.44-.2-.44-.44c0-.44.17-.86.49-1.17.31-.31.73-.48 1.17-.48.45.02.86.17 1.18.49.31.31.48.73.48 1.17 0 .24-.2.44-.44.44l-.01-.01Z"/><path fill="var(--icon-secondary)" d="M12.77 3.62a1.167 1.167 0 0 0-1.67-.44c-.09.07-.17.15-.24.24A18.956 18.956 0 0 1 1.9 8.73c-.65.19-1.03.85-.86 1.51.04.1.08.21.13.31l3 5.04c.73 1.25 1.9 2.18 3.28 2.6.76.23 1.54.36 2.33.44a6.996 6.996 0 0 1-1.38-3.58c-.13-.17-.25-.35-.34-.55-.1-.22 0-.49.23-.58h.05V8.55c.01-.25.04-.41.07-.57.39-1.35 1.68-2.08 2.96-1.75h.03c1.08.31 2.17.51 3.28.61l-1.91-3.21v-.01Zm-5.48 7.65c-.21.12-.48.06-.6-.15a.771.771 0 0 0-1.06-.27c-.18.11-.3.28-.36.48-.05.2-.02.41.08.59a.437.437 0 1 1-.75.45c-.23-.38-.29-.83-.18-1.26.11-.43.38-.79.76-1.01.79-.47 1.81-.21 2.27.58.12.21.06.48-.15.6l-.01-.01Z"/></g><defs><clipPath id="a"><path fill="#fff" d="M1 3h21.99v18.66H1z"/></clipPath></defs></svg>