<svg xmlns="http://www.w3.org/2000/svg" fill="none" viewBox="0 0 24 24"><g fill-rule="evenodd" clip-path="url(#a)" clip-rule="evenodd"><path fill="var(--icon-primary)" d="M10.46 1h3.08c.82 0 1.49.67 1.49 1.49v4.57L12 10.09 8.97 7.06V2.49c0-.82.67-1.49 1.49-1.49ZM13.54 23h-3.08c-.82 0-1.49-.67-1.49-1.49v-4.57L12 13.91l3.03 3.03v4.57c0 .82-.67 1.49-1.49 1.49ZM23 10.46v3.08c0 .82-.67 1.49-1.49 1.49h-4.57L13.91 12l3.03-3.03h4.57c.82 0 1.49.67 1.49 1.49ZM1 13.54v-3.08c0-.82.67-1.49 1.49-1.49h4.57L10.09 12l-3.03 3.03H2.49c-.82 0-1.49-.67-1.49-1.49Z"/><path fill="var(--icon-secondary)" d="m14.72 6.52-3.03 3.03-2.72-2.72v.22L12 10.08l3.03-3.03V2.49c0-.39-.15-.74-.39-1 .05.15.08.31.08.47v4.57-.01ZM14.72 20.99c0 .82-.67 1.49-1.49 1.49h-3.08c-.43 0-.82-.19-1.09-.49.2.59.75 1.01 1.4 1.01h3.08c.82 0 1.49-.67 1.49-1.49v-4.57l-.31-.31V20.99ZM22.61 9.46c.05.15.08.31.08.47v3.08c0 .82-.67 1.49-1.49 1.49h-4.57l-2.61-2.61-.11.11 3.03 3.03h4.57c.82 0 1.49-.67 1.49-1.49v-3.08c0-.39-.15-.74-.39-1ZM9.66 11.58 6.74 14.5H2.18c-.43 0-.82-.19-1.09-.49.2.59.75 1.01 1.4 1.01h4.57l3.03-3.03-.42-.42-.01.01Z"/></g><defs><clipPath id="a"><path fill="#fff" d="M1 1h22v22H1z"/></clipPath></defs></svg>