<svg xmlns="http://www.w3.org/2000/svg" fill="none" viewBox="0 0 24 24"><g clip-path="url(#a)"><path fill="var(--icon-secondary)" d="M19.98 14.02V6c0-.76 0-1.31-.12-1.85s-.72-3.14-.79-3.14c0 0-1.75.91-2.45 3.57-.05.17-.07.35-.07.53v2.98l.86-.7v.83l-.86.7v.44l.86-.7v.8l-.86.7v.44l.86-.7v.85l-.86.7v.44l.86-.7v.87l-.86.7v.44l.86-.7v.87l-.88.69h-1.06v.86s1.06.88 1.06 1.24v4.07l.31-.21.13-.27.23.41.4-.44.51.51-.18.03v2.49c0 .26.38.29.38.29v-3.83l.36-.63h.26v1.67l.18.29h-.17l.06.48s.26.2.28.23c.02.04.14-.15.14-.15l.16-.44.12.15.22-.32v-4.2c0-.5 1.08-1.44 1.08-1.44v-.84h-1.02v.01Z"/><path fill="var(--icon-primary)" d="M12.74 7.9V4H3v13.19h.37v-.57h.15v.57h.35v.41h.68v1.39l.26-.1h.58l.27.27v1.71h.26v-.29l.34-.17h.62l-.02-.48.1-.04v-.34h.3v-5.32h5v-3.54h-5V7.9h5.48Z"/></g><defs><clipPath id="a"><path fill="#fff" d="M3 1h18v22.03H3z"/></clipPath></defs></svg>