<svg xmlns="http://www.w3.org/2000/svg" fill="none" viewBox="0 0 24 24"><g clip-path="url(#a)"><path fill="var(--icon-primary)" d="m23 2-5.98 6.05a6.54 6.54 0 0 1-.35 8.87 6.54 6.54 0 0 1-8.87.35l-2.42 2.42c3.52 3.18 8.78 3.4 12.53.65l-.31-.42c.39-.28.76-.6 1.1-.95.34-.35.66-.72.95-1.1l.42.31c1.93-2.64 2.35-5.99 1.41-9-1.16-3.73 1.5-7.16 1.5-7.16L23 2Z"/><path fill="var(--icon-secondary)" d="m1 22.41 5.98-5.98a6.54 6.54 0 0 1 .35-8.87 6.54 6.54 0 0 1 8.87-.35l2.42-2.42a9.982 9.982 0 0 0-12.54-.64l.31.42c-.39.28-.76.6-1.1.95-.34.35-.66.72-.95 1.1l-.42-.31c-1.94 2.64-2.35 6-1.42 9.01C3.66 19.05 1 22.41 1 22.41Z"/><path fill="var(--icon-secondary)" d="M12.27 6.55v4.23c.78.06 1.3.72 1.3 1.51 0 .74-.64 1.46-1.3 1.46v2.82c2.06-.13 3.69-1.75 3.96-3.59 0 0 .08-.47.08-.69 0-.22-.02-.44-.05-.66l.23-.04c-.23-1.46-1.14-2.73-2.43-3.34-1.9-.9-1.79-1.71-1.79-1.71v.01Z"/><path fill="var(--icon-primary)" d="M11.74 18.03V13.8c-.78-.06-1.3-.72-1.3-1.51 0-.74.64-1.46 1.3-1.46V8.01c-2.06.13-3.69 1.75-3.96 3.59 0 0-.08.47-.08.69 0 .22.02.44.05.66l-.23.04c.23 1.46 1.14 2.73 2.43 3.34 1.9.9 1.79 1.71 1.79 1.71v-.01Z"/></g><defs><clipPath id="a"><path fill="#fff" d="M1 2h22v20.41H1z"/></clipPath></defs></svg>