<svg xmlns="http://www.w3.org/2000/svg" fill="none" viewBox="0 0 24 24"><g clip-path="url(#a)"><path fill="var(--icon-secondary)" d="M12 2C5.92 2 1 5.58 1 11.7c0 3.11 1.79 5.87 4.54 7.57.3.19.49.51.49.87v.27c0 .88.71 1.6 1.6 1.6h8.74c.88 0 1.6-.71 1.6-1.6v-.27c0-.35.18-.68.49-.87 2.75-1.7 4.54-4.45 4.54-7.57C22.99 5.58 18.07 2 12 2Zm.76 8.24 1.97-1.69c.32-.27.8-.22 1.07.1s.22.8-.1 1.07l-1.97 1.69c-.14.12-.31.17-.48.17-.22 0-.43-.09-.58-.27-.27-.32-.22-.8.1-1.07h-.01Zm-4.58-1.6a.76.76 0 0 1 1.07-.1l1.97 1.69c.32.27.37.74.1 1.07a.759.759 0 0 1-1.06.1L8.29 9.71a.76.76 0 0 1-.1-1.07h-.01Zm-1.13 8.74c-1.82 0-3.29-1.47-3.29-3.29s1.47-3.29 3.29-3.29 3.29 1.47 3.29 3.29-1.47 3.29-3.29 3.29Zm3.34.77 1.6-2.27 1.6 2.27h-3.21.01Zm6.59-.77c-1.82 0-3.29-1.47-3.29-3.29s1.47-3.29 3.29-3.29 3.29 1.47 3.29 3.29-1.47 3.29-3.29 3.29Z"/><path fill="var(--icon-primary)" d="M7.822 7.906c1.484-.907 2.23-2.391 1.666-3.315-.565-.924-2.226-.937-3.71-.03-1.485.907-2.23 2.391-1.666 3.315.565.924 2.226.937 3.71.03Z"/></g><defs><clipPath id="a"><path fill="#fff" d="M1 2h21.99v20H1z"/></clipPath></defs></svg>