<svg xmlns="http://www.w3.org/2000/svg" fill="none" viewBox="0 0 24 24"><g fill="var(--icon-primary)" clip-path="url(#a)"><path d="M12.63 8.2c-.36-.17-.63-.23-.75-.26-.04 0-.08 0-.11.03l-.4.34v.04c.11.03.46.13.9.32s.85.51.98.6c.02.02.05.01.07 0l.34-.33s.02-.06 0-.08c-.15-.11-.64-.47-1.04-.66h.01ZM11.73 9.18c-.38-.18-.73-.25-.87-.28-.04 0-.07 0-.1.04l-.32.39s0 .04.01.04c.12.03.51.14.95.33.41.18.81.49.96.61.04.03.09.02.12-.01l.28-.36s.02-.08-.01-.1c-.16-.12-.63-.47-1.03-.65l.01-.01ZM10.95 10.27c-.41-.19-.84-.28-.96-.3-.02 0-.03 0-.04.02l-.28.42s0 .06.02.07c.14.04.54.16.96.33.44.18.84.5.97.61.02.02.05.01.07-.01l.28-.44s0-.04-.01-.06c-.12-.1-.59-.45-1-.64h-.01Z"/><path d="M16.15 3.51C13.14 3.34 12.01 2 12.01 2s-1.13 1.34-4.14 1.51c-3.01.17-4.87-1-4.87-1v9.1c0 6.75 9.01 10.88 9.01 10.88s9.01-4.13 9.01-10.88v-9.1s-1.86 1.18-4.87 1.01v-.01Zm-.83 10.05c-2.19 3.16-6.34 3.51-6.62 3.55-.28.03-.3 0-.26-.22.03-.17.73-2.53 1.89-4.76.27.16.49.33.57.4.02.02.05.01.06-.01l.26-.42v-.06c-.08-.07-.44-.34-.94-.57-.5-.23-.86-.31-.93-.32-.02 0-.03 0-.04.02l-.27.4s0 .06.02.06c.1.03.34.1.61.2-1.1 2.43-1.47 4.88-1.48 4.95-.01.1-.05.13-.08.08-.05-.08-1.89-4.44.85-7.94 2.28-2.9 6.29-2.98 6.51-2.86.08.05-.86.42-2.01 1.2-.23-.09-.39-.12-.46-.14-.03 0-.05 0-.08.02l-.44.29s-.01.03 0 .04c.07.02.51.15.89.35.38.2.74.47.82.54.02.02.05.01.07 0l.36-.35s.01-.04 0-.05c-.08-.06-.29-.22-.55-.38.81-.71 1.47-1.24 1.52-1.27.09-.05.22-.1.34.08.11.18 1.57 4.02-.62 7.18l.01-.01Z"/></g><defs><clipPath id="a"><path fill="#fff" d="M3 2h18.02v20.49H3z"/></clipPath></defs></svg>