<svg xmlns="http://www.w3.org/2000/svg" fill="none" viewBox="0 0 24 24"><g clip-path="url(#a)"><path fill="var(--icon-primary)" d="M1.27 22.73h9.11l.29-3.18h-5.9l5.95-2.12.64-5.17s-.15-1.19-1.22-1.19H4.15c-1.66 0-1.91 4.24-1.91 4.24h2.91l.27-.9h2.75L8 15.7l-5.17 1.6c-.42.13-.73.49-.8.92l-.74 4.51h-.02Z"/><path fill="var(--icon-primary)" d="M10.38 23H1.27c-.08 0-.15-.03-.2-.09a.274.274 0 0 1-.06-.21l.74-4.51c.09-.53.47-.97.99-1.13l5.01-1.55.11-.83H5.62l-.21.71a.27.27 0 0 1-.26.19H2.24c-.07 0-.14-.03-.19-.08a.237.237 0 0 1-.07-.2c.03-.46.31-4.49 2.18-4.49h6c1.04 0 1.43.93 1.49 1.42l-.64 5.24c-.01.1-.08.18-.17.22L6.33 19.3h4.36c.08 0 .15.03.2.09.05.05.08.13.07.2l-.29 3.18c-.01.14-.13.24-.27.24l-.02-.01Zm-8.79-.53h8.55l.24-2.65H4.77c-.13 0-.24-.09-.26-.22-.02-.13.05-.25.17-.3l5.8-2.07.62-5.01s-.15-.89-.96-.89h-6c-1.06 0-1.51 2.51-1.62 3.71h2.42l.21-.71a.27.27 0 0 1 .26-.19h2.75c.08 0 .15.03.2.09.05.06.07.13.06.21l-.17 1.29c-.01.1-.09.19-.19.22l-5.17 1.6c-.33.1-.56.37-.62.71l-.69 4.21h.01ZM14.1 11.07l-1.19 11.66h2.9l.34-4.19 2.05 4.19h3.4l-2.57-5.58 3.71-6.09H19.4l-2.68 4.11.43-4.11H14.1v.01Z"/><path fill="var(--icon-primary)" d="M21.6 23h-3.4c-.1 0-.2-.06-.24-.15l-1.62-3.31-.26 3.22c-.01.14-.13.24-.27.24h-2.9c-.08 0-.15-.03-.2-.09-.05-.06-.08-.13-.07-.2l1.19-11.66c.01-.14.13-.24.27-.24h3.05c.08 0 .15.03.2.09.05.06.08.13.07.2l-.31 3.01 2.07-3.18c.05-.08.13-.12.23-.12h3.34c.1 0 .19.05.23.13.04.08.05.19 0 .27l-3.64 5.97 2.52 5.45c.04.08.03.18-.02.25-.05.08-.13.12-.23.12h-.01Zm-3.23-.53h2.82l-2.4-5.2a.276.276 0 0 1 .01-.25l3.47-5.68h-2.72l-2.6 3.99c-.07.1-.2.15-.31.11a.27.27 0 0 1-.18-.28l.4-3.82h-2.51l-1.14 11.13h2.35l.32-3.94c0-.12.1-.22.22-.24.12-.02.24.04.29.14l1.98 4.04ZM2.85 11.2c-.3 0-.54-.24-.54-.53C2.31 6.2 7 1 13.04 1s9.77 5.93 9.77 7.55c0 .29-.24.53-.54.53-.3 0-.54-.24-.54-.53 0-1.02-3.14-6.49-8.7-6.49-5.56 0-9.65 4.71-9.65 8.61 0 .29-.24.53-.54.53h.01Z"/><path fill="var(--icon-primary)" d="M3.38 9.48c-.3 0-.54-.24-.54-.53 0-.29.24-.53.54-.53C9 8.42 11 5.2 11 2.19c0-.29.24-.53.54-.53.3 0 .54.24.54.53 0 3.36-2.28 7.29-8.69 7.29h-.01ZM9.03 11.6c-.14 0-.28-.05-.38-.16a.534.534 0 0 1 0-.75c3.77-3.65 7.21-6.08 11.75-6.08.3 0 .54.24.54.53 0 .29-.24.53-.54.53-3.62 0-6.7 1.62-11 5.78-.1.1-.24.15-.38.15h.01Z"/><path fill="var(--icon-primary)" d="M14.45 11.6c-.15 0-.3-.06-.41-.18-3.57-4.07-6.61-5.17-8.83-5.98a.53.53 0 0 1-.32-.68c.1-.27.41-.41.69-.32 2.2.8 5.52 2 9.28 6.28.19.22.17.56-.05.75-.1.09-.23.13-.35.13h-.01Z"/><path fill="var(--icon-secondary)" d="M9.92 22.57h-8.9l-.02.12c-.01.08 0 .15.06.21.05.06.13.09.2.09h9.11c.14 0 .25-.1.27-.24l.29-3.18c0-.07-.02-.15-.07-.2a.252.252 0 0 0-.2-.09h-.2l-.28 3.04c-.01.14-.13.24-.27.24l.01.01ZM10.87 11c.18.27.28.57.31.79l-.64 5.24c-.01.1-.08.18-.17.22l-5.71 2.04h1.67l4.5-1.61c.09-.03.16-.12.17-.22l.64-5.24c-.04-.35-.26-.92-.76-1.22h-.01ZM5.16 14.24l-.21.71a.27.27 0 0 1-.26.19H1.98c0 .07 0 .12-.01.15 0 .07.02.14.07.2.05.05.12.08.19.08h2.91c.12 0 .22-.08.26-.19l.21-.71h2.24l.06-.43H5.16ZM17.1 14.11l.31-3.01c0-.08-.02-.15-.07-.21a.252.252 0 0 0-.2-.09h-.2l-.44 4.21.59-.91.01.01ZM15.62 22.32c-.01.14-.13.24-.27.24h-2.7v.14c-.02.07 0 .15.05.2.05.06.12.09.2.09h2.9c.14 0 .26-.11.27-.24l.27-3.21-.42-.85-.3 3.63ZM22.97 10.94a.277.277 0 0 0-.23-.13h-.24l-3.62 5.94 2.52 5.45c.04.08.03.18-.02.25-.05.08-.13.12-.23.12h-3.33l.14.28c.05.09.14.15.24.15h3.4c.09 0 .18-.05.23-.12a.25.25 0 0 0 .02-.25l-2.52-5.45 3.64-5.97c.05-.08.05-.18 0-.27Z"/></g><defs><clipPath id="a"><path fill="#fff" d="M1 1h22v22H1z"/></clipPath></defs></svg>