<svg xmlns="http://www.w3.org/2000/svg" fill="none" viewBox="0 0 24 24"><g clip-path="url(#a)"><path fill="var(--icon-primary)" fill-rule="evenodd" d="M7.53 2.3c-1.5-.61-3.22-.27-4.36.88l-.15.16c-.64.7-.99 1.6-1.02 2.52v.21c0 .5.11.99.31 1.47A3.998 3.998 0 0 0 6.01 10c1.06 0 2.07-.42 2.82-1.18.29-.3.29-.77 0-1.06a.754.754 0 0 0-1.06 0c-.46.47-1.09.73-1.75.73-1.01 0-1.93-.6-2.32-1.54l-.07-.18v-.03h5.72c.37-.06.65-.37.65-.75 0-1.62-.98-3.08-2.47-3.7v.01Zm-3.3 1.94c.71-.72 1.79-.93 2.72-.54l.16.07c.58.29 1.01.79 1.23 1.38l.03.1H3.62l.03-.08c.12-.34.32-.66.59-.93h-.01ZM18.33 14.67c.4 0 .73.3.78.68v1.1l.58-.58a.792.792 0 0 1 1.2 1.03l-.08.09-.57.57h.97a.788.788 0 0 1 .11 1.57h-1.09l.58.58c.31.31.31.81 0 1.11-.28.28-.72.31-1.03.08l-.09-.08-.58-.58v.98a.788.788 0 0 1-1.57.11v-1.08l-.57.57a.792.792 0 0 1-1.2-1.03l.08-.09.58-.58h-.98a.788.788 0 0 1-.11-1.57h1.08l-.57-.57a.779.779 0 0 1 0-1.11c.28-.28.72-.3 1.03-.08l.09.08.57.57v-.98c0-.44.35-.79.79-.79Z" clip-rule="evenodd"/><path fill="var(--icon-primary)" d="m13.06 8.56-1.55 4.82 2.5 2.47 1.56-4.82-2.51-2.47ZM2.3 18.65c-.4.69-.4 1.54 0 2.23S3.44 22 4.24 22h4.43l-4.51-4.45c-.76.03-1.47.44-1.85 1.1H2.3ZM17.82 4.07c.13-.4.09-.84-.1-1.21l-.08-.14c-.14-.21-.34-.41-.59-.53l-.2-.1c-.42-.14-.86-.1-1.23.09s-.66.52-.79.92l-1.25 3.88 2.5 2.47 1.74-5.37v-.01ZM10.39 16.85c-.14.42-.53.69-.97.69H6.28l4.41 4.35c.92-.25 1.67-.94 1.98-1.88l.83-2.56-2.5-2.47-.6 1.87h-.01Z"/><path fill="var(--icon-secondary)" d="m14.01 15.85 1.56-4.82-1-.98-1.56 4.81 1 .99ZM2.21 20.66c.03.07.05.15.09.23.4.69 1.14 1.12 1.94 1.12h4.43L7.34 20.7H2.62c-.14 0-.28 0-.41-.03v-.01ZM17.72 2.86l-.08-.14c-.13-.2-.32-.37-.54-.5l-2.02 6.23 1 .98 1.74-5.37c.13-.4.09-.84-.1-1.21v.01ZM9.32 20.54l1.37 1.35c.92-.25 1.67-.94 1.98-1.88l.83-2.56-1-.98-.5 1.54a3.862 3.862 0 0 1-2.68 2.54v-.01Z"/></g><defs><clipPath id="a"><path fill="#fff" d="M2 2h20v20H2z"/></clipPath></defs></svg>