<svg xmlns="http://www.w3.org/2000/svg" fill="none" viewBox="0 0 24 24"><g clip-path="url(#a)"><path fill="var(--icon-primary)" d="M10.06 4.69a.087.087 0 0 0-.16 0L7.62 9.45C6.62 11.51 5 11.99 5 11.99s1.54.4 2.61 2.6c.5 1.03 4.05 8.4 4.05 8.4l1.06-2.24s.02-.09 0-.14c-.35-.77-3.55-7.68-3.65-7.91-.11-.24-1.45-.71-1.45-.71s1.27-.35 1.38-.58c.1-.19 1.54-3.28 1.97-4.2.08-.16.08-.35 0-.52l-.91-2Z"/><path fill="var(--icon-primary)" d="M13.25 19.3c.03.07.13.07.16 0l2.28-4.76c1-2.06 2.62-2.54 2.62-2.54s-1.54-.4-2.61-2.6C15.2 8.37 11.66 1 11.66 1L10.6 3.24s-.02.09 0 .14c.35.77 3.55 7.68 3.65 7.91.11.24 1.45.71 1.45.71s-1.27.35-1.38.58c-.1.19-1.54 3.28-1.97 4.2-.08.16-.08.35 0 .52l.91 2h-.01Z"/><path fill="var(--icon-secondary)" d="m10.37 11.99 1.29-2.85 1.29 2.85-1.29 2.86-1.29-2.86Z"/></g><defs><clipPath id="a"><path fill="#fff" d="M5 1h13.31v21.99H5z"/></clipPath></defs></svg>