<svg xmlns="http://www.w3.org/2000/svg" fill="none" viewBox="0 0 24 24"><g clip-path="url(#a)"><path fill="var(--icon-secondary)" d="M21.41 14.18c.53-1.37.71-3.52-.2-5.79.28-.32.5-.68.65-1.07.5-1.32.17-2.83-.87-3.92-1.13-1.18-2.91-1.69-4.44-1.25-.53.15-1.28.49-1.93 1.23-1.8-.63-4.75-.77-7.51.32-.37-.43-.81-.75-1.32-.95-1.1-.45-2.37-.31-3.4.37-1.07.71-1.6 2.04-1.32 3.3.14.64.47 1.19.96 1.63-1 2.15-1.1 4.23-.3 6.34 0 0 0 .01-.01.02-.67.81-.88 1.93-.57 3.15.32 1.29 1.78 2.25 3.39 2.25h.12c.68-.02 1.3-.22 1.83-.58 1.31.59 3.43 1 5.21 1 .78 0 1.47-.08 2.06-.24.3.26.62.48.96.64.7.35 1.5.53 2.31.53 1.03 0 2.04-.28 2.94-.82 1.54-.93 2.38-3.13 1.91-5.02-.1-.4-.26-.78-.46-1.13l-.01-.01Z"/><path fill="var(--icon-primary)" d="M20.61 14.16c.49-1.09.89-3.31-.22-5.79.33-.32.59-.68.75-1.11.42-1.11.14-2.38-.75-3.31-.98-1.03-2.52-1.46-3.85-1.09-.5.14-1.25.49-1.85 1.31-1.82-.78-4.95-.86-7.63.32-.33-.47-.77-.85-1.31-1.07-.93-.37-1.99-.26-2.86.32-.88.58-1.31 1.67-1.08 2.71.14.65.52 1.18 1.07 1.55-.78 1.5-1.5 3.7-.34 6.44-.07.07-.15.12-.22.2-.56.67-.72 1.61-.46 2.64.26 1.04 1.49 1.83 2.83 1.83h.11c.68-.02 1.27-.25 1.74-.65 1.11.58 3.26 1.05 5.13 1.05.8 0 1.54-.09 2.13-.3.3.29.64.55 1.03.74.63.31 1.33.47 2.04.47.89 0 1.81-.25 2.61-.73 1.33-.8 2.05-2.71 1.64-4.36-.11-.43-.29-.83-.52-1.17h.01Z"/><path fill="#000" d="M20.85 14.23c.5-1.12.91-3.4-.22-5.94.34-.32.6-.7.77-1.14.43-1.14.14-2.44-.77-3.4-1-1.05-2.59-1.5-3.94-1.12-.52.15-1.29.5-1.9 1.34-1.87-.8-5.08-.88-7.83.33a3.1 3.1 0 0 0-1.35-1.1c-.95-.38-2.05-.26-2.93.32-.9.59-1.34 1.71-1.11 2.78.15.67.54 1.21 1.1 1.59-.8 1.54-1.54 3.8-.34 6.61-.07.07-.16.13-.22.21-.57.69-.74 1.65-.47 2.71.27 1.07 1.53 1.88 2.9 1.88h.11c.7-.02 1.31-.26 1.79-.67 1.14.59 3.35 1.08 5.26 1.08.82 0 1.58-.1 2.18-.3.31.3.66.56 1.06.76.64.32 1.36.48 2.09.48.92 0 1.85-.25 2.68-.75 1.37-.82 2.1-2.78 1.68-4.47-.11-.45-.29-.85-.54-1.2Zm-1.68 4.79c-1.19.71-2.64.8-3.78.23-1.05-.52-1.71-1.52-1.84-2.8a.518.518 0 1 0-1.03.11c.08.74.31 1.41.66 1.99-1.64.36-4.59-.04-6.08-.73.19-.34.33-.73.41-1.17a.513.513 0 1 0-1.01-.19c-.29 1.54-1.31 1.81-1.89 1.82-.89.04-1.83-.48-1.98-1.09-.18-.73-.09-1.37.27-1.8.34-.41.9-.61 1.59-.57.28.02.53-.2.55-.49.02-.29-.2-.53-.49-.55-.49-.03-.93.04-1.33.18-.94-2.35-.35-4.2.38-5.61.21.07.43.12.67.16h.08a.52.52 0 0 0 .08-1.03c-1.01-.15-1.69-.66-1.85-1.4-.14-.64.13-1.34.67-1.69.61-.41 1.33-.49 1.98-.23.65.26 1.12.85 1.29 1.62a.518.518 0 1 0 1.01-.23c-.03-.12-.08-.22-.11-.33 2.41-1.04 5.25-1 6.87-.35-.13.31-.25.64-.33 1.04-.06.28.12.55.4.61.28.06.55-.12.61-.4.28-1.33.99-2.22 2-2.51 1-.29 2.17.05 2.91.83.63.66.84 1.55.55 2.32-.34.91-1.31 1.49-2.67 1.61-.28.02-.49.27-.47.56.02.27.25.47.51.47h.04c.73-.06 1.37-.25 1.91-.53.78 1.9.59 3.57.29 4.52-.75-.58-1.77-.93-2.99-.98a.522.522 0 0 0-.54.49c-.01.28.21.53.49.54 1.84.09 3.03.88 3.37 2.22.31 1.25-.23 2.75-1.21 3.33l.01.03Z"/></g><defs><clipPath id="a"><path fill="#fff" d="M1 2h21.09v19.15H1z"/></clipPath></defs></svg>