<svg xmlns="http://www.w3.org/2000/svg" fill="none" viewBox="0 0 24 24"><g clip-path="url(#a)"><path fill="var(--icon-secondary)" d="M11.97 8.86c-3.99 0-6.09 2.88-6.45 5.84 1.17.03 2.96.09 3.87.16 1.13.08 2.06.94 2.16 2 .07.82-.36 1.83-1.81 2.21-1.29.34-3.28.91-4.27 1.2v2c0 .73.02.73.52.73.21 0 .46-.03.75-.09.87-.18 8.54-1.69 11.51-2.36.26-.06.43-.28.43-.55v-5.01c0-2.47-2.13-6.13-6.71-6.13Z"/><path fill="var(--icon-primary)" d="M6.98 13.8s-.09 0-.13-.02a.437.437 0 0 1-.28-.55c.66-2.06 2.3-3.47 4.37-3.77.24-.03.46.13.49.37.03.24-.13.46-.37.49-1.76.26-3.1 1.41-3.66 3.17-.06.18-.23.3-.41.3l-.01.01Z"/><path fill="var(--icon-secondary)" d="M11.06 1c-1.8 0-3.32.44-4.62 1.07l4.36 6.04c.37-.06.75-.1 1.16-.1.66 0 1.29.11 1.9.27l1.85-6.32c-1.43-.61-3-.95-4.65-.95V1ZM18.99 12.35c.39.8.62 1.64.62 2.46v3.22s2.82 1.2 3.21-1.57c.3-2.05.21-3.95-.15-5.68L19 12.34l-.01.01Z"/><path fill="var(--icon-primary)" d="M1.17 6.95c-.33.54-.17 1.24.36 1.58l4.27 2.82s1.24-2.19 4.04-3.01L5.61 2.5C3.33 3.84 1.89 5.79 1.17 6.95ZM16.55 2.36l-1.81 6.19c1.62.61 2.94 1.71 3.79 3.01l3.93-1.67c-.94-3.43-3.1-6.05-5.91-7.53Z"/></g><defs><clipPath id="a"><path fill="#fff" d="M1 1h21.99v22H1z"/></clipPath></defs></svg>