<svg xmlns="http://www.w3.org/2000/svg" fill="none" viewBox="0 0 22 23"><g clip-path="url(#a)"><path fill="var(--icon-primary)" d="M17.42 2.33h2.9l-.03 3.11-2.88-3.11h.01Z"/><path fill="var(--icon-secondary)" d="M16.99 2.76h2.9l-.03 3.11-2.88-3.11h.01ZM20.8 15.99v3.47h-3.32l3.32-3.47Z"/><path fill="var(--icon-primary)" d="M20.37 15.56v3.47h-3.32l3.32-3.47Z"/><path fill="var(--icon-secondary)" d="M4.35 19.45H1.21v-3.42l3.14 3.42Z"/><path fill="var(--icon-primary)" d="M4.77 19.03H1.64v-3.42l3.14 3.42h-.01ZM1.67 5.44l.02-3.1 3.4-.02-3.42 3.12Z"/><path fill="var(--icon-secondary)" d="m2.1 5.86.02-3.1 3.4-.02L2.1 5.86Z"/><path fill="var(--icon-primary)" d="M4.64 4.76 6.3 5.98l2.22 10.3-1.42 1.21.23-1.18L5 5.93l-.35-1.18-.01.01Z"/><path fill="var(--icon-secondary)" d="M8.51 16.29 7.08 17.5h3.39l-1.31-1.21H8.5h.01ZM7.57 4.77 6.3 5.98l2.22 10.3h.65l-.13-3.2-1.58-7.15.11-1.17v.01ZM10.48 17.5l-1.3-1.2 1.83-7.04v4.18l-.76 2.92.24 1.14h-.01Z"/><path fill="var(--icon-primary)" d="M10.94 5.51 11 9.23 9.16 16.3l-.12-3.18 1.9-7.61ZM4.63 4.76l1.66 1.22 1.28-1.22H4.63Z"/><path fill="var(--icon-secondary)" d="M10.94 5.52 11 9.26l1.69 7.04h1.05l-2.8-10.78Z"/><path fill="var(--icon-primary)" d="M11 9.26v4.17l.94 2.96-.33 1.1 1.09-1.19L11 9.26Z"/><path fill="var(--icon-secondary)" d="M13.73 16.3H12.7l-1.1 1.2h3.82l-1.68-1.2h-.01Z"/><path fill="var(--icon-secondary)" d="m16.7 6.19.68-1.42-1.84 1.04-1.82 10.49 1.7 1.21-.47-1.25L16.7 6.19Z"/><path fill="var(--icon-primary)" d="m14.26 5.92-.2-1.15 1.49 1.03-1.82 10.49-.76-2.98 1.3-7.39h-.01Z"/><path fill="var(--icon-primary)" d="m14.06 4.77 1.48 1.04 1.85-1.05h-3.33v.01Z"/><path fill="var(--icon-secondary)" d="M11.01 0C4.93 0 0 4.93 0 11.02s4.93 11.02 11.01 11.02 11.01-4.93 11.01-11.02S17.08 0 11.01 0Zm-.05 1.59c5.15 0 9.32 4.18 9.32 9.35s-4.17 9.37-9.32 9.37-9.34-4.2-9.34-9.37c0-5.17 4.19-9.35 9.34-9.35Z"/><path fill="var(--icon-primary)" d="M10.73.07C4.96.07.29 4.75.29 10.53c0 5.78 4.67 10.45 10.44 10.45s10.44-4.67 10.44-10.45C21.17 4.75 16.5.07 10.73.07Zm-.05.46c5.46 0 9.89 4.44 9.89 9.92 0 5.48-4.43 9.93-9.89 9.93-5.46 0-9.9-4.45-9.9-9.93 0-5.48 4.44-9.92 9.9-9.92Z"/></g><defs><clipPath id="a"><path fill="#fff" d="M0 0h22.01v22.04H0z"/></clipPath></defs></svg>