<svg xmlns="http://www.w3.org/2000/svg" fill="none" viewBox="0 0 24 24"><g clip-path="url(#a)"><path fill="var(--icon-primary)" d="m16.83 8.56-1.56 4.82 2.5 2.46 1.56-4.81-2.5-2.47ZM6.06 18.65c-.4.69-.4 1.54 0 2.23S7.2 22 8 22h4.43l-4.51-4.45c-.76.03-1.47.44-1.85 1.1h-.01ZM21.58 4.06c.13-.4.09-.84-.1-1.21l-.08-.14c-.14-.21-.34-.41-.59-.53l-.2-.1c-.42-.14-.86-.1-1.23.09s-.66.52-.79.92l-1.25 3.88 2.5 2.47 1.74-5.37v-.01ZM14.15 16.84c-.14.42-.53.69-.97.69h-3.14l4.41 4.35c.92-.25 1.67-.94 1.98-1.88l.83-2.56-2.5-2.47-.6 1.87h-.01Z"/><path fill="var(--icon-secondary)" d="m17.77 15.84 1.56-4.81-1-.98-1.55 4.81.99.98ZM5.97 20.66c.03.07.05.15.09.23.4.69 1.14 1.12 1.94 1.12h4.43L11.1 20.7H6.39c-.14 0-.28 0-.41-.03l-.01-.01ZM21.48 2.86l-.08-.14c-.13-.2-.32-.37-.54-.5l-2.02 6.23 1 .98 1.74-5.37c.13-.4.09-.84-.1-1.21v.01ZM13.08 20.54l1.37 1.35c.92-.25 1.67-.94 1.98-1.88l.83-2.56-1-.98-.5 1.54a3.862 3.862 0 0 1-2.68 2.54v-.01Z"/><path fill="var(--icon-primary)" d="M4.5 15.5a2.5 2.5 0 1 0 0-5 2.5 2.5 0 0 0 0 5Z"/><path fill="var(--icon-secondary)" fill-rule="evenodd" d="M6.56 11.58c.09.27.14.56.14.86a2.78 2.78 0 0 1-2.78 2.78c-.25 0-.49-.04-.73-.1.38.24.83.38 1.31.38a2.5 2.5 0 0 0 2.06-3.92Z" clip-rule="evenodd"/></g><defs><clipPath id="a"><path fill="#fff" d="M2 2h19.66v20H2z"/></clipPath></defs></svg>