<svg xmlns="http://www.w3.org/2000/svg" fill="none" viewBox="0 0 24 24"><g clip-path="url(#a)"><path fill="var(--icon-primary)" fill-rule="evenodd" d="M10.04 17.54h-.76v4.43l.92-.01v-4.42h-.16ZM6.06 18.65c-.4.69-.4 1.54 0 2.23.36.62 1 1.01 1.7 1.08v-4.39c-.7.08-1.34.46-1.7 1.08ZM11.72 17.54v4.39l.91-.01v-4.38h-.91ZM21.48 2.86l-.08-.14c-.14-.21-.34-.41-.59-.53l-.2-.1c-.42-.14-.86-.1-1.23.09s-.66.52-.79.92l-4.44 13.76v5.04h.3c.96 0 1.67-.95 1.98-1.89l5.16-15.94c.13-.4.09-.84-.1-1.21h-.01Z" clip-rule="evenodd"/><path fill="var(--icon-secondary)" d="m9.28 21.97.92-.01v-1.43l-.92.01v1.43ZM5.79 19.98c.03.31.11.62.27.9.36.62 1 1.01 1.7 1.08v-1.4h-.47c-.56 0-1.09-.21-1.5-.58ZM11.72 21.93l.91-.01v-1.44l-.91.02v1.43ZM21.48 2.86l-.08-.14c-.11-.17-.27-.32-.46-.44 0 .12-.03.25-.07.37l-5.16 15.94c-.26.8-.82 1.6-1.57 1.82v1.49h.3c.96 0 1.67-.95 1.98-1.89l5.16-15.94c.13-.4.09-.84-.1-1.21Z"/><path fill="var(--icon-primary)" d="M4.5 15.5a2.5 2.5 0 1 0 0-5 2.5 2.5 0 0 0 0 5Z"/><path fill="var(--icon-secondary)" fill-rule="evenodd" d="M6.56 11.58c.09.27.14.56.14.86a2.78 2.78 0 0 1-2.78 2.78c-.25 0-.49-.04-.73-.1.38.24.83.38 1.31.38a2.5 2.5 0 0 0 2.06-3.92Z" clip-rule="evenodd"/></g><defs><clipPath id="a"><path fill="#fff" d="M2 2h19.66v19.97H2z"/></clipPath></defs></svg>