<svg xmlns="http://www.w3.org/2000/svg" fill="none" viewBox="0 0 24 24"><g clip-path="url(#a)"><path fill="var(--icon-primary)" d="M5.5 6.51h.8L3.81 4.02c-.22.02-.44.07-.64.16L5.5 6.51Z"/><path fill="var(--icon-secondary)" d="M3.17 4.18c-.14.06-.26.14-.38.23L5.5 7.12v-.61L3.17 4.18Z"/><path fill="var(--icon-primary)" d="M18.5 6.51v.12l2.61-2.29c-.17-.11-.37-.2-.57-.25l-2.75 2.43h.72l-.01-.01Z"/><path fill="var(--icon-secondary)" d="M18.5 7.07v.13l2.94-2.59c-.1-.11-.21-.2-.34-.28l-2.61 2.29v.45h.01Z"/><path fill="var(--icon-primary)" d="M20.03 3H3.97c-.79 0-1.54.31-2.1.87S1 5.18 1 5.97V19.5c0 .19.11.37.28.45.17.08.38.06.53-.06l4.33-3.39H5.5v-.77L2 18.48V5.42c0-.53.21-1.02.58-1.4.05-.05.11-.09.16-.13l.07-.07.4-.4.14.14c.2-.07.41-.11.62-.11h16.05c.34 0 .66.1.94.25l.32-.28.4.4.31.31-.3.26c.19.3.3.66.3 1.04v13.06l-3.4-2.64c.16.47.26.96.27 1.47l3.32 2.58c.09.07.2.11.31.11.07 0 .15-.02.22-.05a.5.5 0 0 0 .28-.45V5.98A2.964 2.964 0 0 0 20.03 3Z"/><path fill="var(--icon-primary)" d="m3.35 3.56-.14-.14-.4.4c.16-.11.34-.2.53-.26h.01ZM2.81 3.82l-.07.07s.05-.05.08-.07h-.01ZM21.43 4.04l.26-.22-.4-.4-.32.28c.17.09.33.2.47.34h-.01ZM21.69 3.82l.3.31-.3-.31Z"/><path fill="var(--icon-primary)" d="m21.7 4.39.3-.26-.31-.31-.26.22c.1.1.19.22.27.34v.01ZM6.07 15.51v-2H5.5v-1h.57v-2H5.5v-1h.57V7.69l-.18-.18H5.5v-.3 8.3h.57Z"/><path fill="var(--icon-primary)" d="m5.89 7.51.18.18v-.18h-.18Z"/><path fill="var(--icon-secondary)" d="M6.5 11.21h-.43v1.3h.43v-1.3ZM6.5 7.51l-.31.3-.12-.12v.89h.43V7.51ZM6.5 13.51h-.43v2h.43v-2ZM6.19 7.81l.31-.3-.31.3Z"/><path fill="var(--icon-secondary)" d="M6.5 7.51h-.43v.18l.12.12.31-.3Z"/><path fill="var(--icon-primary)" d="M10.07 7.51H9.5v2h.57v-2ZM10.07 11.37v-.86H9.5v2h.57v-1.14ZM10.07 14.52V13.5H9.5v2c.15-.35.34-.68.57-.98Z"/><path fill="var(--icon-secondary)" d="M10.5 10.51h-.43v.87h.43v-.87ZM10.5 7.51h-.43v2h.43v-2ZM10.07 14v.52c.13-.18.27-.36.43-.52h-.43Z"/><path fill="var(--icon-primary)" d="M14.07 9.51v-2h-.57v2h.57ZM14 12.51h.07v-2h-.57v2h.5Z"/><path fill="var(--icon-secondary)" d="M14.5 7.51h-.43v1.08h.43V7.51ZM14.5 11.21h-.43v1.3h.43v-1.3Z"/><path fill="var(--icon-primary)" d="M18.07 10.51h-.57v2h.57v-2ZM17.5 14c.21.22.4.45.57.7v-1.19h-.57V14ZM17.5 7.51v2h.57V7.58l-.26.23-.31-.3Z"/><path fill="var(--icon-primary)" d="m17.5 7.51.31.3.26-.23v-.07h-.57Z"/><path fill="var(--icon-secondary)" d="M18.07 12.51h.01v.56h.42v-2.56h-.43v2ZM18.07 7.58v1.93h.01v.56h.42V7.51h-.35l-.08.07ZM18.07 14.7c.17.25.31.52.43.81v-2h-.43v1.19ZM18.07 7.58l.08-.07h-.08v.07Z"/><path fill="var(--icon-primary)" d="m17.14 7.07.64-.56H6.3l.57.56h10.27ZM5.5 7.12v.09h.09l-.09-.09Z"/><path fill="var(--icon-primary)" d="m6.87 7.07-.57-.56h-.8l.57.56h.8Z"/><path fill="var(--icon-primary)" d="M6.07 7.21v-.14l-.57-.56v.61l.09.09h.48ZM17.99 7.07l.51-.44v-.12h-.72l-.64.56h.85Z"/><path fill="var(--icon-primary)" d="M18.5 7.07v-.44l-.51.44h.51ZM5.89 7.51l-.3-.3H5.5v.3h.39Z"/><path fill="var(--icon-primary)" d="M6.07 7.21h-.48l.3.3h.18v-.3Z"/><path fill="var(--icon-secondary)" d="M9.5 7.21h1v.3h3v-.3h1v.3h3l-.4-.41.04-.03H6.87l.03.03-.4.41h3v-.3ZM18.5 7.21V7.2l-.01.01h.01Z"/><path fill="var(--icon-secondary)" d="M6.5 7.21v.3l.4-.41-.03-.03h-.8l.13.14h.3ZM6.07 7.07v.14h.13l-.13-.14ZM17.1 7.1l.4.41v-.3h.34l.15-.14h-.85l-.04.03Z"/><path fill="var(--icon-secondary)" d="m17.99 7.07-.15.14h.65l.01-.01v-.13h-.51ZM6.5 7.21h-.3l.3.3v-.3Z"/><path fill="var(--icon-secondary)" d="m6.5 7.51-.3-.3h-.13v.3h.43ZM10.07 7.21H9.5v.3h.57v-.3ZM10.5 7.21h-.43v.3h.43v-.3ZM14.07 7.21h-.57v.3h.57v-.3ZM14.5 7.21h-.43v.3h.43v-.3ZM17.5 7.51l.34-.3h-.34v.3Z"/><path fill="var(--icon-secondary)" d="M18.07 7.51v-.3h-.23l-.34.3h.57ZM18.15 7.51h.35v-.3h-.01l-.34.3Z"/><path fill="var(--icon-secondary)" d="m18.15 7.51.34-.3h-.42v.3h.08Z"/><path fill="var(--icon-primary)" d="M13.5 9.51h-3v.57h3v-.57ZM17.5 9.51h-3v.57h3v-.57ZM9.5 9.51h-3v.57h3v-.57ZM6.07 9.51H5.5v1h.57v-1ZM10.07 9.51H9.5v.57h.57v-.57ZM10.5 9.51h-.43v.57h.43v-.57ZM14.07 9.51h-.57v.57h.57v-.57ZM18.07 9.51h-.57v.57h.57v-.57Z"/><path fill="var(--icon-primary)" d="M18.08 9.51h-.01v.57h.01v-.57Z"/><path fill="var(--icon-secondary)" d="M18.08 10.51h-.01.43v-.44h-.42v.44ZM13.5 10.07h-3v.43h3v-.43ZM9.5 10.07h-3v.43h3v-.43ZM17.5 10.07h-3v.43h3v-.43ZM10.07 10.07H9.5v.43h.57v-.43ZM10.5 10.07h-.43v.43h.43v-.43ZM14.07 10.07h-.57v.43h.57v-.43ZM18.07 10.07h-.57v.43h.57v-.43Z"/><path fill="var(--icon-secondary)" d="M18.08 10.07h-.01v.43h.01v-.43Z"/><path fill="var(--icon-primary)" d="M13.5 12.51h-3v.57h1.26c.53-.28 1.11-.45 1.74-.52v-.05ZM14.5 12.56c.62.06 1.21.24 1.74.52h1.26v-.57h-3v.05ZM9.5 12.51h-3v.57h3v-.57ZM6.07 12.51H5.5v1h.57v-1ZM6.5 12.51h-.43v.57h.43v-.57ZM10.07 12.51H9.5v.57h.57v-.57ZM13.5 12.51v.05c.17-.02.33-.05.5-.05h-.5ZM14.07 12.51c.15 0 .29.03.43.04v-.05h-.43v.01ZM18.07 12.51h-.57v.57h.57v-.57Z"/><path fill="var(--icon-primary)" d="M18.08 12.51h-.01v.57h.01v-.57Z"/><path fill="var(--icon-secondary)" d="M18.08 13.51h-.01.43v-.44h-.42v.44ZM16.93 13.51h.57v-.43h-1.26c.24.13.48.27.69.43ZM9.5 13.07h-3v.43h3v-.43ZM11.76 13.07H10.5v.43h.57c.22-.16.45-.31.69-.43ZM6.5 13.07h-.43v.43h.43v-.43ZM10.07 13.07H9.5v.43h.57v-.43Z"/><path fill="var(--icon-secondary)" d="M18.07 13.07h-.57v.43h.57v-.43Z"/><path fill="var(--icon-secondary)" d="M18.08 13.07h-.01v.43h.01v-.43Z"/><path fill="var(--icon-primary)" d="M6.29 15.75c.07.1.1.21.1.32h2.94c.05-.19.1-.39.18-.57h-4v.23l.09-.07c.22-.17.53-.13.7.08l-.01.01Z"/><path fill="var(--icon-primary)" d="M6.29 15.75a.487.487 0 0 0-.7-.08l-.09.07v.34h.89a.47.47 0 0 0-.1-.32v-.01Z"/><path fill="var(--icon-secondary)" d="M6.39 16.07c0 .14-.06.28-.18.38l-.07.05h3.08c.03-.15.07-.29.11-.43H6.39Z"/><path fill="var(--icon-secondary)" d="M6.39 16.07H5.5v.43h.64l.07-.05c.12-.1.18-.24.18-.38ZM10.5 13.51h-.43v.5h.43v-.5ZM10.5 11.37h-.43v1.13h.43v-1.13ZM10.5 12.51h-.43v.57h.43v-.57Z"/><path fill="var(--icon-secondary)" d="M10.5 13.07h-.43v.43h.43v-.43ZM14.5 8.58h-.43v.92h.43v-.92ZM14.5 10.51h-.43v.7h.43v-.7ZM14.5 9.51h-.43v.57h.43v-.57Z"/><path fill="var(--icon-secondary)" d="M14.5 10.07h-.43v.43h.43v-.43ZM6.5 10.51h-.43v.7h.43v-.7ZM6.5 8.58h-.43v.92h.43v-.92ZM6.5 9.51h-.43v.57h.43v-.57Z"/><path fill="var(--icon-secondary)" d="M6.5 10.07h-.43v.43h.43v-.43ZM22 5.98v-.55c0-.38-.11-.74-.3-1.04l-.25.22c.34.36.56.84.56 1.37H22ZM3.97 4h16.05c.18 0 .34.04.51.08l.43-.38c-.28-.15-.6-.25-.94-.25H3.97c-.22 0-.42.04-.62.11l.46.46c.05 0 .11-.02.16-.02ZM2.79 4.41l-.28-.28.23-.23c-.05.04-.11.08-.16.13-.37.37-.58.87-.58 1.4v.55c0-.53.21-1.02.58-1.4.06-.06.14-.12.21-.17Z"/><path fill="var(--icon-secondary)" d="M3.17 4.18c.2-.09.42-.14.64-.16l-.46-.46c-.19.06-.37.15-.53.27l.35.35ZM2.79 4.41c.12-.09.25-.17.38-.23l-.35-.35s-.05.04-.08.07l-.23.23.28.28ZM21.11 4.33l.32-.29c-.14-.14-.3-.25-.47-.34l-.43.38c.2.06.4.14.57.25h.01Z"/><path fill="var(--icon-secondary)" d="M21.11 4.33c.12.08.23.17.34.28l.25-.22c-.08-.12-.16-.24-.27-.34l-.32.29v-.01Z"/><path fill="var(--icon-primary)" d="m10.13 18.25.55-.72v-.02c.02-.75.25-1.58.43-2.07l-.38-.51c-.18.18-.34.35-.48.56l-.25.37c-.18.48-.29.99-.29 1.54v.05l.09.24c.09.23.21.44.3.58l.03-.02ZM10.84 20.09c-.54-.62-.74-1.27-.81-1.52 0-.01-.01-.03-.02-.04-.06-.08-.13-.16-.19-.27.16.79.54 1.5 1.08 2.07 0-.06-.02-.12-.03-.17a.09.09 0 0 0-.03-.07ZM16.82 14.45c-.02.32-.09.71-.21 1.01v.03c.5.79.72 1.52.8 1.8.36.13.64.27.8.36l.1-.33.07-.26c-.06-.77-.31-1.48-.71-2.09l-.19-.14c-.23-.16-.43-.31-.65-.39l-.01.01ZM13.29 13.32c.68-.22 1.66-.13 1.95-.09v-.02c-.37-.11-.76-.17-1.18-.17-.63 0-1.23.14-1.76.38.23-.04.59-.09.97-.1h.02ZM12.9 20.86c-.27-.14-.51-.28-.7-.43h-.02c-.24-.02-.67-.06-1.03-.16.01.08.03.17.06.27l.03.12c.76.65 1.74 1.05 2.82 1.05-.04-.19-.07-.34-.08-.43-.43-.12-.79-.26-1.1-.42h.02ZM14.48 17.94s-.03-.01-.04-.01h-.04c-.41.21-1.21.61-1.94.91-.09.54-.09 1.09-.08 1.36 0 .03.01.05.03.06.47.34 1.06.63 1.66.79h.06c.49-.11 1.2-.38 1.5-.56.01 0 .03-.02.03-.04.16-.42.3-1.08.33-1.59 0-.01 0-.03-.02-.03l-1.5-.9.01.01ZM14.33 17.66l.22-1.84v-.02c-.39-.28-1.1-.8-1.58-1.12h-.04c-.36.14-1.19.59-1.52.78-.02 0-.03.02-.03.04-.09.25-.18.55-.25.86-.11.47-.14.87-.15 1.13.2.17.87.74 1.39 1.11.75-.29 1.55-.69 1.96-.91 0 0 .02-.01.02-.02l-.02-.01ZM15.33 13.48s-.04-.02-.06-.02c-.46-.07-1.3-.05-1.85.09-.08.21-.23.64-.29.93.47.31 1.49 1.05 1.61 1.14h.02c.21-.03 1.09-.17 1.58-.24.02 0 .03-.01.04-.03.11-.31.19-.68.19-.96a.09.09 0 0 0-.04-.08c-.31-.27-.96-.68-1.2-.83ZM18.17 17.96v-.03c-.15-.08-.44-.24-.81-.36L16.3 18.8s-.02.04-.02.06c-.01.23-.05.52-.11.81-.06.31-.15.63-.23.86.17.08.5.14.82.17h.09c.61-.5 1.07-1.17 1.33-1.94v-.79l-.01-.01Z"/><path fill="#000" d="m18.32 17.32.07-.26c-.06-.77-.31-1.48-.71-2.09h-.02c.14.45.23.93.23 1.44 0 .35-.04.69-.11 1.03.19.08.35.16.45.22l.1-.33-.01-.01ZM14.07 21.71c-.04-.19-.07-.34-.08-.43-.1-.03-.19-.06-.28-.09-.22.03-.44.05-.66.05-.43 0-.84-.06-1.24-.17.66.4 1.43.64 2.26.64ZM16.76 20.7h.09c.61-.5 1.07-1.17 1.33-1.94V17.94c-.1-.06-.26-.14-.47-.23-.28 1-.87 1.88-1.67 2.51-.03.12-.07.23-.1.33.17.08.5.14.82.17v-.02Z" opacity=".25"/></g><defs><clipPath id="a"><path fill="#fff" d="M1 3h22v18.71H1z"/></clipPath></defs></svg>