<svg xmlns="http://www.w3.org/2000/svg" fill="none" viewBox="0 0 24 24"><g clip-path="url(#a)"><path fill="var(--icon-primary)" d="M20.8 8.04s.57 1.84.42 2.24c-.15.4-1.32.58-1.32.58l-.82-.22-.05-.71.58-.42.36.18.22-.03-.85-1.73 1.16-.58.3.68v.01ZM20.47 14.61l-1.68 6.33-1.22-.13 1-5.26a.527.527 0 0 0-.22-.58l-2.17-1.53 1.54-1.84 2.52 2.22c.23.19.32.5.23.78v.01Z"/><path fill="var(--icon-secondary)" d="M20.92 21.56H17.5c-.23 0-.3-.22-.3-.54 0-.32.2-.62.45-.62l1.27.09c1.48.26 2.3.54 2.3.77a.3.3 0 0 1-.3.3Z"/><path fill="var(--icon-primary)" d="m9.54 15.04-5.47-1.07.79-1 4.08.33c.23.04.45-.07.55-.28l1.2-1.6 1.94 1.76-2.18 1.6c-.37.26-.61.3-.9.24l-.01.02ZM20.51 4.69l-.71 1.55-1.35-.62.72-1.55 1.34.62Z"/><path fill="var(--icon-secondary)" d="m2.05 15.02 1.93-2.82c.13-.19.36-.12.61.05.25.17.4.52.26.72l-.79 1c-1.05 1.08-1.74 1.6-1.93 1.47-.14-.09-.17-.28-.08-.42ZM20.03 5.73l-.15.33c-.8-.16-1.03-1.3-1.03-1.3-.11-.07-1.23-.39-1.8-.38-.8.02-1.38.51-1.55.66l.93 1.21-.27.15-.96-.97-.9 2.3v.02h-.01c-1.18 1.44-1.61.19-3.45 3.34l2.22 2.04.32-.24.39-.33-1.2-1.76 2.92 2.73 1.89-2.22-.99-.94 2.39-2h.01l.97.32 1.04-.65-.77-2.32v.01Z"/><path fill="var(--icon-primary)" d="M18.59 10.87a1.87 1.87 0 1 0 0-3.74 1.87 1.87 0 0 0 0 3.74Z"/><path fill="#000" fill-rule="evenodd" d="M20.13 7.94c.07.2.1.42.1.64a2.078 2.078 0 0 1-2.62 2.01c.29.18.62.28.98.28 1.03 0 1.87-.84 1.87-1.87 0-.39-.12-.76-.33-1.06Z" clip-rule="evenodd"/><path fill="var(--icon-primary)" d="m19.08 10.64.11-1.06.57-.39.69.68-.17.75-.37.24-.83-.22ZM16.17 6.4l-.66.45 1.6 2 .49.08.88.67-.15.79-.95.31-.68-.59-.19-.68s-2.59-2.04-2.54-2.53c.05-.53 1.3-1.66 1.3-1.66l.9 1.15v.01ZM20.71 5.26a1.63 1.63 0 1 0 0-3.26 1.63 1.63 0 0 0 0 3.26Z"/><path fill="var(--icon-secondary)" fill-rule="evenodd" d="M22.05 2.71a1.82 1.82 0 0 1-2.2 2.32c.25.15.54.25.86.25a1.63 1.63 0 0 0 1.34-2.56v-.01Z" clip-rule="evenodd"/></g><defs><clipPath id="a"><path fill="#fff" d="M2 2h20.34v19.56H2z"/></clipPath></defs></svg>