<svg  viewBox="0 0 24 24" fill="none" xmlns="http://www.w3.org/2000/svg">
<path fill-rule="evenodd" clip-rule="evenodd" d="M19.5182 4.14323L18.5136 7.78558C18.8297 8.21027 19.0428 8.60221 19.1741 8.9307L24 11.8279L19.4269 14.5739L19.3469 14.7323L19.1555 15.0869L18.9071 15.5194L18.7413 15.7974L19.9017 19.5736L16.1206 18.5745C16.082 18.5957 16.0417 18.6173 15.9995 18.6395L15.7254 18.779L15.2036 19.0278L14.8102 19.2062L11.9348 24L9.3592 19.2035C9.26818 19.1592 9.17099 19.1079 9.06681 19.0494L8.73247 18.8529L8.29016 18.5736L8.02767 18.4001L4.16975 19.3161L5.43174 15.7323C5.36489 15.6119 5.29958 15.4814 5.23489 15.341C5.13628 15.1272 5.04464 14.902 4.96127 14.6773L0 11.8173L5.04238 8.99468C5.05494 8.95545 5.06832 8.91598 5.08249 8.87625L5.17332 8.6433C5.23925 8.48693 5.31566 8.32854 5.40075 8.16869C5.47738 8.02475 5.55378 7.89216 5.62536 7.77484L4.48798 3.70678L8.26831 5.30918C8.53818 5.20169 8.77726 5.10362 8.98554 5.01566L9.07992 4.97561L12.0366 0L14.8451 4.75683C14.9662 4.80645 15.0912 4.86802 15.2231 4.9404C15.3257 4.99674 15.4309 5.05913 15.5381 5.12665C15.6265 5.18228 15.7107 5.23764 15.7891 5.29084L19.5182 4.14323ZM20.7258 11.8281L17.7317 10.0306L17.6455 9.69908C17.5867 9.47294 17.3754 9.03605 16.9312 8.51288L16.645 8.17586L17.0635 6.65865L15.4631 7.15115L15.1129 6.88144C15.008 6.80064 14.8277 6.6714 14.626 6.54444L14.509 6.47289L14.3989 6.40991L14.2543 6.33598L14.139 6.28891L13.7446 6.22494L12.0319 3.32411L10.2703 6.28861L10.0277 6.39878L9.65249 6.56129L9.04453 6.81142L8.24331 7.12692L7.06742 6.62849L7.47092 8.0717L7.24085 8.3962C7.16152 8.5081 7.03216 8.71074 6.90385 8.95176C6.81195 9.12441 6.73679 9.28885 6.68441 9.43564C6.6502 9.53154 6.62724 9.61578 6.61599 9.68398L6.55036 10.0815L3.41128 11.8387L6.36864 13.5435L6.46834 13.85C6.53105 14.0428 6.64387 14.3473 6.7805 14.6436C6.87868 14.8566 6.97268 15.025 7.04582 15.1207L7.31973 15.4793L6.79691 16.964L8.37463 16.5894L8.68913 16.8099C8.87 16.9367 9.15773 17.1309 9.46398 17.3233L9.85537 17.559C10.0332 17.6605 10.1678 17.728 10.2265 17.7465L10.5563 17.8505L12.0167 20.5702L13.6273 17.885L13.8787 17.7767L14.4835 17.5057L14.7918 17.3606L15.1996 17.1567L15.3801 17.0579L15.4961 16.9859L15.8219 16.7561L17.3875 17.1698L16.8938 15.5631L17.0965 15.2398C17.1695 15.1232 17.2656 14.9664 17.3706 14.7898L17.5883 14.4163L17.7501 14.1258L17.8855 13.8666L17.9778 13.6681L18.0842 13.4142L20.7258 11.8281Z" fill="var(--icon-primary)"/>
<path fill-rule="evenodd" clip-rule="evenodd" d="M14.5897 15.0659C14.5897 15.0659 13.6287 15.8831 12.3849 15.9623C12.3849 15.9623 10.2183 16.2521 9.46219 15.2243L12.1344 14.8122C12.1344 14.8122 15.6442 13.6875 13.4619 10.0011L13.3587 9.73746L13.1545 9.7905C13.1545 9.7905 12.026 9.39535 11.0515 10.4232C11.0515 10.4232 10.5003 11.398 11.2055 12.0592C11.2055 12.0592 11.5899 12.2837 11.5645 11.8478L11.5974 11.2489C11.5974 11.2489 13.6332 10.2033 13.0513 12.9571C13.0513 12.9571 11.7821 14.2495 10.4359 13.4315C10.4359 13.4315 8.73076 11.8747 9.0516 10.6354L9 10.0035L10.1286 9.00173L11.6154 8.10532L12.1284 8.21065L12.5899 8L12.8464 8.31674L14.4259 8.50663C14.4259 8.50663 17.8557 11.8339 14.5897 15.0659Z" fill="var(--icon-primary)"/>
</svg>
