<svg xmlns="http://www.w3.org/2000/svg" fill="none" viewBox="0 0 24 24"><g clip-path="url(#a)"><path fill="var(--icon-secondary)" fill-rule="evenodd" d="M9.48 20.79h-.23l.28.1c2.05.59 4.28.47 6.29-.42a9.747 9.747 0 0 0 4.41-4.06l.11-.2-2.84-3.12-.04.18c-.07.29-.14.59-.23.89l-.14.45c-1.22 3.6-3.68 5.94-7.6 6.17l-.01.01Z" clip-rule="evenodd"/><path fill="var(--icon-secondary)" d="M12.1 22c-3.41 0-6.55-2.33-6.55-2.33s.76.37 3.89.37 5.73-2.11 6.93-5.66l.14-.44c.08-.27.15-.55.22-.83l.33-1.61 4.2 4.61-.37.67c-1.1 1.94-2.75 3.45-4.76 4.38-1.28.57-2.65.85-4.03.85V22Zm5.77-7.38-.07.23c-.87 2.56-2.29 4.42-4.19 5.52.65-.12 1.29-.31 1.91-.58a8.957 8.957 0 0 0 3.9-3.46l-1.55-1.7v-.01Z"/><path fill="var(--icon-secondary)" fill-rule="evenodd" d="m20.95 9.87.12.19-.07-.28a9.214 9.214 0 0 0-3.51-5.24 9.875 9.875 0 0 0-5.72-1.8h-.22l-1.28 4.03.17-.06c.29-.09.59-.17.89-.25l.46-.1c3.73-.74 6.98.22 9.15 3.5l.01.01Z" clip-rule="evenodd"/><path fill="var(--icon-secondary)" d="M20.69 7c1.71 2.96 1.26 6.84 1.26 6.84s-.06-.84-1.63-3.56c-1.57-2.72-4.69-3.91-8.37-3.17l-.45.1c-.27.07-.55.14-.83.23l-1.56.52L11 2.02l.76-.02c2.23-.02 4.36.65 6.17 1.93A9.85 9.85 0 0 1 20.68 7h.01Zm-9.28-1.31.23-.05c2.65-.53 4.97-.23 6.88.87-.43-.51-.92-.96-1.46-1.36a8.97 8.97 0 0 0-4.95-1.65l-.7 2.19Z"/><path fill="var(--icon-primary)" fill-rule="evenodd" d="m5.68 5.41.11-.2-.21.2a9.181 9.181 0 0 0-2.78 5.66c-.19 2.04.27 4.09 1.3 5.85l.12.19 4.12-.9-.14-.12c-.22-.2-.44-.42-.66-.65l-.32-.35c-2.51-2.86-3.3-6.16-1.54-9.67v-.01Z" clip-rule="evenodd"/><path fill="var(--icon-secondary)" d="M3.32 7.08c1.71-2.96 5.3-4.51 5.3-4.51s-.7.47-2.27 3.19c-1.57 2.71-1.04 6.01 1.44 8.84l.31.34c.19.2.4.41.61.6l1.23 1.09-6.09 1.33-.39-.65a10.467 10.467 0 0 1-1.41-6.32c.15-1.39.59-2.72 1.28-3.92l-.01.01Zm3.51 8.68-.16-.18c-1.78-2.03-2.68-4.19-2.68-6.39a8.55 8.55 0 0 0-.45 1.94c-.16 1.78.2 3.54 1.05 5.11l2.24-.49v.01Z"/><path fill="var(--icon-primary)" fill-rule="evenodd" d="m5.68 5.41.11-.2-.21.2a9.181 9.181 0 0 0-2.78 5.66c-.19 2.04.27 4.09 1.3 5.85l.12.19 4.12-.9-.14-.12c-.22-.2-.44-.42-.66-.65l-.32-.35c-2.51-2.86-3.3-6.16-1.54-9.67v-.01ZM9.48 20.79h-.23l.28.1c2.05.59 4.28.47 6.29-.42a9.747 9.747 0 0 0 4.41-4.06l.11-.2-2.84-3.12-.04.18c-.07.29-.14.59-.23.89l-.14.45c-1.22 3.6-3.68 5.94-7.6 6.17l-.01.01ZM20.95 9.87l.12.19-.07-.28a9.214 9.214 0 0 0-3.51-5.24 9.875 9.875 0 0 0-5.72-1.8h-.22l-1.28 4.03.17-.06c.29-.09.59-.17.89-.25l.46-.1c3.73-.74 6.98.22 9.15 3.5l.01.01Z" clip-rule="evenodd"/></g><defs><clipPath id="a"><path fill="#fff" d="M2 2h20v20H2z"/></clipPath></defs></svg>