<svg xmlns="http://www.w3.org/2000/svg" fill="none" viewBox="0 0 24 24"><g clip-path="url(#a)"><path stroke="var(--icon-secondary)" stroke-linecap="round" stroke-linejoin="round" stroke-width="1.11" d="M7.56 15.98v3.2M16.47 15.98v3.2"/><path fill="var(--icon-primary)" d="M20.33 18.67H3.67a1.67 1.67 0 0 0 0 3.34h16.66a1.67 1.67 0 0 0 0-3.34Z"/><path fill="var(--icon-secondary)" fill-rule="evenodd" d="M20.33 21.3H3.67c-.8 0-1.47-.56-1.63-1.32-.02.11-.04.23-.04.35 0 .92.75 1.67 1.67 1.67h16.66c.92 0 1.67-.75 1.67-1.67 0-.12-.01-.24-.04-.35-.16.75-.83 1.32-1.63 1.32Z" clip-rule="evenodd"/><path fill="var(--icon-primary)" d="M7.01 9.1V6.68c0-1.09.88-1.97 1.97-1.97h2.33l-.34-2.39a.374.374 0 0 0-.45-.31L4.24 3.35c-.66.14-1.13.72-1.13 1.39v8.3c0 1.85 1.5 3.35 3.35 3.35h12.56a1.9 1.9 0 0 0 1.9-1.87c0-.31-.03-.62-.09-.92h-9.31c-2.49 0-4.51-2.02-4.51-4.51v.01Z"/><path fill="var(--icon-primary)" d="M8.12 6.67V9.1c0 1.87 1.52 3.4 3.4 3.4h8.95a4.774 4.774 0 0 0-4.33-2.78h-4.12l-.08-.56h-1.59a.56.56 0 1 1 0-1.12h1.43l-.32-2.23H8.97a.85.85 0 0 0-.85.85v.01Z"/><path fill="var(--icon-secondary)" d="M9.79 8.6c0 .31.25.56.56.56h1.59l-.16-1.11h-1.43c-.31 0-.56.25-.56.56V8.6Z"/><path fill="var(--icon-secondary)" fill-rule="evenodd" d="M20.83 13.6a1.9 1.9 0 0 1-1.89 1.85H6.37c-1.6 0-2.93-1.12-3.26-2.62v.21c0 1.85 1.5 3.35 3.35 3.35h12.56a1.9 1.9 0 0 0 1.9-1.9c0-.31-.04-.6-.09-.9v.01Z" clip-rule="evenodd"/></g><defs><clipPath id="a"><path fill="#fff" d="M2 2h20v20.01H2z"/></clipPath></defs></svg>