<svg xmlns="http://www.w3.org/2000/svg" fill="none" viewBox="0 0 24 24"><g clip-path="url(#a)"><path fill="var(--icon-primary)" d="m14.83 6.25-1.54-.47.02-2.9.36-.35.21-.66c.08-.24.01-.5-.17-.68a.662.662 0 0 0-.66-.16l-.22.06c-.22.07-.4.25-.45.48l-.08.31c-.03.13-.03.26.02.38l.17.47s-.88 3.11-.65 3.56c.24.47 2.57 1.36 2.57 1.36l.41-1.4h.01ZM19.13 10.45l.38 1.28 2.16 2.9.5.06.57.4a.666.666 0 0 1-.14 1.17l-.21.08c-.22.08-.47.04-.65-.1l-.25-.2a.66.66 0 0 1-.22-.32l-.15-.48-2.77-2.66c-.15-.15-.25-.34-.29-.54l-.24-1.18 1.32-.42-.01.01ZM18.72 16.75l-1.27 5.63-1.22-.13.59-4.55a.527.527 0 0 0-.22-.58l-2.27-1.63 1.54-1.84 2.62 2.32c.23.19.32.5.23.78Z"/><path fill="var(--icon-secondary)" d="M19.58 23h-3.42c-.23 0-.3-.22-.3-.54 0-.32.2-.62.45-.62l1.27.09c1.48.26 2.3.54 2.3.77a.3.3 0 0 1-.3.3Z"/><path fill="var(--icon-primary)" d="m8.2 17.48-5.47-1.07.79-1 4.08.33c.23.04.45-.07.55-.28l1.57-2.15 1.94 1.76-2.56 2.15c-.37.26-.61.3-.9.24v.02ZM19.39 7.06l-1 1.58-1.35-.76 1-1.44 1.35.62Z"/><path fill="var(--icon-secondary)" d="m1.05 17.46 1.93-2.82c.13-.19.36-.12.61.05.25.17.4.52.26.72l-.79 1c-1.05 1.08-1.74 1.6-1.93 1.47-.14-.09-.17-.28-.08-.42ZM18.69 8.16l-.18.27c-.8-.16-1-1.25-1-1.25-.11-.07-.88-.37-1.51-.55-.75-.22-1.64-.55-1.64-.55l-.46 1.66.53.38-1.46 2.05v.02h-.01c-1.18 1.44-1.61.19-3.45 3.34l2.22 2.04.32-.24.5-.42-1.31-1.67 2.92 2.73 1.89-2.22-.99-.94 2.31-1.92.17-.17.27.82 1.58-.79-.69-2.58-.01-.01Z"/><path fill="var(--icon-primary)" d="M19.5 7.5a1.63 1.63 0 1 0 0-3.26 1.63 1.63 0 0 0 0 3.26Z"/><path fill="var(--icon-secondary)" fill-rule="evenodd" d="M20.84 4.95a1.82 1.82 0 0 1-2.2 2.32c.25.15.54.25.86.25a1.63 1.63 0 0 0 1.34-2.56v-.01Z" clip-rule="evenodd"/></g><defs><clipPath id="a"><path fill="#fff" d="M1 1h22.02v22H1z"/></clipPath></defs></svg>