<svg xmlns="http://www.w3.org/2000/svg" fill="none" viewBox="0 0 24 24"><g clip-path="url(#a)"><path fill="var(--icon-primary)" fill-rule="evenodd" d="M11.76 4.61 15.45 1l7.56 7.72-6.19 6.16c-.61.61-1.61.61-2.22 0l-2.1-2.3" clip-rule="evenodd"/><path fill="var(--icon-secondary)" fill-rule="evenodd" d="M17.35 14.35c-1.97-1.97-.72-5.53-.72-5.53l-4.87-4.21-.38 4.59 1.12 3.38 2.1 2.3c.61.61 1.61.61 2.22 0l.53-.53Z" clip-rule="evenodd"/><path fill="var(--icon-secondary)" d="M15.93 23a.56.56 0 0 1-.4-.17L1.17 8.46a.567.567 0 0 1 0-.8c.22-.22.58-.22.8 0l14.36 14.37c.22.22.22.58 0 .8-.11.11-.26.17-.4.17Z"/><path fill="var(--icon-primary)" d="m3.022 7.73 5.36-5.36a1.261 1.261 0 0 1 1.782 0l6.456 6.456-6.251 6.25L3.022 7.73Z"/></g><defs><clipPath id="a"><path fill="#fff" d="M1 1h22.01v22H1z"/></clipPath></defs></svg>