<svg xmlns="http://www.w3.org/2000/svg" fill="none" viewBox="0 0 24 24"><g clip-path="url(#a)"><path fill="var(--icon-secondary)" d="m9.254 17.42 1.204.462L8.992 21.7a.638.638 0 0 1-.827.368.638.638 0 0 1-.368-.827l1.466-3.818-.01-.004ZM10.699 12.008l2.315.889-1.645 4.285a.627.627 0 0 1-.814.362l-1.139-.437a.627.627 0 0 1-.362-.814l1.645-4.285ZM10.59 7.992l5.191 1.993-.78 2.035c-.216.56-.849.842-1.41.627l-3.155-1.211a1.093 1.093 0 0 1-.627-1.408l.782-2.036Z"/><path fill="var(--icon-primary)" d="M11.264 7.8s-.5-1.07-.138-2.012c.642-1.671 2.443-1.815 3.066-2.797.347-.542.397-1.09.377-1.484a.25.25 0 0 1 .392-.213c.84.633 2.449 2.16 2.02 4.31.543-.327.896.847.212 2.127-.684 1.28-1.752 1.663-1.752 1.663l-4.174-1.602-.003.009Z"/><path fill="var(--icon-secondary)" d="M14.31 5.029c.046-.122.215-.143.293-.038.461.584 1.093 2.176.807 2.977-.327.935-.763 1.121-.763 1.121l-2.604-1s-.029-.707.118-1.09c.39-1.017 1.608-.785 2.14-1.974l.009.004Z"/></g><defs><clipPath id="a"><path fill="#fff" d="m13.126.579 5.975 2.293-7.827 20.39L5.3 20.968z"/></clipPath></defs></svg>