<svg xmlns="http://www.w3.org/2000/svg" fill="none" viewBox="0 0 24 24"><g clip-path="url(#a)"><path fill="var(--icon-secondary)" d="m19.46 3.91-2.07 2.41A7.789 7.789 0 0 1 19.84 12c0 1.39-.36 2.69-.99 3.82l-4.27-4.09-2.13-4.6v6.99l4.3 4.11a7.825 7.825 0 0 1-9.48 0l4.31-4.11V7.13l-2.13 4.6-4.27 4.09a7.82 7.82 0 0 1-1-3.82c0-2.24.94-4.26 2.45-5.68L4.56 3.91C2.37 5.92 1 8.81 1 12.01c0 6.08 4.93 11.01 11.01 11.01s11.01-4.93 11.01-11.01c0-3.2-1.37-6.08-3.55-8.09l-.01-.01Z"/><path fill="var(--icon-primary)" d="M12.01 4.18c1.82 0 3.49.62 4.81 1.66l2.07-2.41A10.938 10.938 0 0 0 12 1.01c-2.61 0-5 .91-6.89 2.42l2.07 2.41c1.33-1.04 3-1.66 4.81-1.66h.02Z"/></g><defs><clipPath id="a"><path fill="#fff" d="M1 1h22.01v22.01H1z"/></clipPath></defs></svg>