<svg xmlns="http://www.w3.org/2000/svg" fill="none" viewBox="0 0 24 24"><g clip-path="url(#a)"><path fill="var(--icon-primary)" d="m4.998 21.838-1.846-1.846a1.26 1.26 0 0 0-1.781 1.782l1.845 1.845a1.26 1.26 0 0 0 1.782-1.781ZM22.05 2.94c-1.39-1.32-3.62-1.25-4.84.25L7.34 14.65l2.92 2.92L21.8 7.78c1.5-1.22 1.64-3.51.25-4.84ZM5.49 16.92l2.47 2.48 1.48-1.18-2.76-2.76-1.19 1.46ZM3.46 19.4l2 2 1.69-1.35-2.33-2.32-1.36 1.67Z"/><path fill="var(--icon-secondary)" d="m4.99 21.83-.79-.79c.49.49.49 1.29 0 1.78s-1.29.49-1.78 0l.79.79c.49.49 1.29.49 1.78 0s.49-1.29 0-1.78ZM21.01 6.98 9.47 16.77l.79.79L21.8 7.77c1.5-1.22 1.64-3.51.25-4.84-.11-.11-.24-.19-.36-.28.91 1.34.64 3.25-.68 4.33ZM8.65 17.43l-1.47 1.18.78.79 1.48-1.18M7.15 20.05l-.79-.78-1.69 1.34.79.79 1.69-1.35Z"/><path fill="var(--icon-primary)" d="M19.36 22.99a2.64 2.64 0 1 0 0-5.28 2.64 2.64 0 0 0 0 5.28Z"/><path fill="var(--icon-secondary)" fill-rule="evenodd" d="M21.53 18.85a2.945 2.945 0 0 1-3.57 3.74 2.637 2.637 0 0 0 3.56-3.74h.01Z" clip-rule="evenodd"/></g><defs><clipPath id="a"><path fill="#fff" d="M1 2h22.01v21.98H1z"/></clipPath></defs></svg>