<svg xmlns="http://www.w3.org/2000/svg" fill="none" viewBox="0 0 24 24"><g clip-path="url(#a)"><path fill="var(--icon-primary)" fill-rule="evenodd" d="M12 1C5.92 1 1 5.92 1 12s4.92 11 11 11 11-4.92 11-11S18.08 1 12 1Zm0 17c-3.31 0-6-2.69-6-6s2.69-6 6-6 6 2.69 6 6-2.69 6-6 6Z" clip-rule="evenodd"/><path fill="var(--icon-secondary)" d="M11.99 15.57c-1.6 0-2.52-.71-2.52-1.99v-.28c0-.8.39-1.24.75-1.46.07-.04.06-.1 0-.15-.32-.2-.63-.64-.63-1.26v-.22c0-1.17.95-1.88 2.4-1.88h.02c1.45 0 2.4.71 2.4 1.88v.22c0 .62-.31 1.06-.63 1.26-.06.05-.07.11 0 .15.36.22.75.66.75 1.46v.28c0 1.28-.92 1.99-2.52 1.99h-.02Zm.6-2.05V13c0-.31-.22-.5-.59-.5s-.59.19-.59.5v.52c0 .32.22.51.59.51s.59-.19.59-.51Zm-.03-2.85v-.43c0-.33-.22-.51-.56-.51-.34 0-.57.18-.57.51v.43c0 .33.23.51.57.51.34 0 .56-.18.56-.51Z"/><path fill="var(--icon-secondary)" fill-rule="evenodd" d="M22.83 10.16c-.21 6.15-5.25 11.08-11.46 11.08-4.02 0-7.55-2.07-9.6-5.2C3.38 20.11 7.35 23 11.99 23c6.08 0 11-4.92 11-11 0-.63-.06-1.24-.17-1.84h.01Z" clip-rule="evenodd"/></g><defs><clipPath id="a"><path fill="#fff" d="M1 1h22v22H1z"/></clipPath></defs></svg>