<svg xmlns="http://www.w3.org/2000/svg" fill="none" viewBox="0 0 24 24"><g clip-path="url(#a)"><path fill="var(--icon-primary)" d="M19.9 7.39c.22-.08.35-.31.29-.54C19.55 4.47 17.65 1 12 1 6.35 1 4.45 4.46 3.81 6.85c-.06.23.06.46.29.54 1.68.58 4.56 1.36 7.9 1.36 3.34 0 6.22-.78 7.9-1.36Z"/><path fill="var(--icon-primary)" fill-rule="evenodd" d="m20.51 8.62-.02-.4c-1.76.63-4.84 1.49-8.5 1.49s-6.73-.86-8.5-1.49l-.02.4-1.14 1.14c-.22.22-.35.52-.35.84v3.95c0 2.02 4.69 3.66 10 3.66s10-1.64 10-3.66V10.6c0-.31-.13-.62-.35-.84l-1.14-1.14h.02Zm-3.49 5.77c-2.44.62-3.1.69-5.02.69-1.92 0-2.57-.07-5.02-.69-2.44-.62-1.28-3.59.55-3.06 1.41.41 3.74.47 4.47.47.73 0 3.06-.06 4.47-.47 1.82-.53 2.99 2.44.55 3.06Z" clip-rule="evenodd"/><path fill="var(--icon-primary)" fill-rule="evenodd" d="M3.26 17.23v2.1c0 1.55 3.91 3.66 8.74 3.66s8.74-2.12 8.74-3.66v-2.1c-1.74 1.14-5.1 1.91-8.74 1.91-3.64 0-7-.77-8.74-1.91Z" clip-rule="evenodd"/><path fill="var(--icon-secondary)" fill-rule="evenodd" d="M20.74 17.23c-1.74 1.14-5.1 1.91-8.74 1.91-3.64 0-7-.77-8.74-1.91v.57c1.84.98 4.9 1.98 8.22 1.98 3.64 0 7.99-1.13 8.34-.67.42.54.34 1.24.23 1.44.44-.42.69-.84.69-1.22v-2.1Z" clip-rule="evenodd"/><path fill="var(--icon-secondary)" d="M20.19 6.85c-.34-1.27-1.05-2.84-2.48-4.04.74.97 1.17 2.03 1.41 2.93.06.23-.06.46-.29.54-1.68.58-4.56 1.36-7.9 1.36-2.82 0-5.31-.56-7.03-1.09-.03.1-.06.19-.08.29-.06.23.06.46.29.54 1.68.58 4.56 1.36 7.9 1.36 3.34 0 6.22-.78 7.9-1.36.22-.08.35-.31.29-.54l-.01.01Z"/><path fill="var(--icon-secondary)" fill-rule="evenodd" d="m21.65 9.76-.25-.25c.07.15.11.32.11.49v3.95c0 2.02-4.69 3.66-10 3.66-4.11 0-7.84-.99-9.32-2.37.91 1.69 5.12 2.98 9.81 2.98 5.31 0 10-1.64 10-3.66v-3.95c0-.31-.13-.62-.35-.84v-.01Z" clip-rule="evenodd"/></g><defs><clipPath id="a"><path fill="#fff" d="M2 1h20v22H2z"/></clipPath></defs></svg>