<svg xmlns="http://www.w3.org/2000/svg" fill="none" viewBox="0 0 24 24"><g fill="var(--icon-primary)" fill-rule="evenodd" clip-path="url(#a)" clip-rule="evenodd"><path d="m12.55 14.47-.16-.27h-.26v.26s.28.05.31.21l-.1.1s-.29-.43-.92.13v1.09h1.13v-1.52Z"/><path d="M17.8 6.98V5.46C17.8 3 15.8 1 13.34 1h-1.88C9 1 7 3 7 5.46V18.5c0 2.46 2 4.46 4.46 4.46h1.88c2.46 0 4.46-2 4.46-4.46v-7.26c0-.98-.79-1.77-1.77-1.77h-4.82V5.62c0-.43.35-.78.78-.78h.92c.43 0 .78.35.78.78v1.36h4.12-.01Zm-6.5 5.01c.33.93 1.86.1 1.86.1 1.35-.91 1.93-.09 1.93-.09v1.78c-1.56 0-2.4.43-2.4.43v1.94c-.97-.12-1.39.42-1.39.42v3.72h-.15v.16H9.99v-.14H9.6v-.39h.15v-7.25h-.14v-.29h.14v-.26h.29V12h1.27l-.01-.01Z"/></g><defs><clipPath id="a"><path fill="#fff" d="M7 1h10.8v21.95H7z"/></clipPath></defs></svg>