<svg xmlns="http://www.w3.org/2000/svg" fill="none" viewBox="0 0 24 24"><g fill-rule="evenodd" clip-path="url(#a)" clip-rule="evenodd"><path fill="var(--icon-primary)" d="M6.3 14.21c.17-.06.9-.11 2.59.27.99.22 3.45.91 4.91 2.54.48.54.82 1.06.95 1.44-1.16.96-2.2 1.54-2.67 1.78-.7-.41-2.78-1.71-4.52-3.72 0-.01-.02-.03-.05-.06-.84-.96-1.31-1.84-1.21-2.25Zm-1-5.32c1.82 0 3.3-1.54 3.3-3.44 0-.42-.07-.82-.21-1.2 1.22-.24 2.46-.37 3.67-.37 4.07 0 7.36 1.38 8.4 1.87.04 1.02 0 4.16-1.8 7.83-.77 1.57-1.84 3-3.18 4.25-.2-.47-.53-1.02-.98-1.63-1.5-2.01-4.29-3.37-8.27-4.04-.89-.15-1.37-.87-1.58-1.3-.18-.69-.34-1.42-.45-2.17.36.13.73.2 1.11.2H5.3Zm-.02-5.32c1 0 1.81.84 1.81 1.87 0 1.03-.81 1.87-1.81 1.87s-1.81-.84-1.81-1.87c0-1.03.81-1.87 1.81-1.87Zm16.66 1.55-.05-.4-.35-.19c-.17-.09-4.14-2.24-9.49-2.24-1.54 0-3.1.18-4.63.53A3.21 3.21 0 0 0 5.29 2C3.48 2 2 3.54 2 5.44c0 .61.16 1.21.45 1.74.15 1.82.59 4.52 1.78 7.09 2.24 4.83 7.27 7.46 7.48 7.57l.31.16.32-.14c.21-.09 5.06-2.21 7.68-7.58 2.44-4.98 1.94-8.99 1.92-9.16Z"/><path fill="var(--icon-secondary)" d="M6.3 14.21c.17-.06.9-.11 2.59.27.99.22 3.45.91 4.91 2.54.48.54.82 1.06.95 1.44-1.16.96-2.2 1.54-2.67 1.78-.7-.41-2.78-1.71-4.52-3.72 0-.01-.02-.03-.05-.06-.84-.96-1.31-1.84-1.21-2.25Z"/><path fill="var(--icon-secondary)" d="M5.3 8.89c1.82 0 3.3-1.54 3.3-3.44 0-.42-.07-.82-.21-1.2 1.22-.24 2.46-.37 3.67-.37 4.07 0 7.36 1.38 8.4 1.87.04 1.02 0 4.16-1.8 7.83-.77 1.57-1.84 3-3.18 4.25-.2-.47-.53-1.02-.98-1.63-1.5-2.01-4.29-3.37-8.27-4.04-.89-.15-1.37-.87-1.58-1.3-.18-.69-.34-1.42-.45-2.17.36.13.73.2 1.11.2H5.3Z"/></g><defs><clipPath id="a"><path fill="#fff" d="M2 2h20v20H2z"/></clipPath></defs></svg>