<svg xmlns="http://www.w3.org/2000/svg" fill="none" viewBox="0 0 24 24"><g clip-path="url(#a)"><path fill="var(--icon-primary)" d="M12 17.98c-.28 0-.5-.22-.5-.5V2.5c0-.28.22-.5.5-.5s.5.22.5.5v14.98c0 .28-.22.5-.5.5Z"/><path fill="var(--icon-primary)" d="M7.28 20.03c1.02.96 2.67.96 3.69 0 .58-.55 1.48-.55 2.06 0 1.02.96 2.67.96 3.69 0 .58-.55 1.48-.55 2.06 0 .21.2.5.36.83.49 1.34-.89 2.27-2.05 2.39-3.26a.258.258 0 0 0-.25-.27H2.25c-.14 0-.27.12-.25.27.12 1.21 1.09 2.38 2.43 3.26.3-.13.57-.29.79-.5.58-.55 1.48-.55 2.06 0v.01Z"/><path fill="var(--icon-secondary)" d="M2.69 22.84H2.5c-.28 0-.5-.24-.49-.52 0-.28.24-.53.52-.49 1.27.03 2.6-.36 3.37-1.1.2-.19.5-.19.7 0 1.39 1.32 3.66 1.32 5.05 0 .2-.19.5-.19.7 0 1.39 1.32 3.66 1.32 5.05 0 .2-.19.5-.19.7 0 .73.69 2.06 1.09 3.39 1.1.28 0 .51.23.5.51 0 .28-.23.5-.51.5-1.39-.01-2.82-.4-3.73-1.08-1.67 1.29-4.08 1.29-5.76 0-1.67 1.28-4.08 1.28-5.75 0-.91.69-2.27 1.08-3.56 1.08h.01Z"/><path fill="var(--icon-primary)" d="M11.5 2.47V15H4.68c-.34 0-.55-.37-.37-.66L11.5 2.47Z"/><path fill="var(--icon-secondary)" d="M13.86 6.73v8.77c0 .12.09.21.21.21h5.06c.34 0 .55-.38.37-.67l-5.4-8.38c-.07-.11-.24-.06-.24.07Z"/></g><defs><clipPath id="a"><path fill="#fff" d="M2 2h20v20.84H2z"/></clipPath></defs></svg>