<svg xmlns="http://www.w3.org/2000/svg" fill="none" viewBox="0 0 24 24"><g clip-path="url(#a)"><path fill="var(--icon-primary)" d="m9.51 14.98.23-.84c.1-.36 2.4-8.85 4.23-10.68a5.003 5.003 0 0 1 7.07 0c.94.94 1.46 2.2 1.46 3.54 0 1.34-.52 2.59-1.46 3.54-1.83 1.83-10.32 4.13-10.68 4.23l-.84.23-.01-.02ZM17.5 3c-1.02 0-2.05.39-2.83 1.17-1.23 1.23-2.93 6.58-3.73 9.39 2.81-.8 8.16-2.51 9.39-3.73.76-.76 1.17-1.76 1.17-2.83s-.42-2.07-1.17-2.83C19.55 3.39 18.53 3 17.5 3Z"/><path fill="var(--icon-secondary)" fill-rule="evenodd" d="M4.24 22.11c-.51.51-1.34.51-1.85 0a1.31 1.31 0 0 1 0-1.85c.51-.51 4.79-3.65 4.79-3.65l.71.71s-3.23 4.37-3.65 4.79Z" clip-rule="evenodd"/><path fill="var(--icon-primary)" d="m10.068 13.72-2.206 2.206.707.707 2.206-2.206-.707-.707ZM5.98 9.61a3.02 3.02 0 1 0 0-6.04 3.02 3.02 0 0 0 0 6.04Z"/><path fill="var(--icon-secondary)" fill-rule="evenodd" d="M8.47 4.88c.11.33.16.67.16 1.04a3.36 3.36 0 0 1-3.36 3.36c-.3 0-.6-.04-.88-.12.46.29 1 .45 1.59.45C7.65 9.61 9 8.26 9 6.59c0-.64-.2-1.23-.53-1.71Z" clip-rule="evenodd"/></g><defs><clipPath id="a"><path fill="#fff" d="M2 2h20.5v20.5H2z"/></clipPath></defs></svg>