<svg xmlns="http://www.w3.org/2000/svg" fill="none" viewBox="0 0 24 24"><g clip-path="url(#a)"><path fill="var(--icon-primary)" d="M7.77 7.08c0-.37.06-.71.16-1.05-.03 0-.06-.02-.09-.02a.538.538 0 0 0-.06 1.07h-.01Z"/><path fill="var(--icon-secondary)" d="M16.23 7.09c.3 0 .54-.24.54-.54 0-.3-.24-.54-.54-.54-.06 0-.11.02-.16.03.09.34.15.69.15 1.05h.01ZM10.03 18.06v3.36c0 .19.16.34.35.34h3.25c.19 0 .34-.15.34-.34v-3.36c-.6.2-1.27.32-1.97.32s-1.38-.11-1.97-.32Z"/><path fill="var(--icon-primary)" d="M8.05 17.7c-.24.15-.52.22-.78.22-.52 0-1.03-.26-1.31-.74L5.3 16.1l-1.33.67c-.45.23-.73.68-.73 1.18v3.04c0 .41-.25.77-.62.92l-1.61.65v.88h4.6c.26 0 .47-.21.47-.47v-3.23c0-.16.13-.28.28-.28h2.85c.14 0 .26-.12.26-.26v-1.41c-.35-.17-.66-.37-.92-.61-.13.2-.29.38-.5.51v.01ZM21.39 21.92a.987.987 0 0 1-.62-.92v-3.04c0-.5-.28-.96-.73-1.18l-1.33-.67-.66 1.08c-.29.47-.8.74-1.31.74-.27 0-.54-.07-.78-.22-.21-.13-.37-.31-.5-.51-.26.24-.57.44-.92.61v1.41c0 .14.12.26.26.26h2.85c.16 0 .28.13.28.28v3.23c0 .26.21.47.47.47H23v-.88l-1.61-.65v-.01Z"/><path fill="var(--icon-primary)" d="M6.43 16.89c.28.45.87.6 1.33.33a.96.96 0 0 0 .44-.6c.06-.25.02-.52-.11-.74l-1.31-2.16c-.15-.24-.22-.52-.22-.8v-1.19c0-.16.13-.28.28-.28.15 0 .28.13.28.28v1.19c0 .18.05.35.14.5l1.31 2.16c.2.33.26.72.18 1.1.04.01.08.01.11.04.68.68 1.85 1.08 3.14 1.08s2.51-.43 3.17-1.11c.02-.02.05-.02.07-.03-.07-.37-.02-.76.18-1.08l1.31-2.16c.09-.15.14-.33.14-.5v-1.19c0-.16.13-.28.28-.28.15 0 .28.13.28.28v1.19c0 .28-.08.56-.22.8l-1.31 2.16c-.14.22-.18.48-.11.74.06.25.22.47.44.6.46.27 1.05.12 1.33-.33l1.94-3.19c.07-.12.11-.25.11-.38v-2.05c0-1.93-1.53-3.5-3.44-3.59a4.208 4.208 0 0 1-2.76 3.41v1.48c0 .39.32.71.71.71h2.09c.16 0 .28.13.28.28 0 .15-.13.28-.28.28h-2.09c-.7 0-1.27-.57-1.27-1.27v-1.31a4.022 4.022 0 0 1-1.7 0v1.31c0 .7-.57 1.27-1.27 1.27H7.79a.28.28 0 0 1-.28-.28c0-.15.13-.28.28-.28h2.09c.39 0 .71-.32.71-.71v-1.48a4.192 4.192 0 0 1-2.76-3.41c-1.91.09-3.44 1.66-3.44 3.59v2.05c0 .14.04.27.11.38l1.94 3.19h-.01Z"/><path fill="var(--icon-secondary)" d="M12.83 2.97c-.01-.21-.06-.53-.25-.74-.27-.3-.89-.3-1.17 0-.19.21-.24.53-.25.74.27-.05.55-.08.84-.08.29 0 .56.03.83.08ZM11.36 5.15c.1.28.14.4.64.4s.54-.12.64-.4c.17-.48.43-.91 1.46-1.05-.59-.41-1.31-.66-2.09-.66-.78 0-1.5.25-2.09.66 1.02.14 1.29.57 1.46 1.04l-.02.01Z"/><path fill="var(--icon-primary)" d="M14.7 4.65c-1.26.03-1.39.37-1.51.7-.15.42-.35.79-1.19.79s-1.04-.37-1.19-.78c-.12-.33-.26-.67-1.51-.7-.6.65-.97 1.51-.97 2.46 0 2.03 1.64 3.67 3.67 3.67 2.03 0 3.67-1.64 3.67-3.67 0-.95-.37-1.81-.97-2.47ZM10 6.75c0-.22.18-.4.4-.4h.4c.22 0 .4.18.4.4 0 .22-.18.4-.4.4h-.4c-.22 0-.4-.18-.4-.4Zm2.8 2.4h-1.6c-.22 0-.4-.18-.4-.4 0-.22.18-.4.4-.4h1.6c.22 0 .4.18.4.4 0 .22-.18.4-.4.4Zm.8-2h-.4c-.22 0-.4-.18-.4-.4 0-.22.18-.4.4-.4h.4c.22 0 .4.18.4.4 0 .22-.18.4-.4.4Z"/><path fill="var(--icon-secondary)" d="M9.11 19.04H6a.28.28 0 0 0-.28.28v3.23c0 .26-.21.47-.47.47H1v.43h4.6c.26 0 .47-.21.47-.47v-3.23c0-.16.13-.28.28-.28H9.2c.14 0 .26-.12.26-.26V17.8c-.12-.06-.23-.13-.35-.2v1.44ZM22.65 22.43v.59h-4.6s-.08-.01-.12-.02c0 .25.21.45.47.45H23v-.88l-.35-.14ZM19.27 12.88c0 .13-.04.27-.11.38l-1.94 3.19c-.28.45-.87.6-1.33.33-.01 0-.02-.02-.03-.03.08.19.2.35.38.46.46.27 1.05.12 1.33-.33l1.94-3.19c.07-.12.11-.25.11-.38v-2.05c0-.97-.39-1.85-1.02-2.5.42.59.67 1.3.67 2.07v2.05ZM6.49 11.02a.28.28 0 0 0-.28.28v1.19c0 .28.08.56.22.8l1.31 2.16c.13.22.18.48.11.74a.96.96 0 0 1-1.52.54l.1.16c.28.45.87.6 1.33.33a.96.96 0 0 0 .44-.6c.06-.25.02-.52-.11-.74l-1.31-2.16c-.15-.24-.22-.52-.22-.8v-1.19c0-.13.1-.22.22-.26v-.17a.28.28 0 0 0-.28-.28h-.01ZM14.54 9.76l.16-.16c.6-.65.97-1.53.97-2.49 0-.96-.37-1.81-.97-2.47h-.02c.4.58.64 1.28.64 2.04 0 2.03-1.64 3.67-3.67 3.67a3.64 3.64 0 0 1-2.71-1.21 3.66 3.66 0 0 0 5.34.84c.09-.07.17-.14.25-.22h.01ZM15.17 16.7s.05-.02.07-.03c-.07-.37-.02-.76.18-1.08l1.31-2.16c.09-.15.14-.33.14-.5v-1.19c0-.13.1-.24.22-.27v-.16a.28.28 0 0 0-.28-.28c-.15 0-.28.13-.28.28v1.19c0 .18-.05.35-.14.5l-.17.28c.15 0 .27.13.27.28 0 .15-.13.28-.28.28h-.33l-.8 1.31c-.2.33-.25.71-.18 1.08-.02.01-.05.01-.07.03-.66.69-1.88 1.11-3.17 1.11-1.15 0-2.17-.33-2.87-.88 0 .07-.01.12-.03.19.04.01.08.01.11.04.68.68 1.85 1.08 3.14 1.08.92 0 1.8-.23 2.47-.6.05-.03.11-.06.16-.09.2-.13.39-.27.54-.42l-.01.01Z"/></g><defs><clipPath id="a"><path fill="#fff" d="M1 2h22v21.45H1z"/></clipPath></defs></svg>