<svg xmlns="http://www.w3.org/2000/svg" fill="none" viewBox="0 0 24 24"><g clip-path="url(#a)"><path fill="var(--icon-primary)" d="M14.37 20.64c.51 1.5.99 2.35.99 2.35h4.45s2.16-3.79 2.22-9.77l-7.58 7.37s-.05.03-.08.05Z"/><path fill="var(--icon-secondary)" d="m20.85 6.96-7.66 7.57c.12 1.93.45 3.6.82 4.92l7.97-7.75c-.14-1.84-.58-3.44-1.13-4.75v.01Z"/><path fill="var(--icon-primary)" d="M17.58 2.97c-1.12 0-4.45 3.89-4.45 10.01v.05l7.21-7.13c-1-1.87-2.18-2.94-2.76-2.94v.01Z"/><path fill="var(--icon-primary)" fill-rule="evenodd" d="M3.9 13.42h7.92l-1.24 8.9c-.05.38-.38.67-.77.67h-3.9c-.39 0-.71-.28-.77-.67l-1.24-8.9Z" clip-rule="evenodd"/><path fill="var(--icon-secondary)" fill-rule="evenodd" d="M4.44 17.29c2.24.74 3.93 2.45 4.24 5.7h1.13c.39 0 .71-.28.77-.67l1.24-8.9H3.9l.54 3.87Z" clip-rule="evenodd"/><path fill="var(--icon-primary)" d="M7.86 7.5a3.25 3.25 0 1 0 0-6.5 3.25 3.25 0 0 0 0 6.5Z"/><path fill="var(--icon-secondary)" fill-rule="evenodd" d="M10.12 1.92c.11.32.18.66.18 1.02 0 1.8-1.46 3.25-3.25 3.25-.88 0-1.67-.35-2.26-.92.43 1.29 1.64 2.23 3.07 2.23 1.8 0 3.25-1.46 3.25-3.25 0-.92-.38-1.74-.99-2.33Z" clip-rule="evenodd"/><path fill="var(--icon-primary)" d="M7.86 7.5c3.23 0 5.86 2.62 5.86 5.86v2.68c0 .43-.35.77-.77.77H2.77a.764.764 0 0 1-.77-.77v-2.68C2 10.13 4.62 7.5 7.86 7.5Z"/><path fill="var(--icon-secondary)" fill-rule="evenodd" d="M7.86 7.5c-.62 0-1.23.1-1.79.28 3.33.78 5.24 3.29 5.27 9.03h1.6c.43 0 .77-.35.77-.77v-2.68c0-3.23-2.62-5.86-5.86-5.86h.01Z" clip-rule="evenodd"/></g><defs><clipPath id="a"><path fill="#fff" d="M2 1h20.03v21.99H2z"/></clipPath></defs></svg>