<svg xmlns="http://www.w3.org/2000/svg" fill="none" viewBox="0 0 24 24"><g clip-path="url(#a)"><path fill="var(--icon-primary)" d="M22.21 17.57h.31c.28 0 .49-.24.48-.52 0-.28-.27-.49-.52-.48-1.14.03-2.72-.13-3.72-1.1a.501.501 0 0 0-.7 0c-1.5 1.47-4.22 1.47-5.72 0a.501.501 0 0 0-.7 0c-1.5 1.47-4.22 1.47-5.72 0a.501.501 0 0 0-.7 0c-.72.71-2.01 1.09-3.73 1.1-.28 0-.5.23-.5.5 0 .28.24.55.5.5 1.77-.01 3.14-.38 4.07-1.08 1.81 1.45 4.61 1.45 6.42 0 1.81 1.45 4.61 1.44 6.42 0 1.13.87 2.61 1.09 3.79 1.09l.02-.01ZM17.35 9.83l-2.31 1.32 1.03 1.94 2.77-1.64-1.49-1.62Z"/><path fill="var(--icon-primary)" d="M16.92 15.11s-.01 0-.02.01c-.11.07-.24.12-.36.17-.09.04-.17.07-.26.1-.02 0-.04 0-.05.01-.33.09-.74.15-1.24.14-.73-.05-1.43-.3-1.94-.8-.16-.15-.34-.26-.54-.33a1.02 1.02 0 0 0-.5-.1h-.03c-.08 0-.17.02-.26.05-.28.05-.55.16-.77.37 0 0-.02.01-.02.02.52-1.14.91-2.71.91-2.71S10.39 10.62 9.81 10a.75.75 0 0 0-.64-.22l-2.71.42-.57.63c-.08.09-.19.17-.31.21l-.54.2c-.3.11-.64.04-.86-.19l-.58-.6a.532.532 0 0 1-.15-.45s.22-.71.24-.79c.03-.09.15-.18.28-.2l1.09-.15c.2-.03.39-.01.58.05l.28.09c.09.03.19.03.28 0l4.08-.81c.23-.05.48-.01.69.1l4.62 2.37c.19.06.35.19.46.35l1.1 1.07c.17.25.38 1.04.74 1.54.16.23.29.48.37.74-.12 0-.23.03-.33.07-.21.07-.41.17-.58.34-.14.13-.29.25-.45.35l.02-.01ZM18.86 12a2.5 2.5 0 1 1 0-5 2.5 2.5 0 0 1 0 5Z"/><path fill="var(--icon-secondary)" fill-rule="evenodd" d="M17.22 7.62c-.15.24-.27.51-.34.8-.38 1.49.52 3.01 2.01 3.39.24.06.49.09.73.08-.43.14-.9.16-1.37.04a2.491 2.491 0 0 1-1.8-3.04c.13-.51.41-.94.78-1.27h-.01Z" clip-rule="evenodd"/><path fill="var(--icon-secondary)" d="M3.45 10.02s0-.02.01-.04c.34.48.99.59 1.5.76.65.22.84-.76 1.1-.91.25-.15.77-.15 1.85-.35 1.08-.2 1.73-.34 2.2-.07.48.27 2.72 2.34 2.72 2.64 0 .23-.18 1.59-.32 2.39h-.02a1.02 1.02 0 0 0-.5-.1h-.03c-.08 0-.17.02-.26.05-.28.05-.55.16-.77.37 0 0-.02.01-.02.02.52-1.14.91-2.71.91-2.71s-1.45-1.42-2.03-2.04a.75.75 0 0 0-.64-.22l-2.71.42-.57.63c-.08.09-.19.17-.31.21l-.54.2c-.3.11-.64.04-.86-.19l-.58-.6a.532.532 0 0 1-.15-.45l.02-.01Z"/></g><defs><clipPath id="a"><path fill="#fff" d="M23 7H1v10.57h22z"/></clipPath></defs></svg>