<svg xmlns="http://www.w3.org/2000/svg" fill="none" viewBox="0 0 24 24"><g clip-path="url(#a)"><path fill="var(--icon-secondary)" d="M19.64 16.86c3.17-3.17 3.17-8.32 0-11.49s-8.32-3.17-11.49 0c-.68.68-1.2 1.45-1.59 2.27l10.81 10.81c.82-.39 1.59-.91 2.27-1.59Z"/><path fill="var(--icon-primary)" d="M8.15 16.86a8.104 8.104 0 0 0 7.12 2.26L5.9 9.74c-.43 2.51.32 5.18 2.26 7.12h-.01ZM12.02 5.72a2.36 2.36 0 1 0 0-4.72 2.36 2.36 0 0 0 0 4.72Z"/><path fill="var(--icon-primary)" fill-rule="evenodd" d="M6.02 16.62 2.5 20.14c-.66.66-.66 1.72 0 2.37.66.65 1.72.66 2.37 0l3.52-3.52c-.47-.3-.91-.65-1.32-1.05-.41-.4-.75-.86-1.05-1.32Z" clip-rule="evenodd"/></g><defs><clipPath id="a"><path fill="#fff" d="M2 1h20.02v22.01H2z"/></clipPath></defs></svg>