<svg xmlns="http://www.w3.org/2000/svg" fill="none" viewBox="0 0 24 24"><g clip-path="url(#a)"><path fill="var(--icon-primary)" d="M5.77 14.62v1.91c0 .92.75 1.67 1.67 1.67h.58l-.45 3.24c-.04.29-.29.51-.59.51H3.99c-.3 0-.55-.22-.59-.51l-.95-6.82h3.32ZM18.26 14.62v1.91c0 .92-.75 1.67-1.67 1.67h-.58l.45 3.24c.04.29.29.51.59.51h2.99c.3 0 .55-.22.59-.51l.95-6.82h-3.32Z"/><path fill="var(--icon-primary)" d="M18.26 14.62v1.91c0 .92-.75 1.67-1.67 1.67h-.58l.45 3.24c.04.29.29.51.59.51h2.99c.3 0 .55-.22.59-.51l.95-6.82h-3.32Z"/><path fill="var(--icon-primary)" fill-rule="evenodd" d="M8.45 14.17h7.12l-1.12 8a.7.7 0 0 1-.69.6h-3.51a.7.7 0 0 1-.69-.6l-1.12-8h.01Z" clip-rule="evenodd"/><path fill="var(--icon-secondary)" fill-rule="evenodd" d="M8.94 17.64c2.01.67 3.54 2.2 3.81 5.12h1.01a.7.7 0 0 0 .69-.6l1.12-8H8.45l.49 3.48ZM20.62 21.44l.95-6.77h-3.31v1.86c0 .77-.52 1.41-1.23 1.61 1.15.71 1.97 1.91 2.17 3.81h.83c.3 0 .55-.22.59-.51ZM7.57 21.44l.45-3.24h-.58c-.92 0-1.67-.75-1.67-1.67v-1.86H2.49l.41 2.96c1.7.56 3 1.86 3.24 4.32h.83c.3 0 .55-.22.59-.51h.01Z" clip-rule="evenodd"/><path fill="var(--icon-primary)" d="M12.01 8.84a2.92 2.92 0 1 0 0-5.84 2.92 2.92 0 0 0 0 5.84Z"/><path fill="var(--icon-secondary)" fill-rule="evenodd" d="M14.05 3.83c.1.29.16.59.16.92 0 1.61-1.31 2.92-2.92 2.92-.79 0-1.51-.32-2.03-.83.39 1.16 1.47 2.01 2.76 2.01 1.61 0 2.92-1.31 2.92-2.92 0-.82-.34-1.57-.89-2.1Z" clip-rule="evenodd"/><path fill="var(--icon-primary)" d="M12.01 8.85a5.27 5.27 0 0 1 5.27 5.27v2.41c0 .38-.31.69-.69.69H7.44c-.38 0-.69-.31-.69-.69v-2.41a5.27 5.27 0 0 1 5.27-5.27h-.01ZM18.54 10.08a2.49 2.49 0 1 0 0-4.98 2.49 2.49 0 0 0 0 4.98Z"/><path fill="var(--icon-secondary)" fill-rule="evenodd" d="M20.27 5.81c.08.25.14.51.14.78a2.49 2.49 0 0 1-4.22 1.79 2.48 2.48 0 0 0 2.35 1.71 2.49 2.49 0 0 0 1.73-4.28Z" clip-rule="evenodd"/><path fill="var(--icon-primary)" d="M18.54 10.09c-.54 0-1.05.11-1.54.29a6.172 6.172 0 0 1 1.26 3.74v2.41c0 .25-.06.48-.16.69h4.33c.33 0 .59-.27.59-.59v-2.06a4.49 4.49 0 0 0-4.49-4.49l.01.01Z"/><path fill="var(--icon-secondary)" fill-rule="evenodd" d="M12.01 8.85c-.56 0-1.11.09-1.61.25 2.99.7 4.71 2.96 4.74 8.12h1.44c.38 0 .69-.31.69-.69v-2.41A5.27 5.27 0 0 0 12 8.85h.01Z" clip-rule="evenodd"/><path fill="var(--icon-primary)" d="M18.54 10.09c-.54 0-1.05.11-1.54.29a6.172 6.172 0 0 1 1.26 3.74v2.41c0 .25-.06.48-.16.69h4.33c.33 0 .59-.27.59-.59v-2.06a4.49 4.49 0 0 0-4.49-4.49l.01.01Z"/><path fill="var(--icon-primary)" fill-rule="evenodd" d="M7.98 7.59a2.49 2.49 0 0 1-2.49 2.49C4.12 10.08 3 8.96 3 7.59S4.12 5.1 5.49 5.1s2.49 1.12 2.49 2.49Z" clip-rule="evenodd"/><path fill="var(--icon-secondary)" fill-rule="evenodd" d="M7.22 5.81c.08.25.14.51.14.78a2.49 2.49 0 0 1-4.22 1.79 2.48 2.48 0 0 0 2.35 1.71 2.49 2.49 0 0 0 1.73-4.28Z" clip-rule="evenodd"/><path fill="var(--icon-primary)" d="M5.49 10.09c.54 0 1.05.11 1.54.29a6.172 6.172 0 0 0-1.26 3.74v2.41c0 .25.06.48.16.69H1.59c-.33 0-.59-.27-.59-.59v-2.06a4.49 4.49 0 0 1 4.49-4.49v.01Z"/><path fill="var(--icon-secondary)" fill-rule="evenodd" d="M21.19 17.22h1.23c.33 0 .59-.27.59-.59v-2.06a4.49 4.49 0 0 0-4.49-4.49c-.54 0-1.05.11-1.54.29 1.24 0 4.21 2.23 4.21 6.85ZM5.49 10.09c-.54 0-1.05.11-1.54.29.56 0 1.47.46 2.3 1.38.2-.49.45-.96.77-1.38-.48-.18-.99-.29-1.54-.29h.01Z" clip-rule="evenodd"/></g><defs><clipPath id="a"><path fill="#fff" d="M1 3h22.03v19.77H1z"/></clipPath></defs></svg>