<svg xmlns="http://www.w3.org/2000/svg" fill="none" viewBox="0 0 24 24"><g clip-path="url(#a)"><path fill="var(--icon-primary)" d="M22.48 19c-1.56 0-2.87-.96-3.49-1.52-.63.56-1.94 1.52-3.49 1.52-1.55 0-2.87-.96-3.49-1.52-.63.56-1.94 1.52-3.49 1.52-1.55 0-2.87-.96-3.49-1.52C4.4 18.04 3.09 19 1.54 19c-.29 0-.52-.22-.52-.5s.23-.5.52-.5c1.66 0 3.08-1.54 3.1-1.56.2-.22.59-.22.79 0 .01.02 1.44 1.56 3.1 1.56 1.66 0 3.08-1.54 3.1-1.56.2-.22.59-.22.79 0 .01.02 1.44 1.56 3.1 1.56 1.66 0 3.08-1.54 3.1-1.56.2-.22.59-.22.79 0 .01.02 1.44 1.56 3.1 1.56.29 0 .52.22.52.5s-.23.5-.52.5h-.03Z"/><path fill="var(--icon-secondary)" d="M11.78 11.31c.43-.68.96-1.28 1.57-1.77a7.19 7.19 0 0 1-4.75-3.6 6.69 6.69 0 0 0-2.17 2.03 6.33 6.33 0 0 0 5.35 3.35v-.01Z"/><path fill="var(--icon-primary)" d="M15.35 17c.53 0 1.07-.28 1.5-.59.99-1.03 1.67-2.35 1.85-3.85-2.07-.05-4.12.91-5.37 2.73 0 .21-.03.43-.05.64.4.39 1.26 1.07 2.08 1.07h-.01Z"/><path fill="var(--icon-secondary)" d="M12.5 11.77c.38.72.63 1.48.75 2.25a7.24 7.24 0 0 1 5.5-2.32c0-1.04-.25-2.02-.68-2.9-.62-.02-1.24.05-1.86.21a6.256 6.256 0 0 0-3.71 2.75v.01Z"/><path fill="var(--icon-primary)" d="M14.4 8.83c.5-.27 1.03-.49 1.59-.64.53-.14 1.06-.21 1.59-.23A6.737 6.737 0 0 0 12 5.01c-.94 0-1.83.19-2.64.54.99 1.82 2.84 3.12 5.04 3.29v-.01Z"/><path fill="var(--icon-secondary)" d="M10.87 15.78c.29-.32.7-.51 1.13-.51.16 0 .31.03.46.08.04-1.08-.19-2.18-.73-3.19-.82-.03-1.6-.2-2.32-.48.56 1.78.38 3.66-.39 5.27.81-.18 1.59-.88 1.85-1.18v.01Z"/><path fill="var(--icon-primary)" d="M8.27 11.12A7.174 7.174 0 0 1 5.94 8.8a6.69 6.69 0 0 0 1.2 7.59c.28.2.6.38.94.5.96-1.73 1.1-3.87.2-5.77h-.01Z"/></g><defs><clipPath id="a"><path fill="#fff" d="M1 5h22v14H1z"/></clipPath></defs></svg>