<svg xmlns="http://www.w3.org/2000/svg" fill="none" viewBox="0 0 24 24"><g clip-path="url(#a)"><path fill="var(--icon-primary)" fill-rule="evenodd" d="M10.56 8.72s.72 2.93 1.57 4.96c1.66 4.08 2.9 6.99 3.85 9.2.06.15 0 .15-.17 0-.95-.96-2.02-1.8-3.18-2.49-1.11-2.75-2.01-4.52-2.21-4.46-.19.06.14 1.43 1.21 4.46h-4.1l.89-1.82v-2.53a.248.248 0 0 1 0-.17c.12.18.22.36.31.56.14.29.25.56.36.79.51 1.13.73 1.6.92 1.47.23-.17-1-4.08-1.73-6.34-.36-.79-.59-1.63-.68-2.49.1 0 .42.61 1.21 2.15.68 1.32 1.12 2.03 1.29 1.93.17-.11-.12-1.21-.89-3.35C6.81 4.04 5.88 1.11 6.01 1c.13-.11.97 1.5 2.3 4.35.9 1.88 1.34 2.76 1.57 2.59.23-.17-.25-1.93-1.28-5.11V2.6h3.5v7.87c0 .1.01.16-.07.04-.82-1.42-1.48-1.8-1.48-1.8l.01.01ZM15.49 20 14 17h5l-1.07 3h-2.44Z" clip-rule="evenodd"/></g><defs><clipPath id="a"><path fill="#fff" d="M6 1h13v22H6z"/></clipPath></defs></svg>