<svg xmlns="http://www.w3.org/2000/svg" fill="none" viewBox="0 0 24 24"><g clip-path="url(#a)"><path fill="var(--icon-secondary)" d="M22 10.66h-1.54l.3-.35a1 1 0 0 0-.12-1.41.991.991 0 0 0-1.41.12l-1.39 1.65h-2.11l.78-.45c.48-.28.64-.89.37-1.37a1.01 1.01 0 0 0-1.37-.37l-.78.45 1.06-1.83 2.12-.38c.54-.1.9-.62.81-1.16a1 1 0 0 0-1.16-.81l-.46.08.77-1.33c.28-.48.11-1.09-.37-1.37s-1.09-.11-1.37.37l-.77 1.33-.16-.44a.998.998 0 0 0-1.28-.6c-.52.19-.79.76-.6 1.28l.73 2.03-1.06 1.83v-.9c0-.55-.45-1-1-1s-1 .45-1 1v.9L9.93 6.1l.73-2.03a.998.998 0 0 0-.6-1.28.998.998 0 0 0-1.28.6l-.16.44-.77-1.33a1.01 1.01 0 0 0-1.37-.37c-.48.28-.64.89-.37 1.37l.77 1.33-.46-.08a.997.997 0 0 0-1.16.81c-.1.55.26 1.06.81 1.16l2.12.38 1.06 1.83-.78-.45c-.48-.28-1.09-.11-1.37.37s-.11 1.09.37 1.37l.78.45H6.14L4.75 9.02a1.01 1.01 0 0 0-1.41-.12c-.42.36-.47.99-.12 1.41l.3.35H1.98c-.55 0-1 .45-1 1s.45 1 1 1h1.54l-.3.35a1 1 0 0 0 .12 1.41c.19.16.42.24.65.24.28 0 .57-.12.76-.35l1.39-1.65h2.11l-.78.45c-.48.28-.64.89-.37 1.37.19.32.52.5.87.5.17 0 .34-.04.5-.13l.78-.45-1.05 1.83-2.12.38c-.54.1-.9.62-.81 1.16.09.48.51.82.98.82.06 0 .12 0 .18-.02l.46-.08-.77 1.33a1.002 1.002 0 0 0 .87 1.5c.35 0 .68-.18.87-.5l.77-1.33.16.44a.998.998 0 0 0 1.28.6c.52-.19.79-.76.6-1.28l-.73-2.03L11 15.39v.9c0 .55.45 1 1 1s1-.45 1-1v-.9l1.06 1.83-.73 2.03a.998.998 0 0 0 .94 1.34c.41 0 .79-.25.94-.66l.16-.44.77 1.33c.19.32.52.5.87.5.17 0 .34-.04.5-.13.48-.28.64-.89.37-1.37l-.77-1.33.46.08c.06.01.12.02.18.02a.997.997 0 0 0 .17-1.98l-2.12-.38-1.05-1.83.78.45c.16.09.33.13.5.13a1.002 1.002 0 0 0 .5-1.87l-.78-.45h2.11l1.39 1.65c.2.23.48.35.76.35a1.007 1.007 0 0 0 .77-1.65l-.3-.35h1.54c.55 0 1-.45 1-1s-.45-1-1-1H22Zm-10 3c-1.1 0-2-.9-2-2s.9-2 2-2 2 .9 2 2-.9 2-2 2Z"/><path fill="var(--icon-primary)" d="m19.24 9.01-1.39 1.65h-2.11l.78-.45c.48-.28.64-.89.37-1.37a1.01 1.01 0 0 0-1.37-.37l-.78.45 1.06-1.83 2.12-.38c.54-.1.9-.62.81-1.16a1 1 0 0 0-1.16-.81l-.46.08.77-1.33c.28-.48.11-1.09-.37-1.37s-1.09-.11-1.37.37l-.77 1.33-.16-.44a.998.998 0 0 0-1.28-.6c-.52.19-.79.76-.6 1.28l.73 2.03L13 7.92v-.9c0-.55-.45-1-1-1s-1 .45-1 1v.9L9.94 6.09l.73-2.03a.998.998 0 0 0-.6-1.28.998.998 0 0 0-1.28.6l-.16.44-.77-1.33a1.01 1.01 0 0 0-1.37-.37c-.48.28-.64.89-.37 1.37l.77 1.33-.46-.08a.997.997 0 0 0-1.16.81c-.1.55.26 1.06.81 1.16l2.12.38 1.06 1.83-.78-.45c-.48-.28-1.09-.11-1.37.37s-.11 1.09.37 1.37l.78.45H6.15L4.76 9.01a1.01 1.01 0 0 0-1.41-.12c-.42.36-.47.99-.12 1.41l.3.35H1.99c-.55 0-1 .45-1 1s.45 1 1 1h1.54l-.3.35a1 1 0 0 0 .12 1.41c.19.16.42.24.65.24.28 0 .57-.12.76-.35l1.39-1.65h2.11l-.78.45c-.48.28-.64.89-.37 1.37.19.32.52.5.87.5.17 0 .34-.04.5-.13l.78-.45-1.05 1.83h-.08s.02.02.03.02c.85 0 1.68-.09 2.49-.24l.35-.6v.54a13 13 0 0 0 3.78-1.45l-.05-.09.1.06c.63-.36 1.24-.77 1.8-1.23a.689.689 0 0 0-.13-.11l-.78-.45h1.54c1.22-1.12 2.22-2.46 2.96-3.96a.99.99 0 0 0-1 .32l.02-.02ZM12 13.66c-1.1 0-2-.9-2-2s.9-2 2-2 2 .9 2 2-.9 2-2 2Z"/></g><defs><clipPath id="a"><path fill="#fff" d="M1 2h22v19.32H1z"/></clipPath></defs></svg>