<svg xmlns="http://www.w3.org/2000/svg" fill="none" viewBox="0 0 24 24"><path fill="var(--icon-primary)" fill-rule="evenodd" d="m4.745 23.362 3.71-5.99a.286.286 0 0 0 .008-.296.285.285 0 0 0-.252-.148H6.573a.291.291 0 0 1-.288-.291v-5.712a.424.424 0 0 0-.419-.425H3.135a.422.422 0 0 0-.419.425v5.712c0 .16-.13.29-.288.29H.79a.282.282 0 0 0-.252.15.286.286 0 0 0 .006.295l3.712 5.99a.285.285 0 0 0 .488 0Z" clip-rule="evenodd"/><path fill="var(--icon-primary)" d="m23.455 17.372-3.71 5.99a.284.284 0 0 1-.489 0l-3.712-5.99a.286.286 0 0 1-.006-.296.285.285 0 0 1 .252-.148h1.638a.291.291 0 0 0 .288-.291v-5.712c0-.234.187-.425.419-.425h2.731c.23 0 .419.191.419.425v5.712c0 .16.13.29.288.29h1.637c.108 0 .2.056.253.15a.286.286 0 0 1-.008.295Z"/><path fill="var(--icon-secondary)" d="m15.955 7.372-3.71 5.99a.284.284 0 0 1-.489 0l-3.712-5.99a.286.286 0 0 1-.006-.296.285.285 0 0 1 .252-.148h1.638a.291.291 0 0 0 .288-.291V.925c0-.234.187-.425.419-.425h2.731c.23 0 .419.191.419.425v5.712c0 .16.13.29.288.29h1.637c.108 0 .2.056.253.15a.286.286 0 0 1-.008.295Z"/></svg>