<svg viewBox="0 0 24 24" fill="none" xmlns="http://www.w3.org/2000/svg">
<g clip-path="url(#clip0_5382_2154)">
<path fill="var(--icon-secondary)" d="M21.54 16.1301C21.4 16.0501 21.4 15.9401 21.52 15.8601C22.17 15.4301 22.68 14.7301 22.68 13.7601C22.68 11.9601 21.28 10.8601 18.73 10.8601H15.95C15.8 10.8601 15.67 10.9601 15.63 11.1101C15.47 11.7601 15.15 12.5001 14.55 13.1701C14.48 13.2501 14.53 13.3801 14.63 13.3801H17.99C18.52 13.3801 18.82 13.6501 18.82 14.1301V14.2101C18.82 14.6901 18.52 14.9701 17.99 14.9701H10.34C10.16 14.9701 10.01 15.1201 10.01 15.3001V21.6801C10.01 21.8601 10.16 22.0101 10.34 22.0101H18.43C21.55 22.0101 22.97 20.6901 22.97 18.6301C22.97 17.2901 22.32 16.5101 21.52 16.1301H21.54ZM19.07 18.3601C19.07 18.9201 18.7 19.2001 18.11 19.2001H14.11C14.01 19.2001 13.95 19.1401 13.95 19.0401V17.5401C13.95 17.4401 14.01 17.3801 14.11 17.3801H18.11C18.7 17.3801 19.07 17.6701 19.07 18.2201V18.3501V18.3601Z"/>
<path fill="var(--icon-primary)" d="M1.32 13.15C1.13 13.15 1 13.02 1 12.83V2.32C1 2.13 1.13 2 1.32 2H9.71C12.26 2 13.66 3.1 13.66 4.9C13.66 5.87 13.15 6.57 12.5 7C12.37 7.08 12.37 7.19 12.52 7.27C13.32 7.65 13.97 8.43 13.97 9.77C13.97 11.82 12.55 13.15 9.43 13.15H1.32ZM8.98 6.11C9.51 6.11 9.81 5.82 9.81 5.35V5.27C9.81 4.79 9.51 4.52 8.98 4.52H5.09C4.99 4.52 4.93 4.58 4.93 4.68V5.95C4.93 6.05 4.99 6.11 5.09 6.11H8.98ZM9.09 10.34C9.68 10.34 10.05 10.05 10.05 9.5V9.37C10.05 8.81 9.68 8.53 9.09 8.53H5.09C4.99 8.53 4.93 8.59 4.93 8.69V10.19C4.93 10.29 4.99 10.35 5.09 10.35H9.09V10.34Z"/>
</g>
</svg>