<svg xmlns="http://www.w3.org/2000/svg" fill="none" viewBox="0 0 24 24"><g clip-path="url(#a)"><path fill="var(--icon-primary)" d="M11.09 12.43v2.75c.85 0 3.5.18 3.5-1.38 0-1.62-2.65-1.37-3.5-1.37ZM14.01 9.92c0-1.47-2.22-1.25-2.92-1.25v2.49c.71 0 2.92.16 2.92-1.25v.01Z"/><path fill="var(--icon-primary)" d="M12 1C5.92 1 1 5.92 1 12s4.92 11 11 11 11-4.92 11-11S18.08 1 12 1Zm5.06 13.05c-.18 1.97-1.65 2.5-3.75 2.62v2.07h-1.25V16.7h-1v2.05H9.81v-2.08H7.29l.25-1.49s.92.01.91 0c.35 0 .45-.25.47-.41V9.15c-.05-.25-.21-.55-.72-.55.02-.02-.91 0-.91 0V7.27h2.52V5.22l1.22.02.03 1.99c.33 0 .67-.01 1-.01v-2h1.25v2.05c1.61.14 2.89.64 3.03 2.12.11 1.08-.35 1.73-1.07 2.1 1.19.29 1.94.99 1.79 2.58v-.02Z"/><path fill="var(--icon-secondary)" d="M12 1C5.92 1 1 5.92 1 12s4.92 11 11 11 11-4.92 11-11S18.08 1 12 1Zm0 20a9 9 0 1 1 .001-18.001A9 9 0 0 1 12 21Z"/></g><defs><clipPath id="a"><path fill="#fff" d="M1 1h22v22H1z"/></clipPath></defs></svg>