<svg xmlns="http://www.w3.org/2000/svg" fill="none" viewBox="0 0 24 24">
  <g transform="translate(0,1) scale(2,2)">
    <path fill="var(--icon-primary)" fillRule="evenodd" clipRule="evenodd" d="M11.531 6.2326C11.7899 6.2326 12 6.02247 12 5.76356V1.61441C12 1.47557 11.9381 1.34424 11.8321 1.25418C9.76923 -0.491598 7.66979 0.397708 5.81707 1.18195C3.98124 1.95962 2.39493 2.63129 0.772045 1.25606C0.600375 1.11065 0.345216 1.10409 0.164165 1.257C0.0553471 1.34799 0 1.4887 0 1.63035V9.54217C0 9.68007 0.0609756 9.81141 0.166041 9.90052C1.04409 10.6444 1.92871 10.9108 2.79831 10.9108C3.97186 10.9108 5.1182 10.4259 6.18293 9.97463C7.62477 9.36394 8.91276 8.81985 10.1857 9.28045L9.50469 9.9615C9.28987 10.1763 9.28987 10.5244 9.50469 10.7392C9.71951 10.954 10.0675 10.954 10.2824 10.7392L11.8387 9.18289C12.0535 8.96807 12.0535 8.62004 11.8387 8.40521L10.2824 6.84893C10.0675 6.63411 9.71951 6.63411 9.50469 6.84893C9.28987 7.06375 9.28987 7.41178 9.50469 7.6266L10.1735 8.29546C8.88274 7.96244 7.60788 8.37332 6.41745 8.85925V8.09752L6.45216 8.09095C7.36679 7.93898 7.96998 7.35643 7.96998 6.51778C7.96998 5.67913 7.49156 5.24292 6.63227 5.12472L5.66229 4.99339C5.21857 4.93054 5.05253 4.79264 5.05253 4.53654C5.05253 4.2523 5.28799 4.03748 5.8424 4.03748C6.29831 4.03748 6.57411 4.24574 6.6773 4.49152C6.70075 4.54686 6.75328 4.58439 6.81332 4.58439H7.74109C7.83114 4.58439 7.90244 4.50371 7.88649 4.41459C7.78706 3.86957 7.35554 3.2917 6.45216 3.12848L6.41745 3.12191V1.94555C8.09287 1.24011 9.56567 0.695081 11.0619 1.83767V5.76262C11.0619 6.02154 11.272 6.23167 11.531 6.23167V6.2326ZM5.3152 3.11722C4.44934 3.25606 3.81895 3.76825 3.81895 4.58626C3.81895 5.34799 4.24859 5.80578 5.08724 5.93711L6.03659 6.07594C6.4728 6.14536 6.72233 6.24949 6.72233 6.57501C6.72233 6.9418 6.46623 7.14349 5.89775 7.14349C5.32927 7.14349 5.0863 6.90146 5.01032 6.57501C4.99343 6.50371 4.93246 6.45118 4.85929 6.45212L3.90713 6.46244C3.81614 6.46337 3.74484 6.54405 3.75704 6.63411C3.8546 7.363 4.4212 7.92491 5.31614 8.08626L5.35084 8.09283V9.30859C3.77017 9.96431 2.36492 10.409 0.938086 9.31985V2.5084C2.44559 3.33486 3.95216 2.9418 5.35084 2.3902V3.11722H5.31614H5.3152Z"/>
  </g>
</svg>