<svg xmlns="http://www.w3.org/2000/svg" fill="none" viewBox="0 0 24 24"><g filter="url(#a)"><path fill="var(--icon-secondary)" d="M18.151 8.17c.602 1.07.602 2.505.602 5.375s0 4.306-.602 5.375a4.55 4.55 0 0 1-1.643 1.686c-1.041.618-2.44.618-5.237.618H8.278c-.843 0-1.559 0-2.176-.017l-3.055 1.86c-.315.192-.709-.063-.676-.437l.205-2.34a4.572 4.572 0 0 1-1.179-1.37c-.601-1.069-.601-2.504-.601-5.375 0-2.87 0-4.306.601-5.375a4.55 4.55 0 0 1 1.644-1.686c1.041-.617 2.44-.617 5.237-.617h2.993c2.797 0 4.195 0 5.237.617a4.55 4.55 0 0 1 1.643 1.686Z"/></g><g filter="url(#b)" opacity=".25"><path fill="#000" fill-rule="evenodd" d="M18.047 19.096c.036-.058.071-.116.104-.176.602-1.069.602-2.504.602-5.375 0-2.87 0-4.306-.602-5.375a4.55 4.55 0 0 0-1.643-1.686c-1.041-.617-2.44-.617-5.237-.617H8.278c-1.784 0-3 0-3.916.16-.078 1.534-.078 3.307-.078 4.762 0 2.872 0 4.308.601 5.378.394.7.961 1.283 1.644 1.688 1.041.617 2.44.617 5.237.617h2.993c.88 0 1.622 0 2.257-.02l1.031.644Z" clip-rule="evenodd"/></g><g filter="url(#c)"><path fill="var(--icon-primary)" d="M5.849 4.505c-.602 1.07-.602 2.506-.602 5.379 0 2.872 0 4.308.602 5.378.394.7.96 1.283 1.643 1.687 1.041.618 2.44.618 5.237.618h2.993c.88 0 1.622 0 2.257-.02l2.969 1.851c.315.197.713-.058.68-.435l-.204-2.33c.477-.371.878-.836 1.178-1.371.602-1.07.602-2.506.602-5.378 0-2.873 0-4.309-.602-5.379a4.552 4.552 0 0 0-1.643-1.687C19.918 2.2 18.52 2.2 15.722 2.2h-2.993c-2.797 0-4.196 0-5.237.618a4.552 4.552 0 0 0-1.643 1.687Z"/></g><path fill="var(--icon-secondary)" fill-rule="evenodd" d="M12.798 9.797c0 .367.146.718.407.977a1.394 1.394 0 0 0 1.965 0 1.377 1.377 0 0 0 0-1.953 1.394 1.394 0 0 0-1.965 0c-.26.259-.407.61-.407.976ZM8.009 9.797c0 .367.146.718.407.977a1.394 1.394 0 0 0 1.965 0 1.377 1.377 0 0 0 0-1.953 1.394 1.394 0 0 0-1.965 0c-.26.259-.407.61-.407.976ZM17.662 9.797c0 .367.146.718.407.977a1.394 1.394 0 0 0 1.965 0 1.377 1.377 0 0 0 0-1.953 1.394 1.394 0 0 0-1.965 0c-.26.259-.407.61-.407.976Z" clip-rule="evenodd"/><defs><filter id="a" width="35.358" height="34.668" x="-7.905" y="-2.834" color-interpolation-filters="sRGB" filterUnits="userSpaceOnUse"><feFlood flood-opacity="0" result="BackgroundImageFix"/><feGaussianBlur in="BackgroundImageFix" stdDeviation="4.35"/><feComposite in2="SourceAlpha" operator="in" result="effect1_backgroundBlur_150_179"/><feBlend in="SourceGraphic" in2="effect1_backgroundBlur_150_179" result="shape"/></filter><filter id="b" width="67.802" height="66.562" x="-22.383" y="-20.8" color-interpolation-filters="sRGB" filterUnits="userSpaceOnUse"><feFlood flood-opacity="0" result="BackgroundImageFix"/><feGaussianBlur in="BackgroundImageFix" stdDeviation="13.333"/><feComposite in2="SourceAlpha" operator="in" result="effect1_backgroundBlur_150_179"/><feBlend in="SourceGraphic" in2="effect1_backgroundBlur_150_179" result="shape"/></filter><filter id="c" width="71.29" height="70.599" x="-21.42" y="-24.466" color-interpolation-filters="sRGB" filterUnits="userSpaceOnUse"><feFlood flood-opacity="0" result="BackgroundImageFix"/><feGaussianBlur in="BackgroundImageFix" stdDeviation="13.333"/><feComposite in2="SourceAlpha" operator="in" result="effect1_backgroundBlur_150_179"/><feBlend in="SourceGraphic" in2="effect1_backgroundBlur_150_179" result="shape"/></filter></defs></svg>