<svg xmlns="http://www.w3.org/2000/svg" fill="none" viewBox="0 0 24 24"><path fill="#6BC98C" d="M16.895 23.355c2.464-.289 3.23-3.23 3.23-3.23s2.941-.766 3.23-3.23c.288-2.464-3.21-3.854-4.202-4.202C15.607 11.456 12 12 12 12s-.544 3.607.693 7.153c.348.992 1.738 4.49 4.202 4.202ZM7.105.645c-2.464.289-3.23 3.23-3.23 3.23s-2.941.766-3.23 3.23c-.288 2.464 3.21 3.854 4.202 4.202C8.393 12.544 12 12 12 12s.544-3.607-.693-7.153C10.96 3.855 9.57.357 7.105.645Z"/><path fill="#000" d="M12 11.983s.328-.049.883-.084c-.07 1.326-.042 3.732.787 6.11.349.991 1.738 4.49 4.202 4.2a3.142 3.142 0 0 0 1.618-.683c-.494.797-1.315 1.662-2.595 1.812-2.464.288-3.854-3.21-4.202-4.202-1.236-3.545-.693-7.153-.693-7.153Z" opacity=".2"/><path fill="#000" d="M12 12.017s-.328.05-.883.085c.071-1.327.042-3.732-.787-6.11C9.982 5 8.592 1.502 6.128 1.791a3.142 3.142 0 0 0-1.618.684C5.004 1.677 5.826.813 7.105.663c2.464-.289 3.854 3.21 4.203 4.202 1.236 3.545.692 7.152.692 7.152Z" opacity=".2"/><path fill="#6BC98C" d="M23.355 7.105c-.289-2.464-3.23-3.23-3.23-3.23s-.766-2.941-3.23-3.23c-2.464-.288-3.854 3.21-4.202 4.202C11.456 8.393 12 12 12 12s3.607.544 7.152-.693c.993-.348 4.491-1.738 4.203-4.202Zm-22.71 9.79c.289 2.464 3.23 3.23 3.23 3.23s.766 2.941 3.23 3.23c2.464.288 3.854-3.21 4.202-4.202C12.544 15.607 12 12 12 12s-3.607-.544-7.153.693c-.992.348-4.49 1.738-4.202 4.202Z"/><path fill="#000" d="M11.983 12s-.049-.328-.084-.883c1.326.071 3.732.042 6.11-.787.991-.348 4.49-1.738 4.2-4.202a3.143 3.143 0 0 0-.683-1.618c.797.494 1.662 1.316 1.812 2.595.288 2.464-3.21 3.854-4.202 4.202-3.545 1.237-7.153.693-7.153.693Z" opacity=".2"/><path fill="#000" d="M12.017 12s.05.328.085.883c-1.327-.07-3.732-.042-6.11.787-.992.349-4.49 1.738-4.201 4.202.076.653.339 1.186.684 1.618-.797-.494-1.662-1.315-1.812-2.595-.289-2.464 3.21-3.854 4.201-4.202C8.41 11.457 12.017 12 12.017 12Z" opacity=".2"/></svg>