<svg xmlns="http://www.w3.org/2000/svg" fill="none" viewBox="0 0 24 24"><g fill-rule="evenodd" clip-path="url(#a)" clip-rule="evenodd"><path fill="var(--icon-primary)" d="M12.79 2.69A6.04 6.04 0 0 1 17.03 1c1.58.01 3.09.65 4.21 1.77a6.055 6.055 0 0 1 1.77 4.21 6.04 6.04 0 0 1-1.69 4.24h-.01l-3.02 3.03c-.61.61-1.35 1.08-2.16 1.39-.81.3-1.68.43-2.54.36a6.022 6.022 0 0 1-4.4-2.4c-.33-.44-.24-1.07.2-1.41.44-.34 1.07-.24 1.41.2.35.46.79.84 1.29 1.12a4.038 4.038 0 0 0 3.33.24c.54-.2 1.03-.52 1.44-.92l3.01-3.01A4.01 4.01 0 0 0 20.99 7c0-1.05-.43-2.06-1.18-2.81A4.01 4.01 0 0 0 17 3.01c-1.05 0-2.07.39-2.82 1.12l-1.72 1.71c-.39.39-1.03.39-1.42 0-.39-.39-.39-1.03 0-1.42l1.73-1.72h.01l.01-.01Z"/><path fill="var(--icon-primary)" d="M7.89 8.34c.81-.3 1.68-.43 2.54-.36a6.022 6.022 0 0 1 4.4 2.4c.33.44.24 1.07-.2 1.41-.44.33-1.07.24-1.41-.2-.35-.46-.79-.84-1.29-1.12a4.039 4.039 0 0 0-3.33-.24c-.54.2-1.03.52-1.44.92l-3.01 3.01a4.01 4.01 0 0 0-1.12 2.82c0 1.05.43 2.06 1.18 2.81a4.01 4.01 0 0 0 2.81 1.18c1.05 0 2.06-.39 2.82-1.12l1.71-1.71c.39-.39 1.03-.39 1.42 0 .39.39.39 1.03 0 1.42l-1.72 1.72h-.01A6.016 6.016 0 0 1 7 22.99a6.012 6.012 0 0 1-4.21-1.77A6.045 6.045 0 0 1 1.01 17c-.02-1.58.59-3.1 1.69-4.24h.01l3.02-3.03c.61-.61 1.35-1.08 2.16-1.39Z"/><path fill="var(--icon-secondary)" d="M19.81 3.46A4.01 4.01 0 0 0 17 2.28c-1.05 0-2.07.39-2.82 1.12l-1.72 1.71a1.008 1.008 0 0 1-1.64-.33c-.14.36-.07.79.22 1.08.39.39 1.03.4 1.42 0l1.72-1.71A4.01 4.01 0 0 1 17 3.03c1.05 0 2.06.43 2.81 1.18a4.03 4.03 0 0 1 1.14 2.47c.01-.14.04-.27.04-.41 0-1.05-.43-2.06-1.18-2.81ZM21.31 10.49h-.01l-3.02 3.03c-.61.61-1.35 1.08-2.16 1.39-.81.31-1.68.43-2.54.36a6.022 6.022 0 0 1-4.4-2.4.973.973 0 0 1-.11-.23c-.13.32-.11.68.11.97a6.022 6.022 0 0 0 4.4 2.4c.86.06 1.73-.06 2.54-.36s1.55-.78 2.16-1.39l3.02-3.02h.01A6.037 6.037 0 0 0 23 6.99c0-.1-.01-.2-.02-.31a5.998 5.998 0 0 1-1.68 3.8l.01.01ZM11.23 20.54h-.01a6.016 6.016 0 0 1-4.24 1.71 6.012 6.012 0 0 1-4.21-1.77 5.988 5.988 0 0 1-1.75-3.9c0 .15-.02.29-.02.44.01 1.58.65 3.09 1.77 4.21A6.055 6.055 0 0 0 6.98 23c1.58.01 3.1-.59 4.24-1.69h.01l1.72-1.73c.29-.29.37-.72.22-1.08-.05.12-.12.24-.22.34l-1.72 1.72v-.02Z"/><path fill="var(--icon-secondary)" d="M13.21 10.86c-.35-.46-.79-.84-1.29-1.12a4.039 4.039 0 0 0-3.33-.24c-.54.2-1.03.52-1.44.92l-3.01 3.01a4.01 4.01 0 0 0-1.12 2.82c0 .11.03.22.04.34.08-.9.45-1.76 1.09-2.42l3.01-3.01c.41-.41.9-.72 1.44-.92.54-.2 1.12-.28 1.69-.24.58.04 1.13.21 1.64.48.51.28.95.66 1.29 1.12.33.44.96.54 1.41.2.37-.28.48-.76.31-1.18-.07.16-.16.32-.31.43-.44.33-1.07.24-1.41-.2l-.01.01Z"/></g><defs><clipPath id="a"><path fill="#fff" d="M1 1h22.01v21.99H1z"/></clipPath></defs></svg>