<svg xmlns="http://www.w3.org/2000/svg" fill="none" viewBox="0 0 24 24"><path fill="var(--icon-secondary)" d="M12 22.667c5.891 0 10.667-4.776 10.667-10.667S17.89 1.333 12 1.333C6.11 1.333 1.334 6.11 1.334 12S6.109 22.667 12 22.667Z"/><g fill="#000" opacity=".2"><path d="M6.547 11.72a.906.906 0 0 0 0 1.813h11.805a.906.906 0 0 0 0-1.812H6.547ZM6.547 7.786a.906.906 0 1 0 0 1.812h11.805a.906.906 0 0 0 0-1.812H6.547ZM6.547 15.656a.906.906 0 0 0 0 1.812h11.805a.906.906 0 0 0 0-1.812H6.547Z"/></g><path fill="var(--icon-primary)" d="M6.114 11.116a.906.906 0 0 0 0 1.812H17.92a.906.906 0 0 0 0-1.812H6.114ZM6.114 7.181a.906.906 0 1 0 0 1.812H17.92a.906.906 0 1 0 0-1.812H6.114ZM6.114 15.051a.906.906 0 1 0 0 1.812H17.92a.906.906 0 1 0 0-1.812H6.114Z"/></svg>