<svg xmlns="http://www.w3.org/2000/svg" fill="none" viewBox="0 0 24 24"><g clip-path="url(#a)"><path fill="var(--icon-primary)" d="M18 1H4C2.34 1 1 2.34 1 4v16.16c0 .31.38.47.6.25l2.74-2.74L4.01 14V5h17v16V4c0-1.66-1.34-3-3-3H18Z"/><path fill="var(--icon-secondary)" d="M20.24 2H5C3.34 2 2 3.34 2 5v15l2.33-2.33.03-1.67.14-10H22v16V5l-1-1.36s-.12-.95-.76-1.64Z"/><path fill="var(--icon-primary)" d="M20.01 3H6C4.34 3 3 4.34 3 6v16.16c0 .31.38.47.6.25l2.03-2.03a.996.996 0 0 1 1.41 0l1.78 1.78c.47.47 1.22.47 1.69 0l1.78-1.78a.996.996 0 0 1 1.41 0l1.78 1.78c.47.47 1.22.47 1.69 0l1.78-1.78a.996.996 0 0 1 1.41 0l2.03 2.03c.22.22.6.06.6-.25V5.99C22.99 4.34 21.65 3 20 3h.01ZM10.5 15h-3c-.55 0-1-.45-1-1s.45-1 1-1h3c.55 0 1 .45 1 1s-.45 1-1 1Zm0-4h-3c-.55 0-1-.45-1-1s.45-1 1-1h3c.55 0 1 .45 1 1s-.45 1-1 1Zm8.71-.29-3.5 3.5c-.2.2-.45.29-.71.29-.26 0-.51-.1-.71-.29l-1.5-1.5a.996.996 0 1 1 1.41-1.41l.79.79 2.79-2.79a.996.996 0 1 1 1.41 1.41h.02Z"/></g><defs><clipPath id="a"><path fill="#fff" d="M1 1h22v21.51H1z"/></clipPath></defs></svg>