<svg xmlns="http://www.w3.org/2000/svg" fill="none" viewBox="0 0 14 15"><path fill="var(--icon-primary)" d="M7.413 7.268a.583.583 0 0 1 .04.78l-.04.045-1.709 1.71-.162.15a3 3 0 0 1-4.95-2.049l-.008-.222a3 3 0 0 1 1.852-2.77c.25-.104.458-.168.69-.2.108-.015.218-.022.333-.025l.36-.004h2.387a.584.584 0 0 1 0 1.167H3.819l-.326.003a1.926 1.926 0 0 0-.208.015 1.555 1.555 0 0 0-.403.122 1.832 1.832 0 0 0-1.131 1.692l.005.136A1.833 1.833 0 0 0 4.78 9.07l.1-.093 1.708-1.709.045-.04a.583.583 0 0 1 .78.04Z"/><path fill="var(--icon-primary)" d="M4.154 4.03a.583.583 0 0 1 .825-.826l1.65 1.65a.583.583 0 0 1 0 .825L4.98 7.33a.583.583 0 0 1-.825-.825l1.238-1.237-1.238-1.238ZM6.589 8.096a.583.583 0 0 1-.04-.78l.04-.045 1.709-1.709.162-.15a2.999 2.999 0 0 1 4.95 2.048l.008.222a2.999 2.999 0 0 1-1.852 2.771c-.25.104-.458.168-.69.2a3.12 3.12 0 0 1-.333.025l-.36.003H7.796a.584.584 0 0 1 0-1.167h2.387l.326-.002a1.93 1.93 0 0 0 .208-.015c.104-.014.212-.043.403-.122a1.833 1.833 0 0 0 1.131-1.693l-.005-.135a1.833 1.833 0 0 0-3.024-1.252l-.1.092-1.708 1.709-.045.04a.583.583 0 0 1-.78-.04Z"/><path fill="var(--icon-primary)" d="M9.848 11.335a.583.583 0 1 1-.825.825l-1.65-1.65a.583.583 0 0 1 0-.825l1.65-1.65a.583.583 0 1 1 .825.825L8.61 10.098l1.238 1.237Z"/></svg>