<svg xmlns="http://www.w3.org/2000/svg" fill="none" viewBox="0 0 24 24"><g clip-path="url(#a)"><path fill="var(--icon-primary)" d="M19 13.31H5V8c0-3.86 3.14-7 7-7s7 3.14 7 7v5.31Zm-12-.29h10V8c0-2.76-2.24-5-5-5S7 5.24 7 8v5.02Z"/><path fill="var(--icon-secondary)" d="M12 2.15C8.77 2.15 6.15 4.77 6.15 8v4.16h11.7V8c0-3.23-2.62-5.85-5.85-5.85Zm5 9.16H7V8c0-2.76 2.24-5 5-5s5 2.24 5 5v3.31Z"/><path fill="var(--icon-primary)" d="M19.9 10H4.1A2.1 2.1 0 0 0 2 12.1v8.79c0 1.16.94 2.1 2.1 2.1h15.79a2.1 2.1 0 0 0 2.1-2.1V12.1a2.1 2.1 0 0 0-2.1-2.1h.01Zm-6.56 9.7c.05.28-.16.54-.45.54h-1.8c-.29 0-.5-.26-.45-.54l.57-3.04c-.4-.26-.67-.7-.67-1.22a1.451 1.451 0 0 1 2.9 0c0 .51-.27.96-.67 1.22l.57 3.04Z"/><path fill="var(--icon-secondary)" d="M4.1 23h15.79a2.1 2.1 0 0 0 2.1-2.1v-1.1c0 1.15-.93 2.08-2.08 2.08H4.08A2.093 2.093 0 0 1 2 19.79v1.1C2 22.06 2.94 23 4.1 23Z"/></g><defs><clipPath id="a"><path fill="#fff" d="M2 1h20v22H2z"/></clipPath></defs></svg>