<svg xmlns="http://www.w3.org/2000/svg" fill="none" viewBox="0 0 24 24"><g clip-path="url(#a)"><path fill="var(--icon-primary)" d="M11.26 15.92c-.71-.84-1.32-1.96-1.74-3.25-.42-1.29-.58-2.56-.5-3.66.05-.7.22-1.35.5-1.9l-7.5 5.57c-.91.6-1.26 1.76-.84 2.76l.47 1.12c.38.9 1.3 1.46 2.27 1.37l9.31-.56c-.71-.23-1.39-.76-1.97-1.45Z"/><path fill="var(--icon-secondary)" d="M4.8 18.34s2.31 2.62 2.69 3.01c1.18 1.2 3.02.56 1.8-.7-1.09-1.13-2.25-2.45-2.25-2.45l-2.24.14ZM16.29 10.53c-.48-1.48-1.23-2.75-2.08-3.59-.83-.82-1.88-1.36-2.91-1.03-.3.1-.57.26-.79.48-.62.6-.94 1.56-1.01 2.61-.05.64 0 1.35.13 2.09l2.09-.58c.81-.24 1.66.22 1.9 1.02l.03.09c.12.39.07.8-.12 1.16-.19.36-.52.62-.91.74l-2.01.56c.32.64.68 1.22 1.08 1.69.68.8 1.5 1.4 2.35 1.52.31.05.63.02.93-.08 1.02-.33 1.56-1.39 1.74-2.54.19-1.18.05-2.65-.43-4.13l.01-.01Z"/><path fill="var(--icon-primary)" d="M12.983 11.213c.048-.17-.173-.38-.492-.468-.32-.089-.617-.023-.664.148-.047.17.173.38.493.468.319.089.616.023.663-.148Z"/><path fill="var(--icon-secondary)" d="M11.26 15.92s-.01-.02-.02-.02l-7.55 1.36c-.81.07-1.6-.15-2.06-.74l.02.04c.38.9 1.3 1.46 2.27 1.37l9.31-.56c-.71-.23-1.39-.76-1.97-1.45Z"/><path fill="var(--icon-primary)" d="M14.65 23.08c-.1 0-.19-.03-.27-.08l-2.8-1.83a.49.49 0 0 1-.14-.69c.15-.23.46-.29.69-.14l2.34 1.53 1.31-2.47c.09-.17.27-.27.47-.27l2.79.16-.1-2.8c0-.2.1-.38.27-.46l2.5-1.26-1.49-2.37c-.1-.17-.1-.38 0-.54l1.53-2.34-2.47-1.31a.504.504 0 0 1-.27-.47l.16-2.79-2.8.1c-.19.02-.38-.1-.46-.27l-1.26-2.5-2.37 1.49c-.17.1-.38.1-.54 0L9.4 2.24 8.09 4.71c-.09.17-.27.27-.47.27l-2.79-.16.1 2.8c.01.28-.21.51-.48.52-.26.02-.51-.21-.52-.48l-.12-3.34c0-.14.05-.28.15-.38.1-.1.24-.15.38-.14l3.02.17 1.4-2.7c.07-.12.18-.21.32-.25.14-.03.28-.01.4.07l2.53 1.66 2.56-1.62c.12-.07.26-.1.4-.06.14.04.25.13.31.26l1.36 2.7 3.02-.11c.15 0 .28.05.38.15.1.1.15.24.14.38l-.17 3.02 2.68 1.41c.12.07.21.18.25.32.04.14.01.28-.07.4l-1.66 2.53 1.61 2.56c.07.12.1.26.06.4-.04.14-.13.25-.26.31l-2.7 1.37.11 3.02c0 .14-.05.28-.15.38-.1.1-.23.15-.38.14l-3.02-.17-1.41 2.68c-.07.12-.18.22-.32.25-.04.01-.08.02-.12.02l.02-.01Z"/><path fill="var(--icon-secondary)" d="M16.22 4.37c-.19.02-.38-.1-.46-.27l-1.17-2.31c-.05-.1-.17-.13-.27-.07l-2.2 1.38c-.17.1-.38.1-.54 0l-2.2-1.44c-.08-.05-.18-.02-.23.06L7.92 4.04c-.09.17-.27.28-.47.27l-2.57-.14c-.12 0-.22.09-.21.21l.1 2.58c.01.28-.21.51-.48.52a.468.468 0 0 1-.39-.18v.37c.02.28.27.5.53.48.28-.01.49-.24.48-.52l-.1-2.8 2.79.16c.19.01.38-.09.47-.27l1.31-2.47 2.34 1.53c.16.11.37.11.54 0l2.37-1.49 1.26 2.5c.09.17.28.3.46.27l2.8-.1s-.05-.68-.33-.67l-2.61.1.01-.02ZM19.13 7.52s-.07-.07-.11-.1l-.02.3c-.01.2.09.38.27.47l2.47 1.31s.23-.5-.39-.8c-.39-.19-2.23-1.18-2.23-1.18h.01ZM21.11 11.43c-.2.3.12.69.12.69l1.66-2.53c.08-.12.1-.26.07-.4a.49.49 0 0 0-.21-.28s-1.43 2.22-1.63 2.51l-.01.01ZM20.19 11.9a.53.53 0 0 0 .02.49l1.49 2.37s.1-.29-.14-.67c-.24-.38-1.37-2.19-1.37-2.19ZM22.71 14.49c-.05.1-.12.19-.22.24L20 15.99c-.13.07-.21.2-.21.35l.1 2.78c0 .14-.05.28-.15.38-.1.1-.23.15-.38.14l-2.63-.15a.605.605 0 0 0-.57.32l-1.23 2.33c-.07.12-.18.21-.32.25-.04.01-.08.02-.12.02-.1 0-.19-.03-.27-.08l-2.8-1.83c-.14.23-.08.53.15.68l2.8 1.83c.08.05.18.08.27.08.04 0 .08 0 .12-.02.14-.04.25-.13.32-.25l1.41-2.68 3.02.17c.14.01.28-.04.38-.14.1-.1.15-.23.15-.38l-.11-3.02 2.7-1.36a.5.5 0 0 0 .26-.31c.04-.14.02-.28-.06-.4l-.12-.2v-.01Z"/></g><defs><clipPath id="a"><path fill="#fff" d="M1 1h21.97v22.08H1z"/></clipPath></defs></svg>