<svg xmlns="http://www.w3.org/2000/svg" fill="none" viewBox="0 0 24 25"><g clip-path="url(#a)"><path fill="var(--icon-primary)" d="M15.28 15.57c-.98-1.17-1.84-2.73-2.43-4.53-.58-1.79-.81-3.57-.7-5.09.07-.98.3-1.88.69-2.64L2.41 11.07a3.138 3.138 0 0 0-1.17 3.84l.65 1.55c.53 1.26 1.8 2.03 3.16 1.91l12.96-.79c-.99-.32-1.94-1.06-2.74-2.01h.01Z"/><path fill="var(--icon-secondary)" d="M6.29 18.94s3.41 3.25 3.94 3.78c1.56 1.57 4.12.51 2.51-.97-1.61-1.48-3.33-3.01-3.33-3.01l-3.12.19v.01ZM22.28 8.07c-.67-2.06-1.71-3.82-2.9-5-1.15-1.15-2.62-1.9-4.04-1.43-.41.14-.79.37-1.1.67-.87.83-1.3 2.17-1.41 3.64-.06.9 0 1.88.18 2.91l2.91-.81a2.13 2.13 0 0 1 2.64 1.43l.04.12c.16.54.1 1.11-.17 1.61s-.72.86-1.26 1.02l-2.79.78c.45.89.95 1.69 1.51 2.35.94 1.12 2.08 1.95 3.28 2.11.43.06.87.03 1.29-.11 1.43-.46 2.17-1.94 2.43-3.54.27-1.65.07-3.69-.6-5.75h-.01ZM15.28 15.57s-.02-.02-.02-.03L4.75 17.43c-1.13.1-2.23-.21-2.87-1.03l.02.06c.53 1.26 1.8 2.03 3.16 1.91l12.96-.79c-.99-.32-1.94-1.06-2.74-2.01Z"/><path fill="var(--icon-primary)" d="M17.854 9.07c.081-.292-.289-.65-.826-.8-.538-.149-1.04-.032-1.12.26-.082.293.288.651.825.8.538.15 1.04.033 1.12-.26Z"/></g><defs><clipPath id="a"><path fill="#fff" d="M1 1.5h21.99v22H1z"/></clipPath></defs></svg>