<svg xmlns="http://www.w3.org/2000/svg" fill="none" viewBox="0 0 24 24"><path fill="var(--icon-primary)" d="M.502 7.065V8.3c0 .883.724 1.598 1.618 1.598h19.76c.893 0 1.618-.715 1.618-1.598V7.065c0-.883-.725-1.598-1.618-1.598H2.12c-.894 0-1.618.715-1.618 1.598Z"/><path fill="var(--icon-secondary)" d="M3.35 10.794v10.361a.97.97 0 0 0 .283.693c.184.185.435.29.697.292h15.342a.994.994 0 0 0 .697-.292.97.97 0 0 0 .283-.693V10.794a.88.88 0 0 1 .258-.63.903.903 0 0 1 .633-.265H2.46a.904.904 0 0 1 .632.265c.167.168.26.394.258.63ZM9.606 2.527l1.616 1.345a1.219 1.219 0 0 0 1.558 0l1.616-1.345c1.852-1.542 4.684-.24 4.684 2.152v.787H4.922V4.68c0-2.393 2.831-3.694 4.684-2.152Z"/><g opacity=".2"><mask id="a" width="20" height="3" x="2" y="9" maskUnits="userSpaceOnUse" style="mask-type:alpha"><path fill="#D9D9D9" d="M2.246 11.136h19.458V9.39H2.246z"/></mask><g mask="url(#a)"><path fill="#000" d="M3.35 10.794v10.361a.97.97 0 0 0 .283.693c.184.185.435.29.697.292h15.342a.994.994 0 0 0 .697-.292.97.97 0 0 0 .283-.693V10.794a.88.88 0 0 1 .258-.63.903.903 0 0 1 .633-.265H2.46a.904.904 0 0 1 .632.265c.167.168.26.394.258.63Z"/></g></g><path fill="var(--icon-secondary)" d="M3.758 14.306a8.242 8.242 0 1 1 16.484 0v.156H3.758v-.156Z"/><path fill="var(--icon-primary)" fill-rule="evenodd" d="M12 8.368a5.793 5.793 0 1 0 0 11.585 5.793 5.793 0 0 0 0-11.585ZM4.92 14.16a7.08 7.08 0 1 1 14.16 0 7.08 7.08 0 0 1-14.16 0Z" clip-rule="evenodd"/><path fill="var(--icon-primary)" fill-rule="evenodd" d="M12 9.655c.355 0 .644.288.644.643v3.464l2.218 1.11a.644.644 0 0 1-.575 1.151l-2.575-1.287a.644.644 0 0 1-.356-.576v-3.862c0-.355.289-.643.644-.643Z" clip-rule="evenodd"/></svg>