<svg xmlns="http://www.w3.org/2000/svg" fill="none" viewBox="0 0 24 24"><path fill="#6BC98C" d="M3.774 11.973v9.692a.908.908 0 0 0 .265.649.93.93 0 0 0 .652.273h14.35a.93.93 0 0 0 .652-.273.907.907 0 0 0 .265-.649v-9.692a.824.824 0 0 1 .241-.588.845.845 0 0 1 .592-.248H2.94a.845.845 0 0 1 .592.248.824.824 0 0 1 .241.588Z"/><path fill="#8DE3AB" d="m.415 15.13.743.886c.53.633 1.478.711 2.119.175L17.45 4.327c.64-.536.73-1.484.201-2.116l-.742-.888a1.504 1.504 0 0 0-2.12-.174L.617 13.012a1.504 1.504 0 0 0-.2 2.117Z"/><path fill="#6BC98C" d="m4.22 6.409 1.967-.006a1.14 1.14 0 0 0 1.118-.935l.351-1.935c.403-2.218 3.215-2.985 4.652-1.269l.473.565-10.155 8.5-.473-.565C.716 9.048 1.966 6.415 4.22 6.41Z"/><path fill="#8DE3AB" d="M13.444 11.136h-3.155v11.45h3.155v-11.45Z"/><g opacity=".2"><mask id="a" width="16" height="14" x="1" y="5" maskUnits="userSpaceOnUse" style="mask-type:alpha"><path fill="#D9D9D9" d="M2.835 18.748 16.769 7.04l-1.05-1.25L1.783 17.498z"/></mask><g mask="url(#a)"><path fill="#000" d="M3.774 11.973v9.692a.908.908 0 0 0 .265.648.93.93 0 0 0 .652.273h14.35a.93.93 0 0 0 .652-.273.908.908 0 0 0 .265-.648v-9.692a.824.824 0 0 1 .241-.589.846.846 0 0 1 .592-.248H2.941a.845.845 0 0 1 .592.248.824.824 0 0 1 .241.59Z"/></g></g><path fill="#6BC98C" d="M22.009 8.365a.105.105 0 0 1-.164.113l-.78-.593a.105.105 0 0 0-.093-.017l-.942.27a.105.105 0 0 1-.112-.165l.592-.78a.105.105 0 0 0 .017-.093l-.269-.942a.105.105 0 0 1 .164-.112l.78.592c.027.02.061.027.093.018l.942-.27a.105.105 0 0 1 .112.164l-.592.781a.105.105 0 0 0-.017.092l.269.942ZM16.952 10.04a.105.105 0 0 1-.148.133l-.867-.495a.105.105 0 0 0-.094-.005l-.916.397a.105.105 0 0 1-.133-.148l.495-.867a.105.105 0 0 0 .005-.094l-.397-.916a.105.105 0 0 1 .148-.133l.868.495a.105.105 0 0 0 .093.005l.916-.396c.093-.04.183.06.133.147l-.495.868a.105.105 0 0 0-.005.093l.397.916ZM19.722 3.773a.123.123 0 0 1-.226-.056l-.037-.482a.123.123 0 0 0-.057-.094l-.408-.26a.123.123 0 0 1 .056-.225l.482-.038a.123.123 0 0 0 .094-.057l.259-.408a.123.123 0 0 1 .226.056l.037.482a.123.123 0 0 0 .057.094l.409.259c.1.063.061.217-.057.226l-.482.038a.123.123 0 0 0-.094.056l-.259.409Z"/><path fill="#8DE3AB" d="M18.698 6.83a.141.141 0 0 1-.199.178l-.502-.286a.141.141 0 0 0-.126-.007l-.531.23a.141.141 0 0 1-.179-.2l.287-.502a.141.141 0 0 0 .007-.126l-.23-.53a.141.141 0 0 1 .2-.18l.502.287a.141.141 0 0 0 .126.007l.53-.23a.141.141 0 0 1 .18.2l-.288.502a.14.14 0 0 0-.007.126l.23.53ZM20.369 10.06a.105.105 0 0 1-.148.133l-.424-.242a.105.105 0 0 0-.094-.005l-.448.194a.105.105 0 0 1-.132-.148l.242-.424a.105.105 0 0 0 .005-.094l-.194-.448a.105.105 0 0 1 .148-.132l.424.242a.105.105 0 0 0 .093.005l.448-.194c.092-.04.182.06.133.148l-.242.424a.105.105 0 0 0-.006.093l.195.448ZM22.687 5.33a.105.105 0 0 1-.171.1l-.486-.426a.105.105 0 0 0-.09-.024l-.633.132a.105.105 0 0 1-.1-.172l.427-.485a.105.105 0 0 0 .024-.09l-.132-.633a.105.105 0 0 1 .171-.1l.486.427c.024.021.058.03.09.024l.632-.133a.105.105 0 0 1 .1.172l-.426.485a.105.105 0 0 0-.024.09l.132.633Z"/><circle cx="18.785" cy="8.106" r=".142" fill="#6BC98C" transform="rotate(3.145 18.785 8.106)"/><circle cx="19.886" cy="5.527" r=".218" fill="#6BC98C" transform="rotate(3.145 19.886 5.527)"/><circle cx="20.518" cy="4.382" r=".142" fill="#6BC98C" transform="rotate(3.145 20.518 4.382)"/><circle cx="13.674" cy="9.17" r=".218" fill="#6BC98C" transform="rotate(3.145 13.674 9.17)"/></svg>