<svg viewBox="0 0 22 24" fill="none" xmlns="http://www.w3.org/2000/svg">
  <g id="Group 1000006528">
    <g id="Vector">
      <path d="M5.95539 14.3576C6.06586 14.1663 6.31053 14.1007 6.50187 14.2112L10.6537 16.6082C10.845 16.7187 10.9106 16.9634 10.8001 17.1547L7.19417 23.4004C7.03628 23.6739 6.63865 23.6652 6.49286 23.3851L5.41598 21.316C5.34419 21.1781 5.19898 21.0943 5.04364 21.1011L2.71338 21.203C2.3979 21.2168 2.19156 20.8767 2.34945 20.6033L5.95539 14.3576Z" fill="#6BC98C" />
      <path d="M11.2002 17.1547C11.0897 16.9633 11.1552 16.7187 11.3466 16.6082L15.4984 14.2111C15.6897 14.1007 15.9344 14.1662 16.0449 14.3576L19.6508 20.6032C19.8087 20.8767 19.6024 21.2167 19.2869 21.2029L16.9566 21.101C16.8013 21.0942 16.6561 21.1781 16.5843 21.316L15.5074 23.385C15.3616 23.6651 14.964 23.6738 14.8061 23.4003L11.2002 17.1547Z" fill="#6BC98C" />
    </g>
    <g id="Group 1000006529">
      <path id="Star 16" opacity="0.2" d="M10.5849 1.71734C10.8216 1.50633 11.1789 1.50633 11.4156 1.71734L12.3911 2.587C12.5641 2.74125 12.8083 2.78691 13.0254 2.70558L14.2492 2.24702C14.5461 2.13577 14.8792 2.26483 15.0237 2.54709L15.6192 3.71042C15.7248 3.91675 15.936 4.04755 16.1678 4.05012L17.4746 4.06462C17.7917 4.06813 18.0557 4.30883 18.0885 4.62422L18.2235 5.9241C18.2474 6.15464 18.3971 6.35293 18.6123 6.43906L19.8256 6.92464C20.12 7.04245 20.2793 7.36228 20.1959 7.6682L19.8522 8.92907C19.7913 9.1527 19.8593 9.39169 20.0288 9.54974L20.9848 10.4408C21.2167 10.657 21.2497 11.0128 21.0614 11.2679L20.2855 12.3195C20.1478 12.506 20.1249 12.7534 20.2259 12.962L20.7954 14.1383C20.9336 14.4237 20.8358 14.7673 20.5681 14.9372L19.4647 15.6375C19.269 15.7617 19.1582 15.9841 19.1771 16.2151L19.2832 17.5177C19.309 17.8337 19.0936 18.1188 18.7826 18.1806L17.5008 18.4349C17.2734 18.48 17.0898 18.6474 17.0239 18.8697L16.6523 20.1226C16.5622 20.4266 16.2584 20.6147 15.9461 20.5599L14.6589 20.334C14.4306 20.2939 14.1989 20.3837 14.0572 20.5671L13.2581 21.6012C13.0642 21.8521 12.713 21.9178 12.4416 21.7538L11.3229 21.0782C11.1245 20.9584 10.876 20.9584 10.6776 21.0782L9.55891 21.7538C9.28749 21.9178 8.93629 21.8521 8.74241 21.6012L7.94333 20.5671C7.8016 20.3837 7.5699 20.2939 7.3416 20.334L6.0544 20.5599C5.74209 20.6147 5.43832 20.4266 5.34817 20.1226L4.97662 18.8697C4.91072 18.6474 4.72709 18.48 4.49973 18.4349L3.21786 18.1806C2.90684 18.1188 2.69153 17.8337 2.71728 17.5177L2.82343 16.2151C2.84225 15.9841 2.7315 15.7617 2.53579 15.6375L1.43237 14.9372C1.16465 14.7673 1.06687 14.4237 1.20505 14.1383L1.77456 12.962C1.87557 12.7534 1.85265 12.506 1.71502 12.3195L0.939071 11.2679C0.750803 11.0128 0.783769 10.657 1.01571 10.4408L1.97168 9.54974C2.14123 9.39169 2.20923 9.1527 2.14827 8.92907L1.80459 7.6682C1.72121 7.36228 1.88046 7.04245 2.17484 6.92464L3.38815 6.43906C3.60335 6.35293 3.75309 6.15464 3.77703 5.9241L3.91204 4.62422C3.94479 4.30883 4.20883 4.06813 4.52589 4.06462L5.83268 4.05012C6.06446 4.04755 6.27571 3.91675 6.38133 3.71042L6.97678 2.54709C7.12126 2.26483 7.45442 2.13577 7.75134 2.24702L8.97512 2.70558C9.19217 2.78691 9.43642 2.74125 9.60943 2.587L10.5849 1.71734Z" fill="black" />
      <path id="Star 15" d="M10.5849 0.557668C10.8216 0.346663 11.1789 0.346663 11.4156 0.557668L12.3911 1.42734C12.5641 1.58158 12.8083 1.62724 13.0254 1.54591L14.2492 1.08736C14.5461 0.976099 14.8792 1.10516 15.0237 1.38742L15.6192 2.55075C15.7248 2.75708 15.936 2.88789 16.1678 2.89046L17.4746 2.90495C17.7917 2.90846 18.0557 3.14917 18.0885 3.46455L18.2235 4.76443C18.2474 4.99498 18.3971 5.19326 18.6123 5.27939L19.8256 5.76497C20.12 5.88278 20.2793 6.20261 20.1959 6.50853L19.8522 7.7694C19.7913 7.99303 19.8593 8.23202 20.0288 8.39007L20.9848 9.28115C21.2167 9.49736 21.2497 9.85312 21.0614 10.1083L20.2855 11.1598C20.1478 11.3463 20.1249 11.5938 20.2259 11.8024L20.7954 12.9786C20.9336 13.264 20.8358 13.6077 20.5681 13.7776L19.4647 14.4778C19.269 14.602 19.1582 14.8244 19.1771 15.0555L19.2832 16.358C19.309 16.6741 19.0936 16.9592 18.7826 17.0209L17.5008 17.2753C17.2734 17.3204 17.0898 17.4878 17.0239 17.71L16.6523 18.9629C16.5622 19.2669 16.2584 19.455 15.9461 19.4002L14.6589 19.1743C14.4306 19.1343 14.1989 19.224 14.0572 19.4074L13.2581 20.4415C13.0642 20.6924 12.713 20.7581 12.4416 20.5942L11.3229 19.9186C11.1245 19.7987 10.876 19.7987 10.6776 19.9186L9.55891 20.5942C9.28749 20.7581 8.93629 20.6924 8.74241 20.4415L7.94333 19.4074C7.8016 19.224 7.5699 19.1343 7.3416 19.1743L6.0544 19.4002C5.74209 19.455 5.43832 19.2669 5.34817 18.9629L4.97662 17.71C4.91072 17.4878 4.72709 17.3204 4.49973 17.2753L3.21786 17.0209C2.90684 16.9592 2.69153 16.6741 2.71728 16.358L2.82343 15.0555C2.84225 14.8244 2.7315 14.602 2.53579 14.4778L1.43237 13.7776C1.16465 13.6077 1.06687 13.264 1.20505 12.9786L1.77456 11.8024C1.87557 11.5938 1.85265 11.3463 1.71502 11.1598L0.939071 10.1083C0.750803 9.85312 0.783769 9.49736 1.01571 9.28115L1.97168 8.39007C2.14123 8.23202 2.20923 7.99303 2.14827 7.7694L1.80459 6.50853C1.72121 6.20261 1.88046 5.88278 2.17484 5.76497L3.38815 5.27939C3.60335 5.19326 3.75309 4.99498 3.77703 4.76443L3.91204 3.46455C3.94479 3.14917 4.20883 2.90846 4.52589 2.90495L5.83268 2.89046C6.06446 2.88789 6.27571 2.75708 6.38133 2.55075L6.97678 1.38742C7.12126 1.10516 7.45442 0.976099 7.75134 1.08736L8.97512 1.54591C9.19217 1.62724 9.43642 1.58158 9.60943 1.42734L10.5849 0.557668Z" fill="#6BC98C" />
      <path id="Star 17" d="M10.5846 1.71734C10.8213 1.50633 11.1786 1.50633 11.4153 1.71734L12.205 2.42137C12.378 2.57561 12.6222 2.62127 12.8393 2.53994L13.83 2.16872C14.1269 2.05747 14.4601 2.18653 14.6046 2.46879L15.0866 3.41055C15.1922 3.61688 15.4035 3.74769 15.6352 3.75026L16.6931 3.76199C17.0102 3.76551 17.2742 4.00621 17.307 4.32159L17.4163 5.3739C17.4402 5.60445 17.59 5.80273 17.8052 5.88886L18.7874 6.28195C19.0818 6.39977 19.241 6.7196 19.1577 7.02552L18.8794 8.04624C18.8185 8.26987 18.8865 8.50887 19.056 8.66691L19.8299 9.38828C20.0619 9.60449 20.0948 9.96025 19.9066 10.2154L19.2784 11.0667C19.1408 11.2532 19.1178 11.5006 19.2189 11.7092L19.6799 12.6614C19.8181 12.9468 19.7203 13.2905 19.4526 13.4604L18.5593 14.0273C18.3636 14.1515 18.2528 14.3739 18.2717 14.6049L18.3576 15.6594C18.3834 15.9754 18.168 16.2605 17.857 16.3223L16.8193 16.5282C16.5919 16.5733 16.4083 16.7407 16.3424 16.9629L16.0416 17.9772C15.9515 18.2812 15.6477 18.4693 15.3354 18.4145L14.2934 18.2316C14.0651 18.1916 13.8334 18.2813 13.6916 18.4648L13.0447 19.3019C12.8509 19.5528 12.4997 19.6185 12.2282 19.4545L11.3226 18.9076C11.1242 18.7878 10.8757 18.7878 10.6773 18.9076L9.77169 19.4545C9.50027 19.6185 9.14907 19.5528 8.95519 19.3019L8.3083 18.4648C8.16657 18.2813 7.93488 18.1916 7.70657 18.2316L6.66453 18.4145C6.35222 18.4693 6.04845 18.2812 5.9583 17.9772L5.65751 16.9629C5.59161 16.7407 5.40798 16.5733 5.18063 16.5282L4.1429 16.3223C3.83188 16.2605 3.61657 15.9754 3.64232 15.6594L3.72825 14.6049C3.74708 14.3739 3.63632 14.1515 3.44061 14.0273L2.54735 13.4604C2.27962 13.2905 2.18185 12.9468 2.32003 12.6614L2.78107 11.7092C2.88208 11.5006 2.85916 11.2532 2.72153 11.0667L2.09337 10.2154C1.9051 9.96025 1.93807 9.60449 2.17001 9.38828L2.9439 8.66691C3.11345 8.50887 3.18145 8.26988 3.1205 8.04625L2.84227 7.02552C2.75889 6.7196 2.91814 6.39977 3.21253 6.28196L4.19475 5.88886C4.40994 5.80274 4.55968 5.60445 4.58363 5.3739L4.69292 4.32159C4.72568 4.00621 4.98971 3.76551 5.30678 3.76199L6.36468 3.75026C6.59645 3.74769 6.80771 3.61688 6.91332 3.41055L7.39537 2.46879C7.53985 2.18653 7.873 2.05747 8.16993 2.16872L9.16063 2.53994C9.37768 2.62127 9.62192 2.57561 9.79494 2.42137L10.5846 1.71734Z" fill="#8DE3AB" />
      <path id="2" opacity="0.2" d="M13.3104 16.7774H10.2369V9.4678H8.13477V7.01536H9.26544C9.91836 7.01536 10.2687 6.68093 10.2687 5.96431V5.62988H13.3104V16.7774Z" fill="black" />
      <path id="1" d="M12.6261 16.2176H9.55254V8.90799H7.45044V6.45554H8.58111C9.23404 6.45554 9.58439 6.12112 9.58439 5.40449V5.07007H12.6261V16.2176Z" fill="black" />
    </g>
  </g>
</svg>