<svg xmlns="http://www.w3.org/2000/svg" width="90" height="97" viewBox="0 0 90 97" fill="none">
  <g clip-path="url(#clip0_8878_9124)">
    <path d="M50.4818 5.44931C49.0004 4.97935 48.0587 5.77254 46.9394 6.82981C38.3656 14.9429 23.7961 17.7548 16.3646 19.6023C13.9814 20.1945 10.8646 23.6598 11.1206 26.1146C12.5171 39.5054 19.6355 80.4763 51.7864 90.6757C53.1685 91.1142 54.5941 91.4949 56.0716 91.8157C57.0978 92.0378 58.1802 91.8561 59.1209 91.3042C87.5377 74.6601 86.3106 36.4676 85.2226 24.5698C85.0401 22.5647 83.7019 20.8141 81.9585 20.261C81.884 20.2373 81.8065 20.2152 81.7305 20.1961C80.2457 19.8212 78.2776 19.2855 76.0125 18.567C69.1135 16.3784 59.4545 12.5082 52.2596 6.44217C51.7097 5.97934 51.1021 5.64855 50.4788 5.45083L50.4818 5.44931Z" fill="#8FACFF"/>
    <g style="mix-blend-mode:multiply">
      <path d="M50.4818 5.44931C49.0004 4.97935 48.0587 5.77254 46.9394 6.82981C38.3656 14.9429 23.7961 17.7548 16.3646 19.6023C13.9814 20.1945 10.8646 23.6598 11.1206 26.1146C12.5171 39.5054 19.6355 80.4763 51.7864 90.6757C53.1685 91.1142 54.5941 91.4949 56.0716 91.8157C57.0978 92.0378 58.1802 91.8561 59.1209 91.3042C87.5377 74.6601 86.3106 36.4676 85.2226 24.5698C85.0401 22.5647 83.7019 20.8141 81.9585 20.261C81.884 20.2373 81.8065 20.2152 81.7305 20.1961C80.2457 19.8212 78.2776 19.2855 76.0125 18.567C69.1135 16.3784 59.4545 12.5082 52.2596 6.44217C51.7097 5.97934 51.1021 5.64855 50.4788 5.45083L50.4818 5.44931Z" fill="#999999"/>
    </g>
    <g opacity="0.2">
      <path d="M16.3646 19.6024C13.9815 20.1947 10.8647 23.6599 11.1207 26.1147C11.5263 30.0146 12.4198 36.2531 14.2748 43.3906C14.984 38.5011 15.2603 32.0569 17.7546 27.8224C20.868 22.5371 27.4598 19.6912 31.4395 15.4916C25.7218 17.4834 20.129 18.667 16.3662 19.6054L16.3646 19.6024Z" fill="white"/>
    </g>
    <g style="mix-blend-mode:multiply">
      <path d="M27.9077 73.2488C33.711 80.9438 41.4572 87.3991 51.7865 90.676C53.1686 91.1144 54.5942 91.4952 56.0716 91.816C57.0979 92.038 58.1802 91.8564 59.121 91.3044C60.2331 90.654 61.2929 89.9649 62.3158 89.2517C60.2135 88.7302 58.1045 88.1375 55.9952 87.4684C45.3001 84.0755 35.7807 79.1356 27.9084 73.2466L27.9077 73.2488Z" fill="#999999"/>
    </g>
    <path d="M54.5695 87.0187C41.4489 82.8564 31.2078 72.8243 24.1365 57.2019C18.0514 43.7632 16.0912 29.814 15.5303 24.4401C15.3952 23.1501 16.1703 22.0329 17.4154 21.7254C25.8115 19.6368 41.2118 14.8897 50.0007 6.57378C50.4606 6.13797 51.1252 6.01603 51.8252 6.23811C52.1685 6.34701 52.4946 6.53181 52.7961 6.78519C60.3083 13.117 70.2989 17.117 77.3582 19.3565C79.3274 19.9812 81.2974 20.542 83.2125 21.0263C83.2418 21.0356 83.2742 21.0434 83.3035 21.0528C84.1526 21.3221 84.8404 22.2896 84.9376 23.3507C85.4981 29.4639 85.9912 41.5994 83.0038 54.1935C79.3162 69.7501 71.5713 81.0789 59.9829 87.8659C59.5561 88.115 59.0771 88.2022 58.6373 88.107C57.2598 87.8081 55.8891 87.4422 54.568 87.0231L54.5695 87.0187Z" fill="#EFF1F8"/>
    <path d="M51.9628 8.64286C59.7681 15.2155 69.3791 19.2726 76.6372 21.5751C78.5974 22.1969 80.5598 22.7579 82.4719 23.2437C82.5169 23.3048 82.5775 23.4177 82.5896 23.5571C83.1357 29.5301 83.6188 41.3814 80.7094 53.6577C77.1882 68.5078 70.1097 79.2939 59.1722 85.7549C57.9413 85.4803 56.47 85.1713 55.2912 84.7973C42.8345 80.8456 33.0776 71.2408 26.2904 56.2483C20.347 43.1183 18.4262 29.4625 17.8763 24.2007C17.857 24.022 17.9138 24.008 17.9901 23.9878C26.5081 21.8688 42.7365 17.1331 51.9651 8.64357M52.5431 4.01311C51.0617 3.54315 49.4878 3.82769 48.3708 4.88568C39.7977 12.9965 24.2706 17.6121 16.8391 19.4596C14.4559 20.0518 12.9289 22.222 13.1842 24.6791C14.5807 38.0699 21.699 79.0408 53.85 89.2402C55.2321 89.6787 56.6577 90.0595 58.1351 90.3803C59.1614 90.6023 60.2437 90.4206 61.1845 89.8687C89.6013 73.2246 88.3742 35.0321 87.2861 23.1343C87.1037 21.1292 85.7655 19.3786 84.0221 18.8255C83.9476 18.8019 83.8701 18.7797 83.7941 18.7606C82.3093 18.3857 80.3411 17.85 78.0761 17.1315C71.1771 14.9429 61.518 11.0727 54.3231 5.00668C53.774 4.54162 53.1686 4.21155 52.5431 4.01311Z" fill="#8FACFF"/>
    <path d="M50.5049 50.7282L39.969 41.3371C39.2945 40.7362 38.2932 40.7907 37.7318 41.463L34.2321 45.6571C33.659 46.3429 33.7552 47.3914 34.4463 47.9951L50.2852 61.8119C51.421 62.8032 53.0831 62.6305 53.9983 61.4345L74.8693 34.1098C75.3324 33.5024 75.2358 32.5549 74.6487 31.9915L71.0064 28.4895C70.4118 27.9188 69.5444 27.9444 69.067 28.5496L51.685 50.6367C51.3931 51.0075 50.8641 51.0492 50.5049 50.7282Z" fill="#A249EA"/>
    <path d="M51.1739 50.2008L40.6379 40.8098C39.9634 40.2088 38.9621 40.2634 38.4008 40.9357L34.9011 45.1297C34.3279 45.8155 34.4242 46.8641 35.1152 47.4678L50.9542 61.2845C52.0899 62.2758 53.7521 62.1031 54.6673 60.9072L75.5382 33.5824C76.0013 32.9751 75.9047 32.0275 75.3177 31.4642L71.6753 27.9622C71.0807 27.3915 70.2133 27.417 69.7359 28.0223L52.354 50.1094C52.0621 50.4802 51.5331 50.5218 51.1739 50.2008Z" fill="#B064ED"/>
    <g style="mix-blend-mode:multiply" opacity="0.48">
      <path d="M83.7941 18.7607C77.7849 17.2463 63.8819 13.0625 54.3231 5.00677C53.4718 4.29056 52.4847 3.89361 51.5118 3.81421L59.5861 90.429C60.1394 90.3507 60.6825 90.1656 61.1837 89.871C89.6006 73.2269 88.3734 35.0344 87.2854 23.1366C87.0937 21.0448 85.6467 19.2301 83.7934 18.7629L83.7941 18.7607Z" fill="#DDE1EF"/>
    </g>
    <path d="M13.7819 25.3173C13.5259 22.8625 15.0536 20.69 17.4368 20.0978C24.869 18.2481 40.3557 13.2499 48.9287 5.13908C50.0458 4.0811 51.6594 4.18136 53.1408 4.65132C53.7641 4.84905 54.3717 5.17983 54.9216 5.64266C62.1164 11.7087 71.7755 15.5788 78.6745 17.7675C80.9396 18.486 82.907 19.0239 84.3925 19.3966C84.4685 19.4157 84.546 19.4378 84.6205 19.4615C85.1964 19.6442 85.7266 19.9602 86.1888 20.3706C85.6194 19.6453 84.8697 19.0919 84.0228 18.8233C83.9483 18.7996 83.8708 18.7775 83.7948 18.7583C82.31 18.3834 80.3419 17.8478 78.0768 17.1292C71.1778 14.9406 61.5188 11.0704 54.3239 5.00445C53.774 4.54162 53.1664 4.21084 52.5431 4.01311C51.0617 3.54315 49.4878 3.82769 48.3685 4.88496C39.7977 12.9965 24.2706 17.6121 16.8391 19.4596C14.4559 20.0518 12.9289 22.222 13.1842 24.6791C14.2334 34.7357 18.5095 60.3438 34.1896 76.7968C18.9953 60.3278 14.8161 35.2435 13.7819 25.3173Z" fill="#DDE6FF"/>
    <path opacity="0.53" d="M59.0531 84.7384C59.0531 84.7384 54.7827 35.98 54.1263 28.9244C53.47 21.8689 52.0886 10.0234 52.0886 10.0234C52.0886 10.0234 52.9516 21.978 53.6086 29.0313C54.2672 36.0876 59.0531 84.7384 59.0531 84.7384Z" fill="white"/>
    <path d="M59.1706 85.7519C57.9397 85.4772 56.4684 85.1682 55.2896 84.7943C48.6751 82.6959 42.8235 79.0033 37.7711 73.7574C42.9579 79.3417 49.0116 83.2488 55.888 85.4302C57.0668 85.8042 58.5381 86.1132 59.769 86.3878C70.7065 79.9268 77.7874 69.1415 81.3085 54.2913C84.2172 42.0173 83.3626 30.1984 82.8164 24.2254C82.8043 24.086 82.6268 23.2804 82.4734 23.2391C83.012 29.2738 83.5888 41.5123 80.7109 53.6531C77.1897 68.5033 70.1111 79.2893 59.1736 85.7503L59.1706 85.7519Z" fill="#F4F7FF"/>
    <g style="mix-blend-mode:multiply">
      <path d="M87.2863 23.134C87.1038 21.1289 85.7656 19.3783 84.0223 18.8252C83.9477 18.8016 83.8702 18.7795 83.7943 18.7603C83.6724 18.729 83.5415 18.6949 83.4122 18.6637C83.4144 18.6644 83.4189 18.6659 83.4212 18.6666C85.1646 19.2197 86.502 20.9725 86.6852 22.9754C87.7755 34.8739 89.0004 73.0657 60.5836 89.7098C59.6428 90.2617 58.5605 90.4434 57.5342 90.2213C56.9011 90.0846 56.2799 89.9344 55.6646 89.7737C56.4719 89.9952 57.2947 90.1996 58.1353 90.38C59.1616 90.602 60.2439 90.4204 61.1846 89.8684C89.6015 73.2243 88.3743 35.0318 87.2863 23.134Z" fill="#8FACFF"/>
    </g>
  </g>
  <defs>
    <clipPath id="clip0_8878_9124">
      <rect width="79.9053" height="82.8383" fill="white" transform="matrix(0.953186 0.302384 -0.308062 0.951366 21.2083 -5.92773)"/>
    </clipPath>
  </defs>
</svg>