<svg xmlns="http://www.w3.org/2000/svg" width="90" height="97" viewBox="0 0 90 97" fill="none">
  <g clip-path="url(#clip0_8878_11598)">
    <path d="M50.4818 5.44931C49.0004 4.97935 48.0587 5.77254 46.9394 6.82981C38.3656 14.9429 23.7961 17.7548 16.3646 19.6023C13.9814 20.1945 10.8646 23.6598 11.1206 26.1146C12.5171 39.5054 19.6355 80.4763 51.7864 90.6757C53.1685 91.1142 54.5941 91.4949 56.0716 91.8157C57.0978 92.0378 58.1802 91.8561 59.1209 91.3042C87.5377 74.6601 86.3106 36.4676 85.2226 24.5698C85.0401 22.5647 83.7019 20.8141 81.9585 20.261C81.884 20.2373 81.8065 20.2152 81.7305 20.1961C80.2457 19.8212 78.2776 19.2855 76.0125 18.567C69.1135 16.3784 59.4545 12.5082 52.2596 6.44217C51.7097 5.97934 51.1021 5.64855 50.4788 5.45083L50.4818 5.44931Z" fill="#BDF2D0"/>
    <g style="mix-blend-mode:multiply">
      <path d="M50.4818 5.44931C49.0004 4.97935 48.0587 5.77254 46.9394 6.82981C38.3656 14.9429 23.7961 17.7548 16.3646 19.6023C13.9814 20.1945 10.8646 23.6598 11.1206 26.1146C12.5171 39.5054 19.6355 80.4763 51.7864 90.6757C53.1685 91.1142 54.5941 91.4949 56.0716 91.8157C57.0978 92.0378 58.1802 91.8561 59.1209 91.3042C87.5377 74.6601 86.3106 36.4676 85.2226 24.5698C85.0401 22.5647 83.7019 20.8141 81.9585 20.261C81.884 20.2373 81.8065 20.2152 81.7305 20.1961C80.2457 19.8212 78.2776 19.2855 76.0125 18.567C69.1135 16.3784 59.4545 12.5082 52.2596 6.44217C51.7097 5.97934 51.1021 5.64855 50.4788 5.45083L50.4818 5.44931Z" fill="#999999"/>
    </g>
    <g opacity="0.2">
      <path d="M16.3646 19.6024C13.9815 20.1947 10.8647 23.6599 11.1207 26.1147C11.5263 30.0146 12.4198 36.2531 14.2748 43.3906C14.984 38.5011 15.2603 32.0569 17.7546 27.8224C20.868 22.5371 27.4598 19.6912 31.4395 15.4916C25.7218 17.4834 20.129 18.667 16.3662 19.6054L16.3646 19.6024Z" fill="white"/>
    </g>
    <g style="mix-blend-mode:multiply">
      <path d="M27.9075 73.2488C33.7108 80.9438 41.457 87.3991 51.7863 90.676C53.1683 91.1144 54.594 91.4952 56.0714 91.816C57.0977 92.038 58.18 91.8564 59.1207 91.3044C60.2328 90.654 61.2927 89.9649 62.3155 89.2517C60.2133 88.7302 58.1042 88.1375 55.995 87.4684C45.2998 84.0755 35.7805 79.1356 27.9082 73.2466L27.9075 73.2488Z" fill="#999999"/>
    </g>
    <path d="M54.5692 87.0187C41.4487 82.8564 31.2075 72.8243 24.1362 57.2019C18.0512 43.7632 16.0909 29.814 15.53 24.4401C15.3949 23.1501 16.1701 22.0329 17.4152 21.7254C25.8112 19.6368 41.2116 14.8897 50.0005 6.57378C50.4604 6.13797 51.1249 6.01603 51.825 6.23811C52.1682 6.34701 52.4944 6.53181 52.7958 6.78519C60.3081 13.117 70.2986 17.117 77.358 19.3565C79.3272 19.9812 81.2971 20.542 83.2122 21.0263C83.2416 21.0356 83.2739 21.0434 83.3033 21.0528C84.1524 21.3221 84.8402 22.2896 84.9373 23.3507C85.4979 29.4639 85.991 41.5994 83.0036 54.1935C79.316 69.7501 71.571 81.0789 59.9826 87.8659C59.5558 88.115 59.0769 88.2022 58.637 88.107C57.2596 87.8081 55.8889 87.4422 54.5678 87.0231L54.5692 87.0187Z" fill="#EFF1F8"/>
    <path d="M51.9628 8.64286C59.7681 15.2155 69.3791 19.2726 76.6372 21.5751C78.5974 22.1969 80.5598 22.7579 82.4719 23.2437C82.5169 23.3048 82.5775 23.4177 82.5896 23.5571C83.1357 29.5301 83.6188 41.3814 80.7094 53.6577C77.1882 68.5078 70.1097 79.2939 59.1722 85.7549C57.9413 85.4803 56.47 85.1713 55.2912 84.7973C42.8345 80.8456 33.0776 71.2408 26.2904 56.2483C20.347 43.1183 18.4262 29.4625 17.8763 24.2007C17.857 24.022 17.9138 24.008 17.9901 23.9878C26.5081 21.8688 42.7365 17.1331 51.9651 8.64357M52.5431 4.01311C51.0617 3.54315 49.4878 3.82769 48.3708 4.88568C39.7977 12.9965 24.2706 17.6121 16.8391 19.4596C14.4559 20.0518 12.9289 22.222 13.1842 24.6791C14.5807 38.0699 21.699 79.0408 53.85 89.2402C55.2321 89.6787 56.6577 90.0595 58.1351 90.3803C59.1614 90.6023 60.2437 90.4206 61.1845 89.8687C89.6013 73.2246 88.3742 35.0321 87.2861 23.1343C87.1037 21.1292 85.7655 19.3786 84.0221 18.8255C83.9476 18.8019 83.8701 18.7797 83.7941 18.7606C82.3093 18.3857 80.3411 17.85 78.0761 17.1315C71.1771 14.9429 61.518 11.0727 54.3231 5.00668C53.774 4.54162 53.1686 4.21155 52.5431 4.01311Z" fill="#6BC98C"/>
    <path d="M50.5052 50.7282L39.9692 41.3371C39.2947 40.7362 38.2934 40.7907 37.7321 41.463L34.2324 45.6571C33.6592 46.3429 33.7555 47.3914 34.4465 47.9951L50.2855 61.8119C51.4212 62.8032 53.0834 62.6305 53.9986 61.4345L74.8695 34.1098C75.3326 33.5024 75.236 32.5549 74.649 31.9915L71.0066 28.4895C70.412 27.9188 69.5446 27.9444 69.0672 28.5496L51.6853 50.6367C51.3934 51.0075 50.8644 51.0492 50.5052 50.7282Z" fill="#1E2420"/>
    <path d="M51.1736 50.2008L40.6377 40.8098C39.9632 40.2088 38.9619 40.2634 38.4005 40.9357L34.9008 45.1297C34.3277 45.8155 34.4239 46.8641 35.115 47.4678L50.9539 61.2845C52.0897 62.2758 53.7518 62.1031 54.667 60.9072L75.538 33.5824C76.0011 32.9751 75.9045 32.0275 75.3174 31.4642L71.6751 27.9622C71.0805 27.3915 70.2131 27.417 69.7357 28.0223L52.3537 50.1094C52.0618 50.4802 51.5328 50.5218 51.1736 50.2008Z" fill="#55A370"/>
    <g style="mix-blend-mode:multiply" opacity="0.48">
      <path d="M83.7943 18.7607C77.7852 17.2463 63.8822 13.0625 54.3234 5.00677C53.472 4.29056 52.4849 3.89361 51.5121 3.81421L59.5864 90.429C60.1397 90.3507 60.6827 90.1656 61.184 89.871C89.6008 73.2269 88.3737 35.0344 87.2857 23.1366C87.0939 21.0448 85.647 19.2301 83.7936 18.7629L83.7943 18.7607Z" fill="#DDE1EF"/>
    </g>
    <path d="M13.7819 25.3173C13.5259 22.8625 15.0536 20.69 17.4368 20.0978C24.869 18.2481 40.3557 13.2499 48.9287 5.13908C50.0458 4.0811 51.6594 4.18136 53.1408 4.65132C53.7641 4.84905 54.3717 5.17983 54.9216 5.64266C62.1164 11.7087 71.7755 15.5788 78.6745 17.7675C80.9396 18.486 82.907 19.0239 84.3925 19.3966C84.4685 19.4157 84.546 19.4378 84.6205 19.4615C85.1964 19.6442 85.7266 19.9602 86.1888 20.3706C85.6194 19.6453 84.8697 19.0919 84.0228 18.8233C83.9483 18.7996 83.8708 18.7775 83.7948 18.7583C82.31 18.3834 80.3419 17.8478 78.0768 17.1292C71.1778 14.9406 61.5188 11.0704 54.3239 5.00445C53.774 4.54162 53.1664 4.21084 52.5431 4.01311C51.0617 3.54315 49.4878 3.82769 48.3685 4.88496C39.7977 12.9965 24.2706 17.6121 16.8391 19.4596C14.4559 20.0518 12.9289 22.222 13.1842 24.6791C14.2334 34.7357 18.5095 60.3438 34.1896 76.7968C18.9953 60.3278 14.8161 35.2435 13.7819 25.3173Z" fill="#8DE3AB"/>
    <path opacity="0.53" d="M59.0529 84.7384C59.0529 84.7384 54.7824 35.98 54.1261 28.9244C53.4698 21.8689 52.0884 10.0234 52.0884 10.0234C52.0884 10.0234 52.9513 21.978 53.6084 29.0313C54.267 36.0876 59.0529 84.7384 59.0529 84.7384Z" fill="white"/>
    <path d="M59.1709 85.7519C57.94 85.4772 56.4687 85.1682 55.2899 84.7943C48.6754 82.6959 42.8237 79.0033 37.7713 73.7574C42.9582 79.3417 49.0118 83.2488 55.8883 85.4302C57.0671 85.8042 58.5384 86.1132 59.7693 86.3878C70.7068 79.9268 77.7876 69.1415 81.3088 54.2913C84.2174 42.0173 83.3628 30.1984 82.8166 24.2254C82.8045 24.086 82.6271 23.2804 82.4736 23.2391C83.0122 29.2738 83.589 41.5123 80.7111 53.6531C77.1899 68.5033 70.1114 79.2893 59.1738 85.7503L59.1709 85.7519Z" fill="#F4F7FF"/>
    <g style="mix-blend-mode:multiply">
      <path d="M87.2861 23.134C87.1036 21.1289 85.7654 19.3783 84.022 18.8252C83.9475 18.8016 83.87 18.7795 83.794 18.7603C83.6722 18.729 83.5413 18.6949 83.4119 18.6637C83.4142 18.6644 83.4187 18.6659 83.4209 18.6666C85.1643 19.2197 86.5018 20.9725 86.685 22.9754C87.7752 34.8739 89.0001 73.0657 60.5833 89.7098C59.6426 90.2617 58.5603 90.4434 57.534 90.2213C56.9009 90.0846 56.2797 89.9344 55.6643 89.7737C56.4716 89.9952 57.2945 90.1996 58.135 90.38C59.1613 90.602 60.2436 90.4204 61.1844 89.8684C89.6012 73.2243 88.3741 35.0318 87.2861 23.134Z" fill="#8FACFF"/>
    </g>
  </g>
  <defs>
    <clipPath id="clip0_8878_11598">
      <rect width="79.9053" height="82.8383" fill="white" transform="matrix(0.953186 0.302384 -0.308062 0.951366 21.208 -5.92773)"/>
    </clipPath>
  </defs>
</svg>