<svg viewBox="0 0 30 31" fill="none" xmlns="http://www.w3.org/2000/svg">
<g clip-path="url(#clip0_11048_33469)">
<g clip-path="url(#clip1_11048_33469)">
<path fill-rule="evenodd" clip-rule="evenodd" d="M17.473 9.72391C17.7635 9.42869 18.2384 9.42491 18.5336 9.71546L22.3286 13.4505C22.5456 13.664 22.6119 13.9875 22.4965 14.2692C22.3812 14.551 22.1069 14.735 21.8025 14.735H8.25C7.83579 14.735 7.5 14.3992 7.5 13.985C7.5 13.5708 7.83579 13.235 8.25 13.235H19.9712L17.4814 10.7845C17.1862 10.494 17.1824 10.0191 17.473 9.72391Z" fill="#E0E0E0"/>
<path fill-rule="evenodd" clip-rule="evenodd" d="M7.55598 16.7083C7.67136 16.4266 7.94559 16.2426 8.25002 16.2426H21.8025C22.2167 16.2426 22.5525 16.5783 22.5525 16.9926C22.5525 17.4068 22.2167 17.7426 21.8025 17.7426H10.0813L12.5711 20.193C12.8663 20.4836 12.8701 20.9584 12.5796 21.2536C12.289 21.5489 11.8142 21.5526 11.5189 21.2621L7.72394 17.5271C7.50696 17.3135 7.4406 16.99 7.55598 16.7083Z" fill="#E0E0E0"/>
</g>
</g>
<defs>
<clipPath id="clip0_11048_33469">
<rect width="18" height="18" fill="white" transform="translate(6 6.5)"/>
</clipPath>
<clipPath id="clip1_11048_33469">
<rect width="15.0525" height="11.9775" fill="white" transform="translate(7.5 9.5)"/>
</clipPath>
</defs>
</svg>
