<svg viewBox="0 0 24 24" fill="none" xmlns="http://www.w3.org/2000/svg">
<g clip-path="url(#clip0_2231_837)">
<circle cx="14.0341" cy="5.6676" r="4.13684" fill="#8DE3AB"/>
<path d="M14.6799 8.24951H13.4239V7.76463H13.2136C12.2321 7.68284 11.6713 7.11033 11.6479 6.35087L11.6421 6.31582H13.0325L13.0383 6.34503C13.0734 6.60207 13.2136 6.76565 13.5758 6.76565H14.6273C14.937 6.76565 15.0947 6.65465 15.0947 6.43266C15.0947 6.22235 14.9311 6.14056 14.6215 6.11135L13.0558 6.05877C12.1912 6.00035 11.6947 5.57973 11.6947 4.8378C11.6947 4.09003 12.273 3.63435 13.1318 3.57009H13.4239V3.08521H14.6799V3.57009L14.9136 3.57593C15.9243 3.65772 16.339 4.24192 16.3624 4.86117L16.3682 4.89038H15.0596L15.048 4.86117C14.9954 4.68006 14.8552 4.52233 14.5572 4.52233H13.4648C13.1668 4.52233 13.0208 4.62749 13.0208 4.81443C13.0208 4.98969 13.1435 5.07732 13.4414 5.10653L14.9954 5.15326C15.8892 5.20584 16.4267 5.59725 16.4267 6.41513C16.4267 7.19796 15.8308 7.70037 14.9194 7.76463H14.6799V8.24951Z" fill="black"/>
<path d="M14.034 0.981934C11.4441 0.981934 9.34839 3.07766 9.34839 5.6675C9.34839 8.25734 11.4441 10.3531 14.034 10.3531C16.6238 10.3531 18.7195 8.25734 18.7195 5.6675C18.7195 3.07766 16.6238 0.981934 14.034 0.981934ZM14.034 9.50114C11.9169 9.50114 10.2003 7.78452 10.2003 5.6675C10.2003 3.55048 11.9169 1.83385 14.034 1.83385C16.151 1.83385 17.8676 3.55048 17.8676 5.6675C17.8676 7.78452 16.151 9.50114 14.034 9.50114Z" fill="#6BC98C"/>
<path d="M21.2596 9.21851C20.7787 9.21851 20.2977 9.4013 19.9321 9.76688L17.6427 12.0623C17.4671 11.7749 17.2205 11.5375 16.9266 11.373C16.6327 11.2084 16.3014 11.1223 15.9646 11.1228H9.6238C7.90675 11.1228 6.96581 12.0323 6.17171 12.8249L4.18945 14.8072C4.11534 14.8816 4.07373 14.9823 4.07373 15.0874C4.07373 15.1924 4.11534 15.2931 4.18945 15.3676L8.54952 19.7276C8.58639 19.7646 8.63019 19.7938 8.67839 19.8138C8.7266 19.8338 8.77827 19.8441 8.83045 19.8441C8.88263 19.8441 8.9343 19.8338 8.98251 19.8138C9.03071 19.7938 9.07451 19.7646 9.11138 19.7276L9.90548 18.935C10.301 18.5394 10.5498 18.2593 11.209 18.2593H16.7602C18.1222 18.2593 19.2594 17.585 20.0655 16.4163C20.9929 15.0739 21.9024 13.4048 22.6321 12.3709C22.9048 11.9814 23.0816 11.5364 23.0996 11.0749C23.1093 10.8334 23.069 10.5925 22.981 10.3674C22.8931 10.1423 22.7595 9.93781 22.5886 9.76688C22.4143 9.59263 22.2073 9.4545 21.9795 9.36039C21.7517 9.26629 21.5076 9.21807 21.2611 9.21851H21.2596Z" fill="#8DE3AB"/>
<path opacity="0.2" d="M18.2135 11.4917L17.6441 12.0626L17.6397 12.058C17.8314 12.3637 17.9453 12.7188 17.9453 13.1039C17.9453 14.1946 17.0568 15.0861 15.9675 15.0861H12.3956C12.3434 15.0861 12.2918 15.0964 12.2436 15.1163C12.1955 15.1363 12.1517 15.1656 12.1148 15.2024C12.078 15.2393 12.0487 15.2831 12.0288 15.3312C12.0088 15.3794 11.9985 15.431 11.9985 15.4832C11.9985 15.5353 12.0088 15.587 12.0288 15.6351C12.0487 15.6833 12.078 15.7271 12.1148 15.7639C12.1517 15.8008 12.1955 15.83 12.2436 15.85C12.2918 15.8699 12.3434 15.8802 12.3956 15.8802H15.9675C17.4913 15.8802 18.7394 14.6261 18.7394 13.1039C18.7394 12.503 18.5416 11.9472 18.2135 11.4917Z" fill="black"/>
<path opacity="0.2" d="M22.2635 9.51196C22.8553 10.399 22.3504 11.3774 21.8634 12.0951C21.1143 13.2008 20.2572 14.7411 19.4107 15.9667C18.7215 16.9646 17.8599 17.465 16.7587 17.465H11.209C10.767 17.465 10.3549 17.5788 10.0418 17.7721C9.73013 17.9639 9.53236 18.1842 9.34357 18.3744L8.54947 19.1685L8.26929 19.4472L8.55097 19.7274C8.70529 19.8833 8.95551 19.8833 9.11133 19.7274L9.90544 18.9348C10.301 18.5393 10.5497 18.2591 11.209 18.2591H16.7602C18.1221 18.2591 19.2594 17.5848 20.0654 16.4162C20.9929 15.0737 21.9024 13.4046 22.632 12.3708C22.9047 11.9812 23.0815 11.5362 23.0995 11.0747C23.112 10.7635 23.0413 10.4547 22.8946 10.18C22.7479 9.90524 22.5305 9.67463 22.265 9.51196H22.2635Z" fill="black"/>
<path d="M1.01615 16.3907C0.978999 16.4276 0.949518 16.4715 0.9294 16.5198C0.909283 16.5682 0.898926 16.6201 0.898926 16.6724C0.898926 16.7248 0.909283 16.7766 0.9294 16.825C0.949518 16.8733 0.978999 16.9172 1.01615 16.9541L6.96442 22.9024C7.03923 22.9761 7.1402 23.0171 7.24522 23.0166C7.35024 23.016 7.45077 22.9739 7.52478 22.8994L9.90259 20.5216C9.9767 20.4472 10.0183 20.3464 10.0183 20.2414C10.0183 20.1364 9.9767 20.0356 9.90259 19.9612L3.95732 14.0144C3.92042 13.9773 3.87653 13.9478 3.82819 13.9277C3.77984 13.9076 3.728 13.8972 3.67564 13.8972C3.62328 13.8972 3.57143 13.9076 3.52309 13.9277C3.47475 13.9478 3.43086 13.9773 3.39396 14.0144L1.01615 16.3907Z" fill="#6BC98C"/>
<path opacity="0.2" d="M8.78321 18.8391C8.81994 18.8762 8.849 18.9202 8.86873 18.9685C8.88845 19.0168 8.89846 19.0685 8.89819 19.1207C8.89791 19.1729 8.88735 19.2245 8.8671 19.2726C8.84686 19.3207 8.81734 19.3643 8.78022 19.401L6.40241 21.7788C6.32839 21.8533 6.22787 21.8955 6.12284 21.896C6.01782 21.8966 5.91685 21.8555 5.84204 21.7818L6.96277 22.9025C6.99975 22.9394 7.04366 22.9686 7.09199 22.9885C7.14031 23.0083 7.19209 23.0184 7.24433 23.0181C7.29657 23.0178 7.34824 23.0072 7.39635 22.9869C7.44446 22.9665 7.48806 22.9368 7.52464 22.8995L9.90095 20.5217C9.97546 20.4477 10.0176 20.3472 10.0182 20.2422C10.0187 20.1371 9.97766 20.0362 9.90395 19.9614L8.78321 18.8391Z" fill="black"/>
<path d="M20.4647 3.16381C20.4816 3.24467 20.3859 3.3005 20.3238 3.24596L19.9253 2.89557C19.905 2.87771 19.8774 2.87046 19.8509 2.87599L19.3315 2.98459C19.2507 3.00149 19.1948 2.90574 19.2494 2.8437L19.5998 2.44517C19.6176 2.42485 19.6249 2.39731 19.6193 2.37083L19.5107 1.8514C19.4938 1.77055 19.5896 1.71472 19.6516 1.76926L20.0502 2.11964C20.0705 2.1375 20.098 2.14476 20.1245 2.13922L20.6439 2.03063C20.7248 2.01372 20.7806 2.10948 20.7261 2.17151L20.3757 2.57005C20.3578 2.59036 20.3506 2.61791 20.3561 2.64439L20.4647 3.16381Z" fill="#8DE3AB"/>
<path d="M7.41773 4.12063C7.35255 4.22344 7.19401 4.18409 7.18447 4.06273L7.14534 3.56498C7.14222 3.52523 7.12056 3.48927 7.08689 3.46792L6.66521 3.20057C6.5624 3.13538 6.60176 2.97684 6.72312 2.9673L7.22087 2.92818C7.26062 2.92505 7.29658 2.9034 7.31793 2.86972L7.58528 2.44805C7.65046 2.34523 7.80901 2.38459 7.81854 2.50595L7.85767 3.0037C7.86079 3.04345 7.88245 3.07941 7.91612 3.10076L8.3378 3.36811C8.44061 3.4333 8.40126 3.59184 8.2799 3.60138L7.78214 3.6405C7.7424 3.64363 7.70644 3.66528 7.68509 3.69896L7.41773 4.12063Z" fill="#6BC98C"/>
<circle cx="8.02361" cy="5.88039" r="0.225533" transform="rotate(3.1446 8.02361 5.88039)" fill="#6BC98C"/>
<path d="M9.02189 9.01953C9.07753 9.14798 8.93762 9.27332 8.81604 9.20394L8.29728 8.90793C8.25746 8.88521 8.20926 8.88256 8.16719 8.90078L7.61912 9.13819C7.49068 9.19382 7.36534 9.05392 7.43471 8.93234L7.73073 8.41357C7.75345 8.37375 7.7561 8.32556 7.73787 8.28349L7.50047 7.73542C7.44483 7.60697 7.58474 7.48164 7.70632 7.55101L8.22508 7.84702C8.2649 7.86975 8.3131 7.87239 8.35517 7.85417L8.90324 7.61677C9.03169 7.56113 9.15702 7.70104 9.08765 7.82262L8.79163 8.34138C8.76891 8.3812 8.76626 8.4294 8.78449 8.47147L9.02189 9.01953Z" fill="#8DE3AB"/>
<circle cx="5.84591" cy="5.04652" r="0.146142" transform="rotate(3.1446 5.84591 5.04652)" fill="#6BC98C"/>
<path d="M20.4097 6.95413C20.3445 7.05694 20.186 7.01759 20.1764 6.89623L20.1373 6.39847C20.1342 6.35872 20.1125 6.32277 20.0788 6.30142L19.6572 6.03406C19.5543 5.96888 19.5937 5.81034 19.7151 5.8008L20.2128 5.76167C20.2526 5.75855 20.2885 5.73689 20.3099 5.70322L20.5772 5.28154C20.6424 5.17873 20.8009 5.21808 20.8105 5.33944L20.8496 5.8372C20.8527 5.87695 20.8744 5.91291 20.9081 5.93425L21.3297 6.20161C21.4326 6.26679 21.3932 6.42533 21.2718 6.43487L20.7741 6.474C20.7343 6.47712 20.6984 6.49878 20.677 6.53245L20.4097 6.95413Z" fill="#6BC98C"/>
<circle cx="18.8195" cy="9.01857" r="0.225533" transform="rotate(3.1446 18.8195 9.01857)" fill="#6BC98C"/>
<circle cx="19.5405" cy="4.22477" r="0.14617" transform="rotate(3.1446 19.5405 4.22477)" fill="#6BC98C"/>
</g>
<defs>
<clipPath id="clip0_2231_837">
<rect width="24" height="24" fill="white"/>
</clipPath>
</defs>
</svg>
