<svg xmlns="http://www.w3.org/2000/svg" fill="none" viewBox="0 0 24 24"><g clip-path="url(#a)"><path fill="var(--icon-primary)" d="M18 15.01c0-1.1.9-2 2-2h3v-3a2 2 0 0 0-2-2H3c-1.76 0-2-.77-2-.77v12.77c0 1.1.9 2 2 2h18c1.1 0 2-.9 2-2v-3h-3c-1.1 0-2-.9-2-2Z"/><path fill="var(--icon-secondary)" d="M20 14.01c-.55 0-1 .45-1 1s.45 1 1 1h3v-2h-3Z"/><path fill="var(--icon-primary)" d="m7 7.02 6.97-4.66c1.08-.72 2.54-.33 3.11.83l1.91 3.83H7Z"/><path fill="var(--icon-secondary)" d="M5.2 7.01H2c-.55 0-1-.45-1-1s.45-1 1-1h6.27l-3.06 2H5.2ZM20.12 7.01H21v-.12c0-1.04-.84-1.88-1.88-1.88l1 2Z"/></g><defs><clipPath id="a"><path fill="#fff" d="M1 2h22v20.01H1z"/></clipPath></defs></svg>