<svg xmlns="http://www.w3.org/2000/svg" width="11" height="11" viewBox="0 0 11 11" fill="none">
<path fill-rule="evenodd" clip-rule="evenodd" d="M5.5 1C3.01472 1 1 3.01472 1 5.5C1 7.98528 3.01472 10 5.5 10C7.98528 10 10 7.98528 10 5.5C10 3.01472 7.98528 1 5.5 1ZM0 5.5C0 2.46243 2.46243 0 5.5 0C8.53757 0 11 2.46243 11 5.5C11 8.53757 8.53757 11 5.5 11C2.46243 11 0 8.53757 0 5.5Z" fill="currentColor"/>
<path d="M8.5 5.5C8.5 7.15685 7.15685 8.5 5.5 8.5C3.84315 8.5 2.5 7.15685 2.5 5.5C2.5 3.84315 3.84315 2.5 5.5 2.5C7.15685 2.5 8.5 3.84315 8.5 5.5Z" fill="currentColor"/>
</svg>