<svg xmlns="http://www.w3.org/2000/svg" width="13" height="14" viewBox="0 0 13 14" fill="none">
<path d="M1.4074 0.75H4.87966C5.51912 0.75 6.03705 1.38946 6.03705 1.9074V4.45375C6.03705 5.09321 5.51912 5.61114 4.87966 5.61114H1.4074C0.767936 5.61114 0.25 4.97168 0.25 4.45375V1.9074C0.25 1.26794 0.767936 0.75 1.4074 0.75Z" fill="#CCA6FF"/>
<path d="M8.12029 8.38892H11.5925C12.232 8.38892 12.7499 9.02838 12.7499 9.54631V12.0927C12.7499 12.7321 12.232 13.2501 11.5925 13.2501H8.12029C7.48083 13.2501 6.96289 12.6106 6.96289 12.0927V9.54631C6.96289 8.90685 7.48083 8.38892 8.12029 8.38892Z" fill="#CCA6FF"/>
<path d="M8.12029 0.75H11.5925C12.232 0.75 12.7499 1.38946 12.7499 1.9074V6.30558C12.7499 6.94504 12.232 7.46298 11.5925 7.46298H8.12029C7.48083 7.46298 6.96289 6.82352 6.96289 6.30558V1.9074C6.96289 1.26794 7.48083 0.75 8.12029 0.75Z" fill="#997DBF"/>
<path d="M1.4074 6.53711H4.87966C5.51912 6.53711 6.03705 7.17657 6.03705 7.69451V12.0927C6.03705 12.7322 5.51912 13.2501 4.87966 13.2501H1.4074C0.767936 13.2501 0.25 12.6106 0.25 12.0927V7.69451C0.25 7.05505 0.767936 6.53711 1.4074 6.53711Z" fill="#997DBF"/>
</svg>