<svg viewBox="0 0 36 36" fill="none" xmlns="http://www.w3.org/2000/svg">
<path fill-rule="evenodd" clip-rule="evenodd" d="M7.11689 35.043L12.6819 26.0574C12.7672 25.9205 12.7735 25.758 12.6946 25.6147C12.6156 25.4745 12.4768 25.3917 12.3158 25.3917H9.85995C9.62321 25.3917 9.4275 25.1942 9.4275 24.9553V16.387C9.4275 16.0367 9.14341 15.75 8.79935 15.75H4.70212C4.35489 15.75 4.07396 16.0367 4.07396 16.387V24.9553C4.07396 25.1942 3.87825 25.3917 3.64151 25.3917H1.1857C1.02471 25.3917 0.882667 25.4745 0.806909 25.6147C0.727995 25.758 0.731152 25.9205 0.816379 26.0574L6.38457 35.043C6.46348 35.1736 6.59606 35.25 6.75073 35.25C6.90225 35.25 7.03482 35.1736 7.11689 35.043Z" fill="#CCA6FF"/>
<path d="M35.1819 26.0574L29.6169 35.043C29.5348 35.1736 29.4022 35.25 29.2507 35.25C29.0961 35.25 28.9635 35.1736 28.8846 35.043L23.3164 26.0574C23.2312 25.9205 23.228 25.758 23.3069 25.6147C23.3858 25.4745 23.5247 25.3917 23.6857 25.3917H26.1415C26.3783 25.3917 26.574 25.1942 26.574 24.9553V16.387C26.574 16.0367 26.8549 15.75 27.2021 15.75H31.2993C31.6434 15.75 31.9275 16.0367 31.9275 16.387V24.9553C31.9275 25.1942 32.1232 25.3917 32.36 25.3917H34.8158C34.9768 25.3917 35.1156 25.4745 35.1946 25.6147C35.2735 25.758 35.2672 25.9205 35.1819 26.0574Z" fill="#CCA6FF"/>
<path d="M23.9319 11.0574L18.3669 20.043C18.2848 20.1736 18.1522 20.25 18.0007 20.25C17.8461 20.25 17.7135 20.1736 17.6346 20.043L12.0664 11.0574C11.9812 10.9205 11.978 10.758 12.0569 10.6147C12.1358 10.4745 12.2747 10.3917 12.4357 10.3917H14.8915C15.1283 10.3917 15.324 10.1942 15.324 9.95533V1.38705C15.324 1.03667 15.6049 0.75 15.9521 0.75H20.0493C20.3934 0.75 20.6775 1.03667 20.6775 1.38705V9.95533C20.6775 10.1942 20.8732 10.3917 21.11 10.3917H23.5658C23.7268 10.3917 23.8656 10.4745 23.9446 10.6147C24.0235 10.758 24.0172 10.9205 23.9319 11.0574Z" fill="#997DBF"/>
</svg>
