
<svg width="120" height="120" viewBox="0 0 121 120" fill="none" xmlns="http://www.w3.org/2000/svg">
<mask id="mask0_8437_117779" style="mask-type:luminance" maskUnits="userSpaceOnUse" x="0" y="0" width="121" height="120">
<path d="M120.5 0H0.5V120H120.5V0Z" fill="white"/>
</mask>
<g mask="url(#mask0_8437_117779)">
<mask id="mask1_8437_117779" style="mask-type:luminance" maskUnits="userSpaceOnUse" x="0" y="0" width="121" height="120">
<path d="M120.5 0H0.5V120H120.5V0Z" fill="white"/>
</mask>
<g mask="url(#mask1_8437_117779)">
<mask id="mask2_8437_117779" style="mask-type:luminance" maskUnits="userSpaceOnUse" x="14" y="10" width="93" height="100">
<path d="M106.373 10.333H14.5V109.733H106.373V10.333Z" fill="white"/>
</mask>
<g mask="url(#mask2_8437_117779)">
<path d="M105.343 25.3733C100.53 24.4333 97.4865 22.5033 98.3831 19.43C98.4931 19.0533 98.1831 17.38 97.6065 17.27L94.6765 18.0066C94.2065 17.9166 93.7331 18.0433 93.5165 18.3166C92.8265 19.19 91.2965 19.6033 89.8031 19.3166C88.3131 19.03 87.2298 18.12 87.1631 17.11C87.1431 16.7966 86.8065 16.5166 86.3431 16.4266L83.4398 15.8766C82.9765 15.79 82.5031 15.9133 82.2765 16.18C81.5498 17.0366 80.0131 17.44 78.5498 17.16C77.0865 16.88 76.0598 15.9866 76.0398 14.9933C76.0365 14.6833 75.7131 14.41 75.2598 14.3233L72.4131 13.7833C71.9598 13.6966 71.4831 13.82 71.2465 14.08C70.4865 14.92 68.9431 15.3166 67.5065 15.0433C66.0731 14.77 65.0931 13.89 65.1231 12.9166C65.1331 12.6133 64.8298 12.3433 64.3831 12.26L61.6798 11.7466C61.1365 11.6433 60.5631 11.8466 60.3965 12.2C59.0365 15.0833 54.2865 16.7766 49.8665 15.9133C49.3198 15.8066 48.7231 16.0166 48.5331 16.3833L14.5765 80.0233C14.2631 80.6333 14.9831 82.77 15.6731 82.95C21.2365 84.4 23.4031 88.3966 20.9265 93.6533C20.6131 94.32 21.3898 96.3566 22.1131 96.5533L25.7231 97.5333C26.3198 97.6966 27.0098 97.4667 27.4065 96.9733C28.6598 95.4133 30.8431 94.6866 32.7298 95.19C34.6198 95.6966 35.2565 96.67 35.2565 97.69C35.1865 98.2733 35.8831 100.283 36.4898 100.45L40.3165 101.487C40.9265 101.653 41.6165 101.417 41.9931 100.913C43.1898 99.3133 45.3598 98.5667 47.2931 99.0833C49.2331 99.6033 50.4998 101.277 50.3698 103.177C50.3265 103.777 50.7331 104.31 51.3565 104.48L55.2865 105.547C55.9131 105.717 56.5998 105.477 56.9565 104.96C58.0898 103.32 60.2531 102.553 62.2365 103.083C64.2265 103.617 65.5931 105.333 65.5531 107.283C65.5398 107.897 65.9765 108.447 66.6165 108.62L70.5198 109.677C71.3098 109.89 72.1198 109.473 72.3331 108.743C74.0065 103.01 80.3331 99.8 86.5531 101.42C87.3331 101.623 88.1031 101.227 88.2765 100.533L106.353 27.7066C106.453 27.3033 106.253 25.4966 105.346 25.37L105.343 25.3733Z" fill="#FF9448"/>
<path d="M64.7837 11.5233C64.7937 11.2199 64.4904 10.9533 64.0437 10.8699L61.3404 10.3599C60.797 10.2566 60.2237 10.4599 60.057 10.8099C58.697 13.6799 53.947 15.3633 49.527 14.5033C48.9804 14.3966 48.3837 14.6066 48.1937 14.9699L14.667 79.7899C14.3537 80.3966 14.6537 81.0333 15.3437 81.2133C20.907 82.6566 23.5204 87.9633 21.0437 93.1933C20.7304 93.8566 21.0604 94.5533 21.7837 94.7499L25.3937 95.7233C25.9904 95.8833 26.6804 95.6566 27.0737 95.1666C28.327 93.6166 30.5104 92.8933 32.3937 93.3933C34.2837 93.8966 35.457 95.5233 35.2404 97.3633C35.1704 97.9433 35.547 98.4633 36.1537 98.6266L39.9804 99.6599C40.5904 99.8266 41.2804 99.5899 41.657 99.0899C42.8537 97.4999 45.0237 96.7566 46.957 97.2699C48.897 97.7866 50.1637 99.4533 50.0337 101.343C49.9904 101.94 50.397 102.47 51.0204 102.64L54.9504 103.7C55.577 103.87 56.2637 103.63 56.6204 103.113C57.7537 101.483 59.917 100.72 61.9004 101.247C63.8904 101.777 65.2537 103.487 65.217 105.427C65.2037 106.04 65.6404 106.583 66.2804 106.757L70.1837 107.81C70.9737 108.023 71.7837 107.607 71.997 106.88C73.6704 101.173 79.997 97.9833 86.217 99.5966C86.997 99.7999 87.767 99.4033 87.9404 98.7133L106.017 26.2499C106.117 25.8466 105.71 25.4266 105.107 25.3099C100.294 24.3733 97.1504 21.0699 98.047 18.0099C98.157 17.6333 97.777 17.2433 97.2004 17.1333L94.3404 16.5933C93.8704 16.5033 93.397 16.6299 93.1804 16.8999C92.4904 17.7666 90.9604 18.1799 89.467 17.8933C87.9737 17.6066 86.8937 16.7033 86.827 15.6966C86.807 15.3833 86.4704 15.1066 86.007 15.0166L83.1037 14.4699C82.6404 14.3833 82.167 14.5066 81.9404 14.7733C81.2137 15.6266 79.677 16.0266 78.2137 15.7466C76.7504 15.4666 75.7237 14.5766 75.7037 13.5899C75.7004 13.2833 75.377 13.0099 74.9237 12.9233L72.077 12.3866C71.6237 12.2999 71.147 12.4233 70.9104 12.6833C70.1504 13.5199 68.607 13.9166 67.1704 13.6399C65.737 13.3666 64.757 12.4933 64.787 11.5233H64.7837Z" fill="#FFA667"/>
<path d="M99.7497 28.1759L82.293 91.9759C82.1564 92.4692 81.6864 92.8226 81.1064 92.8659C77.0564 93.1559 73.1964 94.6659 70.2097 97.1559C69.6797 97.5959 68.8597 97.6059 68.3064 97.1759C67.0264 96.1892 65.563 95.4759 63.953 95.0559C61.563 94.4326 59.053 94.5126 56.683 95.2859C56.0897 95.4792 55.4364 95.3059 55.0697 94.8626C53.6164 93.0926 51.613 91.8426 49.2764 91.2359C46.9464 90.6292 44.463 90.7059 42.0864 91.4592C41.493 91.6492 40.853 91.4792 40.513 91.0459C39.163 89.3192 37.2464 88.1026 34.963 87.5059C33.4364 87.1092 31.833 87.0126 30.1964 87.2192C29.4897 87.3092 28.873 86.9326 28.763 86.3426C28.1397 83.0359 26.2297 80.1426 23.403 78.1592C23.003 77.8759 22.883 77.3959 23.103 76.9492L51.8164 18.7026C51.9564 18.4192 52.3397 18.2159 52.7797 18.1926C55.8497 18.0292 58.813 17.1759 61.0997 15.8092C61.4964 15.5726 62.103 15.5659 62.503 15.7992C63.4364 16.3392 64.5197 16.7292 65.7197 16.9626C67.5097 17.3092 69.383 17.2659 71.1297 16.8359C71.563 16.7292 72.0564 16.8259 72.3464 17.0692C73.5164 18.0626 75.0997 18.7792 76.9164 19.1326C78.7397 19.4859 80.6297 19.4392 82.3697 19.0026C82.803 18.8926 83.3064 18.9926 83.6097 19.2426C84.8397 20.2559 86.4697 20.9859 88.3264 21.3459C89.573 21.5892 90.8397 21.6459 92.0864 21.5226C92.623 21.4692 93.1664 21.6992 93.353 22.0592C94.423 24.1326 96.5097 26.0192 99.2364 27.3526C99.6297 27.5459 99.833 27.8759 99.7497 28.1826V28.1759ZM79.7864 90.4892L97.4197 28.2392C94.8497 26.8559 92.8397 25.0359 91.643 23.0392C90.3864 23.0926 89.1164 22.9959 87.863 22.7526C85.7964 22.3492 83.953 21.5792 82.4964 20.5159C80.523 20.9092 78.423 20.9092 76.3897 20.5159C74.363 20.1192 72.5764 19.3659 71.1797 18.3226C69.2064 18.7092 67.1264 18.7092 65.1297 18.3226C63.9264 18.0892 62.8164 17.7226 61.823 17.2392C59.4797 18.4959 56.6164 19.3159 53.623 19.5692L25.9264 76.8559C28.553 78.8859 30.4197 81.6326 31.2664 84.7559C32.8697 84.6726 34.4464 84.8259 35.9597 85.2159C38.473 85.8659 40.6364 87.1226 42.2664 88.8826C44.8997 88.2226 47.6064 88.2226 50.173 88.8826C52.7497 89.5459 54.9964 90.8359 56.7397 92.6426C59.373 91.9692 62.113 91.9659 64.7464 92.6426C66.343 93.0559 67.823 93.6992 69.1697 94.5592C72.213 92.3359 75.9064 90.9192 79.7864 90.4826V90.4892Z" fill="white"/>
<path d="M65.536 48.8158C55.7327 46.6524 50.516 39.1558 53.5993 32.4191C56.5227 26.0358 65.9793 22.5091 74.9393 24.2858C83.8993 26.0624 89.9193 32.8158 87.836 39.5724C85.6327 46.7158 75.506 51.0158 65.536 48.8124V48.8158ZM74.386 25.7324C66.536 24.1658 58.266 27.2724 55.756 32.8691C53.246 38.4658 57.7093 45.2158 66.2027 47.0758C74.8193 48.9658 83.596 45.2724 85.5593 39.0991C87.4327 33.2158 82.3393 27.3224 74.3827 25.7324H74.386Z" fill="white"/>
<path d="M75.7265 44.0031C75.3965 43.9331 75.0999 43.7697 74.9132 43.5297L64.0865 29.6431C63.7532 29.2164 63.9799 28.6864 64.5865 28.4564C65.1899 28.2264 65.9499 28.3797 66.2866 28.8031L77.1999 42.5897C77.5766 43.0631 77.3699 43.6597 76.7366 43.9231C76.4199 44.0531 76.0565 44.0764 75.7265 44.0064V44.0031Z" fill="white"/>
<path d="M60.4063 40.709C60.0863 40.639 59.7996 40.4824 59.6329 40.249C59.2963 39.7857 59.5396 39.2057 60.1763 38.9557L79.1996 31.4357C79.7963 31.199 80.5763 31.359 80.9396 31.789C81.3063 32.2224 81.1163 32.769 80.5163 33.009L61.4063 40.629C61.0863 40.7557 60.7263 40.779 60.4063 40.709Z" fill="white"/>
<path d="M72.1533 64.8492L48.9499 59.4392C48.2133 59.2659 47.8199 58.6526 48.0766 58.0692C48.3333 57.4859 49.1266 57.1559 49.8599 57.3259L72.8966 62.6492C73.6599 62.8259 74.1166 63.4592 73.9133 64.0659C73.7099 64.6726 72.9233 65.0259 72.1533 64.8492Z" fill="white"/>
<path d="M69.8063 71.8093L46.0797 66.1259C45.3263 65.9459 44.933 65.2993 45.1997 64.6859C45.4663 64.0726 46.2863 63.7259 47.033 63.9059L70.5863 69.4959C71.3663 69.6826 71.8297 70.3459 71.6164 70.9859C71.403 71.6259 70.593 71.9959 69.8063 71.8093Z" fill="white"/>
<path d="M67.34 79.1292L43.0634 73.1525C42.2934 72.9625 41.8967 72.2858 42.1767 71.6392C42.4567 70.9992 43.3 70.6325 44.0667 70.8192L68.1634 76.6958C68.9634 76.8892 69.43 77.5925 69.2067 78.2625C68.9834 78.9325 68.1467 79.3258 67.3434 79.1292H67.34Z" fill="white"/>
<path d="M15.187 80.797C14.9037 80.7236 14.6904 80.5703 14.5537 80.377C14.597 80.7636 14.877 81.0969 15.3437 81.2169C18.307 81.9869 20.4337 83.8536 21.4004 86.2203C20.5237 83.657 18.3237 81.6136 15.187 80.8003V80.797Z" fill="#FFC9A3"/>
<path d="M32.24 92.9765C30.3567 92.4765 28.27 92.9231 27.0167 94.4765C26.6234 94.9665 25.93 95.1931 25.3367 95.0331L21.63 94.3331C21.32 94.2498 21.09 94.0731 20.9434 93.8465C21.0034 94.2631 21.3034 94.6198 21.7867 94.7498L25.3967 95.7231C25.9934 95.8831 26.6834 95.6565 27.0767 95.1665C28.33 93.6165 30.5134 92.8931 32.3967 93.3931C33.5934 93.7131 34.5034 94.4831 34.9534 95.4698C34.5867 94.2831 33.6 93.3365 32.24 92.9731V92.9765Z" fill="#FFC9A3"/>
<path d="M46.8039 96.8535C44.8706 96.3401 42.7972 96.8068 41.6006 98.3968C41.2239 98.9001 40.5372 99.1335 39.9239 98.9668L36.0006 98.2101C35.6706 98.1201 35.4139 97.9268 35.2539 97.6735C35.3239 98.1201 35.6606 98.4935 36.1572 98.6268L39.9839 99.6601C40.5939 99.8235 41.2839 99.5901 41.6606 99.0901C42.8572 97.5001 45.0272 96.7568 46.9606 97.2701C48.2572 97.6168 49.2506 98.4768 49.7272 99.5735C49.3372 98.2801 48.2606 97.2435 46.8039 96.8535Z" fill="#FFC9A3"/>
<path d="M105.871 25.7266C105.871 25.7599 105.871 25.7966 105.861 25.8299L87.7841 98.2932C87.6108 98.9799 86.8441 99.0332 86.0641 98.8299C79.8441 97.2166 73.6108 100.48 71.9408 106.183C71.7275 106.91 70.9175 107.327 70.1275 107.113L66.1275 106.337C65.7375 106.233 65.4275 105.987 65.2441 105.677C65.3375 106.18 65.7341 106.607 66.2841 106.753L70.1875 107.807C70.9775 108.02 71.7875 107.603 72.0008 106.877C73.6741 101.17 80.0008 97.9799 86.2208 99.5932C87.0008 99.7966 87.7708 99.3999 87.9441 98.7099L106.021 26.2466C106.067 26.0666 106.004 25.8832 105.874 25.7266H105.871Z" fill="#FFC9A3"/>
<path d="M61.7466 100.83C59.7633 100.303 57.6966 100.79 56.5633 102.423C56.2066 102.937 55.52 103.177 54.8933 103.01L50.8666 102.223C50.5066 102.127 50.2266 101.907 50.0566 101.627C50.1366 102.103 50.5033 102.5 51.0233 102.64L54.9533 103.7C55.58 103.87 56.2666 103.63 56.6233 103.113C57.7566 101.48 59.92 100.72 61.9033 101.247C63.2733 101.61 64.3466 102.533 64.87 103.707C64.43 102.34 63.2766 101.237 61.7466 100.83Z" fill="#FFC9A3"/>
</g>
</g>
</g>
</svg>
