<svg xmlns="http://www.w3.org/2000/svg" fill="none" viewBox="0 0 313 214"><path fill="currentColor" d="m158.669 136.172 153.314 39.656c-71.631-37.667-103.151-66.876-106.749-104.383-2.838-29.585 13.282-49.304 41.367-70.841l-79.69 25.129c-13.514 13.403-22.333 29.687-25.384 48.445-3.864 23.76 2.418 42.793 17.142 61.99v.004Zm-69.88-18.077 50.044 12.945c-10.123-17.028-13.22-34.161-8.661-56.098 3.552-17.084 11.125-32.31 20.895-44.215l-38.244 12.06c-5.965 8.92-11.67 21.878-16.366 35.733-5.08 14.984-8.183 28.996-7.672 39.575h.003ZM18.572 99.933l8.54 2.209c6.194-3.956 12.305-10.375 17.611-20.25 4.493-8.36 6.397-15.625 3.916-18.866l-9.88 3.117c.904 3.67.622 8.606-4.192 16.992-5.486 9.552-11.365 14.275-15.999 16.798h.004Zm33.089 8.56 25.88 6.695c3.381-10.457 5.698-21.97 12.76-41.062 2.887-7.81 7.331-18.971 12.234-28.092l-26.535 8.367c.275 6.82-1.639 14.767-6.83 26.486-5.197 11.732-10.64 19.951-17.506 27.606h-.003Zm-19.974-5.168 13.174 3.408c7.268-6.302 12.944-14.622 18.204-25.88 4.834-10.342 7.252-18.947 6.646-24.47l-15.75 4.969c1.275 4.014.357 10.333-4.778 20.2-5.38 10.34-11.506 17.3-17.496 21.776v-.003Zm273.462 85.536v24.126l3.28.016V189.49l3.582.688v-7.268l-10.87-2.733v7.917l4.005.767h.003Zm-17.923-12.184v36.222l11.615.055v-8.055l-7.489-.482v-5.331l7.325.743v-7.301l-7.325-1.14v-5.181l7.489 1.435v-8.055l-11.615-2.92v.01Zm-8.989 27.609-4.132-.245v-6.991l4.132.43c1.708.177 2.268 1.642 2.268 3.588 0 1.947-.56 3.32-2.268 3.218Zm-.259-15.304-3.873-.609v-6.201l3.873.761c1.849.363 2.235 1.687 2.235 3.365 0 1.678-.386 2.976-2.235 2.684Zm4.257 4.202v-.535c1.567-.262 2.501-3.126 2.501-7.442 0-5.263-1.826-9.615-5.909-10.641l-13.033-3.277c2.73 4.303 4.018 11.775 4.018 20.744v.983c0 9.029-1.288 16.17-4.018 19.774l12.561.063c4.723.023 6.728-4.378 6.728-11.726 0-4.201-1.042-7.118-2.844-7.943h-.004Zm-26.931 7.652-3.621-.259v-20.692l3.621.669c3.33.616 5.168 4.197 5.168 10.742 0 6.544-1.842 9.776-5.168 9.54Zm-10.615-34.853v46.703l11.703.059c6.171.029 10.067-7.154 10.067-20.148v-1.003c0-12.99-3.896-21.118-10.067-22.668l-11.703-2.943Zm-19.397 47.637h4.287c7.37 0 11.532-8.567 11.532-22.976v-25.558l-7.911-1.99v26.607c0 6.581-1.727 10.071-4.788 9.864l-1.917-.131c-3.215-.219-5.119-4.172-5.119-11.139v-28.17l-9.608-2.415v29.445c0 16.602 5.24 26.469 13.524 26.469v-.006Zm-35.363-16.511-5.827-.393c-4.781-.324-8.055-5.269-8.055-14.996v-2.363c0-9.815 3.274-13.832 8.055-12.931l5.827 1.101c4.394.829 7.223 5.62 7.223 14.632v2.17c0 8.93-2.829 13.079-7.223 12.78Zm-7.626 16.511h9.268c9.897 0 16.546-10.664 16.546-28.334v-1.354c0-17.588-6.649-29.959-16.546-32.496l-9.216-2.362c-11.686-2.996-20.767 7.537-20.767 28.746v1.632c0 21.305 9.078 34.168 20.715 34.168Zm-71.962-81.404v79.808l47.875.236v-18.85l-27.973-2.049v-54.144l-19.902-5.004v.003ZM50.584 213.62h19.04c21.035 0 33.728-14.793 35.15-33.633l.088-1.036-24.001-2.527-.203 1.098c-1.432 7.603-6.96 11.726-14.977 11.185l-10.945-.741c-10.743-.727-18.595-8.825-18.595-23.818v-3.084c0-14.992 7.852-21.078 18.595-19.053l10.945 2.065c8.016 1.511 13.545 7.056 14.977 15.022l.203 1.15 24.001 3.625-.088-1.059c-1.422-19.089-13.636-37.126-35.15-42.641l-18.801-4.818C23.34 108.313.689 122.958.689 156.686v2.596c0 33.879 22.514 54.331 49.895 54.331v.007Z"/></svg>