<svg xmlns="http://www.w3.org/2000/svg" fill="none" viewBox="0 0 376 226"><g fill="currentColor" clip-path="url(#a)"><path d="M176.494 37.266c-42.684 39.433-51.57 74.558-15.986 131.594l214.748 55.653C184.936 112.31 187.083 67.423 289.179 1.796l-112.685 35.47ZM35.13 136.363l25.868 6.706c7.208-31.286 17.994-56.468 32.779-79.764l-26.773 8.427c-5.414 18.37-15.575 39.598-31.873 64.631Z"/><path d="m153.518 44.499-48.181 15.165c-15.682 25.01-26.402 52.135-32.343 86.519l56.359 14.605c-18.602-48.651-9.239-81.346 24.165-116.289ZM38.648 80.653c-.921 13.394-10.712 31.105-28.344 49.277l-9.56-2.48c17.928-15.552 27.315-31.525 26.196-43.115l11.708-3.682Z"/><path d="m43.274 79.195 16.95-5.337c-5.423 17.1-15.872 37.908-31.257 60.908l-14.769-3.831c17.229-19.004 27.307-37.415 29.085-51.74h-.009Z"/></g><defs><clipPath id="a"><path fill="#fff" d="M.5.635h375v225H.5z"/></clipPath></defs></svg>