<svg  viewBox="0 0 24 24" fill="none" xmlns="http://www.w3.org/2000/svg">
<path fill-rule="evenodd" clip-rule="evenodd" d="M18.487 18.2308C22.6749 14.661 23.1873 8.37666 19.633 4.17558C19.2884 3.76008 18.9064 3.36726 18.4952 3.00635C18.1839 2.7331 17.71 2.76394 17.4368 3.07523C17.1635 3.38653 17.1944 3.8604 17.5057 4.13365C17.8575 4.44246 18.1843 4.77857 18.4832 5.13885C21.5085 8.7147 21.073 14.0554 17.5139 17.0892C17.1987 17.3579 17.1609 17.8313 17.4297 18.1465C17.6984 18.4618 18.1717 18.4995 18.487 18.2308ZM12.7504 13.1102C13.8207 12.7883 14.6004 11.7952 14.6004 10.62C14.6004 9.18406 13.4364 8.02 12.0004 8.02C10.5645 8.02 9.40043 9.18406 9.40043 10.62C9.40043 11.7952 10.1801 12.7883 11.2504 13.1102V20.47C11.2504 20.8842 11.5862 21.22 12.0004 21.22C12.4146 21.22 12.7504 20.8842 12.7504 20.47V13.1102ZM12.0004 11.72C11.3929 11.72 10.9004 11.2275 10.9004 10.62C10.9004 10.0125 11.3929 9.52 12.0004 9.52C12.6079 9.52 13.1004 10.0125 13.1004 10.62C13.1004 11.2275 12.6079 11.72 12.0004 11.72ZM18.2875 11.1188C18.1513 12.7904 17.3551 14.339 16.075 15.4225C15.7588 15.6901 15.2856 15.6507 15.018 15.3345C14.7504 15.0184 14.7897 14.5451 15.1059 14.2775C16.0817 13.4516 16.6886 12.2711 16.7925 10.9969C16.8964 9.72269 16.4887 8.45953 15.6678 7.49589C15.493 7.29762 15.3045 7.112 15.1035 6.94041C14.7884 6.67147 14.7511 6.19807 15.02 5.88304C15.289 5.56801 15.7624 5.53065 16.0774 5.79959C16.3323 6.01722 16.5715 6.25265 16.8013 6.51357C17.889 7.79013 18.4238 9.44721 18.2875 11.1188ZM6.48858 17.0906C4.77895 15.6249 3.72166 13.54 3.54934 11.2947C3.37702 9.04943 4.1038 6.82765 5.56975 5.11824C5.86561 4.75332 6.17389 4.42654 6.50551 4.12443C6.81172 3.84548 6.83381 3.37112 6.55486 3.06492C6.27591 2.75872 5.80155 2.73662 5.49535 3.01557C5.10777 3.36866 4.74747 3.75057 4.41754 4.15804C2.70615 6.15319 1.85098 8.76752 2.05374 11.4095C2.2565 14.0515 3.50059 16.5047 5.51228 18.2294C5.82675 18.499 6.30022 18.4626 6.56982 18.1482C6.83942 17.8337 6.80305 17.3602 6.48858 17.0906ZM7.20835 10.9969C7.31224 12.2711 7.91912 13.4516 8.89496 14.2775C9.21113 14.5451 9.2505 15.0184 8.9829 15.3345C8.7153 15.6507 8.24206 15.6901 7.9259 15.4225C6.64574 14.339 5.84959 12.7904 5.71331 11.1188C5.57703 9.44721 6.11182 7.79013 7.20776 6.50412C7.42937 6.25265 7.66854 6.01722 7.92347 5.79959C8.2385 5.53065 8.7119 5.56801 8.98084 5.88304C9.24978 6.19807 9.21242 6.67147 8.89739 6.94041C8.6964 7.112 8.50783 7.29762 8.34129 7.48643C7.51213 8.45953 7.10446 9.72269 7.20835 10.9969Z" fill="currentColor"/>
</svg>
