<svg xmlns="http://www.w3.org/2000/svg" fill="none" viewBox="0 0 60 60"><path fill="currentColor" d="m9.074 29.138 3.126 3.123h4.932c2.063 0 3.735-1.683 3.735-3.76 0-2.076-1.672-3.759-3.735-3.759H5v10.011h4.074v-6.887h7.415c.349 0 .631.285.631.636a.633.633 0 0 1-.631.635H9.073m17.207-1.271h11.793v-3.124H22.206v10.011h4.074v-6.887Z"/><path fill="currentColor" d="m26.28 29.137 3.128 3.123h8.666v-3.123H26.28Zm13.395 2.493 3.127 3.123H55v-3.124H43.75v-6.883h-4.075v6.884Z"/><path fill="currentColor" d="M51.17 11.475 30.14 5 9.11 11.475v8.973h2.088V13.03L30.14 7.198l18.942 5.832v14.3h2.088V11.476Zm-5.684 27.708c-3.05 5.012-8.1 9.427-15.347 13.426-7.246-4-12.297-8.414-15.347-13.426H12.38c2.79 5.09 7.906 10.476 17.265 15.547l.495.268.495-.268c9.36-5.072 14.476-10.457 17.265-15.547h-2.413Z"/><path fill="currentColor" d="M24.672 23.142 22.127 17.9l3.693 1.51a1.667 1.667 0 0 0 1.633 1.973c.918 0 1.662-.748 1.662-1.672 0-.834-.606-1.523-1.399-1.65l2.423-2.439 2.423 2.439a1.668 1.668 0 0 0-1.4 1.65c0 .924.745 1.672 1.663 1.672a1.667 1.667 0 0 0 1.633-1.973l3.693-1.51-2.545 5.243H24.67h.001Z"/></svg>