<svg xmlns="http://www.w3.org/2000/svg" fill="none" viewBox="0 0 376 226"><g fill="currentColor" clip-path="url(#a)"><path d="M199.506 37.267c42.684 39.432 51.57 74.557 15.986 131.593L.744 224.513C191.064 112.31 188.917 67.424 86.82 1.796l112.685 35.47ZM340.869 136.363l-25.867 6.706c-7.207-31.286-17.994-56.468-32.779-79.764l26.773 8.427c5.413 18.37 15.575 39.598 31.873 64.631Z"/><path d="m222.482 44.5 48.181 15.164c15.682 25.01 26.402 52.135 32.343 86.519l-56.359 14.605c18.602-48.651 9.239-81.345-24.165-116.289ZM337.352 80.653c.921 13.394 10.712 31.105 28.344 49.277l9.56-2.479c-17.928-15.553-27.315-31.525-26.196-43.115l-11.708-3.683Z"/><path d="m332.726 79.196-16.949-5.338c5.422 17.1 15.871 37.909 31.256 60.908l14.769-3.831c-17.229-19.004-27.307-37.414-29.085-51.74h.009Z"/></g><defs><clipPath id="a"><path fill="#fff" d="M.5.635h375v225H.5z"/></clipPath></defs></svg>