<svg xmlns="http://www.w3.org/2000/svg" fill="none" viewBox="0 0 376 179"><g fill="currentColor" clip-path="url(#a)"><path d="M158.192.569c5.752 24.678 7.723 54.186 7.678 89.035-.009 6.13-.08 12.088-.219 17.887h44.658a772.677 772.677 0 0 1-.17-17.828c.049-34.85 2.101-64.348 7.915-89.013L158.197.57h-.005ZM273.767 89.753a257.09 257.09 0 0 1 .641-17.977h-44.305a482.29 482.29 0 0 0-.345 17.914c-.049 35.484 3.41 64.91 11.115 88.786h53.949c-13.672-21.611-21.104-51.014-21.051-88.723h-.004ZM349.786 143.205H300.98c4.202 13.859 10.174 25.725 17.682 35.638l56.838.077c-10.895-9.293-19.639-21.181-25.709-35.715h-.005ZM135.049.536 80.979.46c11.558 18.331 18.694 42.004 20.683 71.317h44.295c-.981-27.773-4.471-51.427-10.904-71.24h-.004ZM.5.351C22.607 19.208 35.894 48.73 35.84 89.427c-.009 6.289-.336 12.31-.963 18.068H81.39c.47-5.763.717-11.761.726-18.004.053-38.406-8.96-67.928-24.778-89.058L.5.35Z"/></g><defs><clipPath id="a"><path fill="#fff" d="M.5.635h375v178H.5z"/></clipPath></defs></svg>