<svg xmlns="http://www.w3.org/2000/svg" fill="none" viewBox="0 0 376 179"><g fill="currentColor" clip-path="url(#a)"><path d="m318.612 177.813 56.769.076c-10.882-9.179-19.615-20.923-25.678-35.28h-48.746c4.197 13.691 10.161 25.412 17.66 35.204h-.005ZM230.157 72.054a470.62 470.62 0 0 0-.345 17.696c-.049 35.177 3.428 64.325 11.181 87.956l54.008.071c-13.785-21.375-21.284-50.532-21.23-87.97.009-6.14.228-12.052.64-17.758h-44.25l-.004.005ZM163.74 142.609h48.603c-1.544-16.04-2.148-33.637-2.121-52.886.009-6.055.081-11.94.224-17.67h-44.603c.125 5.711.179 11.579.17 17.612-.027 19.275-.68 36.895-2.273 52.949v-.005ZM81.231 1.601c13.785 21.626 21.279 50.783 21.23 87.97-.027 20.032-2.21 37.683-6.353 53.038h46.871c2.309-15.865 3.414-33.494 3.441-52.976.049-35.177-3.428-64.325-11.186-87.956l-54.003-.076ZM36.146 89.481c-.009 6.212-.335 12.16-.962 17.848H81.64c.47-5.693.715-11.618.724-17.785.054-37.939-8.948-67.1-24.746-87.974L.849 1.49C22.93 20.115 36.2 49.277 36.146 89.48Z"/></g><defs><clipPath id="a"><path fill="#fff" d="M.5.635h375v178H.5z"/></clipPath></defs></svg>