<svg xmlns="http://www.w3.org/2000/svg" fill="none" viewBox="0 0 376 179"><g fill="currentColor" clip-path="url(#a)"><path d="M349.403 35.943c6.078-14.325 14.755-26.051 25.52-35.225L318.295.637c-7.418 9.899-13.35 21.652-17.563 35.301h48.671v.005ZM229.821 71.688c-.223 5.8-.335 11.772-.344 17.935-.026 19.689 1.022 37.509 3.267 53.557h46.707c-4.048-15.508-6.15-33.315-6.123-53.499a258.91 258.91 0 0 1 .638-17.993h-44.145ZM210.102 107.43a779.733 779.733 0 0 1-.17-17.844c.009-6.135.081-12.098.224-17.902h-44.493c.125 5.786.178 11.73.169 17.843a803.117 803.117 0 0 1-.218 17.903h44.493-.005ZM102.437 89.441c-.049 37.932-7.605 67.452-21.419 89.072l53.875.073c7.802-23.92 11.345-53.444 11.394-89.086a481.425 481.425 0 0 0-.294-17.816h-44.132c.384 5.704.581 11.617.572 17.753l.004.004ZM35.326 107.43C31.903 138.945 19.5 162.498.835 178.4l56.628.077c13.26-17.489 21.771-41.074 24.204-71.047h-46.34Z"/></g><defs><clipPath id="a"><path fill="#fff" d="M.5.635h375v178H.5z"/></clipPath></defs></svg>