<svg  viewBox="0 0 24 24" fill="none" xmlns="http://www.w3.org/2000/svg">
<path fill-rule="evenodd" clip-rule="evenodd" d="M12 2C10.6607 2 9.38298 2.26327 8.21563 2.74088C8.18634 2.75095 8.15762 2.76285 8.12966 2.77653C4.52874 4.28935 2 7.84936 2 12C2 17.5228 6.47715 22 12 22C17.5228 22 22 17.5228 22 12C22 9.34784 20.9464 6.8043 19.0711 4.92893C18.1524 4.01027 17.0734 3.2888 15.8998 2.79178C15.8527 2.76606 15.8031 2.7456 15.752 2.73058C14.5712 2.2526 13.2986 2 12 2ZM5.78871 6.19739C6.5222 5.41256 7.40269 4.76687 8.3863 4.3042L11.25 6.22951V7.67835L7.80442 10.1873L6.28245 9.43963L5.78871 6.19739ZM5.75002 10.8493L7.26427 11.5931L8.6033 15.7296L7.81315 16.6076L4.55863 16.1113C4.04172 15.1777 3.6954 14.1365 3.56175 13.0298L5.75002 10.8493ZM8.99655 17.535L10.374 20.3446C10.9003 20.4466 11.4439 20.5 12 20.5C12.5561 20.5 13.0997 20.4466 13.626 20.3446L15.0035 17.535L14.216 16.66H9.78402L8.99655 17.535ZM7.59922 18.0923L8.38505 19.6952C7.40857 19.2357 6.53376 18.5958 5.80355 17.8185L7.59922 18.0923ZM16.1868 16.6076L19.4414 16.1113C19.9583 15.1777 20.3046 14.1365 20.4383 13.0298L18.25 10.8493L16.7357 11.5931L15.3967 15.7296L16.1868 16.6076ZM4.53541 7.93095C4.04156 8.83499 3.70715 9.83861 3.57001 10.904L4.80131 9.67707L4.53541 7.93095ZM17.7176 9.43963L16.1956 10.1873L12.75 7.67835V6.22951L15.6118 4.3055C16.4945 4.71985 17.3077 5.28684 18.0104 5.98959C18.0787 6.05784 18.1456 6.12713 18.2113 6.19742L17.7176 9.43963ZM19.1987 9.67707L19.4642 7.93355C19.9645 8.85199 20.293 9.8585 20.4289 10.903L19.1987 9.67707ZM15.615 19.6952C16.5914 19.2357 17.4662 18.5958 18.1964 17.8185L16.4008 18.0923L15.615 19.6952ZM12 4.92625L13.8262 3.69846C13.231 3.56751 12.619 3.5 12 3.5C11.3724 3.5 10.7606 3.56802 10.1718 3.6971L12 4.92625ZM14.0045 15.16L15.239 11.3463L12 8.98776L8.76099 11.3463L9.99553 15.16H14.0045Z" fill="currentColor"/>
</svg>
