<svg xmlns="http://www.w3.org/2000/svg" fill="none" viewBox="0 0 219 138"><path fill="currentColor" d="M184.743 102.1h32.766c-12.758-10.729-20.443-27.547-20.443-50.745 0-23.199 7.685-40.017 20.443-50.746h-32.766c-9.133 12.034-14.354 28.852-14.354 50.746 0 21.893 5.219 38.855 14.354 50.745Zm-183.55 0h32.766c9.133-11.888 14.354-28.706 14.354-50.745 0-22.04-5.219-38.712-14.354-50.746H1.193C13.95 11.34 21.636 28.156 21.636 51.355c0 23.198-7.685 40.016-20.443 50.745Zm46.394 0h31.172c4.495-13.628 6.524-30.446 6.524-50.745 0-20.3-2.029-37.116-6.524-50.746H47.587C55.56 13.078 59.91 29.896 59.91 51.355c0 21.458-4.349 38.42-12.323 50.745Zm44.511 0h34.506c-3.334-14.063-4.495-30.88-4.495-50.745s1.159-36.68 4.495-50.746H92.098c3.334 14.063 4.495 30.881 4.495 50.746 0 19.864-1.16 36.68-4.495 50.745Zm47.845 0h31.172c-7.974-12.323-12.323-29.14-12.323-50.745 0-21.605 4.349-38.277 12.323-50.746h-31.172c-4.495 13.628-6.524 30.446-6.524 50.746s2.029 37.115 6.524 50.745ZM12.345 137.859h5.062c6.244 0 10.397-3.851 10.882-8.79l.03-.273h-7.67l-.06.273c-.424 1.879-2.032 2.97-4.275 2.97h-2.91c-2.698 0-4.577-1.638-4.577-4.88v-.667c0-3.243 1.879-4.88 4.577-4.88h2.91c2.243 0 3.85 1.091 4.274 2.969l.062.274h7.669l-.03-.274c-.485-4.909-4.486-8.789-10.882-8.789h-5c-6.487 0-11.214 4.062-11.214 10.759v.515c0 6.728 4.697 10.79 11.152 10.79m18.852-.423h19.912v-5.879H38.713v-15.336h-7.516v21.217-.002Zm32.734.423h5.638c6.517 0 11.215-4.062 11.215-10.79v-.515c0-6.699-4.698-10.759-11.215-10.759h-5.606c-6.546 0-11.244 4.062-11.244 10.759v.515c0 6.728 4.698 10.79 11.215 10.79m4.606-5.82h-3.545c-2.79 0-4.636-1.575-4.636-4.818v-.788c0-3.274 1.849-4.818 4.636-4.818h3.545c2.79 0 4.636 1.546 4.636 4.818v.788c0 3.243-1.849 4.818-4.636 4.818Zm26.035 5.82h3.728c6.79 0 10.85-3.818 10.85-10.244v-11.396h-7.578v11.396c0 2.819-1.576 4.365-4.304 4.365h-1.666c-2.728 0-4.304-1.546-4.304-4.365v-11.396h-7.546v11.396c0 6.426 4.03 10.244 10.82 10.244Zm18.369-.423h13.881c7.213 0 11.578-3.698 11.578-10.365v-.515c0-6.667-4.365-10.335-11.578-10.335h-13.881v21.217-.002Zm13.154-5.729h-5.637v-9.759h5.637c3.031 0 4.668 1.605 4.668 4.274v1.152c0 2.666-1.637 4.335-4.668 4.335m35.19-5.426v-.303c1.94-.394 3.486-2.061 3.486-4.456 0-3.031-2.394-5.303-7.335-5.303h-19.427c2.666 2.425 4.183 5.941 4.183 10.335v.515c0 4.426-1.517 7.942-4.183 10.365h18.701c5.941 0 8.639-2.516 8.639-6.455 0-2.728-1.728-4.122-4.062-4.698m-5.547-1.999h-7.487v-3.334h7.487c1.091 0 1.728.576 1.728 1.576v.153c0 .999-.637 1.605-1.728 1.605Zm.182 8.425h-7.669v-3.757h7.669c1.243 0 2.002.605 2.002 1.758v.243c0 1.152-.759 1.758-2.002 1.758m12.246 4.729h21.702v-5.123h-14.397v-3.213h14.062v-4.636h-14.062v-3.122h14.397v-5.123h-21.702v21.217Zm33.158 0h7.516v-16.094h8.669v-5.123H192.66v5.123h8.669v16.094Z"/></svg>