<svg xmlns="http://www.w3.org/2000/svg" fill="none" viewBox="0 0 321 126"><path fill="currentColor" d="m219.307 79.823 25.609.034c-9.962-8.399-15.948-21.553-15.924-39.684.023-18.13 6.05-31.268 16.031-39.64L219.415.498c-7.152 9.395-11.248 22.536-11.272 39.646-.024 17.224 4.039 30.376 11.164 39.677m-143.46-.196 25.609.034c7.152-9.281 11.248-22.422 11.272-39.646.023-17.11-4.039-30.261-11.164-39.677L75.955.298c9.961 8.398 15.947 21.553 15.924 39.683-.024 18.13-6.05 31.268-16.032 39.64m36.261.05 24.362.034c3.527-10.645 5.131-23.79 5.154-39.653.021-15.863-1.546-29.011-5.046-39.666L112.216.352c6.218 9.752 9.601 22.904 9.577 39.673-.024 16.884-3.44 30.025-9.685 39.65m34.788.047 26.97.037c-2.59-10.996-3.48-24.14-3.459-39.667.02-15.526.946-28.667 3.567-39.656L147.004.4c2.591 10.996 3.48 24.14 3.46 39.666-.02 15.523-.947 28.668-3.568 39.657Zm37.396.05 24.363.034c-6.219-9.641-9.601-22.79-9.577-39.673.023-16.77 3.439-29.91 9.685-39.646L184.4.453c-3.527 10.645-5.13 23.79-5.154 39.653-.023 15.863 1.546 29.011 5.043 39.666M16.922 125.78h7.488c9.237 0 15.382-5.697 16.1-13.004l.043-.404H29.208l-.091.404c-.627 2.78-3.005 4.393-6.324 4.393h-4.305c-3.992 0-6.77-2.422-6.77-7.219v-.987c0-4.797 2.778-7.219 6.77-7.219h4.305c3.319 0 5.694 1.614 6.323 4.396l.091.404h11.346l-.043-.404c-.718-7.263-6.637-13.003-16.1-13.003h-7.397c-9.594 0-16.591 6.01-16.591 15.917v.761c0 9.955 6.95 15.965 16.5 15.965Zm27.89-.627H74.27v-8.698H55.93V93.766h-11.12v31.389-.003Zm48.428.627h8.341c9.641 0 16.591-6.01 16.591-15.965v-.761c0-9.91-6.95-15.917-16.591-15.917h-8.297c-9.685 0-16.635 6.01-16.635 15.917v.761c0 9.955 6.95 15.965 16.59 15.965Zm6.815-8.611H94.81c-4.127 0-6.862-2.331-6.862-7.128v-1.165c0-4.845 2.735-7.129 6.862-7.129h5.245c4.126 0 6.862 2.288 6.862 7.129v1.165c0 4.797-2.736 7.128-6.862 7.128Zm38.517 8.611h5.515c10.045 0 16.052-5.65 16.052-15.156v-16.86h-11.211v16.86c0 4.17-2.331 6.458-6.367 6.458h-2.466c-4.036 0-6.367-2.288-6.367-6.458v-16.86h-11.164v16.86c0 9.506 5.963 15.156 16.008 15.156Zm27.172-.627h20.536c10.672 0 17.13-5.471 17.13-15.334v-.762c0-9.863-6.458-15.29-17.13-15.29h-20.536v31.389-.003Zm19.461-8.476h-8.34v-14.438h8.34c4.484 0 6.906 2.375 6.906 6.323v1.705c0 3.945-2.422 6.41-6.906 6.41Zm52.06-8.027v-.448c2.871-.583 5.158-3.049 5.158-6.593 0-4.484-3.544-7.846-10.851-7.846H202.83c3.945 3.588 6.189 8.789 6.189 15.291v.761c0 6.549-2.24 11.75-6.189 15.335h27.668c8.789 0 12.781-3.723 12.781-9.551 0-4.035-2.557-6.097-6.01-6.949m-8.206-2.958h-11.077v-4.932h11.077c1.613 0 2.556.853 2.556 2.331v.226c0 1.479-.943 2.378-2.556 2.378m.269 12.465h-11.346V112.6h11.346c1.839 0 2.961.896 2.961 2.601v.36c0 1.705-1.122 2.601-2.961 2.601m18.117 6.997h32.107v-7.58h-21.3v-4.753h20.805v-6.862h-20.805v-4.619h21.3v-7.58h-32.107V125.16Zm49.055 0h11.12v-23.81h12.825v-7.58h-36.77v7.58h12.825v23.81Z"/></svg>