<svg xmlns="http://www.w3.org/2000/svg" fill="none" viewBox="0 0 60 60"><path fill="currentColor" d="M38.981 25.694H25.797L26.89 22h13.184l-1.094 3.694ZM30.047 31.932h7.084l1.095-3.694H25.044l-3.128 10.55h6.1l2.03-6.856ZM44.997 34.969a.553.553 0 0 1-.3-.34.425.425 0 0 1-.013-.13.485.485 0 0 1 .023-.122l2.389-8.059c.068-.235.19-.396.363-.486.174-.09.471-.138.9-.138h6.585L56.04 22h-9.232c-1.682 0-2.854.188-3.538.542-.683.355-1.157.983-1.43 1.909l-3.406 11.493a2.22 2.22 0 0 0-.09.503 1.65 1.65 0 0 0 .052.511c.159.56.546 1.004 1.178 1.338.621.325 1.399.49 2.324.49h9.663l1.094-3.693h-7.062a1.26 1.26 0 0 1-.59-.126l-.005.002ZM8.567 22 4.436 35.942c-.053.17-.08.342-.09.503-.011.177.01.344.052.511.159.56.547 1.004 1.179 1.338.62.325 1.398.49 2.323.49h6.873c1.682 0 2.854-.187 3.539-.542.682-.354 1.156-.983 1.429-1.908L23.989 22H17.89l-3.695 12.47c-.07.235-.19.396-.364.485-.174.09-.47.138-.9.138h-1.05a1.26 1.26 0 0 1-.59-.126.552.552 0 0 1-.3-.34.428.428 0 0 1-.014-.13.488.488 0 0 1 .023-.122L14.665 22H8.567Z"/></svg>