<svg width="12" height="11" viewBox="0 0 12 11" fill="none" xmlns="http://www.w3.org/2000/svg">
<g clip-path="url(#clip0_8482_16286)">
<path fill-rule="evenodd" clip-rule="evenodd" d="M6 1C3.51472 1 1.5 3.01472 1.5 5.5C1.5 7.98528 3.51472 10 6 10C8.48528 10 10.5 7.98528 10.5 5.5C10.5 3.01472 8.48528 1 6 1ZM0.5 5.5C0.5 2.46243 2.96243 0 6 0C9.03757 0 11.5 2.46243 11.5 5.5C11.5 8.53757 9.03757 11 6 11C2.96243 11 0.5 8.53757 0.5 5.5Z" fill="#34CB68"/>
<path fill-rule="evenodd" clip-rule="evenodd" d="M8.60419 3.89709C8.7991 4.09271 8.79853 4.40929 8.60291 4.60419L5.84291 7.35419C5.74888 7.44789 5.62145 7.50034 5.48871 7.5C5.35597 7.49966 5.22881 7.44654 5.13527 7.35237L3.64527 5.85237C3.45066 5.65645 3.45172 5.33987 3.64763 5.14527C3.84355 4.95066 4.16013 4.95172 4.35473 5.14763L5.49183 6.29235L7.89709 3.89581C8.09271 3.7009 8.40929 3.70147 8.60419 3.89709Z" fill="#34CB68"/>
</g>
<defs>
<clipPath id="clip0_8482_16286">
<rect width="11" height="11" fill="white" transform="translate(0.5)"/>
</clipPath>
</defs>
</svg>
