<svg width="0" height="0" style="position:absolute"><symbol xmlns="http://www.w3.org/2000/svg" id="account" fill="none" viewBox="0 0 24 24"><path fill="var(--icon-secondary)" d="M12 22.667c5.891 0 10.667-4.776 10.667-10.667S17.89 1.333 12 1.333 1.333 6.11 1.333 12 6.11 22.667 12 22.667Z"/><path fill="#000" d="M20.708 17.078a9.293 9.293 0 0 1-8.077 4.689 9.295 9.295 0 0 1-8.077-4.69c2.153-1.436 4.98-2.307 8.077-2.307 3.097 0 5.924.87 8.077 2.308Z" opacity=".25"/><path fill="var(--icon-primary)" d="M20.085 16.633a9.293 9.293 0 0 1-8.076 4.69 9.295 9.295 0 0 1-8.077-4.69c2.153-1.436 4.98-2.308 8.077-2.308 3.097 0 5.923.872 8.076 2.308Z"/><path fill="#000" d="M12.62 13.194a3.964 3.964 0 1 0 0-7.93 3.964 3.964 0 0 0 0 7.93Z" opacity=".25"/><path fill="var(--icon-primary)" d="M11.998 12.75a3.964 3.964 0 1 0 0-7.93 3.964 3.964 0 0 0 0 7.93Z"/></symbol><symbol xmlns="http://www.w3.org/2000/svg" id="arrows" fill="none" viewBox="0 0 24 24"><path fill="var(--icon-primary)" fill-rule="evenodd" d="m4.745 23.362 3.71-5.99a.286.286 0 0 0 .008-.296.285.285 0 0 0-.252-.148H6.573a.291.291 0 0 1-.288-.291v-5.712a.424.424 0 0 0-.419-.425H3.135a.422.422 0 0 0-.419.425v5.712c0 .16-.13.29-.288.29H.79a.282.282 0 0 0-.252.15.286.286 0 0 0 .006.295l3.712 5.99a.285.285 0 0 0 .488 0Z" clip-rule="evenodd"/><path fill="var(--icon-primary)" d="m23.455 17.372-3.71 5.99a.284.284 0 0 1-.489 0l-3.712-5.99a.286.286 0 0 1-.006-.296.285.285 0 0 1 .252-.148h1.638a.291.291 0 0 0 .288-.291v-5.712c0-.234.187-.425.419-.425h2.731c.23 0 .419.191.419.425v5.712c0 .16.13.29.288.29h1.637c.108 0 .2.056.253.15a.286.286 0 0 1-.008.295Z"/><path fill="var(--icon-secondary)" d="m15.955 7.372-3.71 5.99a.284.284 0 0 1-.489 0l-3.712-5.99a.286.286 0 0 1-.006-.296.285.285 0 0 1 .252-.148h1.638a.291.291 0 0 0 .288-.291V.925c0-.234.187-.425.419-.425h2.731c.23 0 .419.191.419.425v5.712c0 .16.13.29.288.29h1.637c.108 0 .2.056.253.15a.286.286 0 0 1-.008.295Z"/></symbol><symbol xmlns="http://www.w3.org/2000/svg" id="bet-builder" fill="none" viewBox="0 0 24 24"><g clip-path="url(#core__clip0_5382_2154)"><path fill="var(--icon-secondary)" d="M21.54 16.13c-.14-.08-.14-.19-.02-.27.65-.43 1.16-1.13 1.16-2.1 0-1.8-1.4-2.9-3.95-2.9h-2.78c-.15 0-.28.1-.32.25-.16.65-.48 1.39-1.08 2.06-.07.08-.02.21.08.21h3.36c.53 0 .83.27.83.75v.08c0 .48-.3.76-.83.76h-7.65c-.18 0-.33.15-.33.33v6.38c0 .18.15.33.33.33h8.09c3.12 0 4.54-1.32 4.54-3.38 0-1.34-.65-2.12-1.45-2.5h.02Zm-2.47 2.23c0 .56-.37.84-.96.84h-4c-.1 0-.16-.06-.16-.16v-1.5c0-.1.06-.16.16-.16h4c.59 0 .96.29.96.84v.14Z"/><path fill="var(--icon-primary)" d="M1.32 13.15c-.19 0-.32-.13-.32-.32V2.32c0-.19.13-.32.32-.32h8.39c2.55 0 3.95 1.1 3.95 2.9 0 .97-.51 1.67-1.16 2.1-.13.08-.13.19.02.27.8.38 1.45 1.16 1.45 2.5 0 2.05-1.42 3.38-4.54 3.38H1.32Zm7.66-7.04c.53 0 .83-.29.83-.76v-.08c0-.48-.3-.75-.83-.75H5.09c-.1 0-.16.06-.16.16v1.27c0 .1.06.16.16.16h3.89Zm.11 4.23c.59 0 .96-.29.96-.84v-.13c0-.56-.37-.84-.96-.84h-4c-.1 0-.16.06-.16.16v1.5c0 .1.06.16.16.16h4v-.01Z"/></g></symbol><symbol xmlns="http://www.w3.org/2000/svg" id="betslip" fill="none" viewBox="0 0 24 24"><path fill="var(--icon-primary)" d="M20.017 3h-5.555c-.23 0-.44.135-.48.342-.18.828-.991 1.458-1.962 1.458-.97 0-1.792-.63-1.962-1.458-.04-.198-.25-.342-.48-.342H4.003C2.34 3 1 4.206 1 5.7v12.6C1 19.794 2.341 21 4.003 21h5.555c.23 0 .44-.144.48-.342.18-.828.991-1.458 1.962-1.458.97 0 1.792.63 1.962 1.458.04.207.25.342.48.342h5.555C21.66 21 23 19.794 23 18.3V5.7C23 4.206 21.659 3 19.997 3h.02Z"/></symbol><symbol xmlns="http://www.w3.org/2000/svg" id="bitcoin" fill="none" viewBox="0 0 24 24"><g clip-path="url(#aecore__a)"><path fill="var(--icon-primary)" d="M11.09 12.43v2.75c.85 0 3.5.18 3.5-1.38 0-1.62-2.65-1.37-3.5-1.37Zm2.92-2.51c0-1.47-2.22-1.25-2.92-1.25v2.49c.71 0 2.92.16 2.92-1.25v.01Z"/><path fill="var(--icon-primary)" d="M12 1C5.92 1 1 5.92 1 12s4.92 11 11 11 11-4.92 11-11S18.08 1 12 1Zm5.06 13.05c-.18 1.97-1.65 2.5-3.75 2.62v2.07h-1.25V16.7h-1v2.05H9.81v-2.08H7.29l.25-1.49s.92.01.91 0c.35 0 .45-.25.47-.41V9.15c-.05-.25-.21-.55-.72-.55.02-.02-.91 0-.91 0V7.27h2.52V5.22l1.22.02.03 1.99c.33 0 .67-.01 1-.01v-2h1.25v2.05c1.61.14 2.89.64 3.03 2.12.11 1.08-.35 1.73-1.07 2.1 1.19.29 1.94.99 1.79 2.58v-.02Z"/><path fill="var(--icon-secondary)" d="M12 1C5.92 1 1 5.92 1 12s4.92 11 11 11 11-4.92 11-11S18.08 1 12 1Zm0 20a9 9 0 1 1 .001-18.001A9 9 0 0 1 12 21Z"/></g><defs><clipPath id="aecore__a"><path fill="#fff" d="M1 1h22v22H1z"/></clipPath></defs></symbol><symbol xmlns="http://www.w3.org/2000/svg" id="calendar" fill="none" viewBox="0 0 24 24"><path fill="#CCA6FF" d="M5.997 4.001A3.01 3.01 0 0 0 3 6.998v11c0 1.644 1.352 3.004 2.997 3.004h12.005c1.645 0 2.998-1.36 2.998-3.005V6.998a3.01 3.01 0 0 0-2.998-2.997H5.997Z"/><path fill="#EDE0FF" d="M5.997 4.001A3.01 3.01 0 0 0 3 6.998V9h18V6.998a3.01 3.01 0 0 0-2.998-2.997H5.997Z"/><path fill="#141114" d="M16 13.498a1.002 1.002 0 1 0 0-2.004 1.002 1.002 0 0 0 0 2.004ZM11.998 17.5a1.002 1.002 0 1 0 0-2.003 1.002 1.002 0 0 0 0 2.003Zm-3.999 0a1.002 1.002 0 1 0 0-2.003 1.002 1.002 0 0 0 0 2.003Zm3.999-4.002a1.002 1.002 0 1 0 0-2.004 1.002 1.002 0 0 0 0 2.004Zm-3.999 0a1.002 1.002 0 1 0 0-2.004 1.002 1.002 0 0 0 0 2.004Z"/><path stroke="#141114" stroke-width=".33" d="M3 8.833h18"/><rect width="2.3" height="5.3" x="6.85" y="1.85" fill="#CCA6FF" stroke="#141114" stroke-width=".3" rx="1.15"/><rect width="2.3" height="5.3" x="14.85" y="1.85" fill="#CCA6FF" stroke="#141114" stroke-width=".3" rx="1.15"/></symbol><symbol xmlns="http://www.w3.org/2000/svg" id="calendar-muted" fill="none" viewBox="0 0 24 24"><path fill="#8F8F8F" d="M5.997 4.001A3.01 3.01 0 0 0 3 6.998v11c0 1.644 1.352 3.004 2.997 3.004h12.005c1.645 0 2.998-1.36 2.998-3.005V6.998a3.01 3.01 0 0 0-2.998-2.997H5.997Z"/><path fill="#C4C4C4" d="M5.997 4.001A3.01 3.01 0 0 0 3 6.998V9h18V6.998a3.01 3.01 0 0 0-2.998-2.997H5.997Z"/><rect width="2.3" height="5.3" x="6.85" y="1.85" fill="#8F8F8F" stroke="#141114" stroke-width=".3" rx="1.15"/><rect width="2.3" height="5.3" x="14.85" y="1.85" fill="#8F8F8F" stroke="#141114" stroke-width=".3" rx="1.15"/><path fill="#141114" d="M16 13.498a1.002 1.002 0 1 0 0-2.004 1.002 1.002 0 0 0 0 2.004ZM11.998 17.5a1.002 1.002 0 1 0 0-2.003 1.002 1.002 0 0 0 0 2.003Zm-3.999 0a1.002 1.002 0 1 0 0-2.003 1.002 1.002 0 0 0 0 2.003Zm3.999-4.002a1.002 1.002 0 1 0 0-2.004 1.002 1.002 0 0 0 0 2.004Zm-3.999 0a1.002 1.002 0 1 0 0-2.004 1.002 1.002 0 0 0 0 2.004Z"/><path stroke="#141114" stroke-width=".33" d="M3 8.833h18"/></symbol><symbol xmlns="http://www.w3.org/2000/svg" id="cashout" fill="none" viewBox="0 0 24 24"><path fill="var(--icon-primary)" d="M23.062 13.465c.518 0 .938-.42.938-.938V4.23a.946.946 0 0 0-.336-.72c-4.126-3.492-8.324-1.714-12.03-.145-3.672 1.555-6.844 2.899-10.09.148a.938.938 0 0 0-1.216.002.97.97 0 0 0-.328.747v15.823c0 .276.122.539.332.717 1.756 1.488 3.525 2.02 5.265 2.02 2.347 0 4.64-.97 6.769-1.872 2.884-1.221 5.46-2.31 8.005-1.388l-1.362 1.362a1.1 1.1 0 1 0 1.556 1.555l3.112-3.112a1.1 1.1 0 0 0 0-1.556l-3.112-3.112a1.1 1.1 0 1 0-1.556 1.555l1.338 1.338c-2.582-.666-5.131.156-7.512 1.127v-1.523l.07-.013c1.829-.304 3.035-1.47 3.035-3.146 0-1.678-.957-2.55-2.675-2.787l-1.94-.262c-.888-.126-1.22-.402-1.22-.914 0-.568.471-.998 1.58-.998.912 0 1.463.416 1.67.908.046.11.152.186.272.186h1.855c.18 0 .323-.162.291-.34-.199-1.09-1.062-2.246-2.869-2.572l-.07-.013V4.89c3.352-1.41 6.297-2.5 9.29-.216v7.85c0 .518.42.938.938.938v.002ZM10.63 7.235c-1.731.277-2.992 1.301-2.992 2.938 0 1.523.86 2.439 2.536 2.701l1.9.278c.872.139 1.37.347 1.37.998 0 .734-.512 1.137-1.649 1.137-1.136 0-1.622-.484-1.774-1.137a.31.31 0 0 0-.302-.246l-1.905.02a.305.305 0 0 0-.3.344c.195 1.458 1.328 2.582 3.118 2.905l.07.013v2.431c-3.162 1.312-5.972 2.201-8.826.023V6.017c3.015 1.653 6.028.867 8.826-.237v1.454H10.63Z"/></symbol><symbol xmlns="http://www.w3.org/2000/svg" id="chat" fill="none" viewBox="0 0 24 24"><g filter="url(#aicore__a)"><path fill="var(--icon-secondary)" d="M18.151 8.17c.602 1.07.602 2.505.602 5.375s0 4.306-.602 5.375a4.55 4.55 0 0 1-1.643 1.686c-1.041.618-2.44.618-5.237.618H8.278c-.843 0-1.559 0-2.176-.017l-3.055 1.86c-.315.192-.709-.063-.676-.437l.205-2.34a4.572 4.572 0 0 1-1.179-1.37c-.601-1.069-.601-2.504-.601-5.375 0-2.87 0-4.306.601-5.375a4.55 4.55 0 0 1 1.644-1.686c1.041-.617 2.44-.617 5.237-.617h2.993c2.797 0 4.195 0 5.237.617a4.55 4.55 0 0 1 1.643 1.686Z"/></g><g filter="url(#aicore__b)" opacity=".25"><path fill="#000" fill-rule="evenodd" d="M18.047 19.096a3.87 3.87 0 0 0 .104-.176c.602-1.069.602-2.504.602-5.375 0-2.87 0-4.306-.602-5.375a4.55 4.55 0 0 0-1.643-1.686c-1.041-.617-2.44-.617-5.237-.617H8.278c-1.784 0-3 0-3.916.16-.078 1.534-.078 3.307-.078 4.762 0 2.872 0 4.308.601 5.378a4.56 4.56 0 0 0 1.644 1.688c1.041.617 2.44.617 5.237.617h2.993c.88 0 1.622 0 2.257-.02l1.031.644Z" clip-rule="evenodd"/></g><g filter="url(#aicore__c)"><path fill="var(--icon-primary)" d="M5.849 4.505c-.602 1.07-.602 2.506-.602 5.379 0 2.872 0 4.308.602 5.378.394.7.96 1.283 1.643 1.687 1.041.618 2.44.618 5.237.618h2.993c.88 0 1.622 0 2.257-.02l2.969 1.851c.315.197.713-.058.68-.435l-.204-2.33a4.562 4.562 0 0 0 1.178-1.371c.602-1.07.602-2.506.602-5.378 0-2.873 0-4.309-.602-5.379a4.552 4.552 0 0 0-1.643-1.687C19.918 2.2 18.52 2.2 15.722 2.2h-2.993c-2.797 0-4.196 0-5.237.618a4.552 4.552 0 0 0-1.643 1.687Z"/></g><path fill="var(--icon-secondary)" fill-rule="evenodd" d="M12.798 9.797c0 .367.146.718.407.977a1.394 1.394 0 0 0 1.965 0 1.377 1.377 0 0 0 0-1.953 1.394 1.394 0 0 0-1.965 0c-.26.259-.407.61-.407.976Zm-4.789 0c0 .367.146.718.407.977a1.394 1.394 0 0 0 1.965 0 1.377 1.377 0 0 0 0-1.953 1.394 1.394 0 0 0-1.965 0c-.26.259-.407.61-.407.976Zm9.653 0c0 .367.146.718.407.977a1.394 1.394 0 0 0 1.965 0 1.377 1.377 0 0 0 0-1.953 1.394 1.394 0 0 0-1.965 0c-.26.259-.407.61-.407.976Z" clip-rule="evenodd"/><defs><filter id="aicore__a" width="35.36" height="34.67" x="-7.91" y="-2.83" color-interpolation-filters="sRGB" filterUnits="userSpaceOnUse"><feFlood flood-opacity="0" result="BackgroundImageFix"/><feGaussianBlur in="BackgroundImageFix" stdDeviation="4.35"/><feComposite in2="SourceAlpha" operator="in" result="effect1_backgroundBlur_150_179"/><feBlend in="SourceGraphic" in2="effect1_backgroundBlur_150_179" result="shape"/></filter><filter id="aicore__b" width="67.8" height="66.56" x="-22.38" y="-20.8" color-interpolation-filters="sRGB" filterUnits="userSpaceOnUse"><feFlood flood-opacity="0" result="BackgroundImageFix"/><feGaussianBlur in="BackgroundImageFix" stdDeviation="13.33"/><feComposite in2="SourceAlpha" operator="in" result="effect1_backgroundBlur_150_179"/><feBlend in="SourceGraphic" in2="effect1_backgroundBlur_150_179" result="shape"/></filter><filter id="aicore__c" width="71.29" height="70.6" x="-21.42" y="-24.47" color-interpolation-filters="sRGB" filterUnits="userSpaceOnUse"><feFlood flood-opacity="0" result="BackgroundImageFix"/><feGaussianBlur in="BackgroundImageFix" stdDeviation="13.33"/><feComposite in2="SourceAlpha" operator="in" result="effect1_backgroundBlur_150_179"/><feBlend in="SourceGraphic" in2="effect1_backgroundBlur_150_179" result="shape"/></filter></defs></symbol><symbol xmlns="http://www.w3.org/2000/svg" id="clover" fill="none" viewBox="0 0 24 24"><path fill="#6BC98C" d="M16.895 23.355c2.464-.289 3.23-3.23 3.23-3.23s2.941-.766 3.23-3.23c.288-2.464-3.21-3.854-4.202-4.202C15.607 11.456 12 12 12 12s-.544 3.607.693 7.153c.348.992 1.738 4.49 4.202 4.202ZM7.105.645c-2.464.289-3.23 3.23-3.23 3.23s-2.941.766-3.23 3.23c-.288 2.464 3.21 3.854 4.202 4.202C8.393 12.544 12 12 12 12s.544-3.607-.693-7.153C10.96 3.855 9.57.357 7.105.645Z"/><path fill="#000" d="M12 11.983s.328-.049.883-.084c-.07 1.326-.042 3.732.787 6.11.349.991 1.738 4.49 4.202 4.2a3.142 3.142 0 0 0 1.618-.683c-.494.797-1.315 1.662-2.595 1.812-2.464.288-3.854-3.21-4.202-4.202-1.236-3.545-.693-7.153-.693-7.153Z" opacity=".2"/><path fill="#000" d="M12 12.017s-.328.05-.883.085c.071-1.327.042-3.732-.787-6.11C9.982 5 8.592 1.502 6.128 1.791a3.142 3.142 0 0 0-1.618.684C5.004 1.677 5.826.813 7.105.663c2.464-.289 3.854 3.21 4.203 4.202 1.236 3.545.692 7.152.692 7.152Z" opacity=".2"/><path fill="#6BC98C" d="M23.355 7.105c-.289-2.464-3.23-3.23-3.23-3.23s-.766-2.941-3.23-3.23c-2.464-.288-3.854 3.21-4.202 4.202C11.456 8.393 12 12 12 12s3.607.544 7.152-.693c.993-.348 4.491-1.738 4.203-4.202Zm-22.71 9.79c.289 2.464 3.23 3.23 3.23 3.23s.766 2.941 3.23 3.23c2.464.288 3.854-3.21 4.202-4.202C12.544 15.607 12 12 12 12s-3.607-.544-7.153.693c-.992.348-4.49 1.738-4.202 4.202Z"/><path fill="#000" d="M11.983 12s-.049-.328-.084-.883c1.326.071 3.732.042 6.11-.787.991-.348 4.49-1.738 4.2-4.202a3.143 3.143 0 0 0-.683-1.618c.797.494 1.662 1.316 1.812 2.595.288 2.464-3.21 3.854-4.202 4.202-3.545 1.237-7.153.693-7.153.693Z" opacity=".2"/><path fill="#000" d="M12.017 12s.05.328.085.883c-1.327-.07-3.732-.042-6.11.787-.992.349-4.49 1.738-4.201 4.202.076.653.339 1.186.684 1.618-.797-.494-1.662-1.315-1.812-2.595-.289-2.464 3.21-3.854 4.201-4.202C8.41 11.457 12.017 12 12.017 12Z" opacity=".2"/></symbol><symbol xmlns="http://www.w3.org/2000/svg" id="clover-muted" fill="none" viewBox="0 0 24 24"><path fill="#8F8F8F" d="M16.895 23.355c2.464-.289 3.23-3.23 3.23-3.23s2.941-.766 3.23-3.23c.288-2.464-3.21-3.854-4.202-4.202C15.607 11.456 12 12 12 12s-.544 3.607.693 7.153c.348.992 1.738 4.49 4.202 4.202ZM7.105.645c-2.464.289-3.23 3.23-3.23 3.23s-2.941.766-3.23 3.23c-.288 2.464 3.21 3.854 4.202 4.202C8.393 12.544 12 12 12 12s.544-3.607-.693-7.153C10.96 3.855 9.57.357 7.105.645Z"/><path fill="#000" d="M12 11.983s.328-.049.883-.084c-.07 1.326-.042 3.732.787 6.11.349.991 1.738 4.49 4.202 4.2a3.142 3.142 0 0 0 1.618-.683c-.494.797-1.315 1.662-2.595 1.812-2.464.288-3.854-3.21-4.202-4.202-1.236-3.545-.693-7.153-.693-7.153Z" opacity=".2"/><path fill="#000" d="M12 12.017s-.328.05-.883.085c.071-1.327.042-3.732-.787-6.11C9.982 5 8.592 1.502 6.128 1.791a3.142 3.142 0 0 0-1.618.684C5.004 1.677 5.826.813 7.105.663c2.464-.289 3.854 3.21 4.203 4.202 1.236 3.545.692 7.152.692 7.152Z" opacity=".2"/><path fill="#8F8F8F" d="M23.355 7.105c-.289-2.464-3.23-3.23-3.23-3.23s-.766-2.941-3.23-3.23c-2.464-.288-3.854 3.21-4.202 4.202C11.456 8.393 12 12 12 12s3.607.544 7.152-.693c.993-.348 4.491-1.738 4.203-4.202Zm-22.71 9.79c.289 2.464 3.23 3.23 3.23 3.23s.766 2.941 3.23 3.23c2.464.288 3.854-3.21 4.202-4.202C12.544 15.607 12 12 12 12s-3.607-.544-7.153.693c-.992.348-4.49 1.738-4.202 4.202Z"/><path fill="#000" d="M11.983 12s-.049-.328-.084-.883c1.326.071 3.732.042 6.11-.787.991-.348 4.49-1.738 4.2-4.202a3.143 3.143 0 0 0-.683-1.618c.797.494 1.662 1.316 1.812 2.595.288 2.464-3.21 3.854-4.202 4.202-3.545 1.237-7.153.693-7.153.693Z" opacity=".2"/><path fill="#000" d="M12.017 12s.05.328.085.883c-1.327-.07-3.732-.042-6.11.787-.992.349-4.49 1.738-4.201 4.202.076.653.339 1.186.684 1.618-.797-.494-1.662-1.315-1.812-2.595-.289-2.464 3.21-3.854 4.201-4.202C8.41 11.457 12.017 12 12.017 12Z" opacity=".2"/></symbol><symbol xmlns="http://www.w3.org/2000/svg" id="deposit" fill="none" viewBox="0 0 24 24"><path fill="var(--icon-secondary)" d="M22.95 6.85v1.553c0 .432-.218.857-.619 1.048-.29.14-.592.128-.901.128h-1.166v-3.95c0-.377-.331-.734-.72-.715-.035.002-.072-.007-.105.017H6.33c-.607 0-1.213-.02-1.82-.01-.01 0-.017-.005-.027-.005a.725.725 0 0 0-.719.715v3.945c-.516 0-1.029-.002-1.545-.005a1.14 1.14 0 0 1-1.062-.71c-.074-.18-.081-.366-.081-.556V3.111c0-.135-.003-.264.019-.399.086-.532.568-.904 1.098-.913.396-.008.792.01 1.19.01h18.382c.058 0 .113-.01.168-.006.569.058.995.516 1.017 1.082v.041c.017.49 0 .983 0 1.475v2.448Z"/><path fill="var(--icon-primary)" d="M18.823 9.359a3 3 0 0 0-3-3l-7.618.003a3 3 0 0 0-3 3L5.2 15.605c0 1.657 1.34 3 2.997 3l7.629.004a2.996 2.996 0 0 0 2.997-3V9.36Z"/><path fill="#000" d="M15.008 13.575c.266.266.753.285 1.017 0 .264-.288.285-.732.002-1.017l-1.046-1.046-1.66-1.66-.385-.385a1.026 1.026 0 0 0-.098-.08c0-.002-.003-.002-.003-.002a.736.736 0 0 0-.513-.117h-.007a.726.726 0 0 0-.399.199l-1.045 1.045-2.046 2.046c-.266.266-.285.753 0 1.017.286.264.732.285 1.017 0l1.046-1.046c.273-.273.546-.544.818-.818v4.828c0 .377.33.736.719.72.388-.017.72-.317.72-.72v-4.828l1.477 1.478.386.386Z" opacity=".2"/><path fill="#000" d="M14.597 13.15c.266.265.753.284 1.017 0 .263-.289.285-.732.002-1.018l-1.046-1.045-1.66-1.66-.385-.386a1.016 1.016 0 0 0-.099-.08c0-.002-.002-.002-.002-.002a.736.736 0 0 0-.513-.117h-.008a.725.725 0 0 0-.398.199l-1.045 1.046-2.046 2.045c-.266.267-.285.753 0 1.017.285.264.732.286 1.017 0l1.046-1.045c.273-.274.546-.545.817-.818v4.827c0 .377.331.737.72.72.388-.017.72-.317.72-.72v-4.827l1.477 1.477.386.386Z"/><path fill="var(--icon-secondary)" d="M5.2 20.966c0-.683.554-1.236 1.237-1.236h11.152a1.237 1.237 0 1 1 0 2.473H6.437A1.237 1.237 0 0 1 5.2 20.966Z"/></symbol><symbol xmlns="http://www.w3.org/2000/svg" id="feature-buys" fill="none" viewBox="0 0 24 24"><g clip-path="url(#amcore__a)"><path fill="var(--icon-secondary)" d="M6 22.5a5 5 0 1 0 0-10 5 5 0 0 0 0 10Z"/><path fill="var(--icon-secondary)" d="M9 16.75H3v1.5h6v-1.5Z"/><path fill="#000" d="M9 16.75H3v1.5h6v-1.5Z"/><path fill="var(--icon-secondary)" d="M6.75 14.5h-1.5v6h1.5v-6Z"/><path fill="#000" d="M6.75 14.5h-1.5v6h1.5v-6Z"/><path fill="var(--icon-primary)" d="M20.44 16.78c.6 0 1.08-.49 1.08-1.08v-4.38c-.11.02-.22.03-.33.03-.16 0-.31-.03-.45-.06v4.36c0 .38-.31.68-.68.68h-1.58v.45h1.96Z"/><path fill="var(--icon-secondary)" d="M21.64 15.64v-4.36l-.12.03v4.38c0 .6-.49 1.08-1.08 1.08h-1.96v.45h1.58c.88 0 1.59-.71 1.59-1.59l-.01.01Z"/><path fill="var(--icon-primary)" d="M4.91 9.09h3.62v2.98c.32.15.62.32.9.52V9.1h3.62v4.52h-2.49c.13.15.26.31.37.48h6.74c.32 0 .58-.26.58-.58V8.19H4.01v3.67c.29-.1.59-.19.91-.24V9.1l-.01-.01Zm9.04 0h3.62v4.52h-3.62V9.09Zm-2.17 9.98h5.41c.59 0 1.06-.47 1.06-1.06v-.78h-.22v-.9h.22v-1.36h-6.82c.36.77.56 1.62.56 2.53 0 .54-.08 1.07-.22 1.57h.01Zm1.27-2.29h3.62v.9h-3.62v-.9Z"/><path fill="var(--icon-primary)" d="M18.25 16.33h-.22v.45h.22v-.45Zm0 .45h-.22v.45h.22v-.45Zm4.71-7.61c.02.12.04.24.04.37 0-.13-.01-.25-.04-.37Zm-2.29 2.1s.04.01.06.02c0 0-.04-.01-.06-.02Zm2.18-2.44c.04.09.07.2.1.3-.02-.1-.05-.2-.1-.3Zm-2.11 1.79c1 0 1.81-.81 1.81-1.81 0-.2-.04-.39-.1-.57a1.81 1.81 0 0 0-1.26-.52 1.81 1.81 0 0 0-1.08 3.26 1.8 1.8 0 0 1-.63-.88c.33.32.77.51 1.26.51v.01Zm0 .66c.15.05.3.07.45.07-.16 0-.31-.04-.45-.07Z"/><path fill="var(--icon-secondary)" d="m20.67 11.27-.09-.03.09.03Zm2.19-1.02c-.09.22-.22.41-.39.57.16-.16.3-.36.39-.57Zm.09-1.12s.01.03.01.05c0-.02-.01-.03-.01-.05Zm-2.82 1.88s-.01 0-.02-.01c0 0 .01 0 .02.01Zm2.34-.19Z"/><path fill="var(--icon-secondary)" d="M20.74 11.13h.9v.16c.09-.02.17-.04.25-.08.22-.09.41-.22.58-.39.17-.17.3-.36.39-.57a1.822 1.822 0 0 0 .1-1.07c0-.02-.01-.03-.01-.05-.02-.1-.05-.2-.1-.3v-.02c-.1-.21-.23-.4-.39-.56.06.18.1.37.1.57a1.81 1.81 0 0 1-3.07 1.3c.12.35.34.66.63.88 0 0 .01 0 .02.01.14.1.29.18.45.24l.09.03c.02 0 .04 0 .06.01v-.16Z"/><path fill="var(--icon-secondary)" d="M20.74 11.13v.15c.15.04.29.07.45.07.11 0 .23-.01.33-.03v-.19h-.79.01Zm.9 0h-.12v.19l.12-.03v-.16Z"/><path fill="var(--icon-primary)" d="M18.25 6.74V5.21c0-.1-.03-.2-.06-.29.09.09.16.2.21.32-.16-.39-.53-.67-.98-.67h-.78c-.02-.15-.05-.3-.08-.45C16.06 2.06 13.87.5 11.24.5 8.61.5 6.43 2.05 5.92 4.11c-.04.15-.06.3-.08.46h-.78c-.15 0-.29.03-.41.08-.25.11-.46.31-.56.56-.05.13-.08.27-.08.41V7.3h13.67c.32 0 .58-.26.58-.58l-.01.02Zm-7.01-5.63c2.4 0 4.41 1.47 4.95 3.46h-.46c-.02-.15-.06-.3-.11-.44.05.14.08.29.11.44H6.3c.54-1.98 2.55-3.46 4.95-3.46h-.01Zm6.33 5.72H4.91v-.9h12.66v.9Z"/><path fill="var(--icon-secondary)" d="M17.67 14.1h-6.74c.09.14.18.28.26.42h7.28V8.19h-.23v5.33c0 .32-.26.58-.58.58h.01Zm.52-9.18c.03.09.06.19.06.29v1.53c0 .32-.26.58-.58.58H4.01v.42h14.47V5.63c0-.14-.03-.27-.08-.39a.988.988 0 0 0-.21-.32Zm.29 10.05h-.23v1.36h.23v-1.36Zm-.23 3.04c0 .59-.47 1.06-1.06 1.06h-5.41c-.04.14-.09.28-.14.42h5.77c.59 0 1.06-.47 1.06-1.06v-1.2h-.23v.78h.01Z"/><path fill="var(--icon-secondary)" d="M18.48 16.33h-.23v.45h.23v-.45Zm0 .45h-.23v.45h.23v-.45ZM12.74 1.61c.7.2 1.33.53 1.83.97-.5-.43-1.12-.77-1.83-.97ZM7.09 3.6c-.1.18-.18.38-.24.57v.02-.02c.06-.2.14-.39.24-.57Zm.8-1Zm-.8 1Zm7.48-1.03c.5.43.86.96 1.05 1.54-.19-.58-.56-1.11-1.05-1.54Z"/><path fill="var(--icon-secondary)" d="M6.84 4.19v-.02c.06-.2.14-.39.24-.57.2-.37.47-.7.8-1 .33-.29.72-.54 1.16-.74.65-.29 1.4-.46 2.2-.46.53 0 1.03.07 1.5.2.7.2 1.33.53 1.83.97.5.44.86.96 1.05 1.54.05.14.08.29.11.44h.46c-.54-1.98-2.55-3.46-4.95-3.46-2.4 0-4.41 1.47-4.95 3.46h.46c.02-.13.05-.26.09-.38v.02Zm-.02 7.37s0-.02.01-.02c.16-.28.28-.52.38-.72H6.7c-.21 0-.35 0-.43.01-.07 0-.13.02-.15.05-.02.03-.05.06-.08.11-.02.05-.04.11-.06.19l-.22-.04c.04-.16.07-.32.1-.48.02-.16.04-.32.05-.48l.39.03h.87c.16 0 .36-.02.6-.03l.13.24c-.18.22-.36.52-.55.92-.04.09-.08.2-.12.3.45.1.88.25 1.29.44V9.1H4.9v2.52c.35-.07.72-.11 1.09-.11.28 0 .55.03.82.06l.01-.01Zm6.23-2.47H9.43v3.49c.42.29.8.64 1.13 1.03h2.49V9.09Zm-1.16 2.24c-.18.39-.35.85-.5 1.36h-.68c.28-.49.5-.87.66-1.15.16-.28.28-.52.38-.72h-.51c-.21 0-.35 0-.43.01-.07 0-.13.02-.15.05-.02.03-.05.06-.08.11-.02.05-.04.11-.06.19l-.22-.04c.04-.16.07-.32.1-.48.02-.16.04-.32.05-.48l.39.03h.87c.16 0 .36-.02.6-.03l.13.24c-.18.22-.36.52-.55.92v-.01Zm5.68-2.24h-3.62v4.52h3.62V9.09Zm-1.16 2.24c-.18.39-.35.85-.5 1.36h-.68c.28-.49.5-.87.66-1.15.16-.28.28-.52.38-.72h-.51c-.21 0-.35 0-.43.01-.08.01-.13.02-.15.05-.02.03-.05.06-.08.11-.02.05-.04.11-.06.19l-.22-.04c.04-.16.07-.32.1-.48.02-.16.04-.32.05-.48l.39.03h.87c.16 0 .36-.02.6-.03l.13.24c-.18.22-.36.52-.55.92v-.01Z"/></g><defs><clipPath id="amcore__a"><path fill="#fff" d="M1 .5h22v22H1z"/></clipPath></defs></symbol><symbol xmlns="http://www.w3.org/2000/svg" id="home" fill="none" viewBox="0 0 24 24"><path fill="var(--icon-primary)" d="m22.626 10.946-10.151-9.73a.687.687 0 0 0-.95 0l-10.162 9.74a1.144 1.144 0 0 0 .805 1.956h1.6v8.69c0 .757.615 1.372 1.373 1.372h3.886a.686.686 0 0 0 .686-.686v-5.944a.23.23 0 0 1 .23-.23h4.115a.23.23 0 0 1 .229.23v5.944c0 .379.307.686.686.686h3.886c.758 0 1.372-.615 1.372-1.372v-8.688h1.601a1.144 1.144 0 0 0 .794-1.969Z"/><path fill="var(--icon-secondary)" d="M3.718 12.881H20.23v8.483c0 .89-.72 1.611-1.61 1.611H5.328a1.61 1.61 0 0 1-1.61-1.61V12.88Z"/><path fill="#000" d="M3.718 12.881H20.23v1.316H3.718z" opacity=".2"/><path fill="var(--icon-primary)" d="M9.256 22.975h5.488V17.03c0-.758-.615-1.372-1.372-1.372h-2.744c-.757 0-1.372.614-1.372 1.372v5.944Z"/></symbol><symbol xmlns="http://www.w3.org/2000/svg" id="link" fill="none" viewBox="0 0 24 24"><g fill-rule="evenodd" clip-path="url(#aocore__a)" clip-rule="evenodd"><path fill="var(--icon-primary)" d="M12.79 2.69A6.04 6.04 0 0 1 17.03 1c1.58.01 3.09.65 4.21 1.77a6.055 6.055 0 0 1 1.77 4.21 6.04 6.04 0 0 1-1.69 4.24h-.01l-3.02 3.03c-.61.61-1.35 1.08-2.16 1.39-.81.3-1.68.43-2.54.36a6.022 6.022 0 0 1-4.4-2.4c-.33-.44-.24-1.07.2-1.41.44-.34 1.07-.24 1.41.2.35.46.79.84 1.29 1.12a4.038 4.038 0 0 0 3.33.24c.54-.2 1.03-.52 1.44-.92l3.01-3.01A4.01 4.01 0 0 0 20.99 7c0-1.05-.43-2.06-1.18-2.81A4.01 4.01 0 0 0 17 3.01c-1.05 0-2.07.39-2.82 1.12l-1.72 1.71c-.39.39-1.03.39-1.42 0-.39-.39-.39-1.03 0-1.42l1.73-1.72h.01l.01-.01Z"/><path fill="var(--icon-primary)" d="M7.89 8.34c.81-.3 1.68-.43 2.54-.36a6.022 6.022 0 0 1 4.4 2.4c.33.44.24 1.07-.2 1.41-.44.33-1.07.24-1.41-.2-.35-.46-.79-.84-1.29-1.12a4.039 4.039 0 0 0-3.33-.24c-.54.2-1.03.52-1.44.92l-3.01 3.01a4.01 4.01 0 0 0-1.12 2.82c0 1.05.43 2.06 1.18 2.81a4.01 4.01 0 0 0 2.81 1.18c1.05 0 2.06-.39 2.82-1.12l1.71-1.71c.39-.39 1.03-.39 1.42 0 .39.39.39 1.03 0 1.42l-1.72 1.72h-.01A6.016 6.016 0 0 1 7 22.99a6.012 6.012 0 0 1-4.21-1.77A6.045 6.045 0 0 1 1.01 17c-.02-1.58.59-3.1 1.69-4.24h.01l3.02-3.03c.61-.61 1.35-1.08 2.16-1.39Z"/><path fill="var(--icon-secondary)" d="M19.81 3.46A4.01 4.01 0 0 0 17 2.28c-1.05 0-2.07.39-2.82 1.12l-1.72 1.71a1.008 1.008 0 0 1-1.64-.33c-.14.36-.07.79.22 1.08.39.39 1.03.4 1.42 0l1.72-1.71A4.01 4.01 0 0 1 17 3.03c1.05 0 2.06.43 2.81 1.18a4.03 4.03 0 0 1 1.14 2.47c.01-.14.04-.27.04-.41 0-1.05-.43-2.06-1.18-2.81Zm1.5 7.03h-.01l-3.02 3.03c-.61.61-1.35 1.08-2.16 1.39-.81.31-1.68.43-2.54.36a6.022 6.022 0 0 1-4.4-2.4.973.973 0 0 1-.11-.23c-.13.32-.11.68.11.97a6.022 6.022 0 0 0 4.4 2.4c.86.06 1.73-.06 2.54-.36s1.55-.78 2.16-1.39l3.02-3.02h.01A6.037 6.037 0 0 0 23 6.99c0-.1-.01-.2-.02-.31a5.998 5.998 0 0 1-1.68 3.8l.01.01ZM11.23 20.54h-.01a6.016 6.016 0 0 1-4.24 1.71 6.012 6.012 0 0 1-4.21-1.77 5.988 5.988 0 0 1-1.75-3.9c0 .15-.02.29-.02.44.01 1.58.65 3.09 1.77 4.21A6.055 6.055 0 0 0 6.98 23c1.58.01 3.1-.59 4.24-1.69h.01l1.72-1.73c.29-.29.37-.72.22-1.08-.05.12-.12.24-.22.34l-1.72 1.72v-.02Z"/><path fill="var(--icon-secondary)" d="M13.21 10.86c-.35-.46-.79-.84-1.29-1.12a4.039 4.039 0 0 0-3.33-.24c-.54.2-1.03.52-1.44.92l-3.01 3.01a4.01 4.01 0 0 0-1.12 2.82c0 .11.03.22.04.34.08-.9.45-1.76 1.09-2.42l3.01-3.01c.41-.41.9-.72 1.44-.92.54-.2 1.12-.28 1.69-.24.58.04 1.13.21 1.64.48.51.28.95.66 1.29 1.12.33.44.96.54 1.41.2.37-.28.48-.76.31-1.18-.07.16-.16.32-.31.43-.44.33-1.07.24-1.41-.2l-.01.01Z"/></g><defs><clipPath id="aocore__a"><path fill="#fff" d="M1 1h22.01v21.99H1z"/></clipPath></defs></symbol><symbol xmlns="http://www.w3.org/2000/svg" id="menu" fill="none" viewBox="0 0 24 24"><path fill="var(--icon-secondary)" d="M12 22.667c5.891 0 10.667-4.776 10.667-10.667S17.89 1.333 12 1.333 1.334 6.11 1.334 12 6.109 22.667 12 22.667Z"/><path fill="#000" d="M6.547 11.72a.906.906 0 0 0 0 1.813h11.805a.906.906 0 0 0 0-1.812H6.547Zm0-3.934a.906.906 0 1 0 0 1.812h11.805a.906.906 0 0 0 0-1.812H6.547Zm0 7.87a.906.906 0 0 0 0 1.812h11.805a.906.906 0 0 0 0-1.812H6.547Z" opacity=".2"/><path fill="var(--icon-primary)" d="M6.114 11.116a.906.906 0 0 0 0 1.812H17.92a.906.906 0 0 0 0-1.812H6.114Zm0-3.935a.906.906 0 1 0 0 1.812H17.92a.906.906 0 1 0 0-1.812H6.114Zm0 7.87a.906.906 0 1 0 0 1.812H17.92a.906.906 0 1 0 0-1.812H6.114Z"/></symbol><symbol xmlns="http://www.w3.org/2000/svg" id="my-bets" fill="none" viewBox="0 0 24 24"><g clip-path="url(#aqcore__a)"><path fill="var(--icon-primary)" d="M18 1H4C2.34 1 1 2.34 1 4v16.16c0 .31.38.47.6.25l2.74-2.74L4.01 14V5h17v16V4c0-1.66-1.34-3-3-3H18Z"/><path fill="var(--icon-secondary)" d="M20.24 2H5C3.34 2 2 3.34 2 5v15l2.33-2.33.03-1.67.14-10H22v16V5l-1-1.36s-.12-.95-.76-1.64Z"/><path fill="var(--icon-primary)" d="M20.01 3H6C4.34 3 3 4.34 3 6v16.16c0 .31.38.47.6.25l2.03-2.03a.996.996 0 0 1 1.41 0l1.78 1.78c.47.47 1.22.47 1.69 0l1.78-1.78a.996.996 0 0 1 1.41 0l1.78 1.78c.47.47 1.22.47 1.69 0l1.78-1.78a.996.996 0 0 1 1.41 0l2.03 2.03c.22.22.6.06.6-.25V5.99C22.99 4.34 21.65 3 20 3h.01ZM10.5 15h-3c-.55 0-1-.45-1-1s.45-1 1-1h3c.55 0 1 .45 1 1s-.45 1-1 1Zm0-4h-3c-.55 0-1-.45-1-1s.45-1 1-1h3c.55 0 1 .45 1 1s-.45 1-1 1Zm8.71-.29-3.5 3.5c-.2.2-.45.29-.71.29-.26 0-.51-.1-.71-.29l-1.5-1.5a.996.996 0 1 1 1.41-1.41l.79.79 2.79-2.79a.996.996 0 1 1 1.41 1.41h.02Z"/></g><defs><clipPath id="aqcore__a"><path fill="#fff" d="M1 1h22v21.51H1z"/></clipPath></defs></symbol><symbol xmlns="http://www.w3.org/2000/svg" id="no-limit-bet" fill="none" viewBox="0 0 14 15"><path fill="var(--icon-primary)" d="M7.413 7.268a.583.583 0 0 1 .04.78l-.04.045-1.709 1.71-.162.15a3 3 0 0 1-4.95-2.049l-.008-.222a3 3 0 0 1 1.852-2.77 2.69 2.69 0 0 1 .69-.2c.108-.015.218-.022.333-.025l.36-.004h2.387a.584.584 0 0 1 0 1.167H3.819l-.326.003a1.926 1.926 0 0 0-.208.015 1.555 1.555 0 0 0-.403.122 1.832 1.832 0 0 0-1.131 1.692l.005.136A1.833 1.833 0 0 0 4.78 9.07l.1-.093 1.708-1.709.045-.04a.583.583 0 0 1 .78.04Z"/><path fill="var(--icon-primary)" d="M4.154 4.03a.583.583 0 0 1 .825-.826l1.65 1.65a.583.583 0 0 1 0 .825L4.98 7.33a.583.583 0 0 1-.825-.825l1.238-1.237L4.155 4.03Zm2.435 4.066a.583.583 0 0 1-.04-.78l.04-.045 1.709-1.709.162-.15a2.999 2.999 0 0 1 4.95 2.048l.008.222a2.999 2.999 0 0 1-1.852 2.771 2.69 2.69 0 0 1-.69.2 3.12 3.12 0 0 1-.333.025l-.36.003H7.796a.584.584 0 0 1 0-1.167h2.387l.326-.002a1.93 1.93 0 0 0 .208-.015c.104-.014.212-.043.403-.122a1.833 1.833 0 0 0 1.131-1.693l-.005-.135a1.833 1.833 0 0 0-3.024-1.252l-.1.092-1.708 1.709-.045.04a.583.583 0 0 1-.78-.04Z"/><path fill="var(--icon-primary)" d="M9.848 11.335a.583.583 0 1 1-.825.825l-1.65-1.65a.583.583 0 0 1 0-.825l1.65-1.65a.583.583 0 1 1 .825.825L8.61 10.098l1.238 1.237Z"/></symbol><symbol xmlns="http://www.w3.org/2000/svg" id="padlock" fill="none" viewBox="0 0 24 24"><g clip-path="url(#ascore__a)"><path fill="var(--icon-primary)" d="M19 13.31H5V8c0-3.86 3.14-7 7-7s7 3.14 7 7v5.31Zm-12-.29h10V8c0-2.76-2.24-5-5-5S7 5.24 7 8v5.02Z"/><path fill="var(--icon-secondary)" d="M12 2.15C8.77 2.15 6.15 4.77 6.15 8v4.16h11.7V8c0-3.23-2.62-5.85-5.85-5.85Zm5 9.16H7V8c0-2.76 2.24-5 5-5s5 2.24 5 5v3.31Z"/><path fill="var(--icon-primary)" d="M19.9 10H4.1A2.1 2.1 0 0 0 2 12.1v8.79c0 1.16.94 2.1 2.1 2.1h15.79a2.1 2.1 0 0 0 2.1-2.1V12.1a2.1 2.1 0 0 0-2.1-2.1h.01Zm-6.56 9.7c.05.28-.16.54-.45.54h-1.8c-.29 0-.5-.26-.45-.54l.57-3.04c-.4-.26-.67-.7-.67-1.22a1.451 1.451 0 0 1 2.9 0c0 .51-.27.96-.67 1.22l.57 3.04Z"/><path fill="var(--icon-secondary)" d="M4.1 23h15.79a2.1 2.1 0 0 0 2.1-2.1v-1.1c0 1.15-.93 2.08-2.08 2.08H4.08A2.093 2.093 0 0 1 2 19.79v1.1C2 22.06 2.94 23 4.1 23Z"/></g><defs><clipPath id="ascore__a"><path fill="#fff" d="M2 1h20v22H2z"/></clipPath></defs></symbol><symbol xmlns="http://www.w3.org/2000/svg" id="parlay" fill="none" viewBox="0 0 24 24"><path fill="currentColor" fill-rule="evenodd" d="M19 3a1 1 0 0 1 1 1v14.09c0 1.052-.858 1.91-1.91 1.91H4a1 1 0 1 1 0-2h14V4a1 1 0 0 1 1-1Z" clip-rule="evenodd"/><path fill="currentColor" fill-rule="evenodd" d="M1 2a1 1 0 0 1 1-1h14a1 1 0 0 1 1 1v14a1 1 0 0 1-1 1H2a1 1 0 0 1-1-1V2Zm2 1v12h12V3H3Z" clip-rule="evenodd"/><path fill="currentColor" fill-rule="evenodd" d="M22 6a1 1 0 0 1 1 1v13c0 1.652-1.348 3-3 3H7a1 1 0 1 1 0-2h13c.548 0 1-.452 1-1V7a1 1 0 0 1 1-1Z" clip-rule="evenodd"/></symbol><symbol xmlns="http://www.w3.org/2000/svg" id="polygon" fill="none" viewBox="0 0 4 6"><path fill="currentColor" d="M.5 3.25 3.875.652v5.196L.5 3.25Z"/></symbol><symbol xmlns="http://www.w3.org/2000/svg" id="promo" fill="none" viewBox="0 0 24 24"><g clip-path="url(#avcore__a)"><path fill="var(--icon-primary)" d="M11.26 15.92c-.71-.84-1.32-1.96-1.74-3.25-.42-1.29-.58-2.56-.5-3.66.05-.7.22-1.35.5-1.9l-7.5 5.57c-.91.6-1.26 1.76-.84 2.76l.47 1.12c.38.9 1.3 1.46 2.27 1.37l9.31-.56c-.71-.23-1.39-.76-1.97-1.45Z"/><path fill="var(--icon-secondary)" d="M4.8 18.34s2.31 2.62 2.69 3.01c1.18 1.2 3.02.56 1.8-.7-1.09-1.13-2.25-2.45-2.25-2.45l-2.24.14Zm11.49-7.81c-.48-1.48-1.23-2.75-2.08-3.59-.83-.82-1.88-1.36-2.91-1.03-.3.1-.57.26-.79.48-.62.6-.94 1.56-1.01 2.61-.05.64 0 1.35.13 2.09l2.09-.58c.81-.24 1.66.22 1.9 1.02l.03.09c.12.39.07.8-.12 1.16-.19.36-.52.62-.91.74l-2.01.56c.32.64.68 1.22 1.08 1.69.68.8 1.5 1.4 2.35 1.52.31.05.63.02.93-.08 1.02-.33 1.56-1.39 1.74-2.54.19-1.18.05-2.65-.43-4.13l.01-.01Z"/><path fill="var(--icon-primary)" d="M12.983 11.213c.048-.17-.173-.38-.492-.468-.32-.089-.617-.023-.664.148-.047.17.173.38.493.468.319.089.616.023.663-.148Z"/><path fill="var(--icon-secondary)" d="M11.26 15.92s-.01-.02-.02-.02l-7.55 1.36c-.81.07-1.6-.15-2.06-.74l.02.04c.38.9 1.3 1.46 2.27 1.37l9.31-.56c-.71-.23-1.39-.76-1.97-1.45Z"/><path fill="var(--icon-primary)" d="M14.65 23.08c-.1 0-.19-.03-.27-.08l-2.8-1.83a.49.49 0 0 1-.14-.69c.15-.23.46-.29.69-.14l2.34 1.53 1.31-2.47c.09-.17.27-.27.47-.27l2.79.16-.1-2.8c0-.2.1-.38.27-.46l2.5-1.26-1.49-2.37c-.1-.17-.1-.38 0-.54l1.53-2.34-2.47-1.31a.504.504 0 0 1-.27-.47l.16-2.79-2.8.1c-.19.02-.38-.1-.46-.27l-1.26-2.5-2.37 1.49c-.17.1-.38.1-.54 0L9.4 2.24 8.09 4.71c-.09.17-.27.27-.47.27l-2.79-.16.1 2.8c.01.28-.21.51-.48.52-.26.02-.51-.21-.52-.48l-.12-3.34c0-.14.05-.28.15-.38.1-.1.24-.15.38-.14l3.02.17 1.4-2.7c.07-.12.18-.21.32-.25.14-.03.28-.01.4.07l2.53 1.66 2.56-1.62c.12-.07.26-.1.4-.06.14.04.25.13.31.26l1.36 2.7 3.02-.11c.15 0 .28.05.38.15.1.1.15.24.14.38l-.17 3.02 2.68 1.41c.12.07.21.18.25.32.04.14.01.28-.07.4l-1.66 2.53 1.61 2.56c.07.12.1.26.06.4-.04.14-.13.25-.26.31l-2.7 1.37.11 3.02c0 .14-.05.28-.15.38-.1.1-.23.15-.38.14l-3.02-.17-1.41 2.68c-.07.12-.18.22-.32.25-.04.01-.08.02-.12.02l.02-.01Z"/><path fill="var(--icon-secondary)" d="M16.22 4.37c-.19.02-.38-.1-.46-.27l-1.17-2.31c-.05-.1-.17-.13-.27-.07l-2.2 1.38c-.17.1-.38.1-.54 0l-2.2-1.44c-.08-.05-.18-.02-.23.06L7.92 4.04c-.09.17-.27.28-.47.27l-2.57-.14c-.12 0-.22.09-.21.21l.1 2.58c.01.28-.21.51-.48.52a.468.468 0 0 1-.39-.18v.37c.02.28.27.5.53.48.28-.01.49-.24.48-.52l-.1-2.8 2.79.16c.19.01.38-.09.47-.27l1.31-2.47 2.34 1.53c.16.11.37.11.54 0l2.37-1.49 1.26 2.5c.09.17.28.3.46.27l2.8-.1s-.05-.68-.33-.67l-2.61.1.01-.02Zm2.91 3.15s-.07-.07-.11-.1l-.02.3c-.01.2.09.38.27.47l2.47 1.31s.23-.5-.39-.8c-.39-.19-2.23-1.18-2.23-1.18h.01Zm1.98 3.91c-.2.3.12.69.12.69l1.66-2.53c.08-.12.1-.26.07-.4a.49.49 0 0 0-.21-.28s-1.43 2.22-1.63 2.51l-.01.01Zm-.92.47a.53.53 0 0 0 .02.49l1.49 2.37s.1-.29-.14-.67c-.24-.38-1.37-2.19-1.37-2.19Zm2.52 2.59c-.05.1-.12.19-.22.24L20 15.99c-.13.07-.21.2-.21.35l.1 2.78c0 .14-.05.28-.15.38-.1.1-.23.15-.38.14l-2.63-.15a.605.605 0 0 0-.57.32l-1.23 2.33c-.07.12-.18.21-.32.25-.04.01-.08.02-.12.02-.1 0-.19-.03-.27-.08l-2.8-1.83c-.14.23-.08.53.15.68l2.8 1.83c.08.05.18.08.27.08.04 0 .08 0 .12-.02.14-.04.25-.13.32-.25l1.41-2.68 3.02.17c.14.01.28-.04.38-.14.1-.1.15-.23.15-.38l-.11-3.02 2.7-1.36a.5.5 0 0 0 .26-.31c.04-.14.02-.28-.06-.4l-.12-.2v-.01Z"/></g><defs><clipPath id="avcore__a"><path fill="#fff" d="M1 1h21.97v22.08H1z"/></clipPath></defs></symbol><symbol xmlns="http://www.w3.org/2000/svg" id="ranking" fill="none" viewBox="0 0 24 24"><rect width="5" height="5.75" x=".5" y="17.75" fill="var(--icon-secondary)" rx="1"/><rect width="5" height="11.5" x="6.5" y="12" fill="var(--icon-secondary)" rx="1"/><rect width="5" height="17.25" x="12.5" y="6.25" fill="var(--icon-primary)" rx="1"/><rect width="5" height="23" x="18.5" y=".5" fill="var(--icon-primary)" rx="1"/></symbol><symbol xmlns="http://www.w3.org/2000/svg" id="rating-star" fill="none" viewBox="0 0 24 24"><path fill="currentColor" d="M11 0a1 1 0 0 1 .897.557l2.857 5.79 6.39.934a1 1 0 0 1 .554 1.705l-4.623 4.503 1.09 6.362a1 1 0 0 1-1.45 1.054L11 17.9l-5.715 3.005a1 1 0 0 1-1.45-1.054l1.09-6.362L.303 8.986a1 1 0 0 1 .553-1.705l6.39-.935L10.104.557A1 1 0 0 1 11 0Zm0 3.26L8.807 7.702a1 1 0 0 1-.752.546l-4.907.718 3.55 3.457a1 1 0 0 1 .288.885l-.838 4.883 4.387-2.307a1 1 0 0 1 .93 0l4.387 2.307-.838-4.883a1 1 0 0 1 .288-.885l3.55-3.457-4.907-.718a1 1 0 0 1-.752-.546L11 3.259Z"/></symbol><symbol xmlns="http://www.w3.org/2000/svg" id="rating-star-active" fill="none" viewBox="0 0 24 24"><path fill="currentColor" d="M11 0a1 1 0 0 1 .897.557l2.857 5.79 6.39.934a1 1 0 0 1 .554 1.705l-4.623 4.503 1.09 6.362a1 1 0 0 1-1.45 1.054L11 17.9l-5.715 3.005a1 1 0 0 1-1.45-1.054l1.09-6.362L.303 8.986a1 1 0 0 1 .553-1.705l6.39-.935L10.104.557A1 1 0 0 1 11 0Z"/></symbol><symbol xmlns="http://www.w3.org/2000/svg" id="referrals" fill="none" viewBox="0 0 24 25"><g clip-path="url(#azcore__a)"><path fill="var(--icon-primary)" d="M15.28 15.57c-.98-1.17-1.84-2.73-2.43-4.53-.58-1.79-.81-3.57-.7-5.09.07-.98.3-1.88.69-2.64L2.41 11.07a3.138 3.138 0 0 0-1.17 3.84l.65 1.55c.53 1.26 1.8 2.03 3.16 1.91l12.96-.79c-.99-.32-1.94-1.06-2.74-2.01h.01Z"/><path fill="var(--icon-secondary)" d="M6.29 18.94s3.41 3.25 3.94 3.78c1.56 1.57 4.12.51 2.51-.97-1.61-1.48-3.33-3.01-3.33-3.01l-3.12.19v.01ZM22.28 8.07c-.67-2.06-1.71-3.82-2.9-5-1.15-1.15-2.62-1.9-4.04-1.43-.41.14-.79.37-1.1.67-.87.83-1.3 2.17-1.41 3.64-.06.9 0 1.88.18 2.91l2.91-.81a2.13 2.13 0 0 1 2.64 1.43l.04.12c.16.54.1 1.11-.17 1.61s-.72.86-1.26 1.02l-2.79.78c.45.89.95 1.69 1.51 2.35.94 1.12 2.08 1.95 3.28 2.11.43.06.87.03 1.29-.11 1.43-.46 2.17-1.94 2.43-3.54.27-1.65.07-3.69-.6-5.75h-.01Zm-7 7.5s-.02-.02-.02-.03L4.75 17.43c-1.13.1-2.23-.21-2.87-1.03l.02.06c.53 1.26 1.8 2.03 3.16 1.91l12.96-.79c-.99-.32-1.94-1.06-2.74-2.01Z"/><path fill="var(--icon-primary)" d="M17.854 9.07c.081-.292-.289-.65-.826-.8-.538-.149-1.04-.032-1.12.26-.082.293.288.651.825.8.538.15 1.04.033 1.12-.26Z"/></g><defs><clipPath id="azcore__a"><path fill="#fff" d="M1 1.5h21.99v22H1z"/></clipPath></defs></symbol><symbol xmlns="http://www.w3.org/2000/svg" id="rewards" fill="none" viewBox="0 0 24 24"><path fill="var(--icon-primary)" d="M.502 7.065V8.3c0 .883.724 1.598 1.618 1.598h19.76c.893 0 1.618-.715 1.618-1.598V7.065c0-.883-.725-1.598-1.618-1.598H2.12c-.894 0-1.618.715-1.618 1.598Z"/><path fill="var(--icon-secondary)" d="M3.35 10.794v10.361a.97.97 0 0 0 .283.693c.184.185.435.29.697.292h15.342a.994.994 0 0 0 .697-.292.97.97 0 0 0 .283-.693V10.794a.88.88 0 0 1 .258-.63.903.903 0 0 1 .633-.265H2.46a.904.904 0 0 1 .632.265c.167.168.26.394.258.63Zm6.256-8.267 1.616 1.345a1.219 1.219 0 0 0 1.558 0l1.616-1.345c1.852-1.542 4.684-.24 4.684 2.152v.787H4.922V4.68c0-2.393 2.831-3.694 4.684-2.152Z"/><path fill="var(--icon-primary)" d="M13.686 9.899h-3.373V22.14h3.373V9.9Z"/><g opacity=".2"><mask id="becore__a" width="20" height="3" x="2" y="9" maskUnits="userSpaceOnUse" style="mask-type:alpha"><path fill="#D9D9D9" d="M2.246 11.136h19.458V9.39H2.246z"/></mask><g mask="url(#becore__a)"><path fill="#000" d="M3.35 10.794v10.361a.97.97 0 0 0 .283.693c.184.185.435.29.697.292h15.342a.994.994 0 0 0 .697-.292.97.97 0 0 0 .283-.693V10.794a.88.88 0 0 1 .258-.63.903.903 0 0 1 .633-.265H2.46a.904.904 0 0 1 .632.265c.167.168.26.394.258.63Z"/></g></g></symbol><symbol xmlns="http://www.w3.org/2000/svg" id="rewards-locked" fill="none" viewBox="0 0 24 24"><path fill="var(--icon-primary)" d="M.502 7.065V8.3c0 .883.724 1.598 1.618 1.598h19.76c.893 0 1.618-.715 1.618-1.598V7.065c0-.883-.725-1.598-1.618-1.598H2.12c-.894 0-1.618.715-1.618 1.598Z"/><path fill="var(--icon-secondary)" d="M3.35 10.794v10.361a.97.97 0 0 0 .283.693c.184.185.435.29.697.292h15.342a.994.994 0 0 0 .697-.292.97.97 0 0 0 .283-.693V10.794a.88.88 0 0 1 .258-.63.903.903 0 0 1 .633-.265H2.46a.904.904 0 0 1 .632.265c.167.168.26.394.258.63Zm6.256-8.267 1.616 1.345a1.219 1.219 0 0 0 1.558 0l1.616-1.345c1.852-1.542 4.684-.24 4.684 2.152v.787H4.922V4.68c0-2.393 2.831-3.694 4.684-2.152Z"/><g opacity=".2"><mask id="bacore__a" width="20" height="3" x="2" y="9" maskUnits="userSpaceOnUse" style="mask-type:alpha"><path fill="#D9D9D9" d="M2.246 11.136h19.458V9.39H2.246z"/></mask><g mask="url(#bacore__a)"><path fill="#000" d="M3.35 10.794v10.361a.97.97 0 0 0 .283.693c.184.185.435.29.697.292h15.342a.994.994 0 0 0 .697-.292.97.97 0 0 0 .283-.693V10.794a.88.88 0 0 1 .258-.63.903.903 0 0 1 .633-.265H2.46a.904.904 0 0 1 .632.265c.167.168.26.394.258.63Z"/></g></g><path fill="var(--icon-secondary)" d="M7.839 10.038a4.161 4.161 0 0 1 8.322 0v1.605H7.84v-1.605Z"/><path fill="var(--icon-primary)" fill-rule="evenodd" d="M15.114 11.977h1.37c.863 0 1.562.702 1.562 1.569v2.093c0 3.176-2.564 5.751-5.728 5.751h-.634c-3.164 0-5.728-2.575-5.728-5.751v-2.093c0-.867.7-1.569 1.563-1.569h1.369v-2.08a3.122 3.122 0 0 1 3.113-3.127 3.122 3.122 0 0 1 3.114 3.127v2.08Zm-1.041 0v-2.08c0-1.148-.929-2.08-2.072-2.08a2.077 2.077 0 0 0-2.072 2.08v2.08h4.144Zm-2.593 5.677a1.831 1.831 0 0 1-1.302-1.755c0-1.01.817-1.83 1.823-1.83s1.823.82 1.823 1.83c0 .829-.55 1.53-1.302 1.755v1.122a.522.522 0 0 1-.521.523.522.522 0 0 1-.52-.523v-1.122Zm.521-.97a.783.783 0 0 0 .781-.785.783.783 0 0 0-.781-.784.783.783 0 0 0-.781.784c0 .433.35.785.781.785Z" clip-rule="evenodd"/></symbol><symbol xmlns="http://www.w3.org/2000/svg" id="rewards-open" fill="none" viewBox="0 0 24 24"><path fill="#6BC98C" d="M3.774 11.973v9.692a.908.908 0 0 0 .265.649.93.93 0 0 0 .652.273h14.35a.93.93 0 0 0 .652-.273.907.907 0 0 0 .265-.649v-9.692a.824.824 0 0 1 .241-.588.845.845 0 0 1 .592-.248H2.94a.845.845 0 0 1 .592.248.824.824 0 0 1 .241.588Z"/><path fill="#8DE3AB" d="m.415 15.13.743.886c.53.633 1.478.711 2.119.175L17.45 4.327c.64-.536.73-1.484.201-2.116l-.742-.888a1.504 1.504 0 0 0-2.12-.174L.617 13.012a1.504 1.504 0 0 0-.2 2.117Z"/><path fill="#6BC98C" d="m4.22 6.409 1.967-.006a1.14 1.14 0 0 0 1.118-.935l.351-1.935c.403-2.218 3.215-2.985 4.652-1.269l.473.565-10.155 8.5-.473-.565C.716 9.048 1.966 6.415 4.22 6.41Z"/><path fill="#8DE3AB" d="M13.444 11.136h-3.155v11.45h3.155v-11.45Z"/><g opacity=".2"><mask id="bccore__a" width="16" height="14" x="1" y="5" maskUnits="userSpaceOnUse" style="mask-type:alpha"><path fill="#D9D9D9" d="M2.835 18.748 16.769 7.04l-1.05-1.25L1.783 17.498z"/></mask><g mask="url(#bccore__a)"><path fill="#000" d="M3.774 11.973v9.692a.908.908 0 0 0 .265.648.93.93 0 0 0 .652.273h14.35a.93.93 0 0 0 .652-.273.908.908 0 0 0 .265-.648v-9.692a.824.824 0 0 1 .241-.589.846.846 0 0 1 .592-.248H2.941a.845.845 0 0 1 .592.248.824.824 0 0 1 .241.59Z"/></g></g><path fill="#6BC98C" d="M22.009 8.365a.105.105 0 0 1-.164.113l-.78-.593a.105.105 0 0 0-.093-.017l-.942.27a.105.105 0 0 1-.112-.165l.592-.78a.105.105 0 0 0 .017-.093l-.269-.942a.105.105 0 0 1 .164-.112l.78.592c.027.02.061.027.093.018l.942-.27a.105.105 0 0 1 .112.164l-.592.781a.105.105 0 0 0-.017.092l.269.942Zm-5.057 1.675a.105.105 0 0 1-.148.133l-.867-.495a.105.105 0 0 0-.094-.005l-.916.397a.105.105 0 0 1-.133-.148l.495-.867a.105.105 0 0 0 .005-.094l-.397-.916a.105.105 0 0 1 .148-.133l.868.495a.105.105 0 0 0 .093.005l.916-.396c.093-.04.183.06.133.147l-.495.868a.105.105 0 0 0-.005.093l.397.916Zm2.77-6.267a.123.123 0 0 1-.226-.056l-.037-.482a.123.123 0 0 0-.057-.094l-.408-.26a.123.123 0 0 1 .056-.225l.482-.038a.123.123 0 0 0 .094-.057l.259-.408a.123.123 0 0 1 .226.056l.037.482a.123.123 0 0 0 .057.094l.409.259c.1.063.061.217-.057.226l-.482.038a.123.123 0 0 0-.094.056l-.259.409Z"/><path fill="#8DE3AB" d="M18.698 6.83a.141.141 0 0 1-.199.178l-.502-.286a.141.141 0 0 0-.126-.007l-.531.23a.141.141 0 0 1-.179-.2l.287-.502a.141.141 0 0 0 .007-.126l-.23-.53a.141.141 0 0 1 .2-.18l.502.287a.141.141 0 0 0 .126.007l.53-.23a.141.141 0 0 1 .18.2l-.288.502a.14.14 0 0 0-.007.126l.23.53Zm1.671 3.23a.105.105 0 0 1-.148.133l-.424-.242a.105.105 0 0 0-.094-.005l-.448.194a.105.105 0 0 1-.132-.148l.242-.424a.105.105 0 0 0 .005-.094l-.194-.448a.105.105 0 0 1 .148-.132l.424.242a.105.105 0 0 0 .093.005l.448-.194c.092-.04.182.06.133.148l-.242.424a.105.105 0 0 0-.006.093l.195.448Zm2.318-4.73a.105.105 0 0 1-.171.1l-.486-.426a.105.105 0 0 0-.09-.024l-.633.132a.105.105 0 0 1-.1-.172l.427-.485a.105.105 0 0 0 .024-.09l-.132-.633a.105.105 0 0 1 .171-.1l.486.427c.024.021.058.03.09.024l.632-.133a.105.105 0 0 1 .1.172l-.426.485a.105.105 0 0 0-.024.09l.132.633Z"/><circle cx="18.79" cy="8.11" r=".14" fill="#6BC98C" transform="rotate(3.145 18.785 8.106)"/><circle cx="19.89" cy="5.53" r=".22" fill="#6BC98C" transform="rotate(3.145 19.886 5.527)"/><circle cx="20.52" cy="4.38" r=".14" fill="#6BC98C" transform="rotate(3.145 20.518 4.382)"/><circle cx="13.67" cy="9.17" r=".22" fill="#6BC98C" transform="rotate(3.145 13.674 9.17)"/></symbol><symbol xmlns="http://www.w3.org/2000/svg" id="rewards-open-muted" fill="none" viewBox="0 0 24 24"><path fill="#696969" d="M3.774 11.973v9.692a.908.908 0 0 0 .265.649.93.93 0 0 0 .652.273h14.35a.93.93 0 0 0 .652-.273.907.907 0 0 0 .265-.649v-9.692a.824.824 0 0 1 .241-.588.845.845 0 0 1 .592-.248H2.94a.845.845 0 0 1 .592.248.824.824 0 0 1 .241.588Z"/><path fill="#8F8F8F" d="m.415 15.13.743.886c.53.633 1.478.711 2.119.175L17.45 4.327c.64-.536.73-1.484.201-2.116l-.742-.888a1.504 1.504 0 0 0-2.12-.174L.617 13.012a1.504 1.504 0 0 0-.2 2.117Z"/><path fill="#696969" d="m4.22 6.409 1.967-.006a1.14 1.14 0 0 0 1.118-.935l.351-1.935c.403-2.218 3.215-2.985 4.652-1.269l.473.565-10.155 8.5-.473-.565C.716 9.048 1.966 6.415 4.22 6.41Z"/><path fill="#8F8F8F" d="M13.444 11.136h-3.155v11.45h3.155v-11.45Z"/><g opacity=".2"><mask id="bbcore__a" width="16" height="14" x="1" y="5" maskUnits="userSpaceOnUse" style="mask-type:alpha"><path fill="#D9D9D9" d="M2.835 18.748 16.769 7.04l-1.05-1.25L1.783 17.498z"/></mask><g mask="url(#bbcore__a)"><path fill="#000" d="M3.774 11.973v9.692a.908.908 0 0 0 .265.648.93.93 0 0 0 .652.273h14.35a.93.93 0 0 0 .652-.273.908.908 0 0 0 .265-.648v-9.692a.824.824 0 0 1 .241-.589.846.846 0 0 1 .592-.248H2.941a.845.845 0 0 1 .592.248.824.824 0 0 1 .241.59Z"/></g></g><path fill="#696969" d="M22.009 8.365a.105.105 0 0 1-.164.113l-.78-.593a.105.105 0 0 0-.093-.017l-.942.27a.105.105 0 0 1-.112-.165l.592-.78a.105.105 0 0 0 .017-.093l-.269-.942a.105.105 0 0 1 .164-.112l.78.592c.027.02.061.027.093.018l.942-.27a.105.105 0 0 1 .112.164l-.592.781a.105.105 0 0 0-.017.092l.269.942Zm-5.057 1.675a.105.105 0 0 1-.148.133l-.867-.495a.105.105 0 0 0-.094-.005l-.916.397a.105.105 0 0 1-.133-.148l.495-.867a.105.105 0 0 0 .005-.094l-.397-.916a.105.105 0 0 1 .148-.133l.868.495a.105.105 0 0 0 .093.005l.916-.396c.093-.04.183.06.133.147l-.495.868a.105.105 0 0 0-.005.093l.397.916Zm2.77-6.267a.123.123 0 0 1-.226-.056l-.037-.482a.123.123 0 0 0-.057-.094l-.408-.26a.123.123 0 0 1 .056-.225l.482-.038a.123.123 0 0 0 .094-.057l.259-.408a.123.123 0 0 1 .226.056l.037.482a.123.123 0 0 0 .057.094l.409.259c.1.063.061.217-.057.226l-.482.038a.123.123 0 0 0-.094.056l-.259.409Z"/><path fill="#8F8F8F" d="M18.698 6.83a.141.141 0 0 1-.199.178l-.502-.286a.141.141 0 0 0-.126-.007l-.531.23a.141.141 0 0 1-.179-.2l.287-.502a.141.141 0 0 0 .007-.126l-.23-.53a.141.141 0 0 1 .2-.18l.502.287a.141.141 0 0 0 .126.007l.53-.23a.141.141 0 0 1 .18.2l-.288.502a.14.14 0 0 0-.007.126l.23.53Zm1.671 3.23a.105.105 0 0 1-.148.133l-.424-.242a.105.105 0 0 0-.094-.005l-.448.194a.105.105 0 0 1-.132-.148l.242-.424a.105.105 0 0 0 .005-.094l-.194-.448a.105.105 0 0 1 .148-.132l.424.242a.105.105 0 0 0 .093.005l.448-.194c.092-.04.182.06.133.148l-.242.424a.105.105 0 0 0-.006.093l.195.448Zm2.318-4.73a.105.105 0 0 1-.171.1l-.486-.426a.105.105 0 0 0-.09-.024l-.633.132a.105.105 0 0 1-.1-.172l.427-.485a.105.105 0 0 0 .024-.09l-.132-.633a.105.105 0 0 1 .171-.1l.486.427c.024.021.058.03.09.024l.632-.133a.105.105 0 0 1 .1.172l-.426.485a.105.105 0 0 0-.024.09l.132.633Z"/><circle cx="18.79" cy="8.11" r=".14" fill="#696969" transform="rotate(3.145 18.785 8.106)"/><circle cx="19.89" cy="5.53" r=".22" fill="#696969" transform="rotate(3.145 19.886 5.527)"/><circle cx="20.52" cy="4.38" r=".14" fill="#696969" transform="rotate(3.145 20.518 4.382)"/><circle cx="13.67" cy="9.17" r=".22" fill="#696969" transform="rotate(3.145 13.674 9.17)"/></symbol><symbol xmlns="http://www.w3.org/2000/svg" id="rewards-timeout" fill="none" viewBox="0 0 24 24"><path fill="var(--icon-primary)" d="M.502 7.065V8.3c0 .883.724 1.598 1.618 1.598h19.76c.893 0 1.618-.715 1.618-1.598V7.065c0-.883-.725-1.598-1.618-1.598H2.12c-.894 0-1.618.715-1.618 1.598Z"/><path fill="var(--icon-secondary)" d="M3.35 10.794v10.361a.97.97 0 0 0 .283.693c.184.185.435.29.697.292h15.342a.994.994 0 0 0 .697-.292.97.97 0 0 0 .283-.693V10.794a.88.88 0 0 1 .258-.63.903.903 0 0 1 .633-.265H2.46a.904.904 0 0 1 .632.265c.167.168.26.394.258.63Zm6.256-8.267 1.616 1.345a1.219 1.219 0 0 0 1.558 0l1.616-1.345c1.852-1.542 4.684-.24 4.684 2.152v.787H4.922V4.68c0-2.393 2.831-3.694 4.684-2.152Z"/><g opacity=".2"><mask id="bdcore__a" width="20" height="3" x="2" y="9" maskUnits="userSpaceOnUse" style="mask-type:alpha"><path fill="#D9D9D9" d="M2.246 11.136h19.458V9.39H2.246z"/></mask><g mask="url(#bdcore__a)"><path fill="#000" d="M3.35 10.794v10.361a.97.97 0 0 0 .283.693c.184.185.435.29.697.292h15.342a.994.994 0 0 0 .697-.292.97.97 0 0 0 .283-.693V10.794a.88.88 0 0 1 .258-.63.903.903 0 0 1 .633-.265H2.46a.904.904 0 0 1 .632.265c.167.168.26.394.258.63Z"/></g></g><path fill="var(--icon-secondary)" d="M3.758 14.306a8.242 8.242 0 1 1 16.484 0v.156H3.758v-.156Z"/><path fill="var(--icon-primary)" fill-rule="evenodd" d="M12 8.368a5.793 5.793 0 1 0 0 11.585 5.793 5.793 0 0 0 0-11.585ZM4.92 14.16a7.08 7.08 0 1 1 14.16 0 7.08 7.08 0 0 1-14.16 0Z" clip-rule="evenodd"/><path fill="var(--icon-primary)" fill-rule="evenodd" d="M12 9.655c.355 0 .644.288.644.643v3.464l2.218 1.11a.644.644 0 0 1-.575 1.151l-2.575-1.287a.644.644 0 0 1-.356-.576v-3.862c0-.355.289-.643.644-.643Z" clip-rule="evenodd"/></symbol><symbol xmlns="http://www.w3.org/2000/svg" id="ribbon" fill="none" viewBox="0 0 22 24"><g fill="#6BC98C"><path d="M5.955 14.358a.4.4 0 0 1 .547-.147l4.152 2.397a.4.4 0 0 1 .146.547L7.194 23.4a.4.4 0 0 1-.701-.015l-1.077-2.069a.4.4 0 0 0-.372-.215l-2.33.102a.4.4 0 0 1-.365-.6l3.606-6.245ZM11.2 17.155a.4.4 0 0 1 .147-.547l4.151-2.397a.4.4 0 0 1 .547.147l3.606 6.245a.4.4 0 0 1-.364.6l-2.33-.102a.4.4 0 0 0-.373.215l-1.077 2.069a.4.4 0 0 1-.7.015L11.2 17.155Z"/></g><path fill="#000" d="M10.585 1.717a.624.624 0 0 1 .83 0l.976.87c.173.154.417.2.634.119l1.224-.459a.624.624 0 0 1 .775.3l.595 1.163a.624.624 0 0 0 .549.34l1.307.015a.624.624 0 0 1 .613.56l.136 1.3c.023.23.173.428.388.514l1.214.486a.624.624 0 0 1 .37.743l-.344 1.261a.624.624 0 0 0 .177.62l.956.892a.624.624 0 0 1 .076.827l-.776 1.051a.624.624 0 0 0-.06.643l.57 1.176a.624.624 0 0 1-.227.8l-1.103.7a.624.624 0 0 0-.288.577l.106 1.303a.624.624 0 0 1-.5.663l-1.282.254a.624.624 0 0 0-.477.435l-.372 1.253a.624.624 0 0 1-.706.437l-1.287-.226a.624.624 0 0 0-.602.233l-.799 1.034a.624.624 0 0 1-.816.153l-1.12-.676a.624.624 0 0 0-.644 0l-1.12.676a.624.624 0 0 1-.816-.153l-.799-1.034a.624.624 0 0 0-.601-.233l-1.288.226a.624.624 0 0 1-.706-.437l-.371-1.253a.624.624 0 0 0-.477-.435l-1.282-.254a.624.624 0 0 1-.5-.663l.105-1.303a.624.624 0 0 0-.287-.578l-1.104-.7a.624.624 0 0 1-.227-.799l.57-1.176a.624.624 0 0 0-.06-.643l-.776-1.051a.624.624 0 0 1 .077-.827l.956-.891a.624.624 0 0 0 .176-.62l-.343-1.262a.624.624 0 0 1 .37-.743l1.213-.486a.624.624 0 0 0 .389-.515l.135-1.3a.624.624 0 0 1 .614-.56l1.307-.014a.624.624 0 0 0 .548-.34l.596-1.163a.624.624 0 0 1 .774-.3l1.224.459a.624.624 0 0 0 .634-.119l.976-.87Z" opacity=".2"/><path fill="#6BC98C" d="M10.585.558a.624.624 0 0 1 .83 0l.976.87c.173.154.417.2.634.118l1.224-.459a.624.624 0 0 1 .775.3l.595 1.164a.624.624 0 0 0 .549.34l1.307.014a.624.624 0 0 1 .613.56l.136 1.3c.023.23.173.428.388.514l1.214.486a.624.624 0 0 1 .37.744l-.344 1.26a.624.624 0 0 0 .177.621l.956.891a.624.624 0 0 1 .076.827l-.776 1.052a.624.624 0 0 0-.06.642l.57 1.177c.139.285.04.629-.227.799l-1.103.7a.624.624 0 0 0-.288.578l.106 1.302a.624.624 0 0 1-.5.663l-1.282.254a.624.624 0 0 0-.477.435l-.372 1.253a.624.624 0 0 1-.706.437l-1.287-.226a.624.624 0 0 0-.602.233l-.799 1.035a.624.624 0 0 1-.816.152l-1.12-.675a.624.624 0 0 0-.644 0l-1.12.675a.624.624 0 0 1-.816-.152l-.799-1.035a.624.624 0 0 0-.601-.233l-1.288.226a.624.624 0 0 1-.706-.437l-.371-1.253a.624.624 0 0 0-.477-.435l-1.282-.254a.624.624 0 0 1-.5-.663l.105-1.303a.624.624 0 0 0-.287-.577l-1.104-.7a.624.624 0 0 1-.227-.8l.57-1.176a.624.624 0 0 0-.06-.642l-.776-1.052a.624.624 0 0 1 .077-.827l.956-.89a.624.624 0 0 0 .176-.622l-.343-1.26a.624.624 0 0 1 .37-.744l1.213-.486a.624.624 0 0 0 .389-.515l.135-1.3a.624.624 0 0 1 .614-.559l1.307-.015a.624.624 0 0 0 .548-.34l.596-1.163a.624.624 0 0 1 .774-.3l1.224.459a.624.624 0 0 0 .634-.119l.976-.87Z"/><path fill="#8DE3AB" d="M10.585 1.717a.624.624 0 0 1 .83 0l.79.704c.173.155.417.2.634.119l.991-.371a.624.624 0 0 1 .775.3l.482.942a.624.624 0 0 0 .548.34l1.058.011a.624.624 0 0 1 .614.56l.11 1.052c.023.23.173.429.388.515l.982.393a.624.624 0 0 1 .37.744l-.278 1.02a.624.624 0 0 0 .177.62l.774.722a.624.624 0 0 1 .077.827l-.629.852a.624.624 0 0 0-.06.642l.462.952c.138.286.04.63-.227.8l-.894.566a.624.624 0 0 0-.287.578l.086 1.054a.624.624 0 0 1-.501.663l-1.038.206a.624.624 0 0 0-.477.435l-.3 1.014a.624.624 0 0 1-.707.438l-1.042-.183a.624.624 0 0 0-.601.233l-.647.837a.624.624 0 0 1-.817.152l-.905-.546a.624.624 0 0 0-.646 0l-.905.546a.624.624 0 0 1-.817-.152l-.647-.837a.624.624 0 0 0-.601-.233l-1.042.183a.624.624 0 0 1-.707-.438l-.3-1.014a.624.624 0 0 0-.477-.435l-1.038-.206a.624.624 0 0 1-.5-.663l.085-1.054a.624.624 0 0 0-.287-.578l-.894-.567a.624.624 0 0 1-.227-.799l.461-.952a.624.624 0 0 0-.06-.642l-.628-.852a.624.624 0 0 1 .077-.827l.774-.721a.624.624 0 0 0 .176-.62l-.278-1.021a.624.624 0 0 1 .37-.744l.983-.393a.624.624 0 0 0 .389-.515l.109-1.052a.624.624 0 0 1 .614-.56l1.058-.012a.624.624 0 0 0 .548-.34l.482-.941a.624.624 0 0 1 .775-.3l.99.37a.624.624 0 0 0 .635-.118l.79-.704Z"/><path fill="#000" d="M13.31 16.777h-3.073v-7.31H8.135V7.016h1.13c.653 0 1.004-.334 1.004-1.05V5.63h3.041v11.147Z" opacity=".2"/><path fill="#000" d="M12.626 16.218H9.553v-7.31H7.45V6.456h1.131c.653 0 1.003-.335 1.003-1.052V5.07h3.042v11.148Z"/></symbol><symbol xmlns="http://www.w3.org/2000/svg" id="ribbon-muted" fill="none" viewBox="0 0 22 24"><path fill="#696969" d="M5.955 14.358a.4.4 0 0 1 .547-.147l4.152 2.397a.4.4 0 0 1 .146.547L7.194 23.4a.4.4 0 0 1-.701-.015l-1.077-2.069a.4.4 0 0 0-.372-.215l-2.33.102a.4.4 0 0 1-.365-.6l3.606-6.245ZM11.2 17.155a.4.4 0 0 1 .147-.547l4.151-2.397a.4.4 0 0 1 .547.147l3.606 6.245a.4.4 0 0 1-.364.6l-2.33-.102a.4.4 0 0 0-.373.215l-1.077 2.069a.4.4 0 0 1-.7.015L11.2 17.155Z"/><path fill="#000" d="M10.585 1.717a.624.624 0 0 1 .83 0l.976.87c.173.154.417.2.634.119l1.224-.459a.624.624 0 0 1 .775.3l.595 1.163a.624.624 0 0 0 .549.34l1.307.015a.624.624 0 0 1 .613.56l.136 1.3c.023.23.173.428.388.514l1.214.486a.624.624 0 0 1 .37.743l-.344 1.261a.624.624 0 0 0 .177.62l.956.892a.624.624 0 0 1 .076.827l-.776 1.051a.624.624 0 0 0-.06.643l.57 1.176a.624.624 0 0 1-.227.8l-1.103.7a.624.624 0 0 0-.288.577l.106 1.303a.624.624 0 0 1-.5.663l-1.282.254a.624.624 0 0 0-.477.435l-.372 1.253a.624.624 0 0 1-.706.437l-1.287-.226a.624.624 0 0 0-.602.233l-.799 1.034a.624.624 0 0 1-.816.153l-1.12-.676a.624.624 0 0 0-.644 0l-1.12.676a.624.624 0 0 1-.816-.153l-.799-1.034a.624.624 0 0 0-.601-.233l-1.288.226a.624.624 0 0 1-.706-.437l-.371-1.253a.624.624 0 0 0-.477-.435l-1.282-.254a.624.624 0 0 1-.5-.663l.105-1.303a.624.624 0 0 0-.287-.578l-1.104-.7a.624.624 0 0 1-.227-.799l.57-1.176a.624.624 0 0 0-.06-.643l-.776-1.051a.624.624 0 0 1 .077-.827l.956-.891a.624.624 0 0 0 .176-.62l-.343-1.262a.624.624 0 0 1 .37-.743l1.213-.486a.624.624 0 0 0 .389-.515l.135-1.3a.624.624 0 0 1 .614-.56l1.307-.014a.624.624 0 0 0 .548-.34l.596-1.163a.624.624 0 0 1 .774-.3l1.224.459a.624.624 0 0 0 .634-.119l.976-.87Z" opacity=".2"/><path fill="#696969" d="M10.585.558a.624.624 0 0 1 .83 0l.976.87c.173.154.417.2.634.118l1.224-.459a.624.624 0 0 1 .775.3l.595 1.164a.624.624 0 0 0 .549.34l1.307.014a.624.624 0 0 1 .613.56l.136 1.3c.023.23.173.428.388.514l1.214.486a.624.624 0 0 1 .37.744l-.344 1.26a.624.624 0 0 0 .177.621l.956.891a.624.624 0 0 1 .076.827l-.776 1.052a.624.624 0 0 0-.06.642l.57 1.177c.139.285.04.629-.227.799l-1.103.7a.624.624 0 0 0-.288.578l.106 1.302a.624.624 0 0 1-.5.663l-1.282.254a.624.624 0 0 0-.477.435l-.372 1.253a.624.624 0 0 1-.706.437l-1.287-.226a.624.624 0 0 0-.602.233l-.799 1.035a.624.624 0 0 1-.816.152l-1.12-.675a.624.624 0 0 0-.644 0l-1.12.675a.624.624 0 0 1-.816-.152l-.799-1.035a.624.624 0 0 0-.601-.233l-1.288.226a.624.624 0 0 1-.706-.437l-.371-1.253a.624.624 0 0 0-.477-.435l-1.282-.254a.624.624 0 0 1-.5-.663l.105-1.303a.624.624 0 0 0-.287-.577l-1.104-.7a.624.624 0 0 1-.227-.8l.57-1.176a.624.624 0 0 0-.06-.642l-.776-1.052a.624.624 0 0 1 .077-.827l.956-.89a.624.624 0 0 0 .176-.622l-.343-1.26a.624.624 0 0 1 .37-.744l1.213-.486a.624.624 0 0 0 .389-.515l.135-1.3a.624.624 0 0 1 .614-.559l1.307-.015a.624.624 0 0 0 .548-.34l.596-1.163a.624.624 0 0 1 .774-.3l1.224.459a.624.624 0 0 0 .634-.119l.976-.87Z"/><path fill="#8F8F8F" d="M10.585 1.717a.624.624 0 0 1 .83 0l.79.704c.173.155.417.2.634.119l.991-.371a.624.624 0 0 1 .775.3l.482.942a.624.624 0 0 0 .548.34l1.058.011a.624.624 0 0 1 .614.56l.11 1.052c.023.23.173.429.388.515l.982.393a.624.624 0 0 1 .37.744l-.278 1.02a.624.624 0 0 0 .177.62l.774.722a.624.624 0 0 1 .077.827l-.629.852a.624.624 0 0 0-.06.642l.462.952c.138.286.04.63-.227.8l-.894.566a.624.624 0 0 0-.287.578l.086 1.054a.624.624 0 0 1-.501.663l-1.038.206a.624.624 0 0 0-.477.435l-.3 1.014a.624.624 0 0 1-.707.438l-1.042-.183a.624.624 0 0 0-.601.233l-.647.837a.624.624 0 0 1-.817.152l-.905-.546a.624.624 0 0 0-.646 0l-.905.546a.624.624 0 0 1-.817-.152l-.647-.837a.624.624 0 0 0-.601-.233l-1.042.183a.624.624 0 0 1-.707-.438l-.3-1.014a.624.624 0 0 0-.477-.435l-1.038-.206a.624.624 0 0 1-.5-.663l.085-1.054a.624.624 0 0 0-.287-.578l-.894-.567a.624.624 0 0 1-.227-.799l.461-.952a.624.624 0 0 0-.06-.642l-.628-.852a.624.624 0 0 1 .077-.827l.774-.721a.624.624 0 0 0 .176-.62l-.278-1.021a.624.624 0 0 1 .37-.744l.983-.393a.624.624 0 0 0 .389-.515l.109-1.052a.624.624 0 0 1 .614-.56l1.058-.012a.624.624 0 0 0 .548-.34l.482-.941a.624.624 0 0 1 .775-.3l.99.37a.624.624 0 0 0 .635-.118l.79-.704Z"/><path fill="#000" d="M13.31 16.777h-3.073v-7.31H8.135V7.016h1.13c.653 0 1.004-.334 1.004-1.05V5.63h3.041v11.147Z" opacity=".2"/><path fill="#000" d="M12.626 16.218H9.553v-7.31H7.45V6.456h1.131c.653 0 1.003-.335 1.003-1.052V5.07h3.042v11.148Z"/></symbol><symbol xmlns="http://www.w3.org/2000/svg" id="shield" fill="none" viewBox="0 0 90 97"><g clip-path="url(#bicore__a)"><path fill="#8FACFF" d="M50.482 5.45c-1.482-.47-2.423.323-3.543 1.38-8.573 8.113-23.143 10.925-30.574 12.772-2.384.593-5.5 4.058-5.244 6.513 1.396 13.39 8.514 54.361 40.665 64.56 1.383.44 2.808.82 4.286 1.14a4.244 4.244 0 0 0 3.049-.51C87.538 74.66 86.31 36.467 85.223 24.57c-.183-2.005-1.521-3.756-3.264-4.309a3.875 3.875 0 0 0-.228-.065 99.893 99.893 0 0 1-5.718-1.629c-6.9-2.189-16.559-6.059-23.753-12.125a5.227 5.227 0 0 0-1.781-.991l.003-.002Z"/><path fill="#999" d="M50.482 5.45c-1.482-.47-2.423.323-3.543 1.38-8.573 8.113-23.143 10.925-30.574 12.772-2.384.593-5.5 4.058-5.244 6.513 1.396 13.39 8.514 54.361 40.665 64.56 1.383.44 2.808.82 4.286 1.14a4.244 4.244 0 0 0 3.049-.51C87.538 74.66 86.31 36.467 85.223 24.57c-.183-2.005-1.521-3.756-3.264-4.309a3.875 3.875 0 0 0-.228-.065 99.893 99.893 0 0 1-5.718-1.629c-6.9-2.189-16.559-6.059-23.753-12.125a5.227 5.227 0 0 0-1.781-.991l.003-.002Z" style="mix-blend-mode:multiply"/><path fill="#fff" d="M16.365 19.602c-2.383.593-5.5 4.058-5.244 6.513.405 3.9 1.299 10.138 3.154 17.276.709-4.89.985-11.334 3.48-15.569 3.113-5.285 9.705-8.13 13.684-12.33-5.717 1.991-11.31 3.175-15.073 4.113l-.001-.003Z" opacity=".2"/><path fill="#999" d="M27.908 73.249c5.803 7.695 13.55 14.15 23.878 17.427 1.383.438 2.808.82 4.286 1.14a4.244 4.244 0 0 0 3.049-.512 47.583 47.583 0 0 0 3.195-2.052 102.602 102.602 0 0 1-6.32-1.784C45.3 84.076 35.78 79.136 27.907 73.247v.002Z" style="mix-blend-mode:multiply"/><path fill="#EFF1F8" d="M54.57 87.019c-13.121-4.163-23.362-14.195-30.433-29.817C18.05 43.763 16.09 29.814 15.53 24.44c-.135-1.29.64-2.407 1.885-2.715 8.396-2.088 23.797-6.835 32.586-15.151.46-.436 1.124-.558 1.824-.336.343.109.67.294.971.547 7.512 6.332 17.503 10.332 24.562 12.572 1.97.624 3.94 1.185 5.855 1.67.029.009.061.016.09.026.85.27 1.537 1.237 1.635 2.298.56 6.113 1.053 18.248-1.934 30.843C79.316 69.75 71.57 81.079 59.983 87.865c-.427.249-.906.336-1.346.241a45.264 45.264 0 0 1-4.069-1.084l.002-.004Z"/><path fill="#8FACFF" d="M51.963 8.643c7.805 6.572 17.416 10.63 24.674 12.932 1.96.622 3.923 1.183 5.835 1.669a.64.64 0 0 1 .118.313c.546 5.973 1.029 17.824-1.88 30.1-3.522 14.85-10.6 25.637-21.538 32.098-1.23-.275-2.702-.584-3.88-.958-12.458-3.951-22.214-13.556-29.002-28.549-5.943-13.13-7.864-26.785-8.414-32.047-.019-.179.038-.193.114-.213 8.518-2.12 24.747-6.855 33.975-15.344m.578-4.63c-1.481-.47-3.055-.186-4.172.872-8.573 8.11-24.1 12.726-31.532 14.574-2.383.592-3.91 2.762-3.655 5.22C14.581 38.07 21.7 79.04 53.85 89.24c1.382.439 2.808.82 4.285 1.14a4.245 4.245 0 0 0 3.05-.511C89.6 73.225 88.374 35.032 87.285 23.134c-.182-2.005-1.52-3.755-3.264-4.308a3.954 3.954 0 0 0-.228-.065 99.87 99.87 0 0 1-5.718-1.63c-6.899-2.188-16.558-6.058-23.753-12.124a5.177 5.177 0 0 0-1.78-.994Z"/><path fill="#A249EA" d="m50.505 50.728-10.536-9.39c-.675-.602-1.676-.547-2.237.125l-3.5 4.194c-.573.686-.477 1.734.214 2.338l15.84 13.817c1.135.991 2.797.819 3.712-.377L74.87 34.11c.463-.608.367-1.555-.22-2.119l-3.643-3.502c-.594-.57-1.462-.545-1.939.06L51.685 50.638a.802.802 0 0 1-1.18.091Z"/><path fill="#B064ED" d="m51.174 50.2-10.536-9.39c-.675-.601-1.676-.547-2.237.126l-3.5 4.194c-.573.685-.477 1.734.214 2.338l15.84 13.816c1.135.992 2.797.82 3.712-.377l20.871-27.325c.463-.607.367-1.554-.22-2.118l-3.643-3.502c-.594-.57-1.462-.545-1.94.06L52.355 50.11a.802.802 0 0 1-1.18.092Z"/><path fill="#DDE1EF" d="M83.794 18.76c-6.01-1.514-19.912-5.698-29.47-13.753-.852-.716-1.84-1.113-2.812-1.193l8.074 86.615a4.353 4.353 0 0 0 1.598-.558C89.6 73.227 88.374 35.034 87.285 23.137c-.191-2.092-1.638-3.907-3.492-4.374l.001-.002Z" opacity=".48" style="mix-blend-mode:multiply"/><path fill="#DDE6FF" d="M13.782 25.317c-.256-2.454 1.272-4.627 3.655-5.22 7.432-1.849 22.919-6.847 31.492-14.958 1.117-1.058 2.73-.958 4.212-.488.623.198 1.23.529 1.78.992 7.195 6.066 16.854 9.936 23.753 12.124a97.956 97.956 0 0 0 5.718 1.63c.077.019.154.04.229.065a4.36 4.36 0 0 1 1.568.909c-.57-.726-1.32-1.28-2.166-1.548a3.955 3.955 0 0 0-.228-.065 99.81 99.81 0 0 1-5.718-1.629c-6.9-2.188-16.558-6.059-23.753-12.125a5.227 5.227 0 0 0-1.78-.99c-1.482-.47-3.056-.186-4.175.871-8.571 8.111-24.098 12.727-31.53 14.575-2.383.592-3.91 2.762-3.655 5.22 1.05 10.056 5.325 35.664 21.006 52.117-15.195-16.47-19.374-41.553-20.408-51.48Z"/><path fill="#fff" d="M59.053 84.738s-4.27-48.758-4.927-55.814c-.656-7.055-2.037-18.9-2.037-18.9s.863 11.954 1.52 19.007c.658 7.057 5.444 55.707 5.444 55.707Z" opacity=".53"/><path fill="#F4F7FF" d="M59.17 85.752c-1.23-.275-2.702-.584-3.88-.958-6.615-2.098-12.466-5.79-17.519-11.037 5.187 5.585 11.24 9.492 18.117 11.673 1.179.374 2.65.683 3.881.958 10.938-6.461 18.018-17.247 21.54-32.097 2.908-12.274 2.054-24.093 1.507-30.066-.012-.139-.19-.945-.343-.986.539 6.035 1.116 18.273-1.762 30.414-3.521 14.85-10.6 25.636-21.537 32.097l-.003.002Z"/><path fill="#8FACFF" d="M87.286 23.134c-.182-2.005-1.52-3.756-3.264-4.309a4.084 4.084 0 0 0-.228-.065c-.122-.031-.252-.065-.382-.096l.01.003c1.743.553 3.08 2.305 3.263 4.308C87.775 34.874 89 73.065 60.584 89.71a4.244 4.244 0 0 1-3.05.511 44.826 44.826 0 0 1-1.87-.447c.808.221 1.63.426 2.471.606a4.244 4.244 0 0 0 3.05-.512C89.6 73.224 88.375 35.032 87.286 23.134Z" style="mix-blend-mode:multiply"/></g><defs><clipPath id="bicore__a"><path fill="#fff" d="M0 0h79.905v82.838H0z" transform="matrix(.95319 .30238 -.30806 .95137 21.208 -5.928)"/></clipPath></defs></symbol><symbol xmlns="http://www.w3.org/2000/svg" id="shield-success" fill="none" viewBox="0 0 90 97"><g clip-path="url(#bhcore__a)"><path fill="#BDF2D0" d="M50.482 5.45c-1.482-.47-2.423.323-3.543 1.38-8.573 8.113-23.143 10.925-30.574 12.772-2.384.593-5.5 4.058-5.244 6.513 1.396 13.39 8.514 54.361 40.665 64.56 1.383.44 2.808.82 4.286 1.14a4.244 4.244 0 0 0 3.049-.51C87.538 74.66 86.31 36.467 85.223 24.57c-.183-2.005-1.521-3.756-3.264-4.309a3.875 3.875 0 0 0-.228-.065 99.893 99.893 0 0 1-5.718-1.629c-6.9-2.189-16.559-6.059-23.753-12.125a5.227 5.227 0 0 0-1.781-.991l.003-.002Z"/><path fill="#999" d="M50.482 5.45c-1.482-.47-2.423.323-3.543 1.38-8.573 8.113-23.143 10.925-30.574 12.772-2.384.593-5.5 4.058-5.244 6.513 1.396 13.39 8.514 54.361 40.665 64.56 1.383.44 2.808.82 4.286 1.14a4.244 4.244 0 0 0 3.049-.51C87.538 74.66 86.31 36.467 85.223 24.57c-.183-2.005-1.521-3.756-3.264-4.309a3.875 3.875 0 0 0-.228-.065 99.893 99.893 0 0 1-5.718-1.629c-6.9-2.189-16.559-6.059-23.753-12.125a5.227 5.227 0 0 0-1.781-.991l.003-.002Z" style="mix-blend-mode:multiply"/><path fill="#fff" d="M16.365 19.602c-2.383.593-5.5 4.058-5.244 6.513.405 3.9 1.299 10.138 3.154 17.276.709-4.89.985-11.334 3.48-15.569 3.113-5.285 9.705-8.13 13.684-12.33-5.717 1.991-11.31 3.175-15.073 4.113l-.001-.003Z" opacity=".2"/><path fill="#999" d="M27.907 73.249c5.804 7.695 13.55 14.15 23.88 17.427 1.381.438 2.807.82 4.284 1.14a4.244 4.244 0 0 0 3.05-.512 47.558 47.558 0 0 0 3.194-2.052 102.599 102.599 0 0 1-6.32-1.784C45.3 84.076 35.781 79.136 27.908 73.247v.002Z" style="mix-blend-mode:multiply"/><path fill="#EFF1F8" d="M54.57 87.019c-13.121-4.163-23.363-14.195-30.434-29.817-6.085-13.439-8.045-27.388-8.606-32.762-.135-1.29.64-2.407 1.885-2.715 8.396-2.088 23.797-6.835 32.586-15.151.46-.436 1.124-.558 1.824-.336.343.109.67.294.97.547 7.513 6.332 17.504 10.332 24.563 12.572 1.97.624 3.94 1.185 5.854 1.67.03.009.062.016.091.026.85.27 1.537 1.237 1.634 2.298.56 6.113 1.054 18.248-1.933 30.843C79.316 69.75 71.57 81.079 59.983 87.865c-.427.249-.906.336-1.346.241a45.27 45.27 0 0 1-4.07-1.084l.002-.004Z"/><path fill="#6BC98C" d="M51.963 8.643c7.805 6.572 17.416 10.63 24.674 12.932 1.96.622 3.923 1.183 5.835 1.669a.64.64 0 0 1 .118.313c.546 5.973 1.029 17.824-1.88 30.1-3.522 14.85-10.6 25.637-21.538 32.098-1.23-.275-2.702-.584-3.88-.958-12.458-3.951-22.214-13.556-29.002-28.549-5.943-13.13-7.864-26.785-8.414-32.047-.019-.179.038-.193.114-.213 8.518-2.12 24.747-6.855 33.975-15.344m.578-4.63c-1.481-.47-3.055-.186-4.172.872-8.573 8.11-24.1 12.726-31.532 14.574-2.383.592-3.91 2.762-3.655 5.22C14.581 38.07 21.7 79.04 53.85 89.24c1.382.439 2.808.82 4.285 1.14a4.245 4.245 0 0 0 3.05-.511C89.6 73.225 88.374 35.032 87.285 23.134c-.182-2.005-1.52-3.755-3.264-4.308a3.954 3.954 0 0 0-.228-.065 99.87 99.87 0 0 1-5.718-1.63c-6.899-2.188-16.558-6.058-23.753-12.124a5.177 5.177 0 0 0-1.78-.994Z"/><path fill="#1E2420" d="m50.505 50.728-10.536-9.39c-.674-.602-1.676-.547-2.237.125l-3.5 4.194c-.573.686-.477 1.734.215 2.338l15.838 13.817c1.136.991 2.798.819 3.714-.377l20.87-27.325c.464-.608.367-1.555-.22-2.119l-3.642-3.502c-.595-.57-1.462-.545-1.94.06L51.685 50.638a.802.802 0 0 1-1.18.091Z"/><path fill="#55A370" d="m51.174 50.2-10.536-9.39c-.675-.601-1.676-.547-2.237.126l-3.5 4.194c-.573.685-.477 1.734.214 2.338l15.839 13.816c1.136.992 2.798.82 3.713-.377l20.871-27.325c.463-.607.367-1.554-.22-2.118l-3.643-3.502c-.594-.57-1.462-.545-1.94.06L52.355 50.11a.802.802 0 0 1-1.18.092Z"/><path fill="#DDE1EF" d="M83.794 18.76c-6.009-1.514-19.912-5.698-29.47-13.753-.852-.716-1.84-1.113-2.812-1.193l8.074 86.615a4.354 4.354 0 0 0 1.598-.558c28.417-16.644 27.19-54.837 26.102-66.734-.192-2.092-1.639-3.907-3.492-4.374v-.002Z" opacity=".48" style="mix-blend-mode:multiply"/><path fill="#8DE3AB" d="M13.782 25.317c-.256-2.454 1.272-4.627 3.655-5.22 7.432-1.849 22.919-6.847 31.492-14.958 1.117-1.058 2.73-.958 4.212-.488.623.198 1.23.529 1.78.992 7.195 6.066 16.854 9.936 23.753 12.124a97.956 97.956 0 0 0 5.718 1.63c.077.019.154.04.229.065a4.36 4.36 0 0 1 1.568.909c-.57-.726-1.32-1.28-2.166-1.548a3.955 3.955 0 0 0-.228-.065 99.81 99.81 0 0 1-5.718-1.629c-6.9-2.188-16.558-6.059-23.753-12.125a5.227 5.227 0 0 0-1.78-.99c-1.482-.47-3.056-.186-4.175.871-8.571 8.111-24.098 12.727-31.53 14.575-2.383.592-3.91 2.762-3.655 5.22 1.05 10.056 5.325 35.664 21.006 52.117-15.195-16.47-19.374-41.553-20.408-51.48Z"/><path fill="#fff" d="M59.053 84.738s-4.27-48.758-4.927-55.814c-.656-7.055-2.038-18.9-2.038-18.9s.863 11.954 1.52 19.007c.659 7.057 5.445 55.707 5.445 55.707Z" opacity=".53"/><path fill="#F4F7FF" d="M59.17 85.752c-1.23-.275-2.701-.584-3.88-.958-6.615-2.098-12.466-5.79-17.519-11.037 5.187 5.585 11.24 9.492 18.117 11.673 1.18.374 2.65.683 3.881.958C70.707 79.927 77.788 69.14 81.31 54.29c2.908-12.274 2.054-24.093 1.508-30.066-.012-.139-.19-.945-.343-.986.538 6.035 1.115 18.273-1.763 30.414-3.521 14.85-10.6 25.636-21.537 32.097l-.003.002Z"/><path fill="#8FACFF" d="M87.286 23.134c-.182-2.005-1.52-3.756-3.264-4.309a4.036 4.036 0 0 0-.228-.065c-.122-.031-.253-.065-.382-.096l.009.003c1.743.553 3.08 2.305 3.264 4.308C87.775 34.874 89 73.065 60.583 89.71a4.244 4.244 0 0 1-3.049.511 44.869 44.869 0 0 1-1.87-.447c.808.221 1.63.426 2.471.606a4.244 4.244 0 0 0 3.05-.512C89.6 73.224 88.374 35.032 87.285 23.134Z" style="mix-blend-mode:multiply"/></g><defs><clipPath id="bhcore__a"><path fill="#fff" d="M0 0h79.905v82.838H0z" transform="matrix(.95319 .30238 -.30806 .95137 21.208 -5.928)"/></clipPath></defs></symbol><symbol xmlns="http://www.w3.org/2000/svg" id="support" fill="none" viewBox="0 0 24 24"><g clip-path="url(#bjcore__a)"><path fill="var(--icon-primary)" d="M19.81 8c-.79-3.61-3.88-6.39-7.56-6.5a7.98 7.98 0 0 0-5.82 2.25 7.956 7.956 0 0 0-2.29 4.24h1.8s.17 0 .25.02c.27-1.06.83-2.04 1.64-2.82a5.897 5.897 0 0 1 4.36-1.69c2.63.08 4.85 1.98 5.57 4.52 0 0 .11-.02.25-.02h1.8Z"/><path fill="var(--icon-secondary)" d="M18.66 8c-.91-2.87-3.46-4.99-6.47-5.08-1.93-.07-3.74.65-5.12 1.98-.9.87-1.53 1.93-1.86 3.1h.81s.09 0 .16.02c.27-1.07.83-2.04 1.64-2.82a5.897 5.897 0 0 1 4.36-1.69c2.63.08 4.85 1.98 5.57 4.52.12-.02.29-.02.29-.02h.61l.01-.01Z"/><path fill="var(--icon-primary)" d="M13.5 19.5h-3a1 1 0 1 0 0 2h3a1 1 0 1 0 0-2Z"/><path fill="var(--icon-secondary)" fill-rule="evenodd" d="M13.5 20.5h-3c-.37 0-.67-.21-.85-.5-.09.15-.15.31-.15.5 0 .55.45 1 1 1h3c.55 0 1-.45 1-1 0-.19-.06-.35-.15-.5-.17.29-.48.5-.85.5Z" clip-rule="evenodd"/><path fill="var(--icon-primary)" d="M5 8.5h1c.55 0 1 .45 1 1v7c0 .55-.45 1-1 1H5c-1.66 0-3-1.34-3-3v-3c0-1.66 1.34-3 3-3Z"/><path fill="var(--icon-secondary)" fill-rule="evenodd" d="M6.13 15.94H5c-1.39 0-2.56-.89-3-2.12v.68c0 1.66 1.34 3 3 3h1c.55 0 1-.45 1-1v-1.04c-.19.28-.5.48-.87.48Z" clip-rule="evenodd"/><path fill="var(--icon-primary)" d="M19 17.5h-1c-.55 0-1-.45-1-1v-7c0-.55.45-1 1-1h1c1.65 0 3 1.34 3 3v3c0 1.65-1.34 3-3 3Z"/><path fill="var(--icon-secondary)" fill-rule="evenodd" d="M17.87 15.94H19c1.39 0 2.55-.89 3-2.12v.68c0 1.66-1.34 3-3 3h-1c-.55 0-1-.45-1-1v-1.04c.19.28.5.48.87.48Z" clip-rule="evenodd"/><path fill="var(--icon-primary)" d="M17.05 21h-2.07s.02-.15.02-.28v-.45c0-.15-.02-.28-.02-.28h2.07c.8 0 1.45-.65 1.45-1.45v-.55h1v.55c0 1.35-1.1 2.45-2.45 2.45V21Z"/><path fill="var(--icon-secondary)" d="M17.05 21h-2.07s.02-.15.02-.28v-.22h2.1a1.9 1.9 0 0 0 1.9-1.9V18h.5v.55c0 1.35-1.1 2.45-2.45 2.45Z"/></g><defs><clipPath id="bjcore__a"><path fill="#fff" d="M2 1.5h20v20H2z"/></clipPath></defs></symbol><symbol xmlns="http://www.w3.org/2000/svg" id="swap" fill="none" viewBox="0 0 30 31"><g clip-path="url(#bkcore__a)"><g fill="#E0E0E0" fill-rule="evenodd" clip-path="url(#bkcore__b)" clip-rule="evenodd"><path d="M17.473 9.724a.75.75 0 0 1 1.06-.009l3.796 3.736a.75.75 0 0 1-.527 1.284H8.25a.75.75 0 0 1 0-1.5h11.721l-2.49-2.45a.75.75 0 0 1-.008-1.061ZM7.556 16.708a.75.75 0 0 1 .694-.465h13.552a.75.75 0 1 1 0 1.5h-11.72l2.49 2.45a.75.75 0 0 1-1.053 1.07l-3.795-3.736a.75.75 0 0 1-.168-.819Z"/></g></g><defs><clipPath id="bkcore__a"><path fill="#fff" d="M0 0h18v18H0z" transform="translate(6 6.5)"/></clipPath><clipPath id="bkcore__b"><path fill="#fff" d="M0 0h15.053v11.977H0z" transform="translate(7.5 9.5)"/></clipPath></defs></symbol><symbol xmlns="http://www.w3.org/2000/svg" id="tipping" fill="none" viewBox="0 0 24 24"><g clip-path="url(#blcore__a)"><circle cx="14.03" cy="5.67" r="4.14" fill="#8DE3AB"/><path fill="#000" d="M14.68 8.25h-1.256v-.485h-.21c-.982-.082-1.543-.655-1.566-1.414l-.006-.035h1.39l.006.029c.035.257.176.42.538.42h1.051c.31 0 .468-.11.468-.332 0-.21-.164-.292-.474-.322l-1.565-.052c-.865-.059-1.361-.48-1.361-1.221 0-.748.578-1.204 1.437-1.268h.292v-.485h1.256v.485l.234.006c1.01.082 1.425.666 1.448 1.285l.006.03H15.06l-.012-.03c-.053-.18-.193-.339-.49-.339h-1.093c-.298 0-.444.105-.444.292 0 .176.122.263.42.293l1.554.046c.894.053 1.432.444 1.432 1.262 0 .783-.596 1.285-1.508 1.35h-.24v.485Z"/><path fill="#6BC98C" d="M14.034.982a4.683 4.683 0 0 0-4.686 4.686 4.683 4.683 0 0 0 4.686 4.685 4.683 4.683 0 0 0 4.685-4.685A4.683 4.683 0 0 0 14.035.982Zm0 8.52a3.834 3.834 0 1 1 0-7.669 3.834 3.834 0 0 1 0 7.668Z"/><path fill="#8DE3AB" d="M21.26 9.219c-.481 0-.962.182-1.328.548l-2.29 2.295a1.962 1.962 0 0 0-1.677-.94H9.624c-1.717 0-2.658.91-3.452 1.703l-1.983 1.982a.397.397 0 0 0 0 .56l4.36 4.36a.396.396 0 0 0 .562 0l.794-.792c.396-.396.645-.676 1.304-.676h5.551c1.362 0 2.5-.674 3.305-1.843.928-1.342 1.837-3.011 2.567-4.045.273-.39.45-.835.468-1.296a1.75 1.75 0 0 0-.511-1.308 1.873 1.873 0 0 0-1.328-.548h-.001Z"/><path fill="#000" d="m18.213 11.492-.569.57-.004-.004c.191.306.305.66.305 1.046 0 1.09-.888 1.982-1.978 1.982h-3.571a.398.398 0 0 0-.281.678.398.398 0 0 0 .28.116h3.572a2.786 2.786 0 0 0 2.772-2.776c0-.601-.197-1.157-.526-1.612Z" opacity=".2"/><path fill="#000" d="M22.264 9.512c.591.887.086 1.865-.4 2.583-.75 1.106-1.607 2.646-2.453 3.872-.69.998-1.551 1.498-2.652 1.498h-5.55c-.442 0-.854.114-1.167.307-.312.192-.51.412-.698.602l-.795.795-.28.278.282.28a.394.394 0 0 0 .56 0l.794-.792c.396-.396.645-.676 1.304-.676h5.551c1.362 0 2.5-.674 3.305-1.843.928-1.342 1.837-3.011 2.567-4.045.273-.39.45-.835.467-1.296a1.75 1.75 0 0 0-.834-1.563h-.002Z" opacity=".2"/><path fill="#6BC98C" d="M1.016 16.39a.397.397 0 0 0 0 .564l5.948 5.948a.397.397 0 0 0 .56-.003l2.379-2.377a.397.397 0 0 0 0-.56l-5.946-5.948a.397.397 0 0 0-.563 0l-2.378 2.377Z"/><path fill="#000" d="M8.783 18.84a.398.398 0 0 1-.003.561l-2.378 2.378a.397.397 0 0 1-.56.003l1.12 1.12a.397.397 0 0 0 .563-.003L9.9 20.523a.397.397 0 0 0 .003-.56l-1.12-1.123Z" opacity=".2"/><path fill="#8DE3AB" d="M20.465 3.164a.086.086 0 0 1-.141.082l-.399-.35a.086.086 0 0 0-.074-.02l-.52.109a.086.086 0 0 1-.082-.141l.35-.399a.086.086 0 0 0 .02-.074l-.108-.52a.086.086 0 0 1 .14-.082l.4.35c.02.018.047.026.074.02l.519-.108a.086.086 0 0 1 .082.14l-.35.4a.086.086 0 0 0-.02.073l.109.52Z"/><path fill="#6BC98C" d="M7.418 4.12a.127.127 0 0 1-.234-.057l-.039-.498a.127.127 0 0 0-.058-.097L6.665 3.2a.127.127 0 0 1 .058-.234l.498-.039a.127.127 0 0 0 .097-.058l.267-.422a.127.127 0 0 1 .234.058l.039.498c.003.04.024.075.058.097l.422.267a.127.127 0 0 1-.058.233l-.498.04a.127.127 0 0 0-.097.058l-.267.422Z"/><circle cx="8.02" cy="5.88" r=".23" fill="#6BC98C" transform="rotate(3.145 8.024 5.88)"/><path fill="#8DE3AB" d="M9.022 9.02a.146.146 0 0 1-.206.184l-.519-.296a.146.146 0 0 0-.13-.007l-.548.237a.146.146 0 0 1-.184-.206l.296-.518a.146.146 0 0 0 .007-.13L7.5 7.734a.146.146 0 0 1 .206-.184l.52.296c.039.023.087.025.13.007l.547-.237a.146.146 0 0 1 .185.206l-.296.518a.146.146 0 0 0-.008.13l.238.549Z"/><circle cx="5.85" cy="5.05" r=".15" fill="#6BC98C" transform="rotate(3.145 5.846 5.047)"/><path fill="#6BC98C" d="M20.41 6.954a.127.127 0 0 1-.234-.058l-.039-.498a.127.127 0 0 0-.058-.097l-.422-.267a.127.127 0 0 1 .058-.233l.498-.04a.127.127 0 0 0 .097-.058l.267-.421a.127.127 0 0 1 .233.057l.04.498c.003.04.024.076.058.097l.422.268a.127.127 0 0 1-.058.233l-.498.039a.127.127 0 0 0-.097.058l-.267.422Z"/><circle cx="18.82" cy="9.02" r=".23" fill="#6BC98C" transform="rotate(3.145 18.82 9.019)"/><circle cx="19.54" cy="4.22" r=".15" fill="#6BC98C" transform="rotate(3.145 19.54 4.225)"/></g><defs><clipPath id="blcore__a"><path fill="#fff" d="M0 0h24v24H0z"/></clipPath></defs></symbol><symbol xmlns="http://www.w3.org/2000/svg" id="trophy" fill="none" viewBox="0 0 24 24"><g clip-path="url(#bmcore__a)"><path fill="var(--icon-secondary)" d="M6.521 12.68c-1.427-2.14-2.263-5.176-2.498-9.073h-1.8c-.245 0-.445.2-.445.446A10.228 10.228 0 0 0 6.52 12.68Zm15.698-8.627c0-.245-.2-.446-.445-.446h-1.8c-.232 3.894-1.068 6.934-2.495 9.073a10.25 10.25 0 0 0 4.74-8.627ZM12.042 16.058h-.087c-.273 0-.922-.041-1.74-.335v1.227H6.641c-.245 0-.446.2-.446.445v2.232h11.601v-2.232c0-.245-.2-.445-.445-.445h-3.57v-1.227c-.818.297-1.467.335-1.74.335Z"/><path fill="var(--icon-primary)" d="M11.95 15.165h.087c.345 0 1.91-.086 3.49-1.555 2.266-2.1 3.478-5.928 3.603-11.376a.443.443 0 0 0-.446-.456H5.304a.454.454 0 0 0-.446.456c.128 5.448 1.344 9.276 3.607 11.38 1.579 1.465 3.144 1.55 3.486 1.55Zm-7.456 5.269h14.842c.245 0 .446.2.446.445v1.786c0 .246-.2.446-.446.446H4.494a.447.447 0 0 1-.445-.446V20.88c0-.245.2-.445.445-.445Z"/><path fill="#000" fill-rule="evenodd" d="M11.2 15.073c.379.08.657.092.779.092h.086c.345 0 1.91-.086 3.49-1.555 2.265-2.1 3.478-5.928 3.602-11.376a.443.443 0 0 0-.445-.456h-.504c-.181 5.573-1.46 9.502-3.804 11.682-1.257 1.173-2.506 1.515-3.204 1.613Z" clip-rule="evenodd" opacity=".2"/></g><defs><clipPath id="bmcore__a"><path fill="#fff" d="M1.333 1.333h21.333v21.333H1.333z"/></clipPath></defs></symbol><symbol xmlns="http://www.w3.org/2000/svg" id="wallet" fill="none" viewBox="0 0 24 24"><g clip-path="url(#bncore__a)"><path fill="var(--icon-primary)" d="M18 15.01c0-1.1.9-2 2-2h3v-3a2 2 0 0 0-2-2H3c-1.76 0-2-.77-2-.77v12.77c0 1.1.9 2 2 2h18c1.1 0 2-.9 2-2v-3h-3c-1.1 0-2-.9-2-2Z"/><path fill="var(--icon-secondary)" d="M20 14.01c-.55 0-1 .45-1 1s.45 1 1 1h3v-2h-3Z"/><path fill="var(--icon-primary)" d="m7 7.02 6.97-4.66c1.08-.72 2.54-.33 3.11.83l1.91 3.83H7Z"/><path fill="var(--icon-secondary)" d="M5.2 7.01H2c-.55 0-1-.45-1-1s.45-1 1-1h6.27l-3.06 2H5.2Zm14.92 0H21v-.12c0-1.04-.84-1.88-1.88-1.88l1 2Z"/></g><defs><clipPath id="bncore__a"><path fill="#fff" d="M1 2h22v20.01H1z"/></clipPath></defs></symbol></svg>