<svg width="0" height="0" style="position:absolute"><symbol xmlns="http://www.w3.org/2000/svg" id="auto-play" fill="none" viewBox="0 0 24 24"><g clip-path="url(#aafilters__a)"><circle cx="11.97" cy="12.25" r="10.29" fill="var(--icon-secondary)"/><path fill="var(--icon-primary)" fill-rule="evenodd" d="M20.662 1.71a.847.847 0 0 1 .757.928l-.372 3.684a.847.847 0 0 1-.941.756l-3.699-.431a.847.847 0 1 1 .196-1.683l1.539.18A9.197 9.197 0 0 0 2.97 14.025a.847.847 0 0 1-1.65.389A10.89 10.89 0 0 1 19.564 4.157l.17-1.69a.847.847 0 0 1 .929-.757ZM3.338 22.87a.847.847 0 0 1-.757-.928l.372-3.683a.847.847 0 0 1 .941-.756l3.699.43a.847.847 0 0 1-.196 1.683l-1.539-.179a9.198 9.198 0 0 0 15.172-8.883.847.847 0 0 1 1.65-.388A10.89 10.89 0 0 1 4.436 20.424l-.17 1.689a.847.847 0 0 1-.929.757Z" clip-rule="evenodd"/><path fill="#000" d="M16.78 11.262a1.53 1.53 0 0 1 0 2.65l-4.955 2.86a1.53 1.53 0 0 1-2.295-1.324V9.726a1.53 1.53 0 0 1 2.295-1.325l4.954 2.86Z" opacity=".2"/><path fill="var(--icon-primary)" d="M16.028 10.538a1.53 1.53 0 0 1 0 2.65l-4.954 2.86a1.53 1.53 0 0 1-2.295-1.325v-5.72a1.53 1.53 0 0 1 2.295-1.326l4.954 2.86Z"/></g><defs><clipPath id="aafilters__a"><path fill="#fff" d="M0 0h24v24H0z"/></clipPath></defs></symbol><symbol xmlns="http://www.w3.org/2000/svg" id="bonus-rounds" fill="none" viewBox="0 0 24 24"><g clip-path="url(#abfilters__a)"><path fill="var(--icon-primary)" d="M11.722 3.505a.59.59 0 0 1 .991 0l1.294 2.002a.59.59 0 0 0 .345.25l2.303.612a.59.59 0 0 1 .306.943l-1.503 1.85a.59.59 0 0 0-.132.404l.13 2.38a.59.59 0 0 1-.803.583l-2.223-.859a.591.591 0 0 0-.425 0l-2.224.86a.59.59 0 0 1-.802-.584l.13-2.38a.59.59 0 0 0-.132-.404l-1.504-1.85a.59.59 0 0 1 .307-.943l2.303-.612a.59.59 0 0 0 .345-.25l1.293-2.002Zm6.36 9.043a.59.59 0 0 1 .992 0l1.294 2.002a.59.59 0 0 0 .344.25l2.303.612a.59.59 0 0 1 .307.943l-1.504 1.85a.59.59 0 0 0-.131.404l.13 2.38a.59.59 0 0 1-.803.583l-2.223-.859a.59.59 0 0 0-.426 0l-2.223.859a.59.59 0 0 1-.803-.583l.13-2.38a.59.59 0 0 0-.131-.405l-1.504-1.849a.59.59 0 0 1 .306-.943l2.304-.612a.59.59 0 0 0 .344-.25l1.294-2.002Zm-12.644 0a.59.59 0 0 1 .992 0l1.294 2.002a.59.59 0 0 0 .344.25l2.304.612a.59.59 0 0 1 .306.943l-1.503 1.85a.59.59 0 0 0-.132.404l.13 2.38a.59.59 0 0 1-.803.583l-2.223-.859a.59.59 0 0 0-.425 0l-2.224.859a.59.59 0 0 1-.802-.583l.13-2.38a.59.59 0 0 0-.132-.405L1.19 16.355a.59.59 0 0 1 .307-.943L3.8 14.8a.59.59 0 0 0 .344-.25l1.294-2.002Z"/><path fill="var(--icon-secondary)" d="M4.137 3.33a.592.592 0 0 1 1.184 0v2.606a.592.592 0 0 1-1.184 0V3.33Z"/><path fill="var(--icon-secondary)" d="M6.032 4.042a.592.592 0 1 1 0 1.183H3.426a.592.592 0 1 1 0-1.183h2.606ZM1.643 8.924a.592.592 0 0 1 1.183 0v2.606a.592.592 0 1 1-1.183 0V8.924Z"/><path fill="var(--icon-secondary)" d="M3.537 9.635a.592.592 0 1 1 0 1.184H.932a.592.592 0 0 1 0-1.184h2.605Zm13.958-8.199a.592.592 0 0 1 1.184 0v2.606a.592.592 0 0 1-1.184 0V1.436Z"/><path fill="var(--icon-secondary)" d="M19.39 2.147a.592.592 0 1 1 0 1.183h-2.606a.592.592 0 1 1 0-1.183h2.606Zm1.017 5.868a.592.592 0 1 1 1.183 0v2.606a.592.592 0 1 1-1.183 0V8.015Z"/><path fill="var(--icon-secondary)" d="M22.301 8.726a.592.592 0 1 1 0 1.184h-2.605a.592.592 0 1 1 0-1.184H22.3ZM11.665 20.694a.592.592 0 1 1 1.184 0V23.3a.592.592 0 1 1-1.184 0v-2.606Z"/><path fill="var(--icon-secondary)" d="M13.56 21.405a.592.592 0 1 1 0 1.183h-2.606a.592.592 0 0 1 0-1.183h2.606Z"/></g><defs><clipPath id="abfilters__a"><path fill="#fff" d="M0 0h24v24H0z"/></clipPath></defs></symbol><symbol xmlns="http://www.w3.org/2000/svg" id="cold" fill="none" viewBox="0 0 24 24"><path fill="#CCD0E5" d="M22.05 13.557a.81.81 0 0 1-.445 1.055l-2.25.916 2.082 1.251a.81.81 0 1 1-.834 1.389l-2.083-1.252.248 2.418a.81.81 0 0 1-1.61.165l-.373-3.626-3.98-2.39v4.643l2.915 2.187a.81.81 0 1 1-.972 1.296l-1.944-1.458v2.43a.81.81 0 1 1-1.62 0v-2.43L9.24 21.609a.81.81 0 0 1-.972-1.296l2.916-2.187v-4.644l-3.98 2.392L6.83 19.5a.81.81 0 0 1-1.611-.166l.248-2.417-2.082 1.251a.81.81 0 1 1-.835-1.388l2.083-1.252-2.25-.915a.81.81 0 0 1 .61-1.5l3.376 1.372 4.052-2.434L6.37 9.615l-3.377 1.373a.81.81 0 0 1-.61-1.5l2.25-.916L2.551 7.32a.81.81 0 1 1 .834-1.388l2.083 1.252-.248-2.418A.81.81 0 1 1 6.83 4.6l.373 3.626 3.98 2.392V5.975L8.268 3.788a.81.81 0 1 1 .972-1.296l1.944 1.458V1.52a.81.81 0 0 1 1.62 0v2.43l1.944-1.458a.81.81 0 1 1 .972 1.296l-2.916 2.187v4.644l3.98-2.392.373-3.626a.81.81 0 0 1 1.611.166l-.248 2.417 2.083-1.251a.81.81 0 1 1 .834 1.388l-2.083 1.252 2.25.915a.81.81 0 0 1-.61 1.5l-3.376-1.372-4.051 2.434 4.052 2.435 3.376-1.373a.809.809 0 0 1 1.055.445Z"/></symbol><symbol xmlns="http://www.w3.org/2000/svg" id="cold-muted" fill="none" viewBox="0 0 24 24"><path fill="#8F8F8F" d="M22.05 13.557a.81.81 0 0 1-.445 1.055l-2.25.916 2.082 1.251a.81.81 0 1 1-.834 1.389l-2.083-1.252.248 2.418a.81.81 0 0 1-1.61.165l-.373-3.626-3.98-2.39v4.643l2.915 2.187a.81.81 0 1 1-.972 1.296l-1.944-1.458v2.43a.81.81 0 1 1-1.62 0v-2.43L9.24 21.609a.81.81 0 0 1-.972-1.296l2.916-2.187v-4.644l-3.98 2.392L6.83 19.5a.81.81 0 0 1-1.611-.166l.248-2.417-2.082 1.251a.81.81 0 1 1-.835-1.388l2.083-1.252-2.25-.915a.81.81 0 0 1 .61-1.5l3.376 1.372 4.052-2.434L6.37 9.615l-3.377 1.373a.81.81 0 0 1-.61-1.5l2.25-.916L2.551 7.32a.81.81 0 1 1 .834-1.388l2.083 1.252-.248-2.418A.81.81 0 1 1 6.83 4.6l.373 3.626 3.98 2.392V5.975L8.268 3.788a.81.81 0 1 1 .972-1.296l1.944 1.458V1.52a.81.81 0 0 1 1.62 0v2.43l1.944-1.458a.81.81 0 1 1 .972 1.296l-2.916 2.187v4.644l3.98-2.392.373-3.626a.81.81 0 0 1 1.611.166l-.248 2.417 2.083-1.251a.81.81 0 1 1 .834 1.388l-2.083 1.252 2.25.915a.81.81 0 0 1-.61 1.5l-3.376-1.372-4.051 2.434 4.052 2.435 3.376-1.373a.809.809 0 0 1 1.055.445Z"/></symbol><symbol xmlns="http://www.w3.org/2000/svg" id="feature-buys" fill="none" viewBox="0 0 24 24"><g clip-path="url(#aefilters__a)"><path fill="var(--icon-secondary)" d="M6 22.5a5 5 0 1 0 0-10 5 5 0 0 0 0 10Z"/><path fill="var(--icon-secondary)" d="M9 16.75H3v1.5h6v-1.5Z"/><path fill="#000" d="M9 16.75H3v1.5h6v-1.5Z"/><path fill="var(--icon-secondary)" d="M6.75 14.5h-1.5v6h1.5v-6Z"/><path fill="#000" d="M6.75 14.5h-1.5v6h1.5v-6Z"/><path fill="var(--icon-primary)" d="M20.44 16.78c.6 0 1.08-.49 1.08-1.08v-4.38c-.11.02-.22.03-.33.03-.16 0-.31-.03-.45-.06v4.36c0 .38-.31.68-.68.68h-1.58v.45h1.96Z"/><path fill="var(--icon-secondary)" d="M21.64 15.64v-4.36l-.12.03v4.38c0 .6-.49 1.08-1.08 1.08h-1.96v.45h1.58c.88 0 1.59-.71 1.59-1.59l-.01.01Z"/><path fill="var(--icon-primary)" d="M4.91 9.09h3.62v2.98c.32.15.62.32.9.52V9.1h3.62v4.52h-2.49c.13.15.26.31.37.48h6.74c.32 0 .58-.26.58-.58V8.19H4.01v3.67c.29-.1.59-.19.91-.24V9.1l-.01-.01Zm9.04 0h3.62v4.52h-3.62V9.09Zm-2.17 9.98h5.41c.59 0 1.06-.47 1.06-1.06v-.78h-.22v-.9h.22v-1.36h-6.82c.36.77.56 1.62.56 2.53 0 .54-.08 1.07-.22 1.57h.01Zm1.27-2.29h3.62v.9h-3.62v-.9Z"/><path fill="var(--icon-primary)" d="M18.25 16.33h-.22v.45h.22v-.45Zm0 .45h-.22v.45h.22v-.45Zm4.71-7.61c.02.12.04.24.04.37 0-.13-.01-.25-.04-.37Zm-2.29 2.1s.04.01.06.02c0 0-.04-.01-.06-.02Zm2.18-2.44c.04.09.07.2.1.3-.02-.1-.05-.2-.1-.3Zm-2.11 1.79c1 0 1.81-.81 1.81-1.81 0-.2-.04-.39-.1-.57a1.81 1.81 0 0 0-1.26-.52 1.81 1.81 0 0 0-1.08 3.26 1.8 1.8 0 0 1-.63-.88c.33.32.77.51 1.26.51v.01Zm0 .66c.15.05.3.07.45.07-.16 0-.31-.04-.45-.07Z"/><path fill="var(--icon-secondary)" d="m20.67 11.27-.09-.03.09.03Zm2.19-1.02c-.09.22-.22.41-.39.57.16-.16.3-.36.39-.57Zm.09-1.12s.01.03.01.05c0-.02-.01-.03-.01-.05Zm-2.82 1.88s-.01 0-.02-.01c0 0 .01 0 .02.01Zm2.34-.19Z"/><path fill="var(--icon-secondary)" d="M20.74 11.13h.9v.16c.09-.02.17-.04.25-.08.22-.09.41-.22.58-.39.17-.17.3-.36.39-.57a1.822 1.822 0 0 0 .1-1.07c0-.02-.01-.03-.01-.05-.02-.1-.05-.2-.1-.3v-.02c-.1-.21-.23-.4-.39-.56.06.18.1.37.1.57a1.81 1.81 0 0 1-3.07 1.3c.12.35.34.66.63.88 0 0 .01 0 .02.01.14.1.29.18.45.24l.09.03c.02 0 .04 0 .06.01v-.16Z"/><path fill="var(--icon-secondary)" d="M20.74 11.13v.15c.15.04.29.07.45.07.11 0 .23-.01.33-.03v-.19h-.79.01Zm.9 0h-.12v.19l.12-.03v-.16Z"/><path fill="var(--icon-primary)" d="M18.25 6.74V5.21c0-.1-.03-.2-.06-.29.09.09.16.2.21.32-.16-.39-.53-.67-.98-.67h-.78c-.02-.15-.05-.3-.08-.45C16.06 2.06 13.87.5 11.24.5 8.61.5 6.43 2.05 5.92 4.11c-.04.15-.06.3-.08.46h-.78c-.15 0-.29.03-.41.08-.25.11-.46.31-.56.56-.05.13-.08.27-.08.41V7.3h13.67c.32 0 .58-.26.58-.58l-.01.02Zm-7.01-5.63c2.4 0 4.41 1.47 4.95 3.46h-.46c-.02-.15-.06-.3-.11-.44.05.14.08.29.11.44H6.3c.54-1.98 2.55-3.46 4.95-3.46h-.01Zm6.33 5.72H4.91v-.9h12.66v.9Z"/><path fill="var(--icon-secondary)" d="M17.67 14.1h-6.74c.09.14.18.28.26.42h7.28V8.19h-.23v5.33c0 .32-.26.58-.58.58h.01Zm.52-9.18c.03.09.06.19.06.29v1.53c0 .32-.26.58-.58.58H4.01v.42h14.47V5.63c0-.14-.03-.27-.08-.39a.988.988 0 0 0-.21-.32Zm.29 10.05h-.23v1.36h.23v-1.36Zm-.23 3.04c0 .59-.47 1.06-1.06 1.06h-5.41c-.04.14-.09.28-.14.42h5.77c.59 0 1.06-.47 1.06-1.06v-1.2h-.23v.78h.01Z"/><path fill="var(--icon-secondary)" d="M18.48 16.33h-.23v.45h.23v-.45Zm0 .45h-.23v.45h.23v-.45ZM12.74 1.61c.7.2 1.33.53 1.83.97-.5-.43-1.12-.77-1.83-.97ZM7.09 3.6c-.1.18-.18.38-.24.57v.02-.02c.06-.2.14-.39.24-.57Zm.8-1Zm-.8 1Zm7.48-1.03c.5.43.86.96 1.05 1.54-.19-.58-.56-1.11-1.05-1.54Z"/><path fill="var(--icon-secondary)" d="M6.84 4.19v-.02c.06-.2.14-.39.24-.57.2-.37.47-.7.8-1 .33-.29.72-.54 1.16-.74.65-.29 1.4-.46 2.2-.46.53 0 1.03.07 1.5.2.7.2 1.33.53 1.83.97.5.44.86.96 1.05 1.54.05.14.08.29.11.44h.46c-.54-1.98-2.55-3.46-4.95-3.46-2.4 0-4.41 1.47-4.95 3.46h.46c.02-.13.05-.26.09-.38v.02Zm-.02 7.37s0-.02.01-.02c.16-.28.28-.52.38-.72H6.7c-.21 0-.35 0-.43.01-.07 0-.13.02-.15.05-.02.03-.05.06-.08.11-.02.05-.04.11-.06.19l-.22-.04c.04-.16.07-.32.1-.48.02-.16.04-.32.05-.48l.39.03h.87c.16 0 .36-.02.6-.03l.13.24c-.18.22-.36.52-.55.92-.04.09-.08.2-.12.3.45.1.88.25 1.29.44V9.1H4.9v2.52c.35-.07.72-.11 1.09-.11.28 0 .55.03.82.06l.01-.01Zm6.23-2.47H9.43v3.49c.42.29.8.64 1.13 1.03h2.49V9.09Zm-1.16 2.24c-.18.39-.35.85-.5 1.36h-.68c.28-.49.5-.87.66-1.15.16-.28.28-.52.38-.72h-.51c-.21 0-.35 0-.43.01-.07 0-.13.02-.15.05-.02.03-.05.06-.08.11-.02.05-.04.11-.06.19l-.22-.04c.04-.16.07-.32.1-.48.02-.16.04-.32.05-.48l.39.03h.87c.16 0 .36-.02.6-.03l.13.24c-.18.22-.36.52-.55.92v-.01Zm5.68-2.24h-3.62v4.52h3.62V9.09Zm-1.16 2.24c-.18.39-.35.85-.5 1.36h-.68c.28-.49.5-.87.66-1.15.16-.28.28-.52.38-.72h-.51c-.21 0-.35 0-.43.01-.08.01-.13.02-.15.05-.02.03-.05.06-.08.11-.02.05-.04.11-.06.19l-.22-.04c.04-.16.07-.32.1-.48.02-.16.04-.32.05-.48l.39.03h.87c.16 0 .36-.02.6-.03l.13.24c-.18.22-.36.52-.55.92v-.01Z"/></g><defs><clipPath id="aefilters__a"><path fill="#fff" d="M1 .5h22v22H1z"/></clipPath></defs></symbol><symbol xmlns="http://www.w3.org/2000/svg" id="high-roller" fill="none" viewBox="0 0 24 24"><path fill="var(--icon-primary)" d="m23.554 5.18-3.647 11.442v2.346H4.093v-2.346L.446 5.18l7.1 4.963L12 2.974l4.453 7.17 7.101-4.963Z"/><path fill="var(--icon-secondary)" d="M4.093 16.697h15.814v2.27H4.093v-2.27Z"/></symbol><symbol xmlns="http://www.w3.org/2000/svg" id="high-rtp" fill="none" viewBox="0 0 24 24"><g clip-path="url(#agfilters__a)"><circle cx="12" cy="12.85" r="10.5" fill="var(--icon-secondary)"/><path fill="var(--icon-primary)" d="M6.908 2.673a.578.578 0 1 1 1.156 0v2.544a.578.578 0 0 1-1.156 0V2.673Z"/><path fill="var(--icon-primary)" d="M8.758 3.367a.578.578 0 0 1 0 1.156H6.214a.578.578 0 1 1 0-1.156h2.544Zm4.516 2.454a.578.578 0 0 1 1.155 0v2.545a.578.578 0 0 1-1.155 0V5.82Z"/><path fill="var(--icon-primary)" d="M15.123 6.516a.578.578 0 1 1 0 1.155H12.58a.578.578 0 1 1 0-1.155h2.544Zm6.013 8.084a.578.578 0 0 1 1.156 0v2.544a.578.578 0 0 1-1.156 0V14.6Z"/><path fill="var(--icon-primary)" d="M22.986 15.294a.578.578 0 0 1 0 1.156h-2.544a.578.578 0 0 1 0-1.156h2.544Zm-13.638.295a.578.578 0 1 1 1.155 0v2.544a.578.578 0 0 1-1.155 0V15.59Z"/><path fill="var(--icon-primary)" d="M11.197 16.283a.578.578 0 1 1 0 1.156H8.653a.578.578 0 0 1 0-1.156h2.544Zm3.72 4.397a.578.578 0 1 1 1.155 0v2.544a.578.578 0 1 1-1.155 0V20.68Z"/><path fill="var(--icon-primary)" d="M16.766 21.374a.578.578 0 1 1 0 1.156h-2.544a.578.578 0 0 1 0-1.156h2.544ZM1.827 8.409a.578.578 0 1 1 1.156 0v2.544a.578.578 0 1 1-1.156 0V8.41Z"/><path fill="var(--icon-primary)" d="M3.677 9.103a.578.578 0 0 1 0 1.156H1.133a.578.578 0 0 1 0-1.156h2.544Z"/><path fill="#000" fill-rule="evenodd" d="M23.1 6.52c.479 0 .866.387.866.865v4.576a.865.865 0 1 1-1.73 0V9.435l-6.673 6.498a.865.865 0 0 1-1.21-.003l-3.758-3.699-8.251 7.134a.865.865 0 0 1-1.132-1.308l8.856-7.656a.865.865 0 0 1 1.172.037l3.723 3.665 6.01-5.853h-2.448a.865.865 0 1 1 0-1.73h4.576Z" clip-rule="evenodd" opacity=".2"/><path fill="var(--icon-primary)" fill-rule="evenodd" d="M22.546 5.966c.478 0 .865.388.865.865v4.576a.865.865 0 0 1-1.73 0V8.881l-6.673 6.5a.865.865 0 0 1-1.21-.004l-3.758-3.7-8.251 7.135a.865.865 0 0 1-1.131-1.309l8.855-7.656a.865.865 0 0 1 1.172.038l3.723 3.665 6.01-5.854H17.97a.865.865 0 1 1 0-1.73h4.576Z" clip-rule="evenodd"/></g><defs><clipPath id="agfilters__a"><path fill="#fff" d="M0 0h24v24H0z"/></clipPath></defs></symbol><symbol xmlns="http://www.w3.org/2000/svg" id="hot" fill="none" viewBox="0 0 24 24"><path fill="#FF6B2F" d="M11.883.71C10.616 3.55 9.66 4.954 7.898 7.42c-.527-.717-.662-1.284-.878-2.379-1.041 1.636-3.387 4.167-3.384 8.7.003 6.542 4.194 9.317 7.736 9.317 3.537 0 8.748-.958 8.988-8.927.191-6.375-5.202-11.505-8.477-13.42Z"/><path fill="#FF9A59" d="M6.335 18.141c-1.785-4.078 2.898-9.143 5.62-10.983 2.441 1.77 6.712 6.59 5.304 10.983-1.58 4.931-8.73 5.009-10.924 0Z"/></symbol><symbol xmlns="http://www.w3.org/2000/svg" id="hot-muted" fill="none" viewBox="0 0 24 24"><path fill="#696969" d="M11.883.71C10.616 3.55 9.66 4.954 7.898 7.42c-.527-.717-.662-1.284-.878-2.379-1.041 1.636-3.387 4.167-3.384 8.7.003 6.542 4.194 9.317 7.736 9.317 3.537 0 8.748-.958 8.988-8.927.191-6.375-5.202-11.505-8.477-13.42Z"/><path fill="#8F8F8F" d="M6.335 18.141c-1.785-4.078 2.898-9.143 5.62-10.983 2.441 1.77 6.712 6.59 5.304 10.983-1.58 4.931-8.73 5.009-10.924 0Z"/></symbol><symbol xmlns="http://www.w3.org/2000/svg" id="hot-purple" fill="none" viewBox="0 0 28 28"><path fill="#8D52DA" d="M14.364 1.58c-1.479 3.312-2.595 4.95-4.65 7.826C9.1 8.57 8.942 7.908 8.69 6.63 7.475 8.54 4.739 11.49 4.742 16.78c.004 7.633 4.893 10.87 9.026 10.87 4.126 0 10.205-1.118 10.485-10.415.224-7.438-6.069-13.422-9.889-15.656Z"/><path fill="#CCA6FF" d="M7.891 21.915c-2.083-4.758 3.38-10.667 6.557-12.813 2.847 2.064 7.83 7.687 6.188 12.813-1.843 5.753-10.186 5.843-12.745 0Z"/></symbol><symbol xmlns="http://www.w3.org/2000/svg" id="hyper" fill="none" viewBox="0 0 24 24"><g clip-path="url(#akfilters__a)"><path fill="var(--icon-secondary)" d="M23.092 14.172a9.82 9.82 0 0 1-3.08 7.162.403.403 0 0 1-.622-.496 9.891 9.891 0 0 0 .464-8.509 9.92 9.92 0 0 1 .173 1.843 9.814 9.814 0 0 1-8.243 9.707 9.743 9.743 0 0 1-9.122-3.509 9.803 9.803 0 0 1-.693-1.036.403.403 0 0 1 .625-.496.845.845 0 0 0 .088.08 10.727 10.727 0 0 0 3.827 2.307 9.748 9.748 0 0 0 7.835-.835.405.405 0 0 0-.351-.725 9.551 9.551 0 0 1-1.83.476 9.177 9.177 0 0 1-1.536.125 9.836 9.836 0 0 1-6.69-16.99.4.4 0 0 1 .617.496 9.888 9.888 0 0 0-.46 8.517c-.115-.61-.173-1.23-.174-1.851A9.81 9.81 0 0 1 12.163.73a9.735 9.735 0 0 1 9.118 3.509c.255.33.488.676.698 1.036a.405.405 0 0 1-.629.496c-.028-.028-.056-.057-.085-.08a10.745 10.745 0 0 0-3.83-2.308 9.743 9.743 0 0 0-7.83.834.404.404 0 0 0 .35.726 9.613 9.613 0 0 1 1.83-.475 9.174 9.174 0 0 1 1.532-.125 9.78 9.78 0 0 1 9.775 9.828Z"/><g fill="#000" opacity=".2"><path d="M12.591 16.479a3.63 3.63 0 1 0 0-7.26 3.63 3.63 0 0 0 0 7.26Z"/><path d="M18.237 13.252a.403.403 0 0 1-.404-.403 5.25 5.25 0 0 0-5.242-5.242.403.403 0 0 1 0-.807 6.056 6.056 0 0 1 6.049 6.05.403.403 0 0 1-.403.402Zm-5.646 5.646a6.056 6.056 0 0 1-6.049-6.049.403.403 0 0 1 .807 0 5.249 5.249 0 0 0 5.242 5.243.403.403 0 0 1 0 .806Z"/></g><path fill="var(--icon-primary)" d="M11.99 15.934a3.63 3.63 0 1 0 0-7.259 3.63 3.63 0 0 0 0 7.26Z"/><path fill="var(--icon-primary)" d="M17.635 12.708a.404.404 0 0 1-.403-.403 5.248 5.248 0 0 0-5.243-5.243.403.403 0 0 1 0-.806 6.056 6.056 0 0 1 6.05 6.049.403.403 0 0 1-.404.403Zm-5.645 5.646a6.056 6.056 0 0 1-6.05-6.049.403.403 0 0 1 .807 0 5.249 5.249 0 0 0 5.243 5.243.403.403 0 0 1 0 .806Z"/></g><defs><clipPath id="akfilters__a"><path fill="#fff" d="M0 0h24v24H0z"/></clipPath></defs></symbol><symbol xmlns="http://www.w3.org/2000/svg" id="live" fill="none" viewBox="0 0 24 24"><g clip-path="url(#alfilters__a)"><path fill="var(--icon-secondary)" d="M8.39 13h7.22c2.97 0 5.39 2.41 5.39 5.39V23H3v-4.61C3 15.42 5.41 13 8.39 13Z"/><path fill="var(--icon-primary)" d="M8.39 13c-.22 0-.44.04-.65.07l3.4 9.93h1.73l3.4-9.93c-.22-.03-.43-.07-.65-.07H8.39ZM12 13a4.87 4.87 0 1 0 0-9.74A4.87 4.87 0 0 0 12 13Z"/><path fill="var(--icon-secondary)" fill-rule="evenodd" d="M15.38 4.64c.16.48.27.99.27 1.53a4.87 4.87 0 0 1-4.87 4.87c-1.32 0-2.54-.53-3.42-1.38A4.882 4.882 0 0 0 11.99 13a4.87 4.87 0 0 0 4.87-4.87c0-1.37-.57-2.61-1.49-3.49h.01Z" clip-rule="evenodd"/><path fill="var(--icon-secondary)" d="M6 12c.02-5.48-.13-11 6-11s5.98 5.52 6 11h-4s2.16-1.34 2.17-1.77c.01-.82.03-1.04.03-1.45V6.66c0-.29-.24-.53-.53-.53H8.32c-.29 0-.53.24-.53.53v3.79c0 .47 1.94 1.56 1.94 1.56H5.99L6 12Z"/><path fill="#000" d="m14.76 14.5-1.89.69a.913.913 0 0 0-1.72.01l-1.92-.7v2.01l1.92-.7a.913.913 0 0 0 1.72.01l1.89.69V14.5Z"/></g><defs><clipPath id="alfilters__a"><path fill="#fff" d="M3 1h18v22H3z"/></clipPath></defs></symbol><symbol xmlns="http://www.w3.org/2000/svg" id="new" fill="none" viewBox="0 0 24 24"><path fill="var(--icon-secondary)" d="M10.659 1.105a2.477 2.477 0 0 1 2.682 0l1.606 1.035c.311.2.663.328 1.03.375l1.895.24a2.477 2.477 0 0 1 2.056 1.724l.564 1.824c.11.354.297.679.549.95l1.297 1.401c.66.714.843 1.747.466 2.643l-.74 1.76c-.143.342-.208.71-.19 1.08l.093 1.908c.047.97-.477 1.88-1.341 2.324l-1.699.873c-.33.169-.616.41-.84.705l-1.155 1.52a2.477 2.477 0 0 1-2.521.919l-1.862-.424a2.475 2.475 0 0 0-1.098 0l-1.862.424a2.477 2.477 0 0 1-2.521-.918l-1.155-1.521a2.475 2.475 0 0 0-.84-.705l-1.698-.873a2.477 2.477 0 0 1-1.342-2.324l.093-1.907c.018-.37-.047-.74-.19-1.08l-.74-1.761a2.477 2.477 0 0 1 .466-2.643l1.297-1.4c.252-.272.44-.597.549-.95l.564-1.825a2.477 2.477 0 0 1 2.056-1.725l1.894-.24c.368-.046.72-.174 1.031-.374l1.605-1.035Z"/><path fill="#000" d="M5.344 14.543H3.929v-4.092h1.473l2.181 2.338v-2.338h1.415v4.092H7.43L5.344 12.24v2.303Zm8.558 0h-4.32v-4.092h4.32v1.046H10.99v.55h2.719v.86H10.99v.572h2.912v1.064Zm3.168 0h-1.508l-1.345-4.092h1.532l.702 2.414.771-2.186h1.362l.766 2.186.702-2.414h1.537l-1.35 4.092h-1.503l-.836-2.39-.83 2.39Z" opacity=".2"/><path fill="var(--icon-primary)" d="M4.91 14.046H3.494V9.954h1.473l2.18 2.339V9.954h1.415v4.092H6.997l-2.088-2.303v2.303Zm8.557 0h-4.32V9.954h4.32v1.047h-2.911v.55h2.718v.858h-2.718v.573h2.911v1.065Zm3.169 0h-1.509l-1.344-4.092h1.532l.701 2.415.772-2.187h1.362l.766 2.187.701-2.415h1.538l-1.35 4.092h-1.503l-.836-2.39-.83 2.39Z"/></symbol><symbol xmlns="http://www.w3.org/2000/svg" id="rng" fill="none" viewBox="0 0 22 22"><g clip-path="url(#anfilters__a)"><path fill="var(--icon-primary)" d="M14.801 15.965H10.02V14.17c0-1.822.657-2.758 2.175-3.39l1.24-.608c.784-.354 1.088-.708 1.088-1.416v-.228c0-.784-.683-1.215-1.872-1.215h-.152c-1.265 0-1.948.557-2.075 1.367l-.1.961H5.591v-.885c.025-3.112 2.302-5.44 6.831-5.44h.278c4.175 0 6.604 1.847 6.604 4.934v.303c0 1.948-.86 3.01-2.378 3.82l-1.442.937c-.481.278-.684.582-.684 1.189v1.467Zm.127 5.414h-5.01V17.66h5.01v3.72Z"/><path fill="var(--icon-secondary)" d="M14.175 15.423H9.393v-1.796c0-1.822.658-2.758 2.176-3.39l1.24-.608c.784-.354 1.087-.708 1.087-1.416v-.228c0-.784-.683-1.215-1.872-1.215h-.152c-1.265 0-1.948.557-2.074 1.367l-.102.961h-4.73v-.885c.025-3.112 2.302-5.44 6.83-5.44h.279c4.174 0 6.603 1.847 6.603 4.934v.303c0 1.948-.86 3.01-2.378 3.82l-1.442.937c-.481.278-.683.582-.683 1.189v1.467Zm.126 5.414h-5.01v-3.719h5.01v3.72Z"/><circle cx="10.7" cy="1.39" r=".3" fill="var(--icon-secondary)"/><circle cx="20.11" cy="8.08" r=".3" fill="var(--icon-secondary)"/><circle cx="5.95" cy="18.99" r=".3" fill="var(--icon-secondary)"/></g><defs><clipPath id="anfilters__a"><path fill="#fff" d="M0 0h21v21H0z" transform="translate(.75 .794)"/></clipPath></defs></symbol><symbol xmlns="http://www.w3.org/2000/svg" id="top-10" fill="none" viewBox="0 0 24 24"><path fill="var(--icon-secondary)" d="M10.659 1.105a2.477 2.477 0 0 1 2.682 0l1.606 1.035c.311.2.663.328 1.03.375l1.895.24a2.477 2.477 0 0 1 2.056 1.724l.564 1.824c.11.354.297.679.549.95l1.297 1.401c.66.714.843 1.747.466 2.643l-.74 1.76c-.143.342-.208.71-.19 1.08l.093 1.908c.047.97-.477 1.88-1.341 2.324l-1.699.873c-.33.169-.616.41-.84.705l-1.155 1.52a2.477 2.477 0 0 1-2.521.919l-1.862-.424a2.475 2.475 0 0 0-1.098 0l-1.862.424a2.477 2.477 0 0 1-2.521-.918l-1.155-1.521a2.475 2.475 0 0 0-.84-.705l-1.698-.873a2.477 2.477 0 0 1-1.342-2.324l.093-1.907c.018-.37-.047-.74-.19-1.08l-.74-1.761a2.477 2.477 0 0 1 .466-2.643l1.297-1.4c.252-.272.44-.597.549-.95l.564-1.825a2.477 2.477 0 0 1 2.056-1.725l1.894-.24c.368-.046.72-.174 1.031-.374l1.605-1.035Z"/><path fill="#000" d="M7.94 10.935H6.625V8.231h-1.59V7.224H9.53v1.007H7.94v2.704Zm4.787.075h-1.055c-1.14 0-1.961-.711-1.961-1.888v-.09c0-1.172.822-1.882 1.967-1.882h1.05c1.14 0 1.96.71 1.96 1.882v.09c0 1.177-.82 1.887-1.96 1.887Zm-.869-1.019h.69c.487 0 .81-.275.81-.842V9.01c0-.573-.323-.843-.81-.843h-.69c-.488 0-.811.27-.811.843v.138c0 .567.323.842.811.842Zm4.59.944h-1.31v-3.71h2.678c1.007 0 1.627.44 1.627 1.372 0 .933-.62 1.368-1.627 1.368h-1.368v.97Zm0-1.924h1.267c.26 0 .419-.133.419-.387v-.059c0-.249-.16-.387-.42-.387h-1.266v.833ZM9.811 18.31H7.554v-3.768H5.515v-1.674h1.302c.5 0 .746-.228.746-.729v-.2h2.248v6.372Zm5.9.128H13.9c-1.93 0-3.322-1.192-3.322-3.24v-.155c0-2.039 1.392-3.231 3.33-3.231h1.803c1.93 0 3.322 1.192 3.322 3.231v.155c0 2.048-1.392 3.24-3.322 3.24Zm-1.493-1.747h1.184c.81 0 1.347-.447 1.347-1.448v-.236c0-1.002-.537-1.448-1.347-1.448h-1.184c-.81 0-1.347.446-1.347 1.448v.236c0 1.001.537 1.447 1.347 1.447Z" opacity=".2"/><path fill="var(--icon-primary)" d="M7.543 10.358H6.228V7.655h-1.59V6.647h4.495v1.008h-1.59v2.703Zm4.787.075h-1.055c-1.14 0-1.961-.71-1.961-1.888v-.09c0-1.171.822-1.882 1.967-1.882h1.05c1.14 0 1.961.71 1.961 1.882v.09c0 1.177-.822 1.888-1.962 1.888Zm-.869-1.018h.69c.487 0 .81-.276.81-.843v-.138c0-.573-.323-.843-.81-.843h-.69c-.488 0-.811.27-.811.843v.138c0 .567.323.843.811.843Zm4.589.943h-1.309v-3.71h2.678c1.007 0 1.627.44 1.627 1.373s-.62 1.367-1.627 1.367H16.05v.97Zm0-1.924h1.268c.26 0 .419-.132.419-.387v-.058c0-.25-.16-.387-.42-.387h-1.266v.832Zm-6.636 9.3H7.157v-3.768H5.118V12.29H6.42c.5 0 .746-.228.746-.728v-.2h2.248v6.37Zm5.9.127h-1.811c-1.93 0-3.322-1.192-3.322-3.24v-.155c0-2.038 1.392-3.23 3.33-3.23h1.803c1.93 0 3.322 1.191 3.322 3.23v.155c0 2.048-1.392 3.24-3.322 3.24Zm-1.493-1.747h1.184c.81 0 1.347-.446 1.347-1.447v-.237c0-1.001-.537-1.447-1.347-1.447H13.82c-.81 0-1.347.446-1.347 1.447v.237c0 1 .537 1.447 1.347 1.447Z"/></symbol><symbol xmlns="http://www.w3.org/2000/svg" id="trending" fill="none" viewBox="0 0 24 24"><g clip-path="url(#apfilters__a)"><rect width="22" height="22" x="1" y="1" fill="var(--icon-secondary)" rx="11"/><g fill="#000" opacity=".2"><path fill-rule="evenodd" d="M4.697 7.257c0-.48.4-.868.892-.868h4.003a.88.88 0 0 1 .892.868v3.898c0 .48-.4.869-.892.869a.88.88 0 0 1-.892-.869V9.354l-10.826 10.54a.91.91 0 0 1-1.26 0 .852.852 0 0 1 0-1.227L7.438 8.126H5.59a.88.88 0 0 1-.892-.869Z" clip-rule="evenodd"/><path fill-rule="evenodd" d="M5.118 15.213a.88.88 0 0 1 .891-.869h4.004a.88.88 0 0 1 .892.869v3.898c0 .48-.4.868-.892.868a.88.88 0 0 1-.892-.868v-1.802L-1.705 27.85a.909.909 0 0 1-1.261 0 .852.852 0 0 1 0-1.228L7.86 16.082H6.01a.88.88 0 0 1-.892-.87Z" clip-rule="evenodd"/><path fill-rule="evenodd" d="M13.289 15.622a.88.88 0 0 1 .892-.868h4.003a.88.88 0 0 1 .892.868v3.898c0 .48-.4.869-.892.869a.88.88 0 0 1-.892-.869v-1.8L6.466 28.259a.909.909 0 0 1-1.261 0 .852.852 0 0 1 0-1.227L16.03 16.49h-1.85a.88.88 0 0 1-.892-.869Z" clip-rule="evenodd"/><path d="M16.585 11.738c1.919 0 3.475-1.515 3.475-3.384 0-1.868-1.556-3.383-3.475-3.383S13.11 6.486 13.11 8.354c0 1.869 1.556 3.384 3.475 3.384Z"/></g><path fill="var(--icon-primary)" fill-rule="evenodd" d="M4.07 6.76c0-.48.4-.869.892-.869h4.003a.88.88 0 0 1 .892.869v3.898c0 .48-.4.868-.892.868a.88.88 0 0 1-.892-.868V8.856L-2.753 19.397a.91.91 0 0 1-1.261 0 .852.852 0 0 1 0-1.228L6.812 7.628h-1.85a.88.88 0 0 1-.892-.868Z" clip-rule="evenodd"/><path fill="var(--icon-primary)" fill-rule="evenodd" d="M4.49 14.715c0-.48.4-.868.892-.868h4.003a.88.88 0 0 1 .892.868v3.898a.88.88 0 0 1-.892.869.88.88 0 0 1-.891-.869v-1.801l-10.826 10.54a.91.91 0 0 1-1.262 0 .852.852 0 0 1 0-1.227L7.232 15.584h-1.85a.88.88 0 0 1-.892-.869Z" clip-rule="evenodd"/><path fill="var(--icon-primary)" fill-rule="evenodd" d="M12.661 15.125c0-.48.4-.869.892-.869h4.003a.88.88 0 0 1 .892.869v3.898a.88.88 0 0 1-.892.868.88.88 0 0 1-.891-.868V17.22L5.839 27.762a.91.91 0 0 1-1.262 0 .852.852 0 0 1 0-1.228l10.826-10.54h-1.85a.88.88 0 0 1-.892-.87Z" clip-rule="evenodd"/><path fill="var(--icon-primary)" d="M15.958 11.24c1.919 0 3.474-1.515 3.474-3.383 0-1.869-1.555-3.383-3.474-3.383-1.92 0-3.475 1.514-3.475 3.383 0 1.868 1.556 3.383 3.475 3.383Z"/></g><defs><clipPath id="apfilters__a"><rect width="22" height="22" x="1" y="1" fill="#fff" rx="11"/></clipPath></defs></symbol></svg>