<svg width="0" height="0" style="position:absolute"><symbol xmlns="http://www.w3.org/2000/svg" id="adjustment-horizontal" fill="none" stroke="currentColor" stroke-width="1.5" viewBox="0 0 24 24"><path stroke-linecap="round" stroke-linejoin="round" d="M10.5 6h9.75M10.5 6a1.5 1.5 0 1 1-3 0m3 0a1.5 1.5 0 1 0-3 0M3.75 6H7.5m3 12h9.75m-9.75 0a1.5 1.5 0 0 1-3 0m3 0a1.5 1.5 0 0 0-3 0m-3.75 0H7.5m9-6h3.75m-3.75 0a1.5 1.5 0 0 1-3 0m3 0a1.5 1.5 0 0 0-3 0m-9.75 0h9.75"/></symbol><symbol xmlns="http://www.w3.org/2000/svg" id="arrow-top-right-on-square" fill="none" stroke="currentColor" stroke-width="1.5" viewBox="0 0 24 24"><path stroke-linecap="round" stroke-linejoin="round" d="M13.5 6H5.25A2.25 2.25 0 0 0 3 8.25v10.5A2.25 2.25 0 0 0 5.25 21h10.5A2.25 2.25 0 0 0 18 18.75V10.5m-10.5 6L21 3m0 0h-5.25M21 3v5.25"/></symbol><symbol xmlns="http://www.w3.org/2000/svg" id="arrow-up-down" fill="none" stroke="currentColor" stroke-width="1.5" viewBox="0 0 24 24"><path stroke-linecap="round" stroke-linejoin="round" d="M3 7.5 7.5 3m0 0L12 7.5M7.5 3v13.5m13.5 0L16.5 21m0 0L12 16.5m4.5 4.5V7.5"/></symbol><symbol xmlns="http://www.w3.org/2000/svg" id="barchart" fill="none" viewBox="0 0 36 36"><rect width="7.5" height="8.63" x=".75" y="26.63" fill="#997DBF" rx="1.5"/><rect width="7.5" height="17.25" x="9.75" y="18" fill="#997DBF" rx="1.5"/><rect width="7.5" height="25.88" x="18.75" y="9.38" fill="#CCA6FF" rx="1.5"/><rect width="7.5" height="34.5" x="27.75" y=".75" fill="#CCA6FF" rx="1.5"/></symbol><symbol xmlns="http://www.w3.org/2000/svg" id="check-badge" fill="none" stroke="currentColor" stroke-width="1.5" viewBox="0 0 24 24"><path stroke-linecap="round" stroke-linejoin="round" d="M9 12.75 11.25 15 15 9.75M21 12c0 1.268-.63 2.39-1.593 3.068a3.745 3.745 0 0 1-1.043 3.296 3.745 3.745 0 0 1-3.296 1.043A3.745 3.745 0 0 1 12 21c-1.268 0-2.39-.63-3.068-1.593a3.746 3.746 0 0 1-3.296-1.043 3.745 3.745 0 0 1-1.043-3.296A3.745 3.745 0 0 1 3 12c0-1.268.63-2.39 1.593-3.068a3.745 3.745 0 0 1 1.043-3.296 3.746 3.746 0 0 1 3.296-1.043A3.746 3.746 0 0 1 12 3c1.268 0 2.39.63 3.068 1.593a3.746 3.746 0 0 1 3.296 1.043 3.746 3.746 0 0 1 1.043 3.296A3.745 3.745 0 0 1 21 12Z"/></symbol><symbol xmlns="http://www.w3.org/2000/svg" id="check-circle" fill="none" stroke="currentColor" stroke-width="1.5" viewBox="0 0 24 24"><path stroke-linecap="round" stroke-linejoin="round" d="M9 12.75 11.25 15 15 9.75M21 12a9 9 0 1 1-18 0 9 9 0 0 1 18 0Z"/></symbol><symbol xmlns="http://www.w3.org/2000/svg" id="checkbox" fill="none" viewBox="0 0 42 42"><path stroke="#141114" stroke-linecap="round" stroke-linejoin="round" stroke-width="14" d="M35 10.5 15.75 29.75 7 21"/><path stroke="currentColor" stroke-linecap="round" stroke-linejoin="round" stroke-width="4" d="M35 10.5 15.75 29.75 7 21"/></symbol><symbol xmlns="http://www.w3.org/2000/svg" id="circle" fill="none" viewBox="0 0 24 24"><circle cx="12" cy="12" r="12" fill="currentColor"/></symbol><symbol xmlns="http://www.w3.org/2000/svg" id="circle-in-circle" fill="none" viewBox="0 0 11 11"><path fill="currentColor" fill-rule="evenodd" d="M5.5 1a4.5 4.5 0 1 0 0 9 4.5 4.5 0 0 0 0-9ZM0 5.5a5.5 5.5 0 1 1 11 0 5.5 5.5 0 0 1-11 0Z" clip-rule="evenodd"/><path fill="currentColor" d="M8.5 5.5a3 3 0 1 1-6 0 3 3 0 0 1 6 0Z"/></symbol><symbol xmlns="http://www.w3.org/2000/svg" id="core" fill="none" viewBox="0 0 775 64"><path fill="currentColor" d="M727.561 62.773h22.035V16.089H775V1.235h-72.843V16.09h25.404v46.684Zm-97.186 0h63.608V47.919h-42.201v-9.316h41.222V25.154h-41.222v-9.057h42.201V1.235h-63.608v61.538Zm-35.887-13.716h-22.475V38.16h22.475c3.639 0 5.866 1.76 5.866 5.102v.703c0 3.342-2.219 5.102-5.866 5.102m-.53-24.436h-21.945V14.96h21.945c3.198 0 5.066 1.67 5.066 4.569v.436c0 2.898-1.868 4.658-5.066 4.658m16.259 5.804v-.88c5.686-1.146 10.214-5.974 10.214-12.924 0-8.792-7.016-15.387-21.497-15.387h-56.942c7.815 7.031 12.261 17.227 12.261 29.974v1.493c0 12.836-4.438 23.032-12.261 30.063h54.813c17.409 0 25.323-7.298 25.323-18.72 0-7.912-5.067-11.956-11.903-13.627M507.084 46.15h-16.52v-28.3h16.52c8.884 0 13.681 4.658 13.681 12.391v3.342c0 7.734-4.797 12.57-13.681 12.57Zm-38.555 16.614h40.684c21.145 0 33.937-10.729 33.937-30.063V31.21c0-19.342-12.792-29.974-33.937-29.974h-40.684v61.538-.008Zm-53.834 1.227h10.923c19.897 0 31.8-11.076 31.8-29.715V1.234h-22.206v33.05c0 8.177-4.617 12.658-12.612 12.658h-4.887c-7.995 0-12.612-4.48-12.612-12.658V1.235h-22.116v33.05c0 18.64 11.812 29.715 31.718 29.715m-76.31-16.88H328c-8.175 0-13.591-4.569-13.591-13.974v-2.284c0-9.494 5.416-13.974 13.591-13.974h10.393c8.174 0 13.591 4.48 13.591 13.974v2.284c0 9.405-5.417 13.974-13.591 13.974ZM324.892 64h16.519c19.098 0 32.869-11.778 32.869-31.298V31.21C374.28 11.778 360.509 0 341.411 0h-16.438c-19.187 0-32.958 11.778-32.958 31.209v1.493c0 19.512 13.771 31.298 32.868 31.298M287.3 62.773V45.715h-36.336V1.235h-22.035v61.538H287.3ZM173.683 64h14.84c18.298 0 30.47-11.164 31.889-25.493l.09-.792h-22.475l-.18.792c-1.24 5.449-5.955 8.613-12.522 8.613H176.8c-7.905 0-13.412-4.747-13.412-14.151V31.03c0-9.404 5.507-14.151 13.412-14.151h8.525c6.575 0 11.282 3.164 12.522 8.613l.18.792h22.475l-.09-.792C218.993 11.253 207.262 0 188.523 0h-14.66c-19.008 0-32.869 11.778-32.869 31.209v1.493c0 19.512 13.771 31.298 32.689 31.298Zm-88.66-1.227h19.097c-4.886-7.475-7.554-17.671-7.554-30.765 0-13.094 2.668-23.209 7.554-30.765H85.022c-2.757 8.267-3.997 18.462-3.997 30.765s1.24 22.507 3.997 30.765Zm-29.32 0h21.145c-2.04-8.525-2.757-18.72-2.757-30.765 0-12.044.71-22.24 2.757-30.765H55.703c2.04 8.525 2.757 18.72 2.757 30.765 0 12.044-.71 22.24-2.757 30.765Zm-27.272 0h19.097c2.758-8.266 3.998-18.462 3.998-30.765s-1.24-22.506-3.998-30.765H28.431c4.886 7.556 7.554 17.76 7.554 30.765 0 13.005-2.668 23.298-7.554 30.765ZM0 62.773h20.077c5.596-7.209 8.794-17.405 8.794-30.765S25.673 8.541 20.077 1.243H0C7.815 7.75 12.523 17.946 12.523 32.008c0 14.063-4.708 24.267-12.523 30.765Zm112.466 0h20.077c-7.816-6.507-12.523-16.702-12.523-30.765 0-14.063 4.707-24.266 12.523-30.765h-20.077c-5.596 7.298-8.794 17.494-8.794 30.765s3.198 23.556 8.794 30.765Z"/></symbol><symbol xmlns="http://www.w3.org/2000/svg" id="dashboard" fill="none" viewBox="0 0 13 14"><path fill="#CCA6FF" d="M1.407.75H4.88c.64 0 1.157.64 1.157 1.157v2.547c0 .64-.518 1.157-1.157 1.157H1.407c-.64 0-1.157-.64-1.157-1.157V1.907C.25 1.267.768.75 1.407.75ZM8.12 8.389h3.473c.639 0 1.157.64 1.157 1.157v2.547c0 .64-.518 1.157-1.158 1.157H8.12c-.64 0-1.157-.64-1.157-1.157V9.546c0-.64.518-1.157 1.157-1.157Z"/><path fill="#997DBF" d="M8.12.75h3.473c.639 0 1.157.64 1.157 1.157v4.399c0 .639-.518 1.157-1.158 1.157H8.12c-.64 0-1.157-.64-1.157-1.157V1.907c0-.64.518-1.157 1.157-1.157ZM1.407 6.537H4.88c.64 0 1.157.64 1.157 1.158v4.398c0 .64-.518 1.157-1.157 1.157H1.407c-.64 0-1.157-.64-1.157-1.157V7.695c0-.64.518-1.158 1.157-1.158Z"/></symbol><symbol xmlns="http://www.w3.org/2000/svg" id="default" fill="none" viewBox="0 0 376 170"><g fill="currentColor" clip-path="url(#alothers__a)"><path d="M316.248.583c-32.457 56.328-32.457 112.69 0 169.018H375.5c-49.131-55.847-49.68-112.175 0-169.018h-59.252ZM158.014 169.635h59.492c-10.567-56.328-10.567-112.69 0-169.018h-59.492c10.533 57.427 10.67 111.626 0 169.018Z"/><path d="M296.487.583h-59.252c-10.945 56.328-10.945 112.69 0 169.018h59.252c-27.036-55.847-27.413-112.14 0-169.018Zm-236.769 0c32.457 56.328 32.457 112.69 0 169.018H.5C49.631 113.754 50.18 57.426.5.583h59.252-.034Z"/><path d="M79.48.583h59.252c10.945 56.328 10.945 112.69 0 169.018H79.48c27.036-55.847 27.413-112.14 0-169.018Z"/></g><defs><clipPath id="alothers__a"><path fill="#fff" d="M.5.583h375v169.052H.5z"/></clipPath></defs></symbol><symbol xmlns="http://www.w3.org/2000/svg" id="downwardarrow" fill="none" viewBox="0 0 36 36"><path fill="#CCA6FF" fill-rule="evenodd" d="m7.117 35.043 5.565-8.986a.429.429 0 0 0 .013-.442.427.427 0 0 0-.38-.223H9.86a.437.437 0 0 1-.432-.437v-8.568a.635.635 0 0 0-.629-.637H4.702a.633.633 0 0 0-.628.637v8.568a.437.437 0 0 1-.432.437H1.186a.423.423 0 0 0-.38.223.429.429 0 0 0 .01.442l5.569 8.986a.427.427 0 0 0 .732 0Z" clip-rule="evenodd"/><path fill="#CCA6FF" d="m35.182 26.057-5.565 8.986a.427.427 0 0 1-.732 0l-5.569-8.986a.429.429 0 0 1-.01-.442.427.427 0 0 1 .38-.223h2.456a.437.437 0 0 0 .432-.437v-8.568c0-.35.28-.637.628-.637H31.3c.344 0 .628.287.628.637v8.568c0 .24.196.437.433.437h2.456c.16 0 .3.082.379.223a.429.429 0 0 1-.013.442Z"/><path fill="#997DBF" d="m23.932 11.057-5.565 8.986a.427.427 0 0 1-.732 0l-5.569-8.986a.429.429 0 0 1-.01-.442.427.427 0 0 1 .38-.223h2.456a.437.437 0 0 0 .432-.437V1.387c0-.35.28-.637.628-.637h4.097c.344 0 .628.287.628.637v8.568c0 .24.196.437.433.437h2.456c.16 0 .3.083.379.223a.429.429 0 0 1-.013.442Z"/></symbol><symbol xmlns="http://www.w3.org/2000/svg" id="empty-betslip" fill="none" viewBox="0 0 121 120"><mask id="anothers__a" width="121" height="120" x="0" y="0" maskUnits="userSpaceOnUse" style="mask-type:luminance"><path fill="#fff" d="M120.5 0H.5v120h120V0Z"/></mask><g mask="url(#anothers__a)"><mask id="anothers__b" width="121" height="120" x="0" y="0" maskUnits="userSpaceOnUse" style="mask-type:luminance"><path fill="#fff" d="M120.5 0H.5v120h120V0Z"/></mask><g mask="url(#anothers__b)"><mask id="anothers__c" width="93" height="100" x="14" y="10" maskUnits="userSpaceOnUse" style="mask-type:luminance"><path fill="#fff" d="M106.373 10.333H14.5v99.4h91.873v-99.4Z"/></mask><g mask="url(#anothers__c)"><path fill="#FF9448" d="M105.343 25.373c-4.813-.94-7.856-2.87-6.96-5.943.11-.377-.2-2.05-.776-2.16l-2.93.737c-.47-.09-.944.036-1.16.31-.69.873-2.22 1.286-3.714 1-1.49-.287-2.573-1.197-2.64-2.207-.02-.313-.356-.593-.82-.683l-2.903-.55c-.463-.087-.937.036-1.163.303-.727.857-2.264 1.26-3.727.98s-2.49-1.173-2.51-2.167c-.004-.31-.327-.583-.78-.67l-2.847-.54c-.453-.086-.93.037-1.166.297-.76.84-2.304 1.237-3.74.963-1.434-.273-2.414-1.153-2.384-2.126.01-.304-.293-.574-.74-.657l-2.703-.513c-.544-.104-1.117.1-1.283.453-1.36 2.883-6.11 4.577-10.53 3.713-.547-.106-1.144.104-1.334.47l-33.956 63.64c-.314.61.406 2.747 1.096 2.927 5.563 1.45 7.73 5.447 5.254 10.703-.314.667.463 2.704 1.186 2.9l3.61.98c.597.164 1.287-.066 1.684-.56 1.253-1.56 3.436-2.286 5.323-1.783 1.89.507 2.527 1.48 2.527 2.5-.07.583.626 2.593 1.233 2.76l3.826 1.037c.61.166 1.3-.07 1.677-.574 1.197-1.6 3.367-2.346 5.3-1.83 1.94.52 3.207 2.194 3.077 4.094-.043.6.363 1.133.986 1.303l3.93 1.067c.627.17 1.314-.07 1.67-.587 1.134-1.64 3.297-2.407 5.28-1.877 1.99.534 3.357 2.25 3.317 4.2-.013.614.424 1.164 1.064 1.337l3.903 1.057c.79.213 1.6-.204 1.813-.934 1.674-5.733 8-8.943 14.22-7.323.78.203 1.55-.193 1.724-.887l18.076-72.826c.1-.404-.1-2.21-1.007-2.337l-.003.003Z"/><path fill="#FFA667" d="M64.784 11.523c.01-.303-.294-.57-.74-.653l-2.704-.51c-.543-.103-1.116.1-1.283.45-1.36 2.87-6.11 4.553-10.53 3.693-.547-.106-1.143.104-1.333.467L14.667 79.79c-.313.607-.013 1.243.677 1.423 5.563 1.444 8.176 6.75 5.7 11.98-.314.664.016 1.36.74 1.557l3.61.973a1.66 1.66 0 0 0 1.68-.556c1.253-1.55 3.436-2.274 5.32-1.774 1.89.504 3.063 2.13 2.846 3.97-.07.58.307 1.1.914 1.264l3.826 1.033c.61.167 1.3-.07 1.677-.57 1.197-1.59 3.367-2.333 5.3-1.82 1.94.517 3.207 2.183 3.077 4.073-.044.597.363 1.127.986 1.297l3.93 1.06c.627.17 1.314-.07 1.67-.587 1.134-1.63 3.297-2.393 5.28-1.866 1.99.53 3.354 2.24 3.317 4.18-.013.613.423 1.156 1.063 1.33l3.904 1.053c.79.213 1.6-.203 1.813-.93 1.673-5.707 8-8.897 14.22-7.283.78.203 1.55-.194 1.723-.884l18.077-72.463c.1-.403-.307-.823-.91-.94-4.813-.937-7.957-4.24-7.06-7.3.11-.377-.27-.767-.847-.877l-2.86-.54c-.47-.09-.943.037-1.16.307-.69.867-2.22 1.28-3.713.993-1.493-.286-2.573-1.19-2.64-2.196-.02-.314-.357-.59-.82-.68l-2.903-.547c-.464-.087-.937.037-1.164.303-.726.854-2.263 1.254-3.726.974-1.464-.28-2.49-1.17-2.51-2.157-.004-.307-.327-.58-.78-.667l-2.847-.536c-.453-.087-.93.036-1.167.296-.76.837-2.303 1.234-3.74.957-1.433-.273-2.413-1.147-2.383-2.117h-.003Z"/><path fill="#fff" d="m99.75 28.176-17.457 63.8c-.137.493-.607.847-1.187.89-4.05.29-7.91 1.8-10.896 4.29-.53.44-1.35.45-1.904.02a12.073 12.073 0 0 0-4.353-2.12 12.89 12.89 0 0 0-7.27.23c-.593.193-1.247.02-1.613-.423-1.454-1.77-3.457-3.02-5.794-3.627-2.33-.607-4.813-.53-7.19.223-.593.19-1.233.02-1.573-.413-1.35-1.727-3.267-2.943-5.55-3.54a12.597 12.597 0 0 0-4.767-.287c-.706.09-1.323-.286-1.433-.876-.623-3.307-2.533-6.2-5.36-8.184-.4-.283-.52-.763-.3-1.21l28.713-58.246c.14-.284.524-.487.964-.51 3.07-.164 6.033-1.017 8.32-2.384.396-.236 1.003-.243 1.403-.01.933.54 2.017.93 3.217 1.164 1.79.346 3.663.303 5.41-.127.433-.107.926-.01 1.216.233 1.17.994 2.754 1.71 4.57 2.064 1.824.353 3.714.306 5.454-.13.433-.11.936-.01 1.24.24 1.23 1.013 2.86 1.743 4.716 2.103 1.247.243 2.514.3 3.76.177.537-.054 1.08.176 1.267.536 1.07 2.074 3.157 3.96 5.883 5.294.394.193.597.523.514.83v-.007ZM79.786 90.489 97.42 28.24c-2.57-1.383-4.58-3.203-5.777-5.2a16.233 16.233 0 0 1-3.78-.286c-2.067-.404-3.91-1.174-5.367-2.237a15.95 15.95 0 0 1-6.106 0c-2.027-.397-3.814-1.15-5.21-2.193a15.925 15.925 0 0 1-6.05 0 13.371 13.371 0 0 1-3.307-1.084c-2.343 1.257-5.207 2.077-8.2 2.33L25.926 76.856c2.627 2.03 4.494 4.777 5.34 7.9 1.604-.083 3.18.07 4.694.46 2.513.65 4.676 1.907 6.306 3.667 2.634-.66 5.34-.66 7.907 0 2.577.663 4.823 1.953 6.567 3.76a16.08 16.08 0 0 1 8.006 0 15.306 15.306 0 0 1 4.424 1.916c3.043-2.223 6.736-3.64 10.616-4.076v.006Z"/><path fill="#fff" d="M65.536 48.816c-9.803-2.164-15.02-9.66-11.937-16.397 2.924-6.383 12.38-9.91 21.34-8.133 8.96 1.776 14.98 8.53 12.897 15.286-2.203 7.144-12.33 11.444-22.3 9.24v.004Zm8.85-23.084c-7.85-1.566-16.12 1.54-18.63 7.137-2.51 5.597 1.953 12.347 10.447 14.207 8.616 1.89 17.393-1.804 19.356-7.977 1.874-5.883-3.22-11.777-11.176-13.367h.003Z"/><path fill="#fff" d="M75.727 44.003c-.33-.07-.627-.233-.814-.473L64.087 29.643c-.334-.427-.107-.957.5-1.187.603-.23 1.363-.076 1.7.347L77.2 42.59c.377.473.17 1.07-.463 1.333-.317.13-.68.153-1.01.083v-.003Z"/><path fill="#fff" d="M60.406 40.709c-.32-.07-.606-.227-.773-.46-.337-.463-.093-1.043.543-1.293l19.024-7.52c.596-.237 1.376-.077 1.74.353.366.433.176.98-.424 1.22l-19.11 7.62c-.32.127-.68.15-1 .08ZM72.153 64.85 48.95 59.44c-.737-.174-1.13-.787-.873-1.37.256-.584 1.05-.914 1.783-.744l23.037 5.323c.763.177 1.22.81 1.016 1.417-.203.607-.99.96-1.76.783ZM69.806 71.81 46.08 66.125c-.754-.18-1.147-.827-.88-1.44.266-.613 1.086-.96 1.833-.78l23.553 5.59c.78.187 1.244.85 1.03 1.49-.213.64-1.023 1.01-1.81.823ZM67.34 79.13l-24.277-5.977c-.77-.19-1.166-.867-.886-1.514.28-.64 1.123-1.007 1.89-.82l24.096 5.877c.8.193 1.267.897 1.044 1.567-.224.67-1.06 1.063-1.864.866h-.003Z"/><path fill="#FFC9A3" d="M15.187 80.797a1.095 1.095 0 0 1-.633-.42c.043.387.323.72.79.84 2.963.77 5.09 2.637 6.056 5.003-.876-2.563-3.076-4.606-6.213-5.42v-.003ZM32.24 92.977c-1.883-.5-3.97-.054-5.223 1.5a1.663 1.663 0 0 1-1.68.556l-3.707-.7c-.31-.083-.54-.26-.687-.486.06.416.36.773.844.903l3.61.973a1.66 1.66 0 0 0 1.68-.556c1.253-1.55 3.436-2.274 5.32-1.774 1.196.32 2.106 1.09 2.556 2.077-.366-1.187-1.353-2.133-2.713-2.497v.004ZM46.804 96.853c-1.933-.513-4.007-.046-5.203 1.544a1.605 1.605 0 0 1-1.677.57L36 98.21a1.258 1.258 0 0 1-.747-.536c.07.446.407.82.903.953l3.827 1.033c.61.163 1.3-.07 1.677-.57 1.196-1.59 3.366-2.333 5.3-1.82 1.296.347 2.29 1.207 2.766 2.303-.39-1.293-1.466-2.33-2.923-2.72ZM105.871 25.727c0 .033 0 .07-.01.103L87.784 98.293c-.173.687-.94.74-1.72.537-6.22-1.613-12.453 1.65-14.123 7.353-.213.727-1.023 1.144-1.814.93l-4-.776c-.39-.104-.7-.35-.883-.66.094.503.49.93 1.04 1.076l3.903 1.054c.79.213 1.6-.204 1.814-.93 1.673-5.707 8-8.897 14.22-7.284.78.204 1.55-.193 1.723-.883l18.077-72.463c.046-.18-.017-.364-.147-.52h-.003ZM61.747 100.83c-1.984-.527-4.05-.04-5.184 1.593-.356.514-1.043.754-1.67.587l-4.026-.787a1.34 1.34 0 0 1-.81-.596c.08.476.446.873.966 1.013l3.93 1.06c.627.17 1.314-.07 1.67-.587 1.134-1.633 3.297-2.393 5.28-1.866 1.37.363 2.444 1.286 2.967 2.46-.44-1.367-1.593-2.47-3.123-2.877Z"/></g></g></g></symbol><symbol xmlns="http://www.w3.org/2000/svg" id="expressive" fill="none" viewBox="0 0 313 214"><path fill="currentColor" d="m158.669 136.172 153.314 39.656c-71.631-37.667-103.151-66.876-106.749-104.383-2.838-29.585 13.282-49.304 41.367-70.841l-79.69 25.129c-13.514 13.403-22.333 29.687-25.384 48.445-3.864 23.76 2.418 42.793 17.142 61.99v.004Zm-69.88-18.077 50.044 12.945c-10.123-17.028-13.22-34.161-8.661-56.098 3.552-17.084 11.125-32.31 20.895-44.215l-38.244 12.06c-5.965 8.92-11.67 21.878-16.366 35.733-5.08 14.984-8.183 28.996-7.672 39.575h.003ZM18.572 99.933l8.54 2.209c6.194-3.956 12.305-10.375 17.611-20.25 4.493-8.36 6.397-15.625 3.916-18.866l-9.88 3.117c.904 3.67.622 8.606-4.192 16.992-5.486 9.552-11.365 14.275-15.999 16.798h.004Zm33.089 8.56 25.88 6.695c3.381-10.457 5.698-21.97 12.76-41.062 2.887-7.81 7.331-18.971 12.234-28.092L76 54.401c.275 6.82-1.639 14.767-6.83 26.486-5.197 11.732-10.64 19.951-17.506 27.606h-.003Zm-19.974-5.168 13.174 3.408c7.268-6.302 12.944-14.622 18.204-25.88 4.834-10.342 7.252-18.947 6.646-24.47l-15.75 4.969c1.275 4.014.357 10.333-4.778 20.2-5.38 10.34-11.506 17.3-17.496 21.776v-.003Zm273.462 85.536v24.126l3.28.016V189.49l3.582.688v-7.268l-10.87-2.733v7.917l4.005.767h.003Zm-17.923-12.184v36.222l11.615.055v-8.055l-7.489-.482v-5.331l7.325.743v-7.301l-7.325-1.14v-5.181l7.489 1.435v-8.055l-11.615-2.92v.01Zm-8.989 27.609-4.132-.245v-6.991l4.132.43c1.708.177 2.268 1.642 2.268 3.588 0 1.947-.56 3.32-2.268 3.218Zm-.259-15.304-3.873-.609v-6.201l3.873.761c1.849.363 2.235 1.687 2.235 3.365 0 1.678-.386 2.976-2.235 2.684Zm4.257 4.202v-.535c1.567-.262 2.501-3.126 2.501-7.442 0-5.263-1.826-9.615-5.909-10.641l-13.033-3.277c2.73 4.303 4.018 11.775 4.018 20.744v.983c0 9.029-1.288 16.17-4.018 19.774l12.561.063c4.723.023 6.728-4.378 6.728-11.726 0-4.201-1.042-7.118-2.844-7.943h-.004Zm-26.931 7.652-3.621-.259v-20.692l3.621.669c3.33.616 5.168 4.197 5.168 10.742 0 6.544-1.842 9.776-5.168 9.54Zm-10.615-34.853v46.703l11.703.059c6.171.029 10.067-7.154 10.067-20.148v-1.003c0-12.99-3.896-21.118-10.067-22.668l-11.703-2.943Zm-19.397 47.637h4.287c7.37 0 11.532-8.567 11.532-22.976v-25.558l-7.911-1.99v26.607c0 6.581-1.727 10.071-4.788 9.864l-1.917-.131c-3.215-.219-5.119-4.172-5.119-11.139v-28.17l-9.608-2.415v29.445c0 16.602 5.24 26.469 13.524 26.469v-.006Zm-35.363-16.511-5.827-.393c-4.781-.324-8.055-5.269-8.055-14.996v-2.363c0-9.815 3.274-13.832 8.055-12.931l5.827 1.101c4.394.829 7.223 5.62 7.223 14.632v2.17c0 8.93-2.829 13.079-7.223 12.78Zm-7.626 16.511h9.268c9.897 0 16.546-10.664 16.546-28.334v-1.354c0-17.588-6.649-29.959-16.546-32.496l-9.216-2.362c-11.686-2.996-20.767 7.537-20.767 28.746v1.632c0 21.305 9.078 34.168 20.715 34.168Zm-71.962-81.404v79.808l47.875.236v-18.85l-27.973-2.049v-54.144l-19.902-5.004v.003ZM50.584 213.62h19.04c21.035 0 33.728-14.793 35.15-33.633l.088-1.036-24.001-2.527-.203 1.098c-1.432 7.603-6.96 11.726-14.977 11.185l-10.945-.741c-10.743-.727-18.595-8.825-18.595-23.818v-3.084c0-14.992 7.852-21.078 18.595-19.053l10.945 2.065c8.016 1.511 13.545 7.056 14.977 15.022l.203 1.15 24.001 3.625-.088-1.059c-1.422-19.089-13.636-37.126-35.15-42.641l-18.801-4.818C23.34 108.313.689 122.958.689 156.686v2.596c0 33.879 22.514 54.331 49.895 54.331v.007Z"/></symbol><symbol xmlns="http://www.w3.org/2000/svg" id="fallback" fill="none" viewBox="0 0 48 48"><circle cx="24" cy="24" r="24" fill="#F5F5F5"/><rect width="20.89" height="20.89" x="24" y="9.22" fill="#21C9B5" rx="6" transform="rotate(45 24 9.225)"/></symbol><symbol xmlns="http://www.w3.org/2000/svg" id="icon-placeholder" fill="none" viewBox="0 0 24 24"><rect width="100%" height="100%" fill="#211C25"><animate attributeName="opacity" dur="2s" repeatCount="indefinite" values="1;0.5;1"/></rect></symbol><symbol xmlns="http://www.w3.org/2000/svg" id="kc" fill="none" viewBox="0 0 60 60"><path fill="currentColor" d="M36.34 18.591H18.592v30.41H11V11h25.34v7.591ZM49 11v38H23.637v-7.59H41.41V11H49Z"/></symbol><symbol xmlns="http://www.w3.org/2000/svg" id="left" fill="none" viewBox="0 0 376 226"><g fill="currentColor" clip-path="url(#asothers__a)"><path d="M176.494 37.266c-42.684 39.433-51.57 74.558-15.986 131.594l214.748 55.653C184.936 112.31 187.083 67.423 289.179 1.796l-112.685 35.47ZM35.13 136.363l25.868 6.706c7.208-31.286 17.994-56.468 32.779-79.764l-26.773 8.427c-5.414 18.37-15.575 39.598-31.873 64.631Z"/><path d="m153.518 44.499-48.181 15.165c-15.682 25.01-26.402 52.135-32.343 86.519l56.359 14.605c-18.602-48.651-9.239-81.346 24.165-116.289ZM38.648 80.653c-.921 13.394-10.712 31.105-28.344 49.277l-9.56-2.48c17.928-15.552 27.315-31.525 26.196-43.115l11.708-3.682Z"/><path d="m43.274 79.195 16.95-5.337c-5.423 17.1-15.872 37.908-31.257 60.908l-14.769-3.831c17.229-19.004 27.307-37.415 29.085-51.74h-.009Z"/></g><defs><clipPath id="asothers__a"><path fill="#fff" d="M.5.635h375v225H.5z"/></clipPath></defs></symbol><symbol xmlns="http://www.w3.org/2000/svg" id="live" fill="none" viewBox="0 0 24 24"><path fill="currentColor" fill-rule="evenodd" d="M18.487 18.23c4.188-3.569 4.7-9.853 1.146-14.054a10.356 10.356 0 0 0-1.138-1.17.75.75 0 1 0-.99 1.128c.353.308.68.645.978 1.005 3.026 3.576 2.59 8.916-.97 11.95a.75.75 0 1 0 .974 1.142Zm-5.737-5.12a2.601 2.601 0 1 0-1.5 0v7.36a.75.75 0 0 0 1.5 0v-7.36ZM12 11.72a1.1 1.1 0 1 1 0-2.2 1.1 1.1 0 0 1 0 2.2Zm6.288-.601a6.31 6.31 0 0 1-2.213 4.303.75.75 0 0 1-.97-1.145 4.81 4.81 0 0 0 .563-6.781 5.596 5.596 0 0 0-.564-.556.75.75 0 1 1 .973-1.14c.255.217.494.453.724.714a6.31 6.31 0 0 1 1.487 4.605Zm-11.8 5.972A8.49 8.49 0 0 1 5.57 5.118c.296-.365.604-.691.936-.994a.75.75 0 1 0-1.01-1.108 10.39 10.39 0 0 0-1.078 1.142 9.99 9.99 0 0 0 1.095 14.071.75.75 0 0 0 .976-1.138Zm.72-6.094a4.81 4.81 0 0 0 1.687 3.28.75.75 0 0 1-.97 1.146 6.31 6.31 0 0 1-.717-8.919c.221-.251.46-.487.715-.704a.75.75 0 1 1 .974 1.14c-.2.172-.39.358-.556.546a4.81 4.81 0 0 0-1.133 3.51Z" clip-rule="evenodd"/></symbol><symbol xmlns="http://www.w3.org/2000/svg" id="pfl" fill="none" viewBox="0 0 60 60"><path fill="currentColor" d="m9.074 29.138 3.126 3.123h4.932c2.063 0 3.735-1.683 3.735-3.76 0-2.076-1.672-3.759-3.735-3.759H5v10.011h4.074v-6.887h7.415c.349 0 .631.285.631.636a.633.633 0 0 1-.631.635H9.073m17.207-1.271h11.793v-3.124H22.206v10.011h4.074v-6.887Z"/><path fill="currentColor" d="m26.28 29.137 3.128 3.123h8.666v-3.123H26.28Zm13.395 2.493 3.127 3.123H55v-3.124H43.75v-6.883h-4.075v6.884Z"/><path fill="currentColor" d="M51.17 11.475 30.14 5 9.11 11.475v8.973h2.088V13.03L30.14 7.198l18.942 5.832v14.3h2.088V11.476Zm-5.684 27.708c-3.05 5.012-8.1 9.427-15.347 13.426-7.246-4-12.297-8.414-15.347-13.426H12.38c2.79 5.09 7.906 10.476 17.265 15.547l.495.268.495-.268c9.36-5.072 14.476-10.457 17.265-15.547h-2.413Z"/><path fill="currentColor" d="M24.672 23.142 22.127 17.9l3.693 1.51a1.667 1.667 0 0 0 1.633 1.973c.918 0 1.662-.748 1.662-1.672 0-.834-.606-1.523-1.399-1.65l2.423-2.439 2.423 2.439a1.668 1.668 0 0 0-1.4 1.65c0 .924.745 1.672 1.663 1.672a1.667 1.667 0 0 0 1.633-1.973l3.693-1.51-2.545 5.243H24.67h.001Z"/></symbol><symbol xmlns="http://www.w3.org/2000/svg" id="qrcode-placeholder" fill="none" viewBox="0 0 149 149"><path fill="#2C343D" d="M65.53 60.491H12.52c-2.452 0-4.904-.084-7.357 0h-.1l5.038 5.04V12.518c0-2.452.085-4.904 0-7.357v-.1L5.062 10.1h53.01c2.453 0 4.905.085 7.357 0h.101l-5.039-5.039v53.011c0 2.453-.05 4.905 0 7.357v.101c0 2.637 2.318 5.157 5.04 5.04 2.737-.118 5.038-2.218 5.038-5.04V12.52c0-2.452.05-4.904 0-7.357v-.1c0-2.722-2.3-5.04-5.039-5.04H12.52c-2.452 0-4.904-.05-7.357 0h-.1C2.34.022.021 2.324.021 5.062v53.009c0 2.453-.05 4.905 0 7.357v.101c0 2.721 2.302 5.04 5.04 5.04h53.01c2.453 0 4.905.05 7.357 0h.101c2.637 0 5.157-2.319 5.04-5.04-.118-2.738-2.218-5.039-5.04-5.039Z"/><path fill="#2C343D" d="M45.206 40.167H25.385l5.04 5.039V25.385l-5.04 5.04h19.821l-5.04-5.04v19.821c0 2.637 2.319 5.157 5.04 5.039 2.738-.117 5.04-2.217 5.04-5.039V25.385c0-2.72-2.302-5.038-5.04-5.038H25.385c-2.72 0-5.038 2.3-5.038 5.039v19.82c0 2.721 2.3 5.039 5.039 5.039h19.82c2.637 0 5.157-2.318 5.04-5.039-.119-2.738-2.218-5.04-5.04-5.04Zm42.832 42.832V14.652c0-3.14.084-6.298 0-9.44v-.134l-5.039 5.04h53.011c2.452 0 4.905.083 7.357 0h.101l-5.039-5.04V58.09c0 2.453-.084 4.905 0 7.357v.101l5.039-5.04h-40.145c-2.637 0-5.156 2.319-5.039 5.04.118 2.738 2.217 5.04 5.039 5.04h40.145c2.721 0 5.039-2.302 5.039-5.04V12.536c0-2.452.05-4.905 0-7.357v-.1c0-2.722-2.301-5.04-5.039-5.04H90.457c-2.453 0-4.905-.05-7.357 0h-.101c-2.721 0-5.04 2.301-5.04 5.04v68.346c0 3.14-.066 6.299 0 9.44v.134c0 2.637 2.319 5.157 5.04 5.039 2.738-.118 5.039-2.217 5.039-5.039Z"/><path fill="#2C343D" d="M118.104 25.386v19.82l5.039-5.04h-19.82l5.039 5.04V25.385c0-2.636-2.318-5.156-5.039-5.038-2.738.117-5.039 2.217-5.039 5.039v19.82c0 2.721 2.301 5.039 5.039 5.039h19.82c2.722 0 5.04-2.301 5.04-5.039V25.385c0-2.636-2.318-5.156-5.04-5.038-2.737.117-5.039 2.217-5.039 5.039ZM60.491 82.999v53.011c0 2.452-.084 4.905 0 7.357v.101l5.04-5.039H12.518c-2.452 0-4.904-.084-7.357 0h-.1l5.038 5.039V90.457c0-2.453.05-4.905 0-7.357v-.101c0-2.637-2.317-5.157-5.039-5.04C2.324 78.078.022 80.178.022 83v53.01c0 2.452-.05 4.905 0 7.357v.101c0 2.721 2.302 5.039 5.04 5.039h53.009c2.453 0 4.905.05 7.357 0h.101c2.721 0 5.04-2.301 5.04-5.039V90.457c0-2.453.05-4.905 0-7.357v-.101c0-2.637-2.319-5.157-5.04-5.04-2.738.118-5.039 2.218-5.039 5.04Z"/><path fill="#2C343D" d="M45.206 118.104H25.385l5.04 5.039v-19.82l-5.04 5.039h19.821l-5.04-5.039v19.82c0 2.638 2.319 5.157 5.04 5.04 2.738-.118 5.04-2.218 5.04-5.04v-19.82c0-2.721-2.302-5.039-5.04-5.039H25.385c-2.72 0-5.038 2.301-5.038 5.039v19.82c0 2.722 2.3 5.04 5.039 5.04h19.82c2.637 0 5.157-2.318 5.04-5.04-.119-2.737-2.218-5.039-5.04-5.039Zm42.832 25.364v-40.313l-5.039 5.039h53.011c2.452 0 4.905.051 7.357 0h.101c2.721 0 5.039-2.301 5.039-5.039V82.999c0-2.637-2.318-5.157-5.039-5.04-2.738.118-5.039 2.218-5.039 5.04v20.156l5.039-5.039H90.457c-2.453 0-4.905-.05-7.357 0h-.101c-2.721 0-5.04 2.301-5.04 5.039v40.313c0 2.637 2.319 5.156 5.04 5.039 2.738-.118 5.039-2.217 5.039-5.039Z"/><path fill="#2C343D" d="M123.143 138.429h-19.82l5.039 5.039v-19.821l-5.039 5.039h19.82l-5.039-5.039v19.821c0 2.637 2.318 5.156 5.039 5.039 2.738-.118 5.04-2.217 5.04-5.039v-19.821c0-2.721-2.302-5.039-5.04-5.039h-19.82c-2.721 0-5.039 2.302-5.039 5.039v19.821c0 2.721 2.301 5.039 5.039 5.039h19.82c2.638 0 5.157-2.318 5.04-5.039-.118-2.738-2.218-5.039-5.04-5.039Zm15.286-15.118v20.157c0 2.637 2.318 5.156 5.039 5.039 2.738-.118 5.039-2.217 5.039-5.039v-20.157c0-2.637-2.318-5.156-5.039-5.039-2.738.118-5.039 2.218-5.039 5.039Z"/></symbol><symbol xmlns="http://www.w3.org/2000/svg" id="right" fill="none" viewBox="0 0 376 226"><g fill="currentColor" clip-path="url(#awothers__a)"><path d="M199.506 37.267c42.684 39.432 51.57 74.557 15.986 131.593L.744 224.513C191.064 112.31 188.917 67.424 86.82 1.796l112.685 35.47Zm141.363 99.096-25.867 6.706c-7.207-31.286-17.994-56.468-32.779-79.764l26.773 8.427c5.413 18.37 15.575 39.598 31.873 64.631Z"/><path d="m222.482 44.5 48.181 15.164c15.682 25.01 26.402 52.135 32.343 86.519l-56.359 14.605c18.602-48.651 9.239-81.345-24.165-116.289Zm114.87 36.153c.921 13.394 10.712 31.105 28.344 49.277l9.56-2.479c-17.928-15.553-27.315-31.525-26.196-43.115l-11.708-3.683Z"/><path d="m332.726 79.196-16.949-5.338c5.422 17.1 15.871 37.909 31.256 60.908l14.769-3.831c-17.229-19.004-27.307-37.414-29.085-51.74h.009Z"/></g><defs><clipPath id="awothers__a"><path fill="#fff" d="M.5.635h375v225H.5z"/></clipPath></defs></symbol><symbol xmlns="http://www.w3.org/2000/svg" id="slots-1" fill="none" viewBox="0 0 376 179"><g fill="currentColor" clip-path="url(#axothers__a)"><path d="m318.612 177.813 56.769.076c-10.882-9.179-19.615-20.923-25.678-35.28h-48.746c4.197 13.691 10.161 25.412 17.66 35.204h-.005ZM230.157 72.054a470.62 470.62 0 0 0-.345 17.696c-.049 35.177 3.428 64.325 11.181 87.956l54.008.071c-13.785-21.375-21.284-50.532-21.23-87.97.009-6.14.228-12.052.64-17.758h-44.25l-.004.005Zm-66.417 70.555h48.603c-1.544-16.04-2.148-33.637-2.121-52.886.009-6.055.081-11.94.224-17.67h-44.603c.125 5.711.179 11.579.17 17.612-.027 19.275-.68 36.895-2.273 52.949v-.005ZM81.231 1.601c13.785 21.626 21.279 50.783 21.23 87.97-.027 20.032-2.21 37.683-6.353 53.038h46.871c2.309-15.865 3.414-33.494 3.441-52.976.049-35.177-3.428-64.325-11.186-87.956l-54.003-.076Zm-45.085 87.88c-.009 6.212-.335 12.16-.962 17.848H81.64c.47-5.693.715-11.618.724-17.785.054-37.939-8.948-67.1-24.746-87.974L.849 1.49C22.93 20.115 36.2 49.277 36.146 89.48Z"/></g><defs><clipPath id="axothers__a"><path fill="#fff" d="M.5.635h375v178H.5z"/></clipPath></defs></symbol><symbol xmlns="http://www.w3.org/2000/svg" id="slots-2" fill="none" viewBox="0 0 376 179"><g fill="currentColor" clip-path="url(#ayothers__a)"><path d="M349.403 35.943c6.078-14.325 14.755-26.051 25.52-35.225L318.295.637c-7.418 9.899-13.35 21.652-17.563 35.301h48.671v.005ZM229.821 71.688c-.223 5.8-.335 11.772-.344 17.935-.026 19.689 1.022 37.509 3.267 53.557h46.707c-4.048-15.508-6.15-33.315-6.123-53.499a258.91 258.91 0 0 1 .638-17.993h-44.145Zm-19.719 35.742a779.733 779.733 0 0 1-.17-17.844c.009-6.135.081-12.098.224-17.902h-44.493c.125 5.786.178 11.73.169 17.843a803.117 803.117 0 0 1-.218 17.903h44.493-.005ZM102.437 89.441c-.049 37.932-7.605 67.452-21.419 89.072l53.875.073c7.802-23.92 11.345-53.444 11.394-89.086a481.425 481.425 0 0 0-.294-17.816h-44.132c.384 5.704.581 11.617.572 17.753l.004.004ZM35.326 107.43C31.903 138.945 19.5 162.498.835 178.4l56.628.077c13.26-17.489 21.771-41.074 24.204-71.047h-46.34Z"/></g><defs><clipPath id="ayothers__a"><path fill="#fff" d="M.5.635h375v178H.5z"/></clipPath></defs></symbol><symbol xmlns="http://www.w3.org/2000/svg" id="slots-3" fill="none" viewBox="0 0 376 179"><g fill="currentColor" clip-path="url(#azothers__a)"><path d="M158.192.569c5.752 24.678 7.723 54.186 7.678 89.035-.009 6.13-.08 12.088-.219 17.887h44.658a772.677 772.677 0 0 1-.17-17.828c.049-34.85 2.101-64.348 7.915-89.013L158.197.57h-.005Zm115.575 89.184a257.09 257.09 0 0 1 .641-17.977h-44.305a482.29 482.29 0 0 0-.345 17.914c-.049 35.484 3.41 64.91 11.115 88.786h53.949c-13.672-21.611-21.104-51.014-21.051-88.723h-.004Zm76.019 53.452H300.98c4.202 13.859 10.174 25.725 17.682 35.638l56.838.077c-10.895-9.293-19.639-21.181-25.709-35.715h-.005ZM135.049.536 80.979.46c11.558 18.331 18.694 42.004 20.683 71.317h44.295c-.981-27.773-4.471-51.427-10.904-71.24h-.004ZM.5.351C22.607 19.208 35.894 48.73 35.84 89.427c-.009 6.289-.336 12.31-.963 18.068H81.39c.47-5.763.717-11.761.726-18.004.053-38.406-8.96-67.928-24.778-89.058L.5.35Z"/></g><defs><clipPath id="azothers__a"><path fill="#fff" d="M.5.635h375v178H.5z"/></clipPath></defs></symbol><symbol xmlns="http://www.w3.org/2000/svg" id="soccer" fill="none" viewBox="0 0 24 24"><path fill="currentColor" fill-rule="evenodd" d="M12 2a9.97 9.97 0 0 0-3.87.777A10.003 10.003 0 0 0 2 12c0 5.523 4.477 10 10 10s10-4.477 10-10a10 10 0 0 0-6.1-9.208.75.75 0 0 0-.148-.061A9.998 9.998 0 0 0 12 2ZM5.789 6.197a8.524 8.524 0 0 1 2.597-1.893L11.25 6.23v1.448l-3.446 2.51-1.522-.748-.493-3.243ZM5.75 10.85l1.514.744 1.34 4.137-.79.878-3.255-.497a8.443 8.443 0 0 1-.997-3.081l2.188-2.18Zm3.247 6.686 1.377 2.81a8.54 8.54 0 0 0 3.252 0l1.378-2.81-.788-.875H9.784l-.787.875Zm-1.398.557.786 1.603a8.524 8.524 0 0 1-2.581-1.877l1.795.274Zm8.588-1.484 3.254-.497a8.445 8.445 0 0 0 .997-3.081l-2.188-2.18-1.514.743-1.34 4.137.79.878ZM4.535 7.93a8.443 8.443 0 0 0-.965 2.973l1.231-1.227-.266-1.746ZM17.718 9.44l-1.522.747-3.446-2.509V6.23l2.862-1.925a8.498 8.498 0 0 1 2.6 1.892l-.494 3.243Zm1.48.237.266-1.743c.5.918.829 1.924.965 2.969l-1.23-1.226Zm-3.583 10.018a8.525 8.525 0 0 0 2.581-1.877l-1.795.274-.786 1.603ZM12 4.926l1.826-1.228a8.498 8.498 0 0 0-3.654 0L12 4.925Zm2.005 10.234 1.234-3.814L12 8.988l-3.239 2.358 1.235 3.814h4.008Z" clip-rule="evenodd"/></symbol><symbol xmlns="http://www.w3.org/2000/svg" id="stacked" fill="none" viewBox="0 0 321 126"><path fill="currentColor" d="m219.307 79.823 25.609.034c-9.962-8.399-15.948-21.553-15.924-39.684.023-18.13 6.05-31.268 16.031-39.64L219.415.498c-7.152 9.395-11.248 22.536-11.272 39.646-.024 17.224 4.039 30.376 11.164 39.677m-143.46-.196 25.609.034c7.152-9.281 11.248-22.422 11.272-39.646.023-17.11-4.039-30.261-11.164-39.677L75.955.298c9.961 8.398 15.947 21.553 15.924 39.683-.024 18.13-6.05 31.268-16.032 39.64m36.261.05 24.362.034c3.527-10.645 5.131-23.79 5.154-39.653.021-15.863-1.546-29.011-5.046-39.666L112.216.352c6.218 9.752 9.601 22.904 9.577 39.673-.024 16.884-3.44 30.025-9.685 39.65m34.788.047 26.97.037c-2.59-10.996-3.48-24.14-3.459-39.667.02-15.526.946-28.667 3.567-39.656L147.004.4c2.591 10.996 3.48 24.14 3.46 39.666-.02 15.523-.947 28.668-3.568 39.657Zm37.396.05 24.363.034c-6.219-9.641-9.601-22.79-9.577-39.673.023-16.77 3.439-29.91 9.685-39.646L184.4.453c-3.527 10.645-5.13 23.79-5.154 39.653-.023 15.863 1.546 29.011 5.043 39.666M16.922 125.78h7.488c9.237 0 15.382-5.697 16.1-13.004l.043-.404H29.208l-.091.404c-.627 2.78-3.005 4.393-6.324 4.393h-4.305c-3.992 0-6.77-2.422-6.77-7.219v-.987c0-4.797 2.778-7.219 6.77-7.219h4.305c3.319 0 5.694 1.614 6.323 4.396l.091.404h11.346l-.043-.404c-.718-7.263-6.637-13.003-16.1-13.003h-7.397c-9.594 0-16.591 6.01-16.591 15.917v.761c0 9.955 6.95 15.965 16.5 15.965Zm27.89-.627H74.27v-8.698H55.93V93.766H44.81v31.389-.003Zm48.428.627h8.341c9.641 0 16.591-6.01 16.591-15.965v-.761c0-9.91-6.95-15.917-16.591-15.917h-8.297c-9.685 0-16.635 6.01-16.635 15.917v.761c0 9.955 6.95 15.965 16.59 15.965Zm6.815-8.611H94.81c-4.127 0-6.862-2.331-6.862-7.128v-1.165c0-4.845 2.735-7.129 6.862-7.129h5.245c4.126 0 6.862 2.288 6.862 7.129v1.165c0 4.797-2.736 7.128-6.862 7.128Zm38.517 8.611h5.515c10.045 0 16.052-5.65 16.052-15.156v-16.86h-11.211v16.86c0 4.17-2.331 6.458-6.367 6.458h-2.466c-4.036 0-6.367-2.288-6.367-6.458v-16.86h-11.164v16.86c0 9.506 5.963 15.156 16.008 15.156Zm27.172-.627h20.536c10.672 0 17.13-5.471 17.13-15.334v-.762c0-9.863-6.458-15.29-17.13-15.29h-20.536v31.389-.003Zm19.461-8.476h-8.34v-14.438h8.34c4.484 0 6.906 2.375 6.906 6.323v1.705c0 3.945-2.422 6.41-6.906 6.41Zm52.06-8.027v-.448c2.871-.583 5.158-3.049 5.158-6.593 0-4.484-3.544-7.846-10.851-7.846H202.83c3.945 3.588 6.189 8.789 6.189 15.291v.761c0 6.549-2.24 11.75-6.189 15.335h27.668c8.789 0 12.781-3.723 12.781-9.551 0-4.035-2.557-6.097-6.01-6.949m-8.206-2.958h-11.077v-4.932h11.077c1.613 0 2.556.853 2.556 2.331v.226c0 1.479-.943 2.378-2.556 2.378m.269 12.465h-11.346v-5.56h11.346c1.839 0 2.961.896 2.961 2.601v.36c0 1.705-1.122 2.601-2.961 2.601m18.117 6.997h32.107v-7.58h-21.3v-4.753h20.805v-6.862h-20.805v-4.619h21.3v-7.58h-32.107v31.395Zm49.055 0h11.12v-23.81h12.825v-7.58h-36.77v7.58h12.825v23.81Z"/></symbol><symbol xmlns="http://www.w3.org/2000/svg" id="stacked-aligned" fill="none" viewBox="0 0 219 138"><path fill="currentColor" d="M184.743 102.1h32.766c-12.758-10.729-20.443-27.547-20.443-50.745 0-23.199 7.685-40.017 20.443-50.746h-32.766c-9.133 12.034-14.354 28.852-14.354 50.746 0 21.893 5.219 38.855 14.354 50.745Zm-183.55 0h32.766c9.133-11.888 14.354-28.706 14.354-50.745 0-22.04-5.219-38.712-14.354-50.746H1.193C13.95 11.34 21.636 28.156 21.636 51.355c0 23.198-7.685 40.016-20.443 50.745Zm46.394 0h31.172c4.495-13.628 6.524-30.446 6.524-50.745 0-20.3-2.029-37.116-6.524-50.746H47.587C55.56 13.078 59.91 29.896 59.91 51.355c0 21.458-4.349 38.42-12.323 50.745Zm44.511 0h34.506c-3.334-14.063-4.495-30.88-4.495-50.745s1.159-36.68 4.495-50.746H92.098c3.334 14.063 4.495 30.881 4.495 50.746 0 19.864-1.16 36.68-4.495 50.745Zm47.845 0h31.172c-7.974-12.323-12.323-29.14-12.323-50.745 0-21.605 4.349-38.277 12.323-50.746h-31.172c-4.495 13.628-6.524 30.446-6.524 50.746s2.029 37.115 6.524 50.745ZM12.345 137.859h5.062c6.244 0 10.397-3.851 10.882-8.79l.03-.273h-7.67l-.06.273c-.424 1.879-2.032 2.97-4.275 2.97h-2.91c-2.698 0-4.577-1.638-4.577-4.88v-.667c0-3.243 1.879-4.88 4.577-4.88h2.91c2.243 0 3.85 1.091 4.274 2.969l.062.274h7.669l-.03-.274c-.485-4.909-4.486-8.789-10.882-8.789h-5c-6.487 0-11.214 4.062-11.214 10.759v.515c0 6.728 4.697 10.79 11.152 10.79m18.852-.423h19.912v-5.879H38.713v-15.336h-7.516v21.217-.002Zm32.734.423h5.638c6.517 0 11.215-4.062 11.215-10.79v-.515c0-6.699-4.698-10.759-11.215-10.759h-5.606c-6.546 0-11.244 4.062-11.244 10.759v.515c0 6.728 4.698 10.79 11.215 10.79m4.606-5.82h-3.545c-2.79 0-4.636-1.575-4.636-4.818v-.788c0-3.274 1.849-4.818 4.636-4.818h3.545c2.79 0 4.636 1.546 4.636 4.818v.788c0 3.243-1.849 4.818-4.636 4.818Zm26.035 5.82h3.728c6.79 0 10.85-3.818 10.85-10.244v-11.396h-7.578v11.396c0 2.819-1.576 4.365-4.304 4.365h-1.666c-2.728 0-4.304-1.546-4.304-4.365v-11.396h-7.546v11.396c0 6.426 4.03 10.244 10.82 10.244Zm18.369-.423h13.881c7.213 0 11.578-3.698 11.578-10.365v-.515c0-6.667-4.365-10.335-11.578-10.335h-13.881v21.217-.002Zm13.154-5.729h-5.637v-9.759h5.637c3.031 0 4.668 1.605 4.668 4.274v1.152c0 2.666-1.637 4.335-4.668 4.335m35.19-5.426v-.303c1.94-.394 3.486-2.061 3.486-4.456 0-3.031-2.394-5.303-7.335-5.303h-19.427c2.666 2.425 4.183 5.941 4.183 10.335v.515c0 4.426-1.517 7.942-4.183 10.365h18.701c5.941 0 8.639-2.516 8.639-6.455 0-2.728-1.728-4.122-4.062-4.698m-5.547-1.999h-7.487v-3.334h7.487c1.091 0 1.728.576 1.728 1.576v.153c0 .999-.637 1.605-1.728 1.605Zm.182 8.425h-7.669v-3.757h7.669c1.243 0 2.002.605 2.002 1.758v.243c0 1.152-.759 1.758-2.002 1.758m12.246 4.729h21.702v-5.123h-14.397v-3.213h14.062v-4.636h-14.062v-3.122h14.397v-5.123h-21.702v21.217Zm33.158 0h7.516v-16.094h8.669v-5.123H192.66v5.123h8.669v16.094Z"/></symbol><symbol xmlns="http://www.w3.org/2000/svg" id="stats-tracker" fill="currentColor" viewBox="0 0 24 24"><g clip-path="url(#bdothers__a)" transform="matrix(1.7 0 0 1.7 2 2)"><g fill="#CCA6FF" clip-path="url(#bdothers__b)"><path fill-rule="evenodd" d="M1 2a1 1 0 0 1 1-1h1a1 1 0 0 1 1 1v8a1 1 0 0 1-1 1H2a1 1 0 0 1-1-1V2Zm2 0H2v8h1V2Z" clip-rule="evenodd"/><path d="M4.5 5.5a1 1 0 0 1 1-1h1a1 1 0 0 1 1 1V10a1 1 0 0 1-1 1h-1a1 1 0 0 1-1-1V5.5Zm2 0h-1V10h1V5.5Z"/><path fill-rule="evenodd" d="M8 4a1 1 0 0 1 1-1h1a1 1 0 0 1 1 1v6a1 1 0 0 1-1 1H9a1 1 0 0 1-1-1V4Zm2 0H9v6h1V4Z" clip-rule="evenodd"/></g></g><defs><clipPath id="bdothers__a"><path fill="#fff" d="M0 0h12v12H0z"/></clipPath><clipPath id="bdothers__b"><path fill="#fff" d="M0 0h12v12H0z" transform="translate(1 1)"/></clipPath></defs></symbol><symbol xmlns="http://www.w3.org/2000/svg" id="trophy" fill="none" viewBox="0 0 36 36"><g clip-path="url(#beothers__a)"><path fill="#997DBF" d="M8.754 19.147c-2.407-3.61-3.818-8.733-4.215-15.31H1.502a.754.754 0 0 0-.752.752c-.006 5.982 3.102 11.439 8.004 14.558ZM35.245 4.589a.754.754 0 0 0-.752-.752h-3.037c-.39 6.57-1.802 11.7-4.21 15.31 4.898-3.125 8-8.582 8-14.558ZM18.071 24.85h-.146c-.46 0-1.557-.07-2.939-.566v2.07H8.959a.754.754 0 0 0-.752.751v3.767h19.577v-3.767a.754.754 0 0 0-.752-.752H21.01v-2.07c-1.382.502-2.478.566-2.939.566Z"/><path fill="#CCA6FF" d="M17.917 23.34h.145c.583 0 3.224-.145 5.889-2.623 3.824-3.544 5.87-10.004 6.08-19.197.006-.205-.099-.718-.752-.77H6.7a.766.766 0 0 0-.752.77c.216 9.193 2.268 15.653 6.086 19.203 2.665 2.472 5.306 2.618 5.883 2.618ZM5.335 32.232H30.38c.414 0 .752.338.752.752v3.014a.754.754 0 0 1-.752.752H5.335a.754.754 0 0 1-.752-.752v-3.014c0-.414.338-.752.752-.752Z"/><path fill="#000" fill-opacity=".2" fill-rule="evenodd" d="M16.65 23.186a6.465 6.465 0 0 0 1.314.155h.146c.583 0 3.224-.146 5.888-2.624 3.825-3.544 5.87-10.004 6.08-19.197.006-.205-.098-.718-.751-.77h-.85c-.307 9.405-2.466 16.035-6.42 19.713-2.121 1.98-4.229 2.558-5.406 2.723Z" clip-rule="evenodd"/></g><defs><clipPath id="beothers__a"><path fill="#fff" d="M0 0h36v36H0z"/></clipPath></defs></symbol><symbol xmlns="http://www.w3.org/2000/svg" id="ufc" fill="none" viewBox="0 0 60 60"><path fill="currentColor" d="M38.981 25.694H25.797L26.89 22h13.184l-1.094 3.694Zm-8.934 6.238h7.084l1.095-3.694H25.044l-3.128 10.55h6.1l2.03-6.856Zm14.95 3.037a.553.553 0 0 1-.3-.34.425.425 0 0 1-.013-.13.485.485 0 0 1 .023-.122l2.389-8.059c.068-.235.19-.396.363-.486.174-.09.471-.138.9-.138h6.585L56.04 22h-9.232c-1.682 0-2.854.188-3.538.542-.683.355-1.157.983-1.43 1.909l-3.406 11.493a2.22 2.22 0 0 0-.09.503 1.65 1.65 0 0 0 .052.511c.159.56.546 1.004 1.178 1.338.621.325 1.399.49 2.324.49h9.663l1.094-3.693h-7.062a1.26 1.26 0 0 1-.59-.126l-.005.002ZM8.567 22 4.436 35.942c-.053.17-.08.342-.09.503-.011.177.01.344.052.511.159.56.547 1.004 1.179 1.338.62.325 1.398.49 2.323.49h6.873c1.682 0 2.854-.187 3.539-.542.682-.354 1.156-.983 1.429-1.908L23.989 22H17.89l-3.695 12.47c-.07.235-.19.396-.364.485-.174.09-.47.138-.9.138h-1.05a1.26 1.26 0 0 1-.59-.126.552.552 0 0 1-.3-.34.428.428 0 0 1-.014-.13.488.488 0 0 1 .023-.122L14.665 22H8.567Z"/></symbol><symbol xmlns="http://www.w3.org/2000/svg" id="win" fill="none" viewBox="0 0 12 11"><g fill="#34CB68" fill-rule="evenodd" clip-path="url(#bgothers__a)" clip-rule="evenodd"><path d="M6 1a4.5 4.5 0 1 0 0 9 4.5 4.5 0 0 0 0-9ZM.5 5.5a5.5 5.5 0 1 1 11 0 5.5 5.5 0 0 1-11 0Z"/><path d="M8.604 3.897a.5.5 0 0 1-.001.707l-2.76 2.75a.5.5 0 0 1-.708-.002l-1.49-1.5a.5.5 0 0 1 .71-.704l1.137 1.144 2.405-2.396a.5.5 0 0 1 .707.001Z"/></g><defs><clipPath id="bgothers__a"><path fill="#fff" d="M0 0h11v11H0z" transform="translate(.5)"/></clipPath></defs></symbol><symbol xmlns="http://www.w3.org/2000/svg" id="x-circle" fill="none" stroke="currentColor" stroke-width="1.5" viewBox="0 0 24 24"><path stroke-linecap="round" stroke-linejoin="round" d="m9.75 9.75 4.5 4.5m0-4.5-4.5 4.5M21 12a9 9 0 1 1-18 0 9 9 0 0 1 18 0Z"/></symbol></svg>