<svg xmlns="http://www.w3.org/2000/svg" viewBox="0 0 160 32" fill="none" aria-label="Cloudbet">
  <defs>
    <linearGradient id="cb-logo-grad" x1="0" y1="0" x2="1" y2="0">
      <stop offset="0%" stop-color="#DFFD51"/>
      <stop offset="100%" stop-color="#A8F060"/>
    </linearGradient>
  </defs>
  <!-- Shield / C mark -->
  <path d="M14 4 L6 7.5 L6 16 C6 20.5 9.5 24.5 14 26 C18.5 24.5 22 20.5 22 16 L22 7.5 Z" fill="url(#cb-logo-grad)"/>
  <path d="M14 9 C11.5 9 9.5 11 9.5 13.5 C9.5 16 11.5 18 14 18 C15.4 18 16.6 17.4 17.4 16.4 L15.6 15.2 C15.1 15.7 14.6 16 14 16 C12.6 16 11.5 14.9 11.5 13.5 C11.5 12.1 12.6 11 14 11 C14.6 11 15.1 11.3 15.6 11.8 L17.4 10.6 C16.6 9.6 15.4 9 14 9 Z" fill="#0D0B12"/>
  <!-- Wordmark -->
  <text x="28" y="21" font-family="system-ui, -apple-system, sans-serif" font-size="14" font-weight="700" letter-spacing="-0.3" fill="url(#cb-logo-grad)">Cloudbet</text>
</svg>
