<svg xmlns="http://www.w3.org/2000/svg" fill="none" viewBox="0 0 24 24"><g fill-rule="evenodd" clip-path="url(#a)" clip-rule="evenodd"><path fill="var(--icon-primary)" d="M5.22 2H3.98C2.89 2 2 2.89 2 3.98v1.24c0 1.09.89 1.98 1.98 1.98h1.24c1.09 0 1.98-.89 1.98-1.98V3.98C7.2 2.89 6.31 2 5.22 2ZM3.5 5.22V3.98c0-.27.21-.48.48-.48h1.24c.27 0 .48.21.48.48v1.24c0 .27-.21.48-.48.48H3.98c-.27 0-.48-.21-.48-.48ZM12.62 2h-1.24c-1.09 0-1.98.89-1.98 1.98v1.24c0 1.09.89 1.98 1.98 1.98h1.24c1.09 0 1.98-.89 1.98-1.98V3.98c0-1.09-.89-1.98-1.98-1.98ZM10.9 3.98c0-.27.21-.48.48-.48h1.24c.27 0 .48.21.48.48v1.24c0 .27-.21.48-.48.48h-1.24c-.27 0-.48-.21-.48-.48V3.98ZM18.78 2h1.24C21.11 2 22 2.89 22 3.98v1.24c0 1.09-.89 1.98-1.98 1.98h-1.24c-1.09 0-1.98-.89-1.98-1.98V3.98c0-1.09.89-1.98 1.98-1.98Zm0 1.5c-.27 0-.48.21-.48.48v1.24c0 .27.21.48.48.48h1.24c.27 0 .48-.21.48-.48V3.98c0-.27-.21-.48-.48-.48h-1.24ZM5.22 9.4H3.98C2.89 9.4 2 10.29 2 11.38v1.24c0 1.09.89 1.98 1.98 1.98h1.24c1.09 0 1.98-.89 1.98-1.98v-1.24c0-1.09-.89-1.98-1.98-1.98ZM3.5 11.38c0-.27.21-.48.48-.48h1.24c.27 0 .48.21.48.48v1.24c0 .27-.21.48-.48.48H3.98c-.27 0-.48-.21-.48-.48v-1.24Zm7.88-1.98h1.24c1.09 0 1.98.89 1.98 1.98v1.24c0 1.09-.89 1.98-1.98 1.98h-1.24c-1.09 0-1.98-.89-1.98-1.98v-1.24c0-1.09.89-1.98 1.98-1.98Zm0 1.5c-.27 0-.48.21-.48.48v1.24c0 .27.21.48.48.48h1.24c.27 0 .48-.21.48-.48v-1.24c0-.27-.21-.48-.48-.48h-1.24Zm8.64-1.5h-1.24c-1.09 0-1.98.89-1.98 1.98v1.24c0 1.09.89 1.98 1.98 1.98h1.24c1.09 0 1.98-.89 1.98-1.98v-1.24c0-1.09-.89-1.98-1.98-1.98Zm-1.72 1.98c0-.27.21-.48.48-.48h1.24c.27 0 .48.21.48.48v1.24c0 .27-.21.48-.48.48h-1.24c-.27 0-.48-.21-.48-.48v-1.24ZM3.98 16.8h1.24c1.09 0 1.98.89 1.98 1.98v1.24c0 1.09-.89 1.98-1.98 1.98H3.98C2.89 22 2 21.11 2 20.02v-1.24c0-1.09.89-1.98 1.98-1.98Zm0 1.5c-.27 0-.48.21-.48.48v1.24c0 .27.21.48.48.48h1.24c.27 0 .48-.21.48-.48v-1.24c0-.27-.21-.48-.48-.48H3.98Zm8.64-1.5h-1.24c-1.09 0-1.98.89-1.98 1.98v1.24c0 1.09.89 1.98 1.98 1.98h1.24c1.09 0 1.98-.89 1.98-1.98v-1.24c0-1.09-.89-1.98-1.98-1.98Zm-1.72 1.98c0-.27.21-.48.48-.48h1.24c.27 0 .48.21.48.48v1.24c0 .27-.21.48-.48.48h-1.24c-.27 0-.48-.21-.48-.48v-1.24Zm7.88-1.98h1.24c1.09 0 1.98.89 1.98 1.98v1.24c0 1.09-.89 1.98-1.98 1.98h-1.24c-1.09 0-1.98-.89-1.98-1.98v-1.24c0-1.09.89-1.98 1.98-1.98Zm0 1.5c-.27 0-.48.21-.48.48v1.24c0 .27.21.48.48.48h1.24c.27 0 .48-.21.48-.48v-1.24c0-.27-.21-.48-.48-.48h-1.24Z"/><path fill="var(--icon-secondary)" d="M3.5 5.22V3.98c0-.27.21-.48.48-.48h1.27s.3.02.42.31c-.02-.25-.27-.46-.52-.46H3.96c-.27 0-.61.15-.61.68v1.09c0 .23.14.46.36.5 0-.01-.22-.12-.22-.4h.01Z"/><path fill="var(--icon-secondary)" d="M6.49 2.48c.2.31.51.68.51 1.08v1.45C7 6.1 5.93 6.78 4.84 6.78H3.6c-.49 0-.93-.18-1.27-.48.35.54.96.9 1.66.9h1.24c1.09 0 1.98-.89 1.98-1.98V3.98c0-.61-.28-1.14-.71-1.5h-.01ZM10.9 5.22V3.98c0-.27.21-.48.48-.48h1.27s.3.02.42.31c-.02-.25-.27-.46-.52-.46h-1.19c-.27 0-.61.15-.61.68v1.09c0 .23.14.46.36.5 0-.01-.22-.12-.22-.4h.01Z"/><path fill="var(--icon-secondary)" d="M13.89 2.48c.2.31.51.68.51 1.08v1.45c0 1.09-1.07 1.77-2.16 1.77H11c-.49 0-.93-.18-1.27-.48.35.54.96.9 1.66.9h1.24c1.09 0 1.98-.89 1.98-1.98V3.98c0-.61-.28-1.14-.71-1.5h-.01ZM18.3 5.22V3.98c0-.27.21-.48.48-.48h1.27s.3.02.42.31c-.02-.25-.27-.46-.52-.46h-1.19c-.27 0-.61.15-.61.68v1.09c0 .23.14.46.36.5 0-.01-.22-.12-.22-.4h.01Z"/><path fill="var(--icon-secondary)" d="M21.29 2.48c.2.31.51.68.51 1.08v1.45c0 1.09-1.07 1.77-2.16 1.77H18.4c-.49 0-.93-.18-1.27-.48.35.54.96.9 1.66.9h1.24c1.09 0 1.98-.89 1.98-1.98V3.98c0-.61-.28-1.14-.71-1.5h-.01ZM3.5 12.62v-1.24c0-.27.21-.48.48-.48h1.27s.3.02.42.31c-.02-.25-.27-.46-.52-.46H3.96c-.27 0-.61.15-.61.68v1.09c0 .23.14.46.36.5 0-.01-.22-.12-.22-.4h.01Z"/><path fill="var(--icon-secondary)" d="M6.49 9.88c.2.31.51.68.51 1.08v1.45c0 1.09-1.07 1.77-2.16 1.77H3.6c-.49 0-.93-.18-1.27-.48.35.54.96.9 1.66.9h1.24c1.09 0 1.98-.89 1.98-1.98v-1.24c0-.61-.28-1.14-.71-1.5h-.01ZM10.9 12.62v-1.24c0-.27.21-.48.48-.48h1.27s.3.02.42.31c-.02-.25-.27-.46-.52-.46h-1.19c-.27 0-.61.15-.61.68v1.09c0 .23.14.46.36.5 0-.01-.22-.12-.22-.4h.01Z"/><path fill="var(--icon-secondary)" d="M13.89 9.88c.2.31.51.68.51 1.08v1.45c0 1.09-1.07 1.77-2.16 1.77H11c-.49 0-.93-.18-1.27-.48.35.54.96.9 1.66.9h1.24c1.09 0 1.98-.89 1.98-1.98v-1.24c0-.61-.28-1.14-.71-1.5h-.01ZM18.3 12.62v-1.24c0-.27.21-.48.48-.48h1.27s.3.02.42.31c-.02-.25-.27-.46-.52-.46h-1.19c-.27 0-.61.15-.61.68v1.09c0 .23.14.46.36.5 0-.01-.22-.12-.22-.4h.01Z"/><path fill="var(--icon-secondary)" d="M21.29 9.88c.2.31.51.68.51 1.08v1.45c0 1.09-1.07 1.77-2.16 1.77H18.4c-.49 0-.93-.18-1.27-.48.35.54.96.9 1.66.9h1.24c1.09 0 1.98-.89 1.98-1.98v-1.24c0-.61-.28-1.14-.71-1.5h-.01ZM3.5 20.02v-1.24c0-.27.21-.48.48-.48h1.27s.3.02.42.31c-.02-.25-.27-.46-.52-.46H3.96c-.27 0-.61.15-.61.68v1.09c0 .23.14.46.36.5 0-.01-.22-.12-.22-.4h.01Z"/><path fill="var(--icon-secondary)" d="M6.49 17.28c.2.31.51.68.51 1.08v1.45c0 1.09-1.07 1.77-2.16 1.77H3.6c-.49 0-.93-.18-1.27-.48.35.54.96.9 1.66.9h1.24c1.09 0 1.98-.89 1.98-1.98v-1.24c0-.61-.28-1.14-.71-1.5h-.01ZM10.9 20.02v-1.24c0-.27.21-.48.48-.48h1.27s.3.02.42.31c-.02-.25-.27-.46-.52-.46h-1.19c-.27 0-.61.15-.61.68v1.09c0 .23.14.46.36.5 0-.01-.22-.12-.22-.4h.01Z"/><path fill="var(--icon-secondary)" d="M13.89 17.28c.2.31.51.68.51 1.08v1.45c0 1.09-1.07 1.77-2.16 1.77H11c-.49 0-.93-.18-1.27-.48.35.54.96.9 1.66.9h1.24c1.09 0 1.98-.89 1.98-1.98v-1.24c0-.61-.28-1.14-.71-1.5h-.01ZM18.3 20.02v-1.24c0-.27.21-.48.48-.48h1.27s.3.02.42.31c-.02-.25-.27-.46-.52-.46h-1.19c-.27 0-.61.15-.61.68v1.09c0 .23.14.46.36.5 0-.01-.22-.12-.22-.4h.01Z"/><path fill="var(--icon-secondary)" d="M21.29 17.28c.2.31.51.68.51 1.08v1.45c0 1.09-1.07 1.77-2.16 1.77H18.4c-.49 0-.93-.18-1.27-.48.35.54.96.9 1.66.9h1.24c1.09 0 1.98-.89 1.98-1.98v-1.24c0-.61-.28-1.14-.71-1.5h-.01Z"/></g><defs><clipPath id="a"><path fill="#fff" d="M2 2h20v20H2z"/></clipPath></defs></svg>