<svg xmlns="http://www.w3.org/2000/svg" fill="none" viewBox="0 0 24 24"><g clip-path="url(#a)"><path fill="var(--icon-secondary)" fill-rule="evenodd" d="M13.52 13.02h-1.04v-4.5s.13.03.52.03.52-.03.52-.03v4.5Z" clip-rule="evenodd"/><path fill="var(--icon-primary)" fill-rule="evenodd" d="M13.52 9.1s-.18-.18-.52-.18-.52.18-.52.18v3.92h1.04V9.1Z" clip-rule="evenodd"/><path fill="var(--icon-primary)" d="M3.82 13.52h16.36c.45 0 .82.37.82.82v2.86c0 .22-.09.43-.24.58-.15.16-.36.24-.58.24H3.82a.785.785 0 0 1-.57-.28.804.804 0 0 1-.25-.54v-2.86c0-.45.37-.82.82-.82ZM7.93 13.02v-1.23c0-.33-.13-.64-.36-.88-.23-.23-.54-.36-.87-.36H5.47c-.33 0-.64.13-.87.37-.23.23-.36.55-.35.87v1.23"/><path fill="var(--icon-secondary)" d="M19.38 20.09c-.13.55-.63.93-1.19.93H5.81c-.56 0-1.06-.38-1.19-.93l-.37-1.54h15.5l-.37 1.54Z"/><path fill="var(--icon-primary)" d="M13 8.04A3.02 3.02 0 1 0 13 2a3.02 3.02 0 0 0 0 6.04Z"/><path fill="var(--icon-secondary)" fill-rule="evenodd" d="M15.49 3.31c.11.33.16.67.16 1.04a3.36 3.36 0 0 1-3.36 3.36c-.3 0-.6-.04-.88-.12.46.29 1 .45 1.59.45 1.67 0 3.02-1.35 3.02-3.02 0-.64-.2-1.23-.53-1.71Z" clip-rule="evenodd"/><path fill="var(--icon-secondary)" d="M7.93 11.79c0-.33-.13-.64-.36-.88h-.01c-.05.88-.84 1.4-1.47 1.4H4.25v.72h3.68v-1.24Z"/></g><defs><clipPath id="a"><path fill="#fff" d="M3 2h18v19.02H3z"/></clipPath></defs></svg>