<svg xmlns="http://www.w3.org/2000/svg" fill="none" viewBox="0 0 24 24"><g clip-path="url(#a)"><path fill="var(--icon-primary)" d="M12.01 6.35c-.33 0-.59-.27-.59-.59V3.08h1.19v2.68c0 .33-.27.59-.59.59h-.01Z"/><path fill="var(--icon-secondary)" d="M12.03 3.85c.24 0 .44.13.57.32V2.8c0-.33-1.19-.29-1.19 0v1.44c.12-.23.35-.39.62-.39Z"/><path fill="var(--icon-secondary)" d="M11.42 2.94V1.59c0-.33.27-.59.59-.59.32 0 .59.27.59.59v1.07c0 .33-1.19.27-1.19.27l.01.01Z"/><path fill="var(--icon-primary)" fill-rule="evenodd" d="M9.04 7.31H2.58C1.71 7.31 1 8.02 1 8.89v.85c0 1.16.82 2.16 1.96 2.38l6.36 1.14-.28-5.94v-.01ZM9.49 17.25s-.86-.12-1.44 0c-3.17.63-3.75 3.57-2.97 3.57h4.58l-.17-3.57ZM14.96 7.31h6.46c.87 0 1.58.71 1.58 1.58v.85c0 1.16-.82 2.16-1.96 2.38l-6.36 1.14.28-5.94v-.01ZM14.51 17.25s.86-.12 1.44 0c3.17.63 3.75 3.57 2.97 3.57h-4.58l.17-3.57Z" clip-rule="evenodd"/><path fill="var(--icon-primary)" d="M16.8 3.4H7.23c-.33 0-.59-.27-.59-.59 0-.32.27-.59.59-.59h9.57c.33 0 .59.27.59.59 0 .32-.27.59-.59.59Z"/><path fill="var(--icon-primary)" fill-rule="evenodd" d="M10.22 20.22c0 .98.8 1.78 1.78 1.78s1.78-.8 1.78-1.78l.59-12.9a2.38 2.38 0 0 0-2.38-2.38c-1.32 0-2.38 1.06-2.38 2.38l.59 12.9h.02Z" clip-rule="evenodd"/><path fill="var(--icon-secondary)" fill-rule="evenodd" d="M12.91 5.12c.38.42.62.97.62 1.58l-.59 12.9c0 .98-.8 1.78-1.78 1.78-.2 0-.38-.04-.56-.1.33.43.84.71 1.42.71.98 0 1.78-.8 1.78-1.78l.59-12.9c0-.99-.61-1.84-1.47-2.2l-.01.01Z" clip-rule="evenodd"/><path fill="var(--icon-secondary)" d="M16.8 2.94H7.23c-.25 0-.46-.15-.55-.36-.03.07-.05.15-.05.23 0 .33.27.59.59.59h9.57c.33 0 .59-.27.59-.59 0-.08-.02-.16-.05-.23-.09.21-.3.36-.55.36h.02Z"/><path fill="var(--icon-secondary)" fill-rule="evenodd" d="M9.16 9.92s.1 2.93-1.24 2.7l-5.3-.95c-.52-.1-.97-.37-1.31-.74.34.6.93 1.05 1.64 1.19l6.36 1.14-.16-3.33.01-.01ZM8.48 20.31c-.82 0-2.88.06-3.71.06.01.27.12.45.31.45h4.58l-.13-2.8s-.22 2.29-1.05 2.29ZM22.48 7.73c.11.22.19.45.19.71v.85c0 1.16-.67 2.24-1.96 2.38-1.29.14-5.81 1.07-5.81-3-.09 1.97-.19 4.08-.19 4.08l-.02.51 6.36-1.14a2.422 2.422 0 0 0 1.96-2.38v-.85c0-.46-.21-.87-.52-1.16h-.01ZM18.58 20.36c-.63 0-3.81.39-4.09-2.78l-.15 3.22h4.58c.49 0 .44-1.17-.46-2.19.57.89.55 1.75.13 1.75h-.01Z" clip-rule="evenodd"/><path fill="var(--icon-primary)" d="M11.72 1.86c.39 0 .69-.3.73-.67a.575.575 0 0 0-.43-.19c-.33 0-.59.27-.59.59v.2c.09.04.19.06.3.06l-.01.01Z"/></g><defs><clipPath id="a"><path fill="#fff" d="M1 1h22v21H1z"/></clipPath></defs></svg>