<svg width="360" height="360" viewBox="0 0 360 360" fill="none" xmlns="http://www.w3.org/2000/svg">
<g clip-path="url(#clip0_3734_4739)">
<path d="M212.9 342.81L95.6 246.21L205.11 177.85L328.86 260.41L212.9 342.81Z" fill="#974EE2"/>
<path d="M212.9 342.809L121.96 258.279L228.84 194.779L328.86 260.409L212.9 342.809Z" fill="#A160E5"/>
<path d="M217.22 89.7197L349.18 171.6L326.31 264.37L205.11 177.85L217.22 89.7197Z" fill="#D3A4FF"/>
<path d="M231.06 253.34L349.18 171.6L328.86 260.41C328.5 261.99 327.6 263.39 326.31 264.37L212.9 350.55L231.06 253.34Z" fill="#AB72E8"/>
<path d="M99.1 156.14L217.22 89.7197L205.11 177.85L95.6 246.21L99.1 156.14Z" fill="#974EE2"/>
<path d="M99.1 156.14L231.06 253.35L212.9 350.56L94.13 253.94C91.76 252.01 90.51 249.03 90.79 245.99L99.09 156.14H99.1Z" fill="#D3A4FF"/>
<path d="M171.92 209.78L156.82 305.99L128.04 281.95L140.22 186.42L171.92 209.78Z" fill="#FFA96D"/>
<path d="M286.21 215.15L266.33 309.95L296.04 287.37L317.68 193.39L286.21 215.15Z" fill="#FF9448"/>
<path d="M173.39 210.86L99.1 156.14L91.2 241.57L173.39 210.86Z" fill="#A160E5"/>
<path d="M171.67 211.45L171.93 209.78L140.22 186.42L135.29 225.09L171.67 211.45Z" fill="#FF9448"/>
<path d="M217.22 89.7197L205.11 177.85L228.84 194.78L287.99 133.63L217.22 89.7197Z" fill="#A160E5"/>
<path d="M10 191.73L147.8 181.42L159.05 220.41L20.37 233.69L10 191.73Z" fill="#D3A4FF"/>
<path d="M147.8 181.42L291.83 83.8096L303.07 122.8L159.05 220.41L147.8 181.42Z" fill="#DCB6FF"/>
<path d="M147.8 181.42L10 191.73L168.73 93.2896L291.83 83.8096L147.8 181.42Z" fill="#D3A4FF"/>
<path d="M83.57 186.39L247 87.2998L214.48 89.7898L54.5 188.4L83.57 186.39Z" fill="#FFA96D"/>
<path d="M158.09 169.61L164.3 137L127.89 149.83L121.96 182.37L141.47 170.13L158.09 169.61Z" fill="#FFB47F"/>
<path d="M55.41 169.73L152.48 131.14L158.25 141.34L49.22 185.1L67.43 170.78L55.41 169.73Z" fill="#FFB47F"/>
<path d="M207.03 141.29L66.2 157.09L108.82 130.48L245.18 115.34L207.03 141.29Z" fill="#FFA96D"/>
<path d="M147.27 132.71C159.72 117.22 118.18 99.8901 99.68 108.75C92.96 112.06 71.41 124.51 65.82 127.85C60.23 131.19 66.41 154.9 102.71 151.75C118.09 150.41 121.87 148.15 121.87 148.15L147.26 132.71H147.27Z" fill="#FFB47F"/>
<path d="M121.94 148.009L148.08 130.609C151.29 126.319 150.86 123.079 150.37 119.989C143.75 126.219 134.36 134.589 120.33 141.349C109.81 146.419 107.32 149.419 107.85 151.199C118.93 149.969 121.94 148.009 121.94 148.009Z" fill="#FFA96D"/>
<path d="M65.83 127.85C60.24 131.19 66.42 154.9 102.72 151.75C117.48 150.47 121.56 148.34 121.86 148.17H121.88C128.1 136.07 88.45 117.15 65.83 127.86V127.85Z" fill="#FFA96D"/>
<path d="M68.47 128.969C76.73 123.479 117.73 128.839 118.66 145.949C118.77 147.979 120.2 147.309 114.67 148.589C76.85 157.339 59.77 134.759 68.47 128.969Z" fill="#FF9448"/>
<path d="M189.04 116.789C189.29 115.849 160.36 114.789 158.6 115.339C156.84 115.889 130.26 121.689 114.34 150.969C112.55 152.829 142.33 148.959 146.65 147.549C151.51 145.969 185.09 124.569 190.78 120.399C196.98 115.859 189.05 116.789 189.05 116.789H189.04Z" fill="#FFB47F"/>
<path d="M126.22 134.649C120.92 138.279 117.29 144.719 114.34 150.969C112.55 152.829 142.33 148.959 146.65 147.549C148.24 147.029 152.93 144.379 158.7 140.909C133.94 147.819 127.44 139.729 126.22 134.649Z" fill="#FFA96D"/>
<path d="M190.77 120.409C196.97 115.869 195.95 115.579 195.95 115.579C195.99 115.439 195.7 115.419 195.19 115.489C187.56 117.959 153.51 138.939 145.12 148.069C145.69 147.879 146.2 147.699 146.64 147.559C151.5 145.979 185.08 124.579 190.77 120.409Z" fill="#FFAA6E"/>
<path d="M176.91 106.46C215.23 67.5998 251.08 88.4798 235.16 105.97C229.79 111.67 221.7 119.69 211.97 128.07C185.33 142.08 156.6 140.13 156.6 140.13L176.91 106.46Z" fill="#FFB47F"/>
<path d="M217.22 111.85C221.31 126.31 181.15 146.33 156.59 140.13C173.02 84.6298 213.4 98.3398 217.22 111.85Z" fill="#FFA96D"/>
<path d="M215.19 113.94C216.73 98.8999 173.54 89.0099 158.6 140.08C187.02 143.53 214.12 124.45 215.19 113.94Z" fill="#FF9448"/>
<path d="M93.05 226.73L64.19 229.49L54.5 188.4L83.57 186.39L93.05 226.73Z" fill="#FFB47F"/>
<path d="M257.3 153.72L219.15 179.67L207.03 141.29L245.18 115.34L257.3 153.72Z" fill="#FFB47F"/>
<path opacity="0.5" d="M10 192.149L147.73 181.149L147.8 181.419L147.95 181.929L10 192.149Z" fill="white"/>
<path opacity="0.5" d="M11.12 191.69L10 191.73L79.55 148.56L11.12 191.69Z" fill="white"/>
<path opacity="0.5" d="M291.94 83.8096L147.95 181.93L147.8 181.42L147.73 181.15L291.94 83.8096Z" fill="white"/>
<path opacity="0.5" d="M159.05 220.41L147.29 181.98L147.95 181.93L148.39 181.63L159.05 220.41Z" fill="white"/>
<path d="M352.51 73.9199C349.13 65.3099 335.72 61.8299 322.56 66.1599C309.4 70.4899 301.48 80.9799 304.86 89.5899C305.09 90.1699 305.91 92.7299 306.13 93.3099C309.51 101.92 322.92 105.4 336.08 101.07C349.24 96.7399 357.16 86.2499 353.78 77.6399C353.55 77.0599 352.73 74.4999 352.51 73.9199Z" fill="#FF9D58"/>
<path d="M352.51 73.9199C355.89 82.5299 347.97 93.0199 334.81 97.3499C321.65 101.68 308.24 98.1999 304.86 89.5899C301.48 80.9799 309.4 70.4899 322.56 66.1599C335.72 61.8299 349.13 65.3099 352.51 73.9199Z" fill="#FFA667"/>
<path d="M349.88 74.7803C352.77 82.1403 345.63 91.2303 333.92 95.0803C322.21 98.9303 310.38 96.0903 307.49 88.7303C304.6 81.3703 311.74 72.2803 323.45 68.4303C335.16 64.5803 346.99 67.4203 349.88 74.7803Z" fill="#FF9448"/>
<path d="M349.77 75.7198C352.49 82.6398 345.39 91.3098 333.92 95.0798C322.45 98.8498 310.94 96.3098 308.22 89.3898C305.5 82.4698 312.6 73.7998 324.07 70.0298C335.54 66.2598 347.05 68.7998 349.77 75.7198Z" fill="#FFF6EB"/>
<path d="M349.77 75.7204C347.05 68.8004 335.55 66.2504 324.07 70.0304C312.6 73.8004 305.5 82.4704 308.22 89.3904C310.94 96.3104 322.44 98.8604 333.92 95.0804C345.39 91.3104 352.49 82.6404 349.77 75.7204Z" fill="#FFB47F"/>
<path d="M342.01 94.0896C350.68 88.9096 355.22 80.8096 352.51 73.9196C352.33 73.4496 352.11 72.9996 351.87 72.5596C354 80.4296 349.94 88.8696 342.02 94.0896H342.01Z" fill="#FFC9A3"/>
<path d="M304.41 88.1699C304.53 88.6499 304.68 89.1299 304.86 89.5999C307.57 96.4999 316.71 100.1 326.99 99.0399C317.25 99.6299 308.24 95.4799 304.41 88.1799V88.1699Z" fill="#FFC9A3"/>
<path d="M336.81 89.8595C336.51 90.1195 336.18 90.1895 335.87 90.0695L334.69 89.6095C334.55 89.5495 334.36 89.5995 334.19 89.7095L334.03 89.8495C329.85 93.0095 325.09 94.2495 322.01 93.1795C321.67 93.0495 321.64 92.8395 321.94 92.5795L327.27 88.0095C327.64 87.6895 327.95 87.6095 328.35 87.6795C329.21 87.7795 330.08 87.5095 331.05 86.6795L334.78 83.4795C335.71 82.6895 335.78 82.1395 335.14 81.8895C334.54 81.6595 333.72 81.9695 332.46 82.8995L326.53 87.7795C322.65 90.7695 318.81 91.8195 315.71 90.6195C312.61 89.4195 313 86.7195 316.16 83.6495L316.9 83.0095C317.01 82.8795 317.04 82.7695 316.9 82.7195L315.72 82.2595C315.41 82.1395 315.4 81.9295 315.7 81.6795L320.42 77.6295C320.72 77.3695 321.05 77.2995 321.36 77.4195L322.54 77.8795C322.68 77.9395 322.85 77.9095 323.01 77.7995L323.38 77.4795C327.65 74.2695 331.74 73.5495 334.19 74.4995C334.57 74.6495 334.49 74.8495 334.25 75.0395L329.34 79.2495C328.99 79.5495 328.62 79.6895 328.12 79.6995C327.48 79.7395 326.82 79.9195 326.1 80.5295L322.09 83.9595C321.23 84.6895 321.15 85.1795 321.66 85.3795C322.17 85.5795 322.8 85.3595 323.96 84.5095L329.89 79.6595C333.81 76.5695 337.64 75.2595 341.18 76.6295C344.43 77.8895 344.09 80.8095 340.72 84.1195L340.28 84.4995C340.17 84.6295 340.17 84.7195 340.31 84.7695L341.49 85.2295C341.8 85.3495 341.81 85.5595 341.51 85.8095L336.79 89.8595H336.81Z" fill="#FF9448"/>
<path d="M336.49 88.8996C336.19 89.1596 335.86 89.2296 335.55 89.1096L334.37 88.6496C334.23 88.5896 334.04 88.6396 333.87 88.7496L333.71 88.8896C329.53 92.0496 324.77 93.2896 321.69 92.2196C321.35 92.0896 321.32 91.8796 321.62 91.6196L326.95 87.0496C327.32 86.7296 327.63 86.6496 328.03 86.7196C328.89 86.8196 329.76 86.5496 330.73 85.7196L334.46 82.5195C335.39 81.7295 335.46 81.1796 334.82 80.9296C334.22 80.6996 333.4 81.0096 332.14 81.9396L326.21 86.8196C322.33 89.8096 318.49 90.8596 315.39 89.6596C312.29 88.4596 312.68 85.7596 315.84 82.6896L316.58 82.0496C316.69 81.9196 316.72 81.8096 316.58 81.7596L315.4 81.2996C315.09 81.1796 315.08 80.9696 315.38 80.7196L320.1 76.6695C320.4 76.4095 320.73 76.3396 321.04 76.4596L322.22 76.9195C322.36 76.9795 322.53 76.9495 322.69 76.8395L323.06 76.5195C327.33 73.3095 331.42 72.5896 333.87 73.5396C334.25 73.6896 334.17 73.8896 333.93 74.0796L329.02 78.2896C328.67 78.5896 328.3 78.7295 327.8 78.7395C327.16 78.7795 326.5 78.9596 325.78 79.5696L321.77 82.9996C320.91 83.7296 320.83 84.2195 321.34 84.4195C321.85 84.6195 322.48 84.3996 323.64 83.5496L329.57 78.6995C333.49 75.6095 337.32 74.2995 340.86 75.6695C344.11 76.9295 343.77 79.8496 340.4 83.1596L339.96 83.5396C339.85 83.6696 339.85 83.7595 339.99 83.8095L341.17 84.2695C341.48 84.3895 341.49 84.5995 341.19 84.8495L336.47 88.8996H336.49Z" fill="white"/>
<path d="M283.5 137.53C278.07 130.03 264.22 130.02 252.56 137.49C240.9 144.97 235.85 157.1 241.27 164.6C241.63 165.1 243.07 167.38 243.43 167.89C248.86 175.39 262.71 175.4 274.37 167.93C286.03 160.45 291.08 148.32 285.66 140.82C285.3 140.32 283.86 138.04 283.5 137.53Z" fill="#FF9D58"/>
<path d="M283.5 137.53C288.93 145.03 283.87 157.16 272.21 164.64C260.55 172.12 246.7 172.1 241.27 164.6C235.84 157.1 240.9 144.97 252.56 137.49C264.22 130.01 278.07 130.03 283.5 137.53Z" fill="#FFA667"/>
<path d="M281.17 139.03C285.81 145.44 281.16 156.02 270.78 162.67C260.41 169.32 248.24 169.52 243.6 163.11C238.96 156.7 243.61 146.12 253.99 139.47C264.36 132.82 276.53 132.62 281.17 139.03Z" fill="#FF9448"/>
<path d="M281.3 139.96C285.66 145.98 280.95 156.15 270.78 162.66C260.61 169.18 248.83 169.58 244.47 163.56C240.11 157.54 244.82 147.37 254.99 140.86C265.16 134.34 276.94 133.94 281.3 139.96Z" fill="#FFF6EB"/>
<path d="M281.3 139.96C276.94 133.94 265.16 134.34 254.99 140.86C244.82 147.38 240.11 157.54 244.47 163.56C248.83 169.58 260.61 169.18 270.78 162.66C280.95 156.14 285.66 145.98 281.3 139.96Z" fill="#FFB47F"/>
<path d="M278.37 159.69C285.47 152.51 287.85 143.54 283.5 137.54C283.2 137.13 282.88 136.75 282.54 136.38C286.57 143.47 284.74 152.66 278.37 159.69Z" fill="#FFC9A3"/>
<path d="M240.48 163.34C240.71 163.77 240.98 164.2 241.27 164.61C245.61 170.61 255.36 171.82 265.06 168.22C255.77 171.22 246.01 169.46 240.48 163.34Z" fill="#FFC9A3"/>
<path d="M272.27 156.891C272.04 157.221 271.74 157.371 271.41 157.331L270.15 157.181C270 157.161 269.82 157.251 269.69 157.401L269.57 157.571C266.31 161.681 262.01 164.061 258.76 163.791C258.4 163.751 258.32 163.551 258.55 163.221L262.57 157.471C262.85 157.071 263.13 156.911 263.54 156.881C264.4 156.761 265.17 156.291 265.91 155.241L268.72 151.221C269.42 150.221 269.36 149.671 268.67 149.591C268.03 149.511 267.31 150.031 266.33 151.231L261.8 157.431C258.79 161.301 255.34 163.271 252.03 162.881C248.72 162.491 248.43 159.781 250.73 156.011L251.29 155.211C251.37 155.061 251.36 154.951 251.21 154.931L249.95 154.781C249.62 154.741 249.56 154.541 249.79 154.221L253.35 149.121C253.58 148.801 253.88 148.641 254.21 148.681L255.47 148.831C255.62 148.851 255.78 148.791 255.91 148.641L256.19 148.241C259.53 144.061 263.31 142.341 265.92 142.651C266.33 142.701 266.29 142.911 266.12 143.161L262.42 148.461C262.16 148.841 261.83 149.071 261.35 149.201C260.74 149.401 260.14 149.731 259.6 150.511L256.58 154.831C255.93 155.761 255.98 156.251 256.52 156.311C257.06 156.371 257.62 156.011 258.53 154.901L263.07 148.721C266.1 144.751 269.48 142.521 273.25 142.971C276.71 143.381 277.11 146.291 274.67 150.341L274.34 150.821C274.26 150.971 274.29 151.061 274.44 151.081L275.7 151.231C276.03 151.271 276.09 151.471 275.86 151.791L272.3 156.891H272.27Z" fill="#FF9448"/>
<path d="M271.73 156.04C271.5 156.37 271.2 156.52 270.87 156.48L269.61 156.33C269.46 156.31 269.28 156.4 269.15 156.55L269.03 156.72C265.77 160.83 261.47 163.21 258.22 162.94C257.86 162.9 257.78 162.7 258.01 162.37L262.03 156.62C262.31 156.22 262.59 156.06 263 156.03C263.86 155.91 264.63 155.44 265.37 154.39L268.18 150.37C268.88 149.37 268.82 148.82 268.13 148.74C267.49 148.66 266.77 149.18 265.79 150.38L261.26 156.58C258.25 160.45 254.8 162.42 251.49 162.03C248.18 161.64 247.89 158.93 250.19 155.16L250.75 154.36C250.83 154.21 250.82 154.1 250.67 154.08L249.41 153.93C249.08 153.89 249.02 153.69 249.25 153.37L252.81 148.27C253.04 147.95 253.34 147.79 253.67 147.83L254.93 147.98C255.08 148 255.24 147.94 255.37 147.79L255.65 147.39C258.99 143.21 262.77 141.49 265.38 141.8C265.79 141.85 265.75 142.06 265.58 142.31L261.88 147.61C261.62 147.99 261.29 148.22 260.81 148.35C260.2 148.55 259.6 148.88 259.06 149.66L256.04 153.98C255.39 154.91 255.44 155.4 255.98 155.46C256.52 155.52 257.08 155.16 257.99 154.05L262.53 147.87C265.56 143.9 268.94 141.67 272.71 142.12C276.17 142.53 276.57 145.44 274.13 149.49L273.8 149.97C273.72 150.12 273.75 150.21 273.9 150.23L275.16 150.38C275.49 150.42 275.55 150.62 275.32 150.94L271.76 156.04H271.73Z" fill="white"/>
<path d="M295.31 70.7703C304 63.3903 302.71 46.3703 292.42 32.7503C282.13 19.1303 266.74 14.0703 258.04 21.4503C257.46 21.9403 254.79 23.9203 254.21 24.4203C245.52 31.8003 246.81 48.8203 257.1 62.4403C267.39 76.0603 282.78 81.1203 291.48 73.7403C292.06 73.2503 294.73 71.2703 295.31 70.7703Z" fill="#FF9D58"/>
<path d="M295.31 70.7703C286.62 78.1503 271.22 73.0903 260.93 59.4703C250.64 45.8503 249.35 28.8303 258.04 21.4503C266.73 14.0703 282.13 19.1303 292.42 32.7503C302.71 46.3703 304 63.3903 295.31 70.7703Z" fill="#FFA667"/>
<path d="M293.25 68.0403C285.82 74.3503 272.37 69.6403 263.22 57.5203C254.07 45.4003 252.67 30.4703 260.1 24.1703C267.53 17.8603 280.98 22.5703 290.13 34.6903C299.29 46.8102 300.68 61.7403 293.25 68.0403Z" fill="#FF9448"/>
<path d="M292.12 68.2898C285.14 74.2198 272.2 69.3998 263.23 57.5198C254.26 45.6498 252.64 31.2098 259.63 25.2898C266.61 19.3598 279.55 24.1798 288.52 36.0598C297.49 47.9298 299.11 62.3698 292.12 68.2898Z" fill="#FFF6EB"/>
<path d="M292.12 68.29C299.1 62.36 297.49 47.93 288.52 36.06C279.55 24.19 266.61 19.36 259.63 25.29C252.65 31.22 254.26 45.65 263.23 57.52C272.2 69.39 285.14 74.22 292.12 68.29Z" fill="#FFB47F"/>
<path d="M267.61 66.5605C277.1 74.6105 288.35 76.6705 295.31 70.7605C295.78 70.3605 296.23 69.9205 296.64 69.4705C288.32 75.0905 276.85 73.7205 267.6 66.5605H267.61Z" fill="#FFC9A3"/>
<path d="M259.53 20.3604C259.02 20.6904 258.52 21.0504 258.05 21.4504C251.09 27.3604 250.53 39.4504 255.87 51.0204C251.3 39.8904 252.54 27.7404 259.54 20.3604H259.53Z" fill="#FFC9A3"/>
<path d="M270.47 58.8106C270.05 58.5606 269.83 58.2106 269.85 57.7906L269.91 56.2306C269.91 56.0406 269.79 55.8406 269.6 55.6906L269.37 55.5606C264.01 51.9506 260.67 46.8906 260.7 42.8706C260.72 42.4306 260.96 42.3106 261.38 42.5506L268.83 46.9406C269.35 47.2506 269.57 47.5706 269.65 48.0706C269.87 49.1106 270.53 50.0206 271.89 50.8206L277.1 53.8906C278.4 54.6506 279.06 54.5306 279.1 53.6706C279.13 52.8806 278.44 52.0406 276.86 50.9506L268.81 45.9706C263.77 42.6406 261.02 38.5806 261.19 34.4806C261.36 30.3806 264.66 29.7606 269.5 32.2306L270.54 32.8406C270.74 32.9206 270.87 32.9006 270.88 32.7106L270.94 31.1506C270.96 30.7406 271.19 30.6506 271.61 30.9006L278.21 34.7906C278.63 35.0406 278.85 35.3906 278.83 35.8106L278.77 37.3706C278.77 37.5606 278.85 37.7406 279.05 37.8906L279.57 38.2006C285.02 41.9006 287.49 46.3806 287.36 49.6206C287.34 50.1306 287.08 50.1006 286.75 49.9106L279.89 45.8606C279.4 45.5706 279.09 45.1906 278.88 44.6106C278.58 43.8806 278.11 43.1806 277.11 42.5906L271.51 39.2906C270.31 38.5806 269.71 38.6806 269.68 39.3506C269.65 40.0206 270.16 40.6706 271.61 41.6906L279.63 46.6806C284.8 50.0206 287.85 53.9706 287.66 58.6406C287.49 62.9306 283.94 63.7006 278.74 61.0906L278.12 60.7306C277.92 60.6506 277.82 60.6906 277.82 60.8806L277.76 62.4406C277.74 62.8506 277.51 62.9406 277.09 62.6906L270.49 58.8006L270.47 58.8106Z" fill="#FF9448"/>
<path d="M271.45 58.0606C271.03 57.8106 270.81 57.4606 270.83 57.0406L270.89 55.4806C270.89 55.2906 270.77 55.0906 270.58 54.9406L270.35 54.8106C264.99 51.2006 261.65 46.1406 261.68 42.1206C261.7 41.6806 261.94 41.5606 262.36 41.8006L269.81 46.1906C270.33 46.5006 270.55 46.8206 270.63 47.3206C270.85 48.3606 271.51 49.2706 272.87 50.0706L278.08 53.1406C279.38 53.9006 280.04 53.7806 280.08 52.9206C280.11 52.1306 279.42 51.2906 277.84 50.2006L269.79 45.2206C264.75 41.8906 262 37.8306 262.17 33.7306C262.34 29.6706 265.64 29.0106 270.48 31.4806L271.52 32.0906C271.72 32.1706 271.85 32.1506 271.86 31.9606L271.92 30.4006C271.94 29.9906 272.17 29.9006 272.59 30.1506L279.19 34.0406C279.61 34.2906 279.83 34.6406 279.81 35.0606L279.75 36.6206C279.75 36.8106 279.83 36.9906 280.03 37.1406L280.55 37.4506C286 41.1506 288.47 45.6306 288.34 48.8706C288.32 49.3806 288.06 49.3506 287.73 49.1606L280.87 45.1106C280.38 44.8206 280.07 44.4406 279.86 43.8606C279.56 43.1306 279.09 42.4306 278.09 41.8406L272.49 38.5406C271.29 37.8306 270.69 37.9306 270.66 38.6006C270.63 39.2706 271.14 39.9206 272.59 40.9406L280.61 45.9306C285.78 49.2706 288.83 53.2206 288.64 57.8906C288.47 62.1806 284.92 62.9506 279.72 60.3406L279.1 59.9806C278.9 59.9006 278.8 59.9406 278.8 60.1306L278.74 61.6906C278.72 62.1006 278.49 62.1906 278.07 61.9406L271.47 58.0506L271.45 58.0606Z" fill="white"/>
<path d="M274.11 207.19C273.71 199.83 264.44 193.85 253.41 193.84C242.38 193.82 233.77 199.77 234.17 207.13C234.2 207.62 234.17 209.77 234.2 210.26C234.6 217.62 243.87 223.6 254.9 223.61C265.93 223.62 274.54 217.68 274.14 210.32C274.11 209.83 274.14 207.68 274.11 207.19Z" fill="#FF9D58"/>
<path d="M274.11 207.19C274.51 214.55 265.9 220.5 254.87 220.48C243.84 220.46 234.57 214.48 234.17 207.13C233.77 199.78 242.38 193.82 253.41 193.84C264.44 193.86 273.71 199.84 274.11 207.19Z" fill="#FFA667"/>
<path d="M271.91 207.18C272.26 213.47 264.58 218.55 254.77 218.53C244.96 218.51 236.72 213.4 236.38 207.12C236.04 200.84 243.71 195.75 253.52 195.77C263.33 195.79 271.57 200.9 271.91 207.18Z" fill="#FF9448"/>
<path d="M271.59 207.86C271.91 213.77 264.38 218.55 254.77 218.53C245.15 218.51 237.09 213.71 236.77 207.8C236.45 201.89 243.98 197.11 253.59 197.13C263.2 197.15 271.27 201.95 271.59 207.86Z" fill="#FFF6EB"/>
<path d="M271.59 207.86C271.27 201.95 263.21 197.15 253.59 197.13C243.97 197.11 236.44 201.89 236.77 207.8C237.1 213.71 245.15 218.51 254.77 218.53C264.39 218.55 271.92 213.77 271.59 207.86Z" fill="#FFB47F"/>
<path d="M261.13 219.81C268.98 218.06 274.43 213.08 274.11 207.19C274.09 206.79 274.04 206.39 273.96 206C273.6 212.48 268.42 217.85 261.13 219.81Z" fill="#FFC9A3"/>
<path d="M234.19 205.93C234.16 206.32 234.15 206.72 234.18 207.12C234.5 213.01 240.51 218.02 248.55 219.79C241.04 217.8 235.26 212.41 234.19 205.93Z" fill="#FFC9A3"/>
<path d="M263.45 213.4C263.28 213.58 263.02 213.63 262.71 213.53L261.52 213.16C261.37 213.11 261.23 213.14 261.12 213.22L261.03 213.32C258.53 215.55 254.83 216.34 251.78 215.45C251.44 215.34 251.34 215.18 251.51 215L254.51 211.76C254.72 211.53 254.96 211.48 255.33 211.55C256.11 211.65 256.77 211.48 257.32 210.88L259.42 208.61C259.94 208.05 259.82 207.64 259.16 207.44C258.55 207.25 257.95 207.46 257.19 208.11L253.77 211.56C251.47 213.67 248.51 214.34 245.38 213.36C242.25 212.38 241.64 210.39 243.29 208.2L243.71 207.75C243.76 207.66 243.74 207.58 243.6 207.53L242.41 207.16C242.1 207.06 242.02 206.91 242.19 206.73L244.85 203.86C245.02 203.68 245.28 203.63 245.59 203.73L246.78 204.1C246.93 204.15 247.06 204.13 247.16 204.06L247.37 203.83C249.94 201.57 253.23 201.15 255.7 201.92C256.09 202.04 256.08 202.18 255.95 202.32L253.19 205.3C252.99 205.51 252.72 205.61 252.29 205.6C251.75 205.61 251.24 205.72 250.83 206.16L248.57 208.59C248.09 209.11 248.19 209.47 248.7 209.63C249.21 209.79 249.68 209.65 250.39 209.05L253.82 205.62C256.12 203.44 258.99 202.57 262.54 203.69C265.81 204.71 266.55 206.87 264.81 209.23L264.56 209.5C264.51 209.59 264.54 209.66 264.68 209.7L265.87 210.07C266.18 210.17 266.26 210.32 266.09 210.5L263.43 213.37L263.45 213.4Z" fill="#FF9448"/>
<path d="M263.45 212.6C263.28 212.78 263.02 212.83 262.71 212.73L261.52 212.36C261.37 212.31 261.23 212.34 261.12 212.42L261.03 212.52C258.53 214.75 254.83 215.54 251.78 214.65C251.44 214.54 251.34 214.38 251.51 214.2L254.51 210.96C254.72 210.73 254.96 210.68 255.33 210.75C256.11 210.85 256.77 210.68 257.32 210.08L259.42 207.81C259.94 207.25 259.82 206.84 259.16 206.64C258.55 206.45 257.95 206.66 257.19 207.31L253.77 210.76C251.47 212.87 248.51 213.54 245.38 212.56C242.25 211.58 241.64 209.59 243.29 207.4L243.71 206.95C243.76 206.86 243.74 206.78 243.6 206.73L242.41 206.36C242.1 206.26 242.02 206.11 242.19 205.93L244.85 203.06C245.02 202.88 245.28 202.83 245.59 202.93L246.78 203.3C246.93 203.35 247.06 203.33 247.16 203.26L247.37 203.03C249.94 200.77 253.23 200.35 255.7 201.12C256.09 201.24 256.08 201.38 255.95 201.52L253.19 204.5C252.99 204.71 252.72 204.81 252.29 204.8C251.75 204.81 251.24 204.92 250.83 205.36L248.57 207.79C248.09 208.31 248.19 208.67 248.7 208.83C249.21 208.99 249.68 208.85 250.39 208.25L253.82 204.82C256.12 202.64 258.99 201.77 262.54 202.89C265.81 203.91 266.55 206.07 264.81 208.43L264.56 208.7C264.51 208.79 264.54 208.86 264.68 208.9L265.87 209.27C266.18 209.37 266.26 209.52 266.09 209.7L263.43 212.57L263.45 212.6Z" fill="white"/>
<path d="M354.49 11.0301C350.6 3.60011 338.18 1.77011 326.74 6.95011C315.3 12.1301 309.18 22.3601 313.07 29.7901C313.33 30.2901 314.32 32.5201 314.58 33.0201C318.47 40.4501 330.89 42.2801 342.33 37.1001C353.77 31.9201 359.89 21.6901 356 14.2601C355.74 13.7601 354.75 11.5301 354.49 11.0301Z" fill="#FF9D58"/>
<path d="M354.49 11.0301C358.38 18.4601 352.26 28.6901 340.82 33.8701C329.38 39.0501 316.96 37.2201 313.07 29.7901C309.18 22.3601 315.3 12.1301 326.74 6.95011C338.18 1.77011 350.6 3.60011 354.49 11.0301Z" fill="#FFA667"/>
<path d="M352.21 12.0606C355.53 18.4106 349.98 27.3006 339.8 31.9106C329.62 36.5206 318.68 35.1006 315.36 28.7506C312.04 22.4006 317.59 13.5106 327.77 8.90058C337.95 4.29058 348.89 5.71058 352.21 12.0606Z" fill="#FF9448"/>
<path d="M352.2 12.9198C355.32 18.8898 349.77 27.3898 339.79 31.9098C329.82 36.4298 319.2 35.2498 316.07 29.2798C312.95 23.3098 318.5 14.8098 328.48 10.2898C338.45 5.7698 349.07 6.9498 352.2 12.9198Z" fill="#FFF6EB"/>
<path d="M352.2 12.9198C349.08 6.9498 338.46 5.7698 328.48 10.2898C318.51 14.8098 312.95 23.3098 316.07 29.2798C319.19 35.2498 329.81 36.4298 339.79 31.9098C349.76 27.3898 355.32 18.8898 352.2 12.9198Z" fill="#FFB47F"/>
<path d="M346.99 30.2304C354.3 24.7204 357.6 16.9804 354.49 11.0304C354.28 10.6204 354.04 10.2404 353.78 9.86035C356.47 16.7404 353.62 24.7504 346.99 30.2304Z" fill="#FFC9A3"/>
<path d="M312.52 28.5498C312.67 28.9698 312.85 29.3898 313.07 29.7898C316.18 35.7398 324.77 38.0998 333.94 36.1398C325.22 37.6198 316.69 34.7598 312.53 28.5498H312.52Z" fill="#FFC9A3"/>
<path d="M347.98 17.0001C348.11 17.2001 347.99 17.4102 347.63 17.5901L346.28 18.3001C346.11 18.3902 346.04 18.5101 346.08 18.6101L346.15 18.7201C347.46 21.4501 345.93 24.4601 342.54 26.3201C342.15 26.5201 341.86 26.5301 341.73 26.3301L339.38 22.8201C339.22 22.5801 339.31 22.3801 339.67 22.1301C340.36 21.6001 340.59 21.0501 340.16 20.4101L338.51 17.9501C338.1 17.3401 337.45 17.2701 336.71 17.6601C336.02 18.0201 335.88 18.5501 336.25 19.3701L338.6 23.2702C339.89 25.8102 338.72 28.2401 335.15 30.1101C331.58 31.9802 328.39 31.6101 326.53 29.5101L326.2 29.0201C326.11 28.9401 325.99 28.9301 325.82 29.0201L324.47 29.7301C324.11 29.9201 323.85 29.9101 323.71 29.7101L321.62 26.6002C321.49 26.4002 321.61 26.1902 321.97 26.0101L323.32 25.3001C323.49 25.2101 323.57 25.1101 323.53 25.0001L323.37 24.7601C322.06 21.9601 323.81 19.4001 326.63 17.9201C327.07 17.6901 327.26 17.7501 327.37 17.9001L329.54 21.1301C329.69 21.3601 329.63 21.6001 329.31 21.9101C328.94 22.3101 328.74 22.7302 329.05 23.2002L330.82 25.8401C331.2 26.4002 331.77 26.4802 332.35 26.1701C332.93 25.8601 333.07 25.4602 332.75 24.7002L330.44 20.8001C329.05 18.2301 329.89 15.7901 333.95 13.6601C337.68 11.7001 341.2 12.0501 343.22 14.2801L343.41 14.5701C343.5 14.6501 343.61 14.6501 343.78 14.5701L345.13 13.8601C345.49 13.6701 345.75 13.6801 345.89 13.8801L347.98 16.9901V17.0001Z" fill="#FF9448"/>
<path d="M347.61 16.1798C347.74 16.3798 347.62 16.5898 347.26 16.7698L345.91 17.4798C345.74 17.5698 345.67 17.6898 345.71 17.7898L345.78 17.8998C347.09 20.6298 345.56 23.6398 342.17 25.4998C341.78 25.6998 341.49 25.7098 341.36 25.5098L339.01 21.9998C338.85 21.7598 338.94 21.5598 339.3 21.3098C339.99 20.7798 340.22 20.2298 339.79 19.5898L338.14 17.1298C337.73 16.5198 337.08 16.4498 336.34 16.8398C335.65 17.1998 335.51 17.7298 335.88 18.5498L338.23 22.4498C339.52 24.9898 338.35 27.4198 334.78 29.2898C331.21 31.1598 328.02 30.7898 326.16 28.6898L325.83 28.1998C325.74 28.1198 325.62 28.1098 325.45 28.1998L324.1 28.9098C323.74 29.0998 323.48 29.0898 323.34 28.8898L321.25 25.7798C321.12 25.5798 321.24 25.3698 321.6 25.1898L322.95 24.4798C323.12 24.3898 323.2 24.2898 323.16 24.1798L323 23.9398C321.69 21.1398 323.44 18.5798 326.26 17.0998C326.7 16.8698 326.89 16.9298 327 17.0798L329.17 20.3098C329.32 20.5398 329.26 20.7798 328.94 21.0898C328.57 21.4898 328.37 21.9098 328.68 22.3798L330.45 25.0198C330.83 25.5798 331.4 25.6598 331.98 25.3498C332.56 25.0398 332.7 24.6398 332.38 23.8798L330.07 19.9798C328.68 17.4098 329.52 14.9698 333.58 12.8398C337.31 10.8798 340.83 11.2298 342.85 13.4598L343.04 13.7498C343.13 13.8298 343.24 13.8298 343.41 13.7498L344.76 13.0398C345.12 12.8498 345.38 12.8598 345.52 13.0598L347.61 16.1698V16.1798Z" fill="white"/>
<path d="M229.99 25.4699C226.5 16.8999 213.05 13.5999 199.94 18.0899C186.84 22.5799 179.05 33.1699 182.54 41.7399C182.77 42.3099 183.62 44.8699 183.86 45.4499C187.35 54.0199 200.8 57.3199 213.91 52.8299C227.01 48.3399 234.8 37.7499 231.31 29.1799C231.08 28.6099 230.23 26.0499 229.99 25.4699Z" fill="#FF9D58"/>
<path d="M229.99 25.4699C233.48 34.0399 225.69 44.6299 212.59 49.1199C199.49 53.6099 186.04 50.3099 182.54 41.7399C179.04 33.1699 186.84 22.5799 199.94 18.0899C213.04 13.5999 226.49 16.8999 229.99 25.4699Z" fill="#FFA667"/>
<path d="M227.37 26.3696C230.35 33.6896 223.32 42.8696 211.67 46.8696C200.01 50.8696 188.14 48.1696 185.16 40.8496C182.18 33.5296 189.21 24.3496 200.86 20.3496C212.52 16.3496 224.39 19.0496 227.37 26.3696Z" fill="#FF9448"/>
<path d="M227.28 27.3096C230.09 34.1896 223.1 42.9496 211.67 46.8696C200.24 50.7896 188.71 48.3796 185.9 41.4996C183.09 34.6196 190.08 25.8596 201.51 21.9396C212.94 18.0196 224.47 20.4296 227.28 27.3096Z" fill="#FFF6EB"/>
<path d="M227.28 27.3096C224.47 20.4296 212.94 18.0196 201.51 21.9396C190.08 25.8596 183.1 34.6096 185.9 41.4996C188.71 48.3796 200.24 50.7896 211.67 46.8696C223.1 42.9496 230.08 34.1996 227.28 27.3096Z" fill="#FFB47F"/>
<path d="M219.74 45.7701C228.34 40.4801 232.78 32.3301 229.98 25.4701C229.79 25.0001 229.57 24.5501 229.32 24.1201C231.55 31.9601 227.59 40.4501 219.74 45.7701Z" fill="#FFC9A3"/>
<path d="M182.07 40.3301C182.19 40.8101 182.35 41.2801 182.54 41.7501C185.34 48.6101 194.52 52.1001 204.79 50.9101C195.06 51.6201 185.99 47.5901 182.07 40.3301Z" fill="#FFC9A3"/>
<path d="M192.66 40.0199C192.49 39.8099 192.61 39.5899 193.01 39.3999L194.51 38.6699C194.69 38.5799 194.76 38.4599 194.72 38.3399L194.63 38.2299C192.89 35.3199 194.4 32.1599 198.14 30.2499C198.57 30.0399 198.91 30.0399 199.07 30.2499L202.08 33.9899C202.29 34.2499 202.2 34.4499 201.81 34.7099C201.06 35.2599 200.84 35.8399 201.39 36.5199L203.5 39.1399C204.02 39.7899 204.77 39.8799 205.6 39.4799C206.37 39.1099 206.48 38.5599 205.99 37.6799L202.95 33.5199C201.25 30.8199 202.39 28.2699 206.34 26.3499C210.26 24.4399 214 24.8599 216.32 27.1099L216.74 27.6299C216.85 27.7099 216.99 27.7299 217.18 27.6399L218.68 26.9099C219.08 26.7199 219.38 26.7299 219.55 26.9399L222.22 30.2599C222.39 30.4699 222.27 30.6899 221.87 30.8799L220.37 31.6099C220.19 31.6999 220.1 31.8099 220.15 31.9199L220.36 32.1799C222.11 35.1499 220.31 37.8399 217.19 39.3599C216.7 39.5999 216.47 39.5299 216.34 39.3599L213.57 35.9099C213.37 35.6699 213.43 35.4099 213.76 35.0899C214.15 34.6699 214.35 34.2399 213.95 33.7299L211.69 30.9099C211.21 30.3099 210.54 30.2199 209.9 30.5399C209.26 30.8599 209.13 31.2799 209.57 32.0799L212.57 36.2399C214.39 38.9799 213.64 41.5399 209.13 43.7299C205 45.7399 200.92 45.3299 198.4 42.9299L198.15 42.6199C198.04 42.5399 197.91 42.5299 197.73 42.6199L196.23 43.3499C195.83 43.5399 195.53 43.5299 195.36 43.3199L192.69 39.9999L192.66 40.0199Z" fill="#FF9448"/>
<path d="M192.33 39.07C192.16 38.86 192.28 38.64 192.68 38.45L194.18 37.72C194.36 37.63 194.43 37.51 194.39 37.39L194.3 37.28C192.56 34.37 194.07 31.21 197.81 29.3C198.24 29.09 198.58 29.09 198.74 29.3L201.75 33.04C201.96 33.3 201.87 33.5 201.48 33.76C200.73 34.31 200.51 34.89 201.06 35.57L203.17 38.19C203.69 38.84 204.44 38.93 205.27 38.53C206.04 38.16 206.15 37.61 205.66 36.73L202.62 32.57C200.92 29.87 202.06 27.32 206.01 25.4C209.96 23.48 213.67 23.91 215.99 26.16L216.41 26.68C216.52 26.76 216.66 26.78 216.85 26.69L218.35 25.96C218.75 25.77 219.05 25.78 219.22 25.99L221.89 29.31C222.06 29.52 221.94 29.74 221.54 29.93L220.04 30.66C219.86 30.75 219.77 30.86 219.82 30.97L220.03 31.23C221.78 34.2 219.98 36.89 216.86 38.41C216.37 38.65 216.14 38.58 216.01 38.41L213.24 34.96C213.04 34.72 213.1 34.46 213.43 34.14C213.82 33.72 214.02 33.29 213.62 32.78L211.36 29.96C210.88 29.36 210.21 29.27 209.57 29.59C208.93 29.91 208.8 30.33 209.24 31.13L212.24 35.29C214.06 38.03 213.31 40.59 208.8 42.78C204.67 44.79 200.59 44.38 198.07 41.98L197.82 41.67C197.71 41.59 197.58 41.58 197.4 41.67L195.9 42.4C195.5 42.59 195.2 42.58 195.03 42.37L192.36 39.05L192.33 39.07Z" fill="white"/>
<path d="M352.99 162.09C358.25 148.08 349.63 131.22 333.75 124.44C317.87 117.66 300.73 123.53 295.47 137.54C295.12 138.48 294.28 140.36 293.93 141.3C288.67 155.31 297.29 172.17 313.17 178.95C329.05 185.73 346.19 179.86 351.45 165.85C351.8 164.91 352.64 163.03 352.99 162.09Z" fill="#FF9D58"/>
<path d="M352.99 162.09C347.73 176.1 330.6 181.97 314.71 175.19C298.83 168.41 290.21 151.56 295.47 137.54C300.73 123.53 317.86 117.66 333.75 124.44C349.64 131.22 358.25 148.07 352.99 162.09Z" fill="#FFA667"/>
<path d="M349.81 160.73C345.32 172.71 330.22 177.53 316.09 171.5C301.96 165.47 294.14 150.87 298.64 138.9C303.13 126.92 318.23 122.1 332.36 128.13C346.49 134.16 354.31 148.76 349.81 160.73Z" fill="#FF9448"/>
<path d="M348.82 161.82C344.6 173.08 329.95 177.41 316.1 171.5C302.25 165.59 294.44 151.67 298.67 140.41C302.89 129.15 317.54 124.82 331.39 130.73C345.24 136.64 353.05 150.56 348.82 161.82Z" fill="#FFF6EB"/>
<path d="M348.82 161.82C353.04 150.56 345.24 136.64 331.39 130.73C317.54 124.82 302.89 129.15 298.67 140.41C294.45 151.67 302.25 165.59 316.1 171.5C329.95 177.41 344.6 173.08 348.82 161.82Z" fill="#FFB47F"/>
<path d="M324.25 177.771C336.95 179.301 348.77 173.311 352.98 162.09C353.27 161.33 353.51 160.551 353.71 159.771C348.05 171.681 336.32 178.551 324.24 177.771H324.25Z" fill="#FFC9A3"/>
<path d="M296.43 135.32C296.07 136.04 295.75 136.77 295.46 137.54C291.25 148.76 295.94 161.8 306.12 170.03C296.87 161.71 292.82 148.1 296.42 135.32H296.43Z" fill="#FFC9A3"/>
<path d="M332.69 167.19C332.3 167.43 331.89 167.35 331.51 166.98L330.1 165.56C329.93 165.39 329.69 165.34 329.48 165.42L329.27 165.55C323.89 168.19 317.94 167.4 314.24 163.88C313.84 163.47 313.81 163.11 314.2 162.88L321.09 158.66C321.57 158.37 321.95 158.41 322.45 158.76C323.5 159.42 324.59 159.5 325.85 158.73L330.67 155.77C331.87 155.04 332.01 154.2 331.23 153.42C330.51 152.7 329.47 152.72 327.86 153.48L320.2 157.85C315.21 160.4 310.4 159.84 306.68 156.1C302.98 152.39 303.64 148.25 307.76 145.17L308.72 144.58C308.87 144.44 308.9 144.28 308.73 144.11L307.32 142.69C306.94 142.31 306.95 141.98 307.34 141.74L313.45 137.99C313.84 137.75 314.25 137.83 314.63 138.2L316.04 139.62C316.21 139.79 316.42 139.85 316.63 139.77L317.11 139.48C322.61 136.81 327.69 138.04 330.64 141C331.1 141.46 330.98 141.73 330.68 141.91L324.33 145.8C323.88 146.08 323.41 146.08 322.79 145.8C322 145.49 321.17 145.39 320.25 145.96L315.07 149.14C313.96 149.82 313.83 150.56 314.43 151.16C315.03 151.76 315.83 151.79 317.33 151.11L324.99 146.79C330.05 144.11 334.86 144.25 339.1 148.51C343 152.42 342.36 156.92 337.97 160.26L337.4 160.61C337.25 160.75 337.25 160.89 337.42 161.06L338.83 162.48C339.21 162.86 339.2 163.19 338.81 163.43L332.7 167.18L332.69 167.19Z" fill="#FF9448"/>
<path d="M333.32 165.7C332.93 165.94 332.52 165.86 332.14 165.49L330.73 164.07C330.56 163.9 330.32 163.85 330.11 163.93L329.9 164.06C324.52 166.7 318.57 165.91 314.87 162.39C314.47 161.98 314.44 161.62 314.83 161.39L321.72 157.17C322.2 156.88 322.58 156.92 323.08 157.27C324.13 157.93 325.22 158.01 326.48 157.24L331.3 154.28C332.5 153.55 332.64 152.71 331.86 151.93C331.14 151.21 330.1 151.23 328.49 151.99L320.83 156.36C315.84 158.91 311.03 158.35 307.31 154.61C303.59 150.87 304.27 146.76 308.39 143.68L309.35 143.09C309.5 142.95 309.53 142.79 309.36 142.62L307.95 141.2C307.57 140.82 307.58 140.49 307.97 140.25L314.08 136.5C314.47 136.26 314.88 136.34 315.26 136.71L316.67 138.13C316.84 138.3 317.05 138.36 317.26 138.28L317.74 137.99C323.24 135.32 328.32 136.55 331.27 139.51C331.73 139.97 331.61 140.24 331.31 140.42L324.96 144.31C324.51 144.59 324.04 144.59 323.42 144.31C322.63 144 321.8 143.9 320.88 144.47L315.7 147.65C314.59 148.33 314.46 149.07 315.06 149.67C315.66 150.27 316.46 150.3 317.96 149.62L325.62 145.3C330.68 142.62 335.49 142.76 339.73 147.02C343.63 150.93 342.99 155.43 338.6 158.77L338.03 159.12C337.88 159.26 337.88 159.4 338.05 159.57L339.46 160.99C339.84 161.37 339.83 161.7 339.44 161.94L333.33 165.69L333.32 165.7Z" fill="white"/>
</g>
<defs>
<clipPath id="clip0_3734_4739">
<rect width="347.17" height="346.55" fill="white" transform="translate(10 4)"/>
</clipPath>
</defs>
</svg>
