<svg width="24" height="24" viewBox="0 0 24 24" fill="none" xmlns="http://www.w3.org/2000/svg">
<path d="M16.8948 23.3547C19.3588 23.0661 20.1248 20.1248 20.1248 20.1248C20.1248 20.1248 23.0661 19.3588 23.3547 16.8947C23.6433 14.4308 20.145 13.0413 19.1526 12.6927C15.6073 11.4561 12 12 12 12C12 12 11.4561 15.6074 12.6927 19.1526C13.0412 20.145 14.4308 23.6433 16.8948 23.3547ZM7.10516 0.645279C4.64108 0.933877 3.87525 3.87524 3.87525 3.87524C3.87525 3.87524 0.933882 4.64108 0.645285 7.10521C0.356637 9.56923 3.85491 10.9587 4.84737 11.3073C8.39264 12.5439 12 12 12 12C12 12 12.5438 8.39269 11.3073 4.84737C10.9587 3.85496 9.56919 0.356682 7.10516 0.645279Z" fill="#6BC98C"/>
<path opacity="0.2" d="M12.0001 11.9831C12.0001 11.9831 12.3282 11.9338 12.8835 11.8984C12.8122 13.2248 12.8409 15.6305 13.67 18.0079C14.0186 19 15.408 22.4982 17.8721 22.2096C18.5248 22.1331 19.0586 21.8707 19.4902 21.5257C18.9959 22.3229 18.1746 23.1878 16.8948 23.3375C14.4308 23.6262 13.0413 20.128 12.6927 19.1359C11.4566 15.5905 12.0001 11.9831 12.0001 11.9831Z" fill="black"/>
<path opacity="0.2" d="M12.0002 12.0173C12.0002 12.0173 11.672 12.0665 11.1168 12.1019C11.1881 10.7755 11.1593 8.36991 10.3303 5.99248C9.98162 5.00037 8.59226 1.50215 6.12813 1.7908C5.47546 1.86718 4.94172 2.12973 4.51001 2.47473C5.00429 1.67748 5.82562 0.81255 7.10536 0.662864C9.56944 0.374216 10.9589 3.87239 11.3076 4.86455C12.5436 8.40987 12.0002 12.0173 12.0002 12.0173Z" fill="black"/>
<path d="M23.3546 7.10515C23.066 4.64112 20.1247 3.87519 20.1247 3.87519C20.1247 3.87519 19.3588 0.93382 16.8948 0.645274C14.4307 0.356727 13.0412 3.85495 12.6927 4.84736C11.4561 8.39268 12 12 12 12C12 12 15.6072 12.5438 19.1525 11.3072C20.1449 10.9586 23.6432 9.56923 23.3546 7.10515ZM0.645279 16.8948C0.933826 19.3589 3.87524 20.1248 3.87524 20.1248C3.87524 20.1248 4.64108 23.0662 7.10516 23.3547C9.56923 23.6433 10.9587 20.145 11.3073 19.1527C12.5438 15.6073 12 12 12 12C12 12 8.39269 11.4561 4.84737 12.6927C3.85496 13.0414 0.356682 14.4308 0.645279 16.8948Z" fill="#6BC98C"/>
<path opacity="0.2" d="M11.9833 12.0003C11.9833 12.0003 11.934 11.6722 11.8987 11.117C13.2251 11.1882 15.6307 11.1595 18.0081 10.3305C19.0002 9.98187 22.4984 8.59245 22.2098 6.12837C22.1333 5.4757 21.8708 4.94191 21.5258 4.51025C22.3231 5.00454 23.188 5.82586 23.3377 7.10566C23.6264 9.56969 20.1282 10.9592 19.136 11.3077C15.5907 12.5438 11.9833 12.0003 11.9833 12.0003Z" fill="black"/>
<path opacity="0.2" d="M12.0173 11.9998C12.0173 11.9998 12.0665 12.3279 12.1019 12.8833C10.7755 12.8119 8.36991 12.8407 5.99249 13.6697C5.00038 14.0183 1.50215 15.4078 1.7908 17.8719C1.86719 18.5246 2.12973 19.0583 2.47468 19.4899C1.67754 18.9957 0.812555 18.1744 0.662869 16.8945C0.374171 14.4306 3.8724 13.041 4.8645 12.6924C8.40987 11.4564 12.0173 11.9998 12.0173 11.9998Z" fill="black"/>
</svg>
