<svg xmlns="http://www.w3.org/2000/svg" fill="none" viewBox="0 0 24 24"><g clip-path="url(#a)"><path fill="var(--icon-secondary)" fill-rule="evenodd" d="M16.28 15.05V7.52L9.76 3.76c-.13.22-.2.48-.2.75v6.03c0 .53.28 1.03.75 1.29l5.22 3.02c.23.13.49.2.75.2ZM22.8 3.76l-6.52 3.76v7.53c.26 0 .52-.07.75-.2l5.22-3.02c.46-.27.75-.76.75-1.29V4.51c0-.27-.07-.52-.2-.75Z" clip-rule="evenodd"/><path fill="var(--icon-primary)" fill-rule="evenodd" d="m9.76 3.76 6.52 3.76 6.52-3.76c-.13-.22-.32-.41-.55-.55L17.03.2c-.46-.27-1.03-.27-1.49 0l-5.22 3.02c-.23.13-.42.32-.55.55l-.01-.01Z" clip-rule="evenodd"/><path fill="#000" d="M16.77 6.24c.608 0 1.1-.273 1.1-.61 0-.337-.492-.61-1.1-.61-.607 0-1.1.273-1.1.61 0 .337.493.61 1.1.61ZM14.81 5.09c.608 0 1.1-.273 1.1-.61 0-.337-.492-.61-1.1-.61-.607 0-1.1.273-1.1.61 0 .337.493.61 1.1.61ZM12.79 3.96c.608 0 1.1-.273 1.1-.61 0-.337-.492-.61-1.1-.61-.607 0-1.1.273-1.1.61 0 .337.493.61 1.1.61ZM19.88 4.5c.608 0 1.1-.273 1.1-.61 0-.337-.492-.61-1.1-.61-.607 0-1.1.273-1.1.61 0 .337.492.61 1.1.61ZM17.91 3.35c.608 0 1.1-.273 1.1-.61 0-.337-.492-.61-1.1-.61-.608 0-1.1.273-1.1.61 0 .337.492.61 1.1.61ZM15.9 2.22c.608 0 1.1-.273 1.1-.61 0-.337-.492-.61-1.1-.61-.607 0-1.1.273-1.1.61 0 .337.492.61 1.1.61Z"/><path fill="var(--icon-primary)" fill-rule="evenodd" d="M13.72 6.05c.54.31 1.02.59 1.34.77 1.12.64 1.1 1.94 1.1 1.94h.25s.21-1.42 1.21-2l1.36-.79c.82-.48-.97.63-2.69.63s-3.39-1.04-2.56-.56l-.01.01Z" clip-rule="evenodd"/><path fill="#141114" d="M10.47 6.46c.1.49.53.99.97 1.13.44.14.75-.15.66-.65-.09-.5-.56-1.04-1.01-1.16-.45-.12-.72.19-.62.69v-.01ZM15.25 12.63c-.12-.54-.64-1.1-1.17-1.23-.53-.13-.82.24-.66.8.16.56.68 1.04 1.16 1.15.48.11.78-.2.66-.71l.01-.01ZM13.67 9.86c-.12-.54-.64-1.1-1.17-1.23-.53-.13-.82.24-.66.8.16.56.68 1.04 1.16 1.15.48.11.78-.2.66-.71l.01-.01ZM21.92 6.83c-.1.49-.53.99-.97 1.13-.44.14-.75-.15-.66-.65.09-.5.56-1.04 1.01-1.16.45-.12.72.19.62.69v-.01ZM17.67 12.03c.12-.54.64-1.1 1.17-1.23.53-.13.82.24.66.8-.16.56-.68 1.04-1.16 1.15-.48.11-.78-.2-.66-.71l-.01-.01Z"/><path fill="var(--icon-secondary)" d="M16.77 5.17c.56 0 1.01.24 1.08.54 0-.03.03-.05.03-.08 0-.34-.49-.61-1.1-.61-.61 0-1.1.27-1.1.61 0 .03.02.05.03.08.07-.3.51-.54 1.08-.54h-.02ZM14.81 3.87c-.61 0-1.1.27-1.1.61 0 .03.02.05.03.08.07-.3.51-.54 1.08-.54.57 0 1.01.24 1.08.54 0-.03.03-.05.03-.08 0-.34-.49-.61-1.1-.61h-.02ZM12.79 2.89c.56 0 1.01.24 1.08.54 0-.03.03-.05.03-.08 0-.34-.49-.61-1.1-.61-.61 0-1.1.27-1.1.61 0 .03.02.05.03.08.07-.3.51-.54 1.08-.54h-.02ZM19.88 3.43c.56 0 1.01.24 1.08.54 0-.03.03-.05.03-.08 0-.34-.49-.61-1.1-.61-.61 0-1.1.27-1.1.61 0 .03.02.05.03.08.07-.3.51-.54 1.08-.54h-.02ZM16.81 2.74s.02.05.03.08c.07-.3.51-.54 1.08-.54.57 0 1.01.24 1.08.54 0-.03.03-.05.03-.08 0-.34-.49-.61-1.1-.61-.61 0-1.1.27-1.1.61h-.02ZM15.9 1.14c.56 0 1.01.24 1.08.54 0-.03.03-.05.03-.08 0-.34-.49-.61-1.1-.61-.61 0-1.1.27-1.1.61 0 .03.02.05.03.08.07-.3.51-.54 1.08-.54h-.02Z"/><path fill="var(--icon-primary)" d="M12.1 7.27c-.07.29-.32.42-.66.32-.44-.14-.87-.64-.97-1.13-.01-.07 0-.13 0-.19-.02.1-.02.21 0 .34.1.49.53.99.97 1.13.39.12.65-.09.66-.47ZM14.59 13.34c-.48-.11-1-.62-1.16-1.15-.03-.1-.03-.18-.03-.26-.02.12-.02.26.03.41.16.53.68 1.04 1.16 1.15.41.09.67-.13.67-.51-.06.29-.32.44-.67.36ZM13.68 10.22c-.06.29-.32.44-.67.36-.48-.11-1-.62-1.16-1.15-.03-.1-.03-.18-.03-.26-.02.12-.02.26.03.41.16.53.68 1.04 1.16 1.15.41.09.67-.13.67-.51ZM21.92 6.83c-.1.49-.53.99-.97 1.13-.34.11-.59-.03-.66-.32 0 .38.27.59.66.47.44-.14.87-.64.97-1.13a.65.65 0 0 0 0-.34v.19ZM18.34 12.74c-.36.08-.61-.07-.67-.36 0 .38.26.6.67.51.48-.11 1-.62 1.16-1.15a.85.85 0 0 0 .03-.41c0 .08 0 .17-.03.26-.16.53-.68 1.04-1.16 1.15Z"/><path fill="var(--icon-primary)" fill-rule="evenodd" d="M9.76 3.76c.13-.22.32-.41.55-.55 0 0 .8 1.33.33 1.05-.87-.5-1.07.24-1.07.24 0-.27.07-.52.2-.75l-.01.01ZM22.8 3.76c-.13-.22-.32-.41-.55-.55 0 0-.8 1.33-.33 1.05.87-.5 1.07.24 1.07.24 0-.27-.07-.52-.2-.75l.01.01Z" clip-rule="evenodd"/><path fill="var(--icon-primary)" d="M16.41 7.08h-.25v7.23h.25V7.08Z"/><path fill="var(--icon-primary)" fill-rule="evenodd" d="M16.28 12.62s0 1.86-.75 2.23c0 0 .32.2.75.2s.75-.2.75-.2c-.75-.37-.75-2.23-.75-2.23Z" clip-rule="evenodd"/><path fill="var(--icon-secondary)" fill-rule="evenodd" d="M7.72 22v-7.53L1.2 10.71c-.13.22-.2.48-.2.75v6.03c0 .53.28 1.03.75 1.29l5.22 3.02c.23.13.49.2.75.2ZM14.24 10.71l-6.52 3.76V22c.26 0 .52-.07.75-.2l5.22-3.02c.46-.27.75-.76.75-1.29v-6.03c0-.27-.07-.52-.2-.75Z" clip-rule="evenodd"/><path fill="var(--icon-primary)" fill-rule="evenodd" d="m1.2 10.71 6.52 3.76 6.52-3.76c-.13-.22-.32-.41-.55-.55L8.47 7.14c-.46-.27-1.03-.27-1.49 0l-5.23 3.02c-.23.13-.42.32-.55.55Z" clip-rule="evenodd"/><path fill="#000" d="M7.77 9.24c.608 0 1.1-.273 1.1-.61 0-.337-.492-.61-1.1-.61-.607 0-1.1.273-1.1.61 0 .337.493.61 1.1.61ZM7.77 11.14c.608 0 1.1-.273 1.1-.61 0-.337-.492-.61-1.1-.61-.607 0-1.1.273-1.1.61 0 .337.493.61 1.1.61ZM7.77 13.03c.608 0 1.1-.273 1.1-.61 0-.337-.492-.61-1.1-.61-.607 0-1.1.273-1.1.61 0 .337.493.61 1.1.61ZM11.17 11.14c.607 0 1.1-.273 1.1-.61 0-.337-.492-.61-1.1-.61-.608 0-1.1.273-1.1.61 0 .337.492.61 1.1.61ZM4.58 11.14c.607 0 1.1-.273 1.1-.61 0-.337-.493-.61-1.1-.61-.608 0-1.1.273-1.1.61 0 .337.492.61 1.1.61Z"/><path fill="var(--icon-secondary)" d="M7.77 8.02c-.61 0-1.1.27-1.1.61 0 .02.02.04.02.06.05-.31.51-.55 1.08-.55.57 0 1.03.24 1.08.55 0-.02.02-.04.02-.06 0-.34-.49-.61-1.1-.61ZM7.77 9.91c-.61 0-1.1.27-1.1.61 0 .02.02.04.02.06.05-.31.51-.55 1.08-.55.57 0 1.03.24 1.08.55 0-.02.02-.04.02-.06 0-.34-.49-.61-1.1-.61ZM7.77 11.81c-.61 0-1.1.27-1.1.61 0 .02.02.04.02.06.05-.31.51-.55 1.08-.55.57 0 1.03.24 1.08.55 0-.02.02-.04.02-.06 0-.34-.49-.61-1.1-.61ZM11.17 10.03c.57 0 1.03.24 1.08.55 0-.02.02-.04.02-.06 0-.34-.49-.61-1.1-.61-.61 0-1.1.27-1.1.61 0 .02.02.04.02.06.05-.31.51-.55 1.08-.55ZM4.58 9.91c-.61 0-1.1.27-1.1.61 0 .02.02.04.02.06.05-.31.51-.55 1.08-.55.57 0 1.03.24 1.08.55 0-.02.02-.04.02-.06 0-.34-.49-.61-1.1-.61Z"/><path fill="var(--icon-primary)" fill-rule="evenodd" d="M5.16 12.99c.54.31 1.02.59 1.34.77 1.12.64 1.1 1.94 1.1 1.94h.25s.21-1.42 1.21-2l1.36-.79c.82-.48-.99.32-2.71.32s-3.37-.72-2.54-.25l-.01.01Z" clip-rule="evenodd"/><path fill="#141114" d="M2.19 13.93c.1.49.53.99.97 1.13.44.14.75-.15.66-.65-.09-.5-.56-1.04-1.01-1.16-.45-.12-.72.19-.62.69v-.01ZM6.43 19.13c-.12-.54-.64-1.1-1.17-1.23-.53-.13-.82.24-.66.8.16.56.68 1.04 1.16 1.15.48.11.78-.2.66-.71l.01-.01ZM10.72 16.73c0-.55.38-1.22.86-1.46s.86.05.82.63c-.04.58-.43 1.16-.87 1.38-.44.22-.8-.02-.81-.54v-.01Z"/><path fill="var(--icon-primary)" d="M3.16 14.91c-.44-.14-.87-.64-.97-1.13-.02-.07 0-.14 0-.2-.02.1-.02.21 0 .34.1.49.53.99.97 1.13.39.12.64-.08.66-.46-.07.29-.32.42-.66.32ZM5.77 19.7c-.48-.11-1-.62-1.16-1.15-.03-.1-.03-.18-.03-.27a.85.85 0 0 0 .03.41c.16.53.68 1.04 1.16 1.15.41.09.66-.12.67-.5-.06.29-.32.44-.67.36ZM11.53 17.14c-.42.21-.76 0-.8-.48 0 .03-.01.05-.01.08 0 .53.37.76.81.54.45-.22.84-.83.87-1.38 0-.04 0-.06-.01-.09-.05.54-.43 1.12-.86 1.33Z"/><path fill="var(--icon-primary)" fill-rule="evenodd" d="M1.2 10.71c.13-.22.32-.41.55-.55 0 0 .8 1.33.33 1.05-.88-.5-1.08.25-1.08.25 0-.27.07-.52.2-.75ZM14.24 10.71c-.13-.22-.32-.41-.55-.55 0 0-.8 1.33-.33 1.05.87-.5 1.07.24 1.07.24 0-.27-.07-.52-.2-.75l.01.01Z" clip-rule="evenodd"/><path fill="var(--icon-primary)" d="M7.84 14.03h-.25v7.23h.25v-7.23Z"/><path fill="var(--icon-primary)" fill-rule="evenodd" d="M7.72 19.57s0 1.86-.75 2.23c0 0 .32.2.75.2s.75-.2.75-.2c-.75-.37-.75-2.23-.75-2.23Z" clip-rule="evenodd"/></g><defs><clipPath id="a"><path fill="#fff" d="M1 0h22v22H1z"/></clipPath></defs></svg>