<svg width="140" height="140" viewBox="0 0 140 140" fill="none" xmlns="http://www.w3.org/2000/svg">
<g clip-path="url(#clip0_8098_4401)">
<g clip-path="url(#clip1_8098_4401)">
<path d="M31.8538 49.1921C39.1195 26.1381 54.4442 17.1012 70.7686 16.3695C66.3751 21.0564 66.8532 26.1091 70.4172 27.9672C79.8127 32.8605 77.1759 6.62994 101.588 9.58187C93.656 12.5555 86.8141 25.6853 94.2899 30.901C101.766 36.1167 128.362 20.1871 128.362 8.28882C141.662 35.9175 106.358 38.7173 110.513 52.9119C111.9 57.6567 122.994 62.2676 125.388 55.8856C125.794 67.4724 114.812 95.9341 77.9691 94.2752C46.3816 92.8554 31.8574 49.1921 31.8574 49.1921H31.8538Z" fill="#FF5E00"/>
<path d="M44.7952 45.1462C46.7112 31.4261 81.6128 42.0566 85.1081 23.646C85.1081 23.646 87.4298 31.9911 83.058 37.0221C78.0089 42.8318 66.7336 47.1419 79.1318 47.6454C91.5299 48.1489 97.2527 38.0435 108.734 37.0221C97.5967 52.7524 100.889 66.2553 114.834 64.7485C113.179 72.9596 108.521 84.1298 95.1483 84.3653L44.7952 45.1462Z" fill="#FF9448"/>
<path d="M100.889 26.2866C102.128 14.3883 109.814 20.3356 113.476 11.114C114.338 14.0225 114.138 21.7663 108.068 23.1101C103.544 24.1134 100.889 26.2866 100.889 26.2866Z" fill="#FF5E00"/>
<path d="M91.6712 79.9466C97.9083 78.4145 104.58 76.4441 106.004 70.7576C103.164 72.3331 94.6232 71.0872 89.4835 69.4464C84.3439 67.8056 91.6712 79.9502 91.6712 79.9502V79.9466Z" fill="#FFBF91"/>
<path fill-rule="evenodd" clip-rule="evenodd" d="M77.9654 94.2753L16.3225 88.8314L14.689 47.8738L75.7342 49.4131L77.9654 94.2753Z" fill="#AB72E8"/>
<path fill-rule="evenodd" clip-rule="evenodd" d="M69.9173 112.758L10.6975 104.978L16.3225 88.8313L77.9654 94.2752L69.9173 112.758Z" fill="#DCB6FF"/>
<path fill-rule="evenodd" clip-rule="evenodd" d="M77.3426 46.9645L13.8235 45.1535L51.5793 40.9338L95.8836 42.5891L77.3426 46.9645Z" fill="white"/>
<path fill-rule="evenodd" clip-rule="evenodd" d="M77.4366 131.39C77.3496 131.426 77.078 131.404 77.078 131.404L14.2181 122.9C13.3343 122.78 12.6135 122.135 12.3962 121.27C11.3495 117.083 8.3613 105.141 8.33957 105.058C8.29248 104.888 8.29248 104.717 8.29248 104.717L72.4527 111.614C72.4527 111.614 77.3895 131.198 77.4366 131.39Z" fill="#974EE2"/>
<path fill-rule="evenodd" clip-rule="evenodd" d="M61.3622 126.449L22.4619 121.183C21.8607 121.103 21.3572 120.694 21.1508 120.125L18.8472 113.78C18.6769 113.312 19.0609 112.831 19.5534 112.896L57.5736 117.724C58.6602 117.862 59.573 118.601 59.9352 119.633L62.0323 125.62C62.1881 126.062 61.8222 126.511 61.3586 126.449H61.3622Z" fill="#0F1034"/>
<path fill-rule="evenodd" clip-rule="evenodd" d="M61.3622 126.449C61.3622 126.449 23.5521 121.328 22.5887 121.198C21.9077 121.107 21.7773 120.926 21.7773 120.926L32.484 114.54L57.5736 117.728C58.6602 117.865 59.573 118.604 59.9352 119.636L62.0323 125.624C62.188 126.066 61.8222 126.515 61.3586 126.453L61.3622 126.449Z" fill="#222344"/>
<path fill-rule="evenodd" clip-rule="evenodd" d="M97.7635 119.213C97.7635 119.477 97.6222 119.72 97.394 119.854L77.8243 131.234C77.8243 131.234 77.5672 131.361 77.4368 131.386C77.4078 131.267 72.4529 111.61 72.4529 111.61L77.1253 51.1442L97.7309 45.1426C97.7309 45.1426 97.7598 45.3527 97.7598 45.5736V119.209L97.7635 119.213Z" fill="#A160E5"/>
<path fill-rule="evenodd" clip-rule="evenodd" d="M97.7308 45.1462L77.1252 51.1479L77.4512 46.9355L95.8401 42.5963C95.9307 42.5746 96.0249 42.6108 96.0792 42.6869L97.5823 44.8782C97.6837 45.0267 97.7308 45.1462 97.7308 45.1462Z" fill="#E5C8FF"/>
<path fill-rule="evenodd" clip-rule="evenodd" d="M16.3225 88.8313L10.6975 104.978L14.7397 48.8806L16.3225 88.8313Z" fill="#974EE2"/>
<path fill-rule="evenodd" clip-rule="evenodd" d="M10.6975 104.978L8.29253 104.721C8.29253 104.721 8.28528 104.659 8.29253 104.547C8.52433 101.197 12.1174 49.0653 12.1391 48.7864C12.1608 48.5075 13.4829 45.4578 13.4829 45.4578C13.5734 45.2477 13.7799 45.1173 14.008 45.1246L15.1055 45.168L10.6975 104.978Z" fill="#D3A4FF"/>
<path fill-rule="evenodd" clip-rule="evenodd" d="M72.4527 111.614L69.1711 111.259L74.8468 46.863L77.451 46.9355L72.4527 111.614Z" fill="#D3A4FF"/>
<path fill-rule="evenodd" clip-rule="evenodd" d="M77.1252 51.1443L12.1392 48.7827C12.1392 48.7827 12.1464 48.5872 12.1971 48.464L13.4974 45.4179C13.5771 45.2296 13.7618 45.1136 13.9647 45.1173L77.4475 46.9319L77.1215 51.1443H77.1252Z" fill="#E5C8FF"/>
<path fill-rule="evenodd" clip-rule="evenodd" d="M68.3127 91.3123L24.472 87.6106C24.2366 87.5889 24.0591 87.3824 24.0736 87.1434L25.7107 59.7574C25.7252 59.5183 25.928 59.3336 26.1707 59.3445L68.9249 56.6533C69.1712 56.6642 69.3631 56.8743 69.345 57.1206L68.7981 90.8958C68.7836 91.1457 68.5627 91.334 68.3164 91.3087L68.3127 91.3123Z" fill="#974EE2"/>
<path fill-rule="evenodd" clip-rule="evenodd" d="M69.1714 111.259L72.4529 111.614L72.5942 112.172L9.28514 104.902L8.40137 104.732L69.1714 111.259Z" fill="#F2E5FF"/>
<path fill-rule="evenodd" clip-rule="evenodd" d="M74.3433 50.8835L69.8122 108.01L69.5695 111.302L69.0154 111.462L74.1478 50.9379L74.3433 50.8835Z" fill="#F2E5FF"/>
<path d="M53.0244 34.6062C53.0244 31.7086 55.3715 29.3616 58.2691 29.3616C61.1667 29.3616 63.5137 31.7086 63.5137 34.6062V43.3135C63.5137 44.0705 61.1667 44.6863 58.2691 44.6863C55.3715 44.6863 53.0244 44.0705 53.0244 43.3135V34.6062Z" fill="#F50000"/>
<path d="M58.2691 39.8509C61.1656 39.8509 63.5137 37.5028 63.5137 34.6062C63.5137 31.7097 61.1656 29.3616 58.2691 29.3616C55.3725 29.3616 53.0244 31.7097 53.0244 34.6062C53.0244 37.5028 55.3725 39.8509 58.2691 39.8509Z" fill="#F50000"/>
<path d="M57.4163 33.1109C58.3178 32.5015 58.709 31.505 58.29 30.8852C57.871 30.2654 56.8005 30.257 55.899 30.8664C54.9974 31.4759 54.6063 32.4724 55.0253 33.0922C55.4443 33.712 56.5148 33.7204 57.4163 33.1109Z" fill="#FA8080"/>
<path d="M59.7012 30.3948C59.708 30.1788 59.459 29.9958 59.1451 29.986C58.8312 29.9762 58.5712 30.1433 58.5645 30.3593C58.5577 30.5752 58.8067 30.7582 59.1206 30.768C59.4345 30.7778 59.6945 30.6107 59.7012 30.3948Z" fill="#FCB2B2"/>
<g style="mix-blend-mode:multiply">
<path d="M62.7636 39.851V34.6317C62.7636 32.7193 62.2348 31.5458 62.7636 32.6939C63.0787 33.3821 63.2562 34.1572 63.2562 34.9758V43.0456C63.2562 43.8026 61.0396 44.4184 58.3086 44.4184C56.4469 44.4184 54.8314 44.1322 53.9839 43.7121C62.5535 44.5234 62.7672 40.608 62.7672 39.8474L62.7636 39.851Z" fill="#ECE3EB"/>
</g>
<path fill-rule="evenodd" clip-rule="evenodd" d="M91.5009 123.28L83.6448 127.851V105.174L91.5009 105.377V123.28Z" fill="#974EE2"/>
<path fill-rule="evenodd" clip-rule="evenodd" d="M86.1984 109.448C84.6337 109.335 83.5036 107.119 83.6594 104.493C83.8151 101.867 85.1951 99.7805 86.767 99.8312L93.6561 100.016C95.3222 100.067 96.8435 102.352 96.6805 105.105C96.5175 107.858 94.7355 109.973 93.073 109.853L86.1984 109.444V109.448Z" fill="#E0E3F1"/>
<path fill-rule="evenodd" clip-rule="evenodd" d="M84.1375 107.597C84.5902 108.669 85.3291 109.386 86.202 109.448L93.0766 109.857C93.9965 109.922 94.9528 109.303 95.6554 108.263L84.1411 107.593L84.1375 107.597Z" fill="#95ABFF"/>
<path fill-rule="evenodd" clip-rule="evenodd" d="M95.1447 100.679C94.6956 100.27 94.1813 100.027 93.6525 100.012L86.7634 99.8276C86.26 99.8131 85.7782 100.016 85.3508 100.382L95.1411 100.679H95.1447Z" fill="white"/>
<path fill-rule="evenodd" clip-rule="evenodd" d="M90.7367 104.801C90.8961 102.113 92.3412 99.9761 93.9892 100.027C95.6373 100.077 96.8977 102.356 96.7347 105.108C96.5717 107.861 95.0722 109.998 93.4061 109.879C91.74 109.759 90.5737 107.488 90.7331 104.801H90.7367Z" fill="#974EE2"/>
<path fill-rule="evenodd" clip-rule="evenodd" d="M87.2849 108.727C84.3294 106.13 86.9879 100.769 86.9879 100.769H89.9797C89.9797 100.769 87.7449 104.522 89.3639 108.571C89.737 109.506 87.2849 108.727 87.2849 108.727Z" fill="#95ABFF"/>
<path fill-rule="evenodd" clip-rule="evenodd" d="M64.2057 105.819L49.7575 104.279C49.4025 104.243 49.1743 103.892 49.2794 103.555L50.4384 99.8713C50.605 99.3388 51.1302 98.9948 51.6952 99.0491L66.0927 100.389C66.4803 100.425 66.7555 100.806 66.6541 101.172L65.6617 104.837C65.4878 105.478 64.8793 105.887 64.2057 105.819Z" fill="#974EE2"/>
<path d="M73.0324 111.614L77.3933 131.191L72.4529 111.614L77.1253 51.1443L73.0324 111.614Z" fill="#D8ADFF"/>
<path fill-rule="evenodd" clip-rule="evenodd" d="M86.8717 101.103C86.9912 101.613 87.7845 101.871 88.6429 101.679C89.5013 101.487 90.117 100.922 90.0192 100.407L81.6995 55.6392C81.5945 55.0923 80.7578 54.7084 79.8595 54.9076C78.9613 55.1068 78.3528 55.8059 78.4832 56.3492L86.8753 101.103H86.8717Z" fill="#E0E3F1"/>
<path fill-rule="evenodd" clip-rule="evenodd" d="M89.2444 101.468C87.5746 102.211 86.9408 101.389 86.872 101.103L78.4798 56.3491C78.4218 56.0956 81.6345 55.0271 81.6345 55.0271L82.1344 58.0986C82.1344 58.0986 81.3955 57.6241 80.432 57.9175C79.1173 58.3195 80.3741 63.3976 80.3741 63.3976C80.3741 63.3976 86.8792 98.3028 87.2269 100.251C87.437 101.439 89.2444 101.468 89.2444 101.468Z" fill="#95ABFF"/>
<path fill-rule="evenodd" clip-rule="evenodd" d="M83.0577 62.9229L90.0229 100.403C90.0555 100.57 90.1025 100.896 89.494 101.32C89.494 101.32 83.0251 62.7491 83.0577 62.9229Z" fill="white"/>
<path fill-rule="evenodd" clip-rule="evenodd" d="M80.2689 56.8562C79.3778 56.9974 78.5774 56.6787 78.476 56.1354C78.3746 55.5921 79.0265 55.0198 79.9393 54.8749C80.852 54.7301 81.6561 55.0669 81.7358 55.6211C81.8155 56.1752 81.1563 56.7186 80.2689 56.8598V56.8562Z" fill="#958D94"/>
<path d="M79.1643 57.1351C82.0609 57.1351 84.409 54.787 84.409 51.8904C84.409 48.9939 82.0609 46.6458 79.1643 46.6458C76.2678 46.6458 73.9197 48.9939 73.9197 51.8904C73.9197 54.787 76.2678 57.1351 79.1643 57.1351Z" fill="#F50000"/>
<path d="M77.9776 50.3949C78.8791 49.7854 79.2703 48.7889 78.8513 48.1691C78.4323 47.5493 77.3618 47.5409 76.4602 48.1504C75.5587 48.7598 75.1676 49.7564 75.5866 50.3762C76.0056 50.996 77.0761 51.0043 77.9776 50.3949Z" fill="#F84545"/>
<g style="mix-blend-mode:multiply">
<path d="M79.1606 55.2334C76.7338 55.2334 74.7091 53.6252 74.2491 51.4919C74.2383 51.4412 74.1658 51.4484 74.1622 51.4991C74.1549 51.6186 74.1477 51.7418 74.1477 51.8649C74.1477 54.6358 76.3933 56.8778 79.1606 56.8778C81.9278 56.8778 84.1734 54.6322 84.1734 51.8649C84.1734 51.7418 84.1698 51.6186 84.1589 51.4991C84.1553 51.4484 84.0829 51.4448 84.072 51.4919C83.6084 53.6252 81.5873 55.2334 79.1606 55.2334Z" fill="#ECE3EB"/>
</g>
<path d="M80.2706 47.6819C80.2773 47.466 80.0283 47.283 79.7144 47.2731C79.4005 47.2633 79.1405 47.4304 79.1338 47.6464C79.1271 47.8623 79.3761 48.0453 79.69 48.0551C80.0039 48.0649 80.2638 47.8978 80.2706 47.6819Z" fill="#FA8080"/>
<path fill-rule="evenodd" clip-rule="evenodd" d="M67.1973 87.0238L24.1099 82.7897C23.8708 82.7643 23.6934 82.5579 23.7079 82.3152L25.3704 54.9582C25.3848 54.7155 25.5913 54.5272 25.8376 54.538L69.0698 56.3563C69.3198 56.3672 69.5154 56.5809 69.4972 56.8308L67.6862 86.6073C67.6718 86.8608 67.4472 87.0528 67.1936 87.0274L67.1973 87.0238Z" fill="#3F405D"/>
<mask id="mask0_8098_4401" style="mask-type:luminance" maskUnits="userSpaceOnUse" x="16" y="51" width="53" height="39">
<path d="M66.288 89.1682L16.9382 86.5205L19.4447 51.3979L68.7945 54.0493L66.288 89.1682Z" fill="white"/>
</mask>
<g mask="url(#mask0_8098_4401)">
<path fill-rule="evenodd" clip-rule="evenodd" d="M26.1961 82.0292C21.9873 81.7177 18.9557 75.6001 19.3722 68.3598C19.7888 61.1194 23.5013 55.3604 27.721 55.498L39.4816 56.016C43.9548 56.1609 48.0476 62.4631 47.613 70.0621C47.1784 77.6611 42.3865 83.4925 37.9241 83.1593L26.1997 82.0256L26.1961 82.0292Z" fill="#E0E3F1"/>
<path d="M23.3201 62.7094C23.8091 62.7891 24.1278 62.9629 24.6385 63.0136C25.1492 63.0643 25.7034 63.1042 26.3046 63.1295C26.8226 63.1513 27.3876 63.1621 27.9997 63.1585C28.6118 63.1585 29.3978 63.144 30.354 63.1151C30.5025 63.499 30.6546 63.8829 30.8031 64.2669C30.0317 65.252 27.9562 66.6103 27.1232 68.3815C26.1996 70.341 26.0076 71.7861 26.6849 74.6946C25.8084 74.6367 24.9319 74.5823 24.0553 74.5244C24.0372 71.6268 24.2509 70.3301 24.8449 69.0298C25.5549 67.476 27.6194 66.009 27.6194 66.009C27.2463 65.9801 26.895 65.9547 26.5618 65.933C26.2322 65.9112 25.9207 65.8931 25.6345 65.8823C24.8268 65.8424 24.2835 65.8388 23.9974 65.8642C23.7113 65.8931 23.512 65.9511 23.3998 66.0453C23.2875 66.1394 23.1788 66.2952 23.081 66.5197C22.9832 66.7443 22.8927 67.0377 22.8058 67.4035C22.5305 67.3311 22.2516 67.2623 21.9763 67.1898C22.1973 65.0782 22.7369 63.1766 23.3201 62.7021V62.7094Z" fill="#F50000"/>
<path fill-rule="evenodd" clip-rule="evenodd" d="M20.6509 76.9185C21.8715 79.8776 23.8491 81.8552 26.1962 82.0291L37.9206 83.1628C40.3944 83.3475 42.9661 81.6343 44.8459 78.7729L20.6509 76.9185Z" fill="#95ABFF"/>
<path fill-rule="evenodd" clip-rule="evenodd" d="M43.4838 57.8378C42.2741 56.7078 40.8941 56.0413 39.4779 55.9978L27.7172 55.4799C26.3699 55.4364 25.0732 55.9978 23.9214 57.012L43.4838 57.8414V57.8378Z" fill="white"/>
<path fill-rule="evenodd" clip-rule="evenodd" d="M31.6364 69.2145C32.0637 61.8003 35.9502 55.9036 40.3762 56.0485C44.8023 56.1934 48.1925 62.474 47.7579 70.0729C47.3233 77.6719 43.292 83.5613 38.8152 83.228C34.3999 82.9021 31.209 76.6287 31.6327 69.2145H31.6364Z" fill="#A160E5"/>
<path fill-rule="evenodd" clip-rule="evenodd" d="M39.5356 83.1702C35.2399 82.8515 32.1431 76.6035 32.5669 69.2146C32.9906 61.8221 36.7829 55.9436 41.0894 56.0812L53.0964 56.61C57.6673 56.7585 61.8435 63.1948 61.398 70.9532C60.9525 78.7115 56.0628 84.6661 51.5027 84.3256L39.532 83.1702H39.5356Z" fill="#E0E3F1"/>
<path d="M36.5983 63.4411C37.0982 63.5208 37.4205 63.6983 37.9421 63.7526C38.4637 63.8069 39.0323 63.8432 39.6408 63.8685C40.1696 63.8903 40.7455 63.9011 41.3721 63.9011C41.9987 63.9011 42.7992 63.8866 43.7771 63.8577C43.9293 64.2488 44.0814 64.6436 44.2335 65.0348C43.4439 66.0417 41.3287 67.429 40.4739 69.2363C39.5321 71.2357 39.3366 72.7135 40.0284 75.6835C39.1337 75.6256 38.2355 75.5676 37.3408 75.5096C37.3191 72.5541 37.54 71.2284 38.1485 69.8992C38.8729 68.3127 40.9846 66.8132 40.9846 66.8132C40.6006 66.7842 40.2457 66.7589 39.9052 66.7371C39.5647 66.7154 39.2533 66.6973 38.9599 66.6828C38.1377 66.643 37.5799 66.6394 37.2901 66.6647C36.9967 66.6937 36.7939 66.7553 36.678 66.8494C36.5621 66.9436 36.4534 67.1066 36.352 67.3348C36.2506 67.563 36.1564 67.8636 36.0731 68.2367C35.7906 68.1642 35.5081 68.0918 35.2256 68.0193C35.4502 65.8642 36.0043 63.9228 36.5983 63.4375V63.4411Z" fill="#F50000"/>
<path fill-rule="evenodd" clip-rule="evenodd" d="M33.8745 77.9472C35.1205 80.968 37.1416 82.9891 39.5357 83.1665L51.5064 84.322C54.031 84.5103 56.6605 82.7645 58.5802 79.8379L33.8745 77.9436V77.9472Z" fill="#95ABFF"/>
<path fill-rule="evenodd" clip-rule="evenodd" d="M57.1893 58.4681C55.9542 57.3126 54.5452 56.6353 53.1 56.5883L41.0931 56.0594C39.7167 56.016 38.3947 56.5883 37.2175 57.6241L57.1929 58.4717L57.1893 58.4681Z" fill="white"/>
<path fill-rule="evenodd" clip-rule="evenodd" d="M45.0882 70.0839C45.5229 62.5139 49.4926 56.4942 54.0128 56.639C58.5947 56.7875 61.9957 63.1985 61.5502 70.9604C61.1047 78.7224 56.9901 84.7349 52.4192 84.3945C47.9098 84.0612 44.6536 77.6539 45.0882 70.0839Z" fill="#A160E5"/>
<path fill-rule="evenodd" clip-rule="evenodd" d="M53.3898 84.4811C48.8623 84.1551 45.5988 77.7442 46.0443 70.1561C46.4898 62.568 50.4885 56.5301 55.0269 56.6714L67.6822 57.2111C72.4995 57.3596 76.9002 63.9661 76.433 71.9309C75.9621 79.8957 70.808 86.0096 66.0052 85.6655L53.3898 84.4847V84.4811Z" fill="#E0E3F1"/>
<path d="M50.2968 64.2307C50.8256 64.314 51.1661 64.4951 51.713 64.5494C52.2635 64.6037 52.8612 64.6436 53.5059 64.6689C54.0637 64.6907 54.6722 64.7015 55.3314 64.7015C55.9906 64.7015 56.8345 64.6834 57.8668 64.6581C58.0261 65.0601 58.1891 65.4622 58.3485 65.8678C57.5154 66.9001 55.2843 68.3272 54.386 70.1852C53.3936 72.2389 53.1871 73.7565 53.9152 76.8027C52.9698 76.7447 52.0281 76.6831 51.0828 76.6252C51.061 73.5899 51.2928 72.2317 51.9339 70.8662C52.6982 69.2363 54.9221 67.6969 54.9221 67.6969C54.52 67.668 54.1397 67.6426 53.7812 67.6172C53.4226 67.5955 53.093 67.5774 52.7851 67.5629C51.9158 67.5231 51.3327 67.5158 51.0248 67.5448C50.7169 67.5738 50.5032 67.6354 50.3801 67.7331C50.2569 67.8309 50.1447 67.9976 50.0396 68.2294C49.931 68.4648 49.8368 68.7727 49.7462 69.1566C49.4492 69.0805 49.1522 69.0081 48.8552 68.932C49.0907 66.719 49.6738 64.7269 50.304 64.2271L50.2968 64.2307Z" fill="#F50000"/>
<path fill-rule="evenodd" clip-rule="evenodd" d="M47.4207 79.1243C48.7354 82.2247 50.8616 84.3001 53.3861 84.4812L66.0015 85.662C68.6637 85.8539 71.4309 84.0611 73.4556 81.0584L47.4207 79.1243Z" fill="#95ABFF"/>
<path fill-rule="evenodd" clip-rule="evenodd" d="M71.9925 59.1163C70.6922 57.9319 69.2072 57.2365 67.6823 57.1894L55.027 56.6497C53.5746 56.6063 52.1801 57.193 50.9414 58.2543L71.9925 59.1163Z" fill="white"/>
<path fill-rule="evenodd" clip-rule="evenodd" d="M59.243 71.0471C59.6994 63.2743 63.8865 57.0952 68.6494 57.24C73.4123 57.3849 77.0633 63.9697 76.5924 71.9381C76.1216 79.9065 71.786 86.0784 66.9688 85.7344C62.2167 85.3939 58.783 78.8199 59.2394 71.0471H59.243Z" fill="#A160E5"/>
</g>
<path fill-rule="evenodd" clip-rule="evenodd" d="M17.7825 101.378C17.8803 101.526 17.5507 103.851 17.5036 104.022C17.395 104.427 17.989 104.561 18.1918 104.583L23.7299 105.224C24.4036 105.304 25.0483 104.898 25.2475 104.272L28.2211 94.887C28.2791 94.7059 28.2429 94.5248 28.1487 94.3835C28.0473 94.2314 24.0196 93.9127 23.7914 93.8765L17.7862 101.378H17.7825Z" fill="#974EE2" stroke="#974EE2" stroke-width="2.85" stroke-miterlimit="10"/>
<path fill-rule="evenodd" clip-rule="evenodd" d="M27.2576 102.425C27.3554 102.577 27.0221 104.967 26.9787 105.141C26.87 105.558 27.4676 105.695 27.6741 105.717L33.2556 106.365C33.9329 106.445 34.5849 106.025 34.7841 105.384L37.7795 95.742C37.8374 95.5573 37.8012 95.3725 37.707 95.224C37.602 95.0683 33.5454 94.7459 33.3172 94.7097L27.2612 102.421L27.2576 102.425Z" fill="#974EE2" stroke="#974EE2" stroke-width="2.98971" stroke-miterlimit="10"/>
<path fill-rule="evenodd" clip-rule="evenodd" d="M36.9862 103.511C37.084 103.667 36.7508 106.123 36.7037 106.304C36.5914 106.731 37.1963 106.869 37.4028 106.894L43.0241 107.546C43.7087 107.626 44.3606 107.195 44.5635 106.535L47.5806 96.6329C47.6386 96.4446 47.5154 94.8617 47.4176 94.7132C47.3126 94.5539 43.3211 95.6224 43.0857 95.5825L36.9862 103.515V103.511Z" fill="#974EE2" stroke="#974EE2" stroke-width="3.12941" stroke-miterlimit="10"/>
<path fill-rule="evenodd" clip-rule="evenodd" d="M17.692 99.9904C17.7898 100.139 17.4601 102.464 17.4131 102.634C17.3044 103.04 17.8984 103.174 18.1012 103.196L23.6393 103.837C24.313 103.917 24.9577 103.511 25.1569 102.884L28.1306 93.4998C28.1885 93.3187 28.1523 93.1376 28.0581 92.9963C27.9567 92.8442 23.929 92.5255 23.7009 92.4893L17.6956 99.9904H17.692Z" fill="#F50000" stroke="#974EE2" stroke-width="2.85" stroke-miterlimit="10"/>
<path fill-rule="evenodd" clip-rule="evenodd" d="M26.5258 90.8124C26.4208 90.6675 26.2505 90.5661 26.0477 90.5516L20.238 89.9395C19.6114 89.8997 19.0283 90.2619 18.8218 90.8233L15.4642 99.9218C15.3954 100.106 15.4244 100.295 15.5222 100.443C15.62 100.592 17.0869 102.504 17.1955 102.646C17.5505 103.106 17.8982 103.171 18.101 103.196L23.6391 103.837C24.3128 103.917 24.9575 103.511 25.1567 102.885L28.1304 93.4999C28.1883 93.3188 28.1521 93.1377 28.0579 92.9965C27.9565 92.8444 26.6308 90.9573 26.5258 90.8088V90.8124Z" fill="#F50000"/>
<path fill-rule="evenodd" clip-rule="evenodd" d="M21.8356 101.432L15.9897 100.729C15.5804 100.679 15.3268 100.295 15.4645 99.9254L18.8221 90.8269C19.0285 90.2655 19.6117 89.9033 20.2383 89.9432L26.048 90.5553C26.4536 90.5806 26.7289 90.9646 26.613 91.3376L23.3641 100.487C23.1649 101.113 22.5165 101.515 21.8392 101.436L21.8356 101.432Z" fill="#FF5E00"/>
<path fill-rule="evenodd" clip-rule="evenodd" d="M27.1706 101.034C27.2684 101.186 26.9352 103.576 26.8918 103.75C26.7831 104.167 27.3807 104.304 27.5872 104.326L33.1687 104.974C33.846 105.054 34.498 104.634 34.6972 103.993L37.6926 94.3511C37.7505 94.1664 37.7143 93.9817 37.6201 93.8332C37.5151 93.6774 33.4584 93.3551 33.2303 93.3188L27.1743 101.03L27.1706 101.034Z" fill="#F50000" stroke="#974EE2" stroke-width="2.98971" stroke-miterlimit="10"/>
<path fill-rule="evenodd" clip-rule="evenodd" d="M36.0698 91.5874C35.9647 91.4389 35.7909 91.3339 35.588 91.3194L29.7349 90.7073C29.101 90.6674 28.5179 91.0405 28.3078 91.6164L24.9212 100.968C24.8524 101.157 24.8814 101.352 24.9792 101.504C25.077 101.657 26.5584 103.616 26.667 103.761C27.0256 104.235 27.377 104.301 27.5798 104.322L33.1613 104.971C33.8386 105.05 34.4906 104.63 34.6898 103.989L37.6852 94.3474C37.7431 94.1626 37.7069 93.9779 37.6127 93.8294C37.5077 93.6737 36.1748 91.7287 36.0661 91.5802L36.0698 91.5874Z" fill="#F50000"/>
<path fill-rule="evenodd" clip-rule="evenodd" d="M31.347 102.504L25.454 101.794C25.041 101.744 24.7875 101.349 24.9251 100.968L28.3117 91.6164C28.5218 91.0369 29.1049 90.6638 29.7388 90.7073L35.5919 91.3194C36.0012 91.3448 36.2801 91.7359 36.1606 92.1199L32.8899 101.526C32.6907 102.171 32.0351 102.584 31.3506 102.504H31.347Z" fill="#FF5E00"/>
<path fill-rule="evenodd" clip-rule="evenodd" d="M36.8957 102.12C36.9935 102.276 36.6602 104.732 36.6131 104.913C36.5009 105.34 37.1057 105.478 37.3122 105.503L42.9335 106.155C43.6181 106.235 44.2701 105.804 44.4729 105.145L47.49 95.242C47.548 95.0537 47.5118 94.8617 47.4176 94.7132C47.3125 94.5539 43.2305 94.2315 42.9987 94.1917L38.3057 101.5L36.8957 102.12Z" fill="#F50000" stroke="#974EE2" stroke-width="3.12941" stroke-miterlimit="10"/>
<path fill-rule="evenodd" clip-rule="evenodd" d="M45.6066 92.3988C45.5016 92.2466 45.3278 92.138 45.1213 92.1271L39.4855 91.5114C38.848 91.4715 38.2576 91.8555 38.0475 92.4495L34.6356 102.062C34.5668 102.258 34.5958 102.457 34.6935 102.613C34.7913 102.769 36.2836 104.779 36.3923 104.927C36.7545 105.413 37.1058 105.478 37.3123 105.503L42.9336 106.155C43.6182 106.235 44.2701 105.804 44.473 105.145L47.4901 95.242C47.548 95.0537 47.5118 94.8617 47.4176 94.7132C47.3126 94.5539 45.7117 92.5545 45.6066 92.4024V92.3988Z" fill="#F50000"/>
<path fill-rule="evenodd" clip-rule="evenodd" d="M41.1046 103.623L35.1681 102.91C34.7516 102.859 34.4944 102.453 34.6357 102.062L38.0476 92.4495C38.2577 91.8555 38.8481 91.4715 39.4856 91.5114L45.1214 92.1271C45.5343 92.1525 45.8132 92.5545 45.6937 92.9493L42.6548 102.62C42.452 103.279 41.7928 103.71 41.1046 103.627V103.623Z" fill="#FF5E00"/>
<path fill-rule="evenodd" clip-rule="evenodd" d="M15.5441 100.03L18.9017 90.9319C19.1081 90.3705 19.6913 90.0083 20.3179 90.0482L26.1276 90.6603C26.3014 90.6712 26.4499 90.7508 26.555 90.8667C26.4572 90.6929 26.2725 90.5697 26.0479 90.5516L20.2382 89.9395C19.6116 89.8997 19.0285 90.2619 18.822 90.8233L15.4644 99.9218C15.3847 100.143 15.4427 100.367 15.5876 100.523C15.5042 100.378 15.4789 100.204 15.5441 100.03Z" fill="#FFCFB3"/>
<path fill-rule="evenodd" clip-rule="evenodd" d="M25.0012 101.081L28.3877 91.7287C28.5978 91.1492 29.1809 90.7761 29.8148 90.8196L35.668 91.4317C35.8418 91.4426 35.9903 91.5222 36.099 91.6381C35.9976 91.4643 35.8165 91.3375 35.5883 91.323L29.7351 90.7109C29.1013 90.6711 28.5181 91.0441 28.308 91.62L24.9215 100.972C24.8382 101.2 24.8997 101.432 25.0482 101.591C24.9613 101.443 24.936 101.258 25.0012 101.081Z" fill="#FFCFB3"/>
<path fill-rule="evenodd" clip-rule="evenodd" d="M34.7154 102.171L38.1273 92.5581C38.3374 91.9641 38.9278 91.5802 39.5653 91.62L45.2011 92.2358C45.375 92.2466 45.5235 92.3263 45.6321 92.4459C45.5307 92.272 45.346 92.1416 45.1214 92.1271L39.4856 91.5114C38.8481 91.4715 38.2577 91.8555 38.0477 92.4495L34.6357 102.062C34.5524 102.298 34.614 102.537 34.7661 102.7C34.6756 102.548 34.6502 102.356 34.7154 102.171Z" fill="#FFCFB3"/>
<path fill-rule="evenodd" clip-rule="evenodd" d="M23.0705 100.211C22.8713 100.838 22.223 101.24 21.542 101.16C21.542 101.16 18.2207 100.997 18.2859 101.005L21.8318 101.432C22.5091 101.515 23.1575 101.11 23.3603 100.483L25.4103 94.0395C25.4393 93.949 23.0669 100.211 23.0669 100.211H23.0705Z" fill="#FF8E4D"/>
<path fill-rule="evenodd" clip-rule="evenodd" d="M32.593 101.258C32.3938 101.903 31.7382 102.316 31.0537 102.236C31.0537 102.236 26.8594 101.968 26.9246 101.975L31.3434 102.508C32.028 102.591 32.6799 102.175 32.8828 101.53L34.9473 94.9196C34.9763 94.8291 32.593 101.258 32.593 101.258Z" fill="#FF8E4D"/>
<path fill-rule="evenodd" clip-rule="evenodd" d="M40.8147 103.352C40.8147 103.352 37.8012 103.225 37.8627 103.232L41.1044 103.623C41.7926 103.707 42.4518 103.279 42.6547 102.616L44.7844 95.6549C44.8098 95.568 42.3613 102.345 42.3613 102.345C42.1584 103.004 41.4992 103.435 40.8111 103.352H40.8147Z" fill="#FF8E4D"/>
<path d="M53.3033 34.8742C53.3033 32.1577 55.3498 29.5354 58.1423 29.5354C53.7162 30.3069 53.5351 34.8742 53.5351 34.8742C53.5351 34.8742 53.5496 35.1604 53.412 35.1604C53.2743 35.1604 53.3033 34.8742 53.3033 34.8742Z" fill="#F84747"/>
</g>
</g>
<defs>
<clipPath id="clip0_8098_4401">
<rect width="140" height="140" fill="white"/>
</clipPath>
<clipPath id="clip1_8098_4401">
<rect width="123.083" height="123.123" fill="white" transform="translate(8.28882 8.28882)"/>
</clipPath>
</defs>
</svg>
