<svg xmlns="http://www.w3.org/2000/svg" fill="none" viewBox="0 0 24 24"><g clip-path="url(#a)"><path fill="var(--icon-secondary)" d="M4.709 2.443 1 7.233h5.569l-.925-2.396-.935-2.394Z"/><path fill="var(--icon-primary)" d="M9.188 4.429 11.07 2H5.501l.925 2.395.935 2.395 1.827-2.361Z"/><path fill="var(--icon-secondary)" d="m23 7.232-3.709-4.79-.924 2.395-.936 2.395h5.57ZM15.846 7.232l-1.893-2.44-1.947-2.52-1.949 2.52-1.892 2.44h7.681ZM6.294 8.152H1.022l9.806 12.133-3.126-9.67-.792-2.463h-.616ZM16.309 10.615l-3.137 9.67 9.806-12.133H17.101l-.792 2.463Z"/><path fill="var(--icon-primary)" d="M16.11 8.152H7.846l.848 2.599L12.006 21l3.301-10.25.848-2.598h-.044ZM18.499 2h-5.57l1.883 2.429 1.827 2.36.935-2.394L18.5 2Z"/></g><defs><clipPath id="a"><path fill="#fff" d="M1 2h22v19H1z"/></clipPath></defs></svg>