<svg xmlns="http://www.w3.org/2000/svg" fill="none" viewBox="0 0 24 24"><g clip-path="url(#a)"><path fill="var(--icon-primary)" d="M6.14 15.5c.41-.12.85-.22 1.3-.31-.46.09-.89.2-1.3.31Z"/><path fill="var(--icon-primary)" d="m17.86 15.5-4.47 3.02c-.11.15-.22.3-.32.44-.25.34-.65.54-1.08.54-.43 0-.82-.2-1.08-.55-.1-.14-.21-.28-.32-.44l-4.47-3.02c-2.51.71-4.14 1.87-4.14 3.17 0 2.17 4.48 4.08 10 4.08s10-1.91 10-4.08c0-1.31-1.64-2.46-4.14-3.17l.02.01Z"/><path fill="var(--icon-secondary)" d="m13.39 18.52 4.47-3.02c-.65-.18-1.37-.33-2.13-.45-.84 1.34-1.68 2.55-2.34 3.47ZM8.27 15.05c-.28.04-.56.08-.82.14-.45.09-.89.2-1.3.31l4.47 3.02c-.66-.92-1.5-2.13-2.34-3.47h-.01Z"/><path fill="var(--icon-primary)" d="M8.89 14.95c.45-.06.91-.1 1.39-.13.09 0 .18-.01.27-.02.48-.03.96-.05 1.45-.05s.98.02 1.45.05c.09 0 .18.01.27.02.48.03.94.08 1.39.13h.09c.27-.43.54-.86.81-1.31 1.68-2.83 2.5-4.85 2.5-6.18 0-3.56-2.92-6.46-6.5-6.46S5.5 3.9 5.5 7.46c0 1.33.82 3.35 2.5 6.18.27.45.54.89.81 1.31h.09-.01ZM12 4.16c1.84 0 3.34 1.5 3.34 3.34 0 1.84-1.5 3.34-3.34 3.34-1.84 0-3.34-1.5-3.34-3.34 0-1.84 1.5-3.34 3.34-3.34ZM12 14.75Z"/><path fill="var(--icon-primary)" d="M10.27 14.81c-.47.03-.94.08-1.39.13.45-.06.91-.1 1.39-.13ZM15.11 14.95c-.45-.06-.91-.1-1.39-.13.47.03.94.08 1.39.13ZM13.45 14.8ZM10.55 14.8c-.09 0-.18.01-.27.02.09 0 .18-.01.27-.02ZM13.73 14.81c-.09 0-.18-.01-.27-.02.09 0 .18.01.27.02Z"/><path fill="var(--icon-primary)" d="M15.11 14.95c-.45-.06-.91-.1-1.39-.13-.09 0-.18-.01-.27-.02-.48-.03-.96-.05-1.45-.05s-.98.02-1.45.05c-.09 0-.18.01-.27.02-.47.03-.94.08-1.39.13H8.8c.94 1.48 1.85 2.79 2.52 3.7.32.43 1.03.43 1.35 0 .67-.92 1.59-2.22 2.52-3.7h-.09.01Z"/></g><defs><clipPath id="a"><path fill="#fff" d="M2 1h20v21.75H2z"/></clipPath></defs></svg>