<svg xmlns="http://www.w3.org/2000/svg" fill="none" viewBox="0 0 24 24"><g clip-path="url(#a)"><path fill="var(--icon-primary)" d="M1.78 16.93c-.24 0-.49-.18-.49-.49V2.88l4.35 4.35v5.83c0 .13-.05.25-.14.34l-3.38 3.38c-.12.12-.25.14-.34.14v.01Z"/><path fill="var(--icon-secondary)" d="m1.59 3.59 3.77 3.77v5.7c0 .05-.02.1-.06.14l-3.38 3.38s-.08.06-.13.06-.2-.04-.2-.19V3.59ZM1 2.17v14.27c0 .47.38.78.78.78.19 0 .39-.07.54-.23l3.38-3.38c.15-.15.23-.34.23-.55V7.11L1 2.17Z"/><path fill="var(--icon-primary)" d="M17 12.51a.583.583 0 0 1-.41-1l2.2-2.2c.23-.23.6-.23.83 0 .23.23.23.6 0 .83l-2.2 2.2c-.11.11-.26.17-.41.17H17ZM17.54 8.66c-.15 0-.3-.06-.41-.17l-.29-.29a.585.585 0 0 1 0-.83c.23-.23.6-.23.83 0l.29.29a.585.585 0 0 1-.41 1h-.01ZM21.14 12.26c-.15 0-.3-.06-.41-.17l-.29-.29a.585.585 0 0 1 0-.83c.23-.23.6-.23.83 0l.29.29a.585.585 0 0 1-.41 1h-.01ZM22.42 10.32h-.89a.591.591 0 0 1 0-1.18h.89a.591.591 0 0 1 0 1.18ZM19.2 7.97c-.32 0-.59-.26-.59-.59v-.89a.591.591 0 0 1 1.18 0v.89c0 .32-.26.59-.59.59ZM21.17 8.34a.583.583 0 0 1-.41-1l.94-.94c.23-.23.6-.23.83 0 .23.23.23.6 0 .83l-.94.94c-.11.11-.26.17-.41.17h-.01Z"/><path fill="var(--icon-secondary)" d="M9.56 11.53a5.535 5.535 0 0 0 0 7.84c2.17 2.16 5.68 2.17 7.84 0a5.535 5.535 0 0 0 0-7.84c-2.17-2.16-5.68-2.17-7.84 0Z"/><path fill="var(--icon-primary)" d="M9.13 16.04c-.32 0-.59-.26-.59-.59 0-2.72 2.21-4.93 4.93-4.93a.591.591 0 0 1 0 1.18c-2.07 0-3.76 1.69-3.76 3.76 0 .32-.26.59-.59.59l.01-.01ZM7.23 5.65 2.88 1.29h18.65c.2 0 .37.11.45.3.08.19.04.38-.11.53l-1.15 1.15a5.71 5.71 0 0 0-1.53-.22c-1.99 0-3.84.97-4.98 2.59H7.23v.01Z"/><path fill="var(--icon-secondary)" d="M21.53 1.59c.11 0 .15.06.18.12s.03.13-.04.21l-1.03 1.03c-.51-.13-.98-.19-1.44-.19-2.03 0-3.93.96-5.13 2.59H7.36L3.59 1.59h17.95M21.53 1H2.17l4.94 4.94h7.26a5.79 5.79 0 0 1 4.83-2.59c.56 0 1.1.11 1.61.26l1.27-1.27c.49-.49.14-1.33-.55-1.33V1Z"/></g><defs><clipPath id="a"><path fill="#fff" d="M1 1h22.01v20H1z"/></clipPath></defs></svg>