<svg xmlns="http://www.w3.org/2000/svg" fill="none" viewBox="0 0 24 24"><g clip-path="url(#a)"><path fill="var(--icon-primary)" d="M19.54 4.5h-8.25a1.44 1.44 0 0 0-1.44 1.44v14.1c0 .795.645 1.44 1.44 1.44h8.25a1.44 1.44 0 0 0 1.44-1.44V5.94a1.44 1.44 0 0 0-1.44-1.44Z"/><path fill="var(--icon-secondary)" d="M11.29 4.5c-.79 0-1.44.64-1.44 1.44v14.1h4.05c.79 0 1.44-.64 1.44-1.44V4.5h-4.05Z"/><path fill="var(--icon-primary)" d="M6 19.18c.13 0 .26.05.35.15l1.81 1.81c.2.2.2.51 0 .71-.2.2-.51.2-.71 0l-1.46-1.46-1.46 1.46c-.2.2-.51.2-.71 0-.2-.2-.2-.51 0-.71l1.81-1.81c.1-.1.23-.15.35-.15H6ZM16.19.99c.13 0 .26.05.35.15l1.45 1.46 1.46-1.46c.2-.2.51-.2.71 0 .2.2.2.51 0 .71l-1.81 1.81a.51.51 0 0 1-.35.15.47.47 0 0 1-.35-.15l-1.81-1.81c-.2-.2-.2-.51 0-.71.1-.1.23-.15.35-.15Z"/><path fill="#1A1C1E" d="m15.85 14.99.4.92c.03.07-.02.14-.09.14h-1.49c-.08 0-.13-.08-.09-.15l.4-.92c-.22.11-.45.16-.69.16-.42 0-.81-.17-1.08-.45-1.32-1.32.76-3.11 1.63-4.02.2-.21.37-.39.5-.53.04-.04.11-.05.15 0 .13.14.3.32.5.53.87.92 2.95 2.71 1.63 4.02-.28.28-.66.45-1.08.45-.24 0-.47-.06-.69-.16v.01Z"/><path fill="#000" d="M12.965 6.658a.96.96 0 1 0-1.92-.005.96.96 0 0 0 1.92.005ZM19.784 19.324a.96.96 0 1 0-1.92-.006.96.96 0 0 0 1.92.006Z"/><path fill="var(--icon-primary)" d="M12.69 1.5H4.44A1.44 1.44 0 0 0 3 2.94v14.1c0 .795.645 1.44 1.44 1.44h8.25a1.44 1.44 0 0 0 1.44-1.44V2.94a1.44 1.44 0 0 0-1.44-1.44Z"/><path fill="#000" d="M5.17 4.614a.96.96 0 1 0-.006-1.92.96.96 0 0 0 .005 1.92ZM11.973 17.276a.96.96 0 1 0-.006-1.92.96.96 0 0 0 .006 1.92Z"/><path fill="#1A1C1E" fill-rule="evenodd" d="m8.97 7.93-.4.4-.4-.4a1.436 1.436 0 0 0-2.03 2.03l.4.4 2.03 2.03L11 9.96a1.436 1.436 0 0 0-2.03-2.03Z" clip-rule="evenodd"/></g><defs><clipPath id="a"><path fill="#fff" d="M3 1h17.98v21H3z"/></clipPath></defs></svg>