<svg viewBox="0 0 24 24" fill="none" xmlns="http://www.w3.org/2000/svg">
<g clip-path="url(#instant-win-clip)">
<path fill="var(--icon-primary)" d="M0.5 17.0601C0.37 17.0601 0.24 17.0101 0.15 16.9101C-0.05 16.7101 -0.05 16.4001 0.15 16.2001L3.35 13.0001C3.55 12.8001 3.86 12.8001 4.06 13.0001C4.26 13.2001 4.26 13.5101 4.06 13.7101L0.86 16.9101C0.76 17.0101 0.63 17.0601 0.51 17.0601H0.5Z"/>
<path d="M0.540039 21.9601C0.410039 21.9601 0.280039 21.9101 0.190039 21.8101C-0.00996093 21.6101 -0.00996093 21.3001 0.190039 21.1001L4.04004 17.2501C4.24004 17.0501 4.55004 17.0501 4.75004 17.2501C4.95004 17.4501 4.95004 17.7601 4.75004 17.9601L0.900039 21.8101C0.800039 21.9101 0.670039 21.9601 0.550039 21.9601H0.540039Z" fill="var(--icon-primary)"/>
<path d="M5.43994 22.0099C5.30994 22.0099 5.17994 21.9599 5.08994 21.8599C4.88994 21.6599 4.88994 21.3499 5.08994 21.1499L8.14994 18.0899C8.34994 17.8899 8.65994 17.8899 8.85994 18.0899C9.05994 18.2899 9.05994 18.5999 8.85994 18.7999L5.79994 21.8599C5.69994 21.9599 5.56994 22.0099 5.44994 22.0099H5.43994Z" fill="var(--icon-primary)"/>
<path d="M13.51 0C8.81001 0 5.01001 3.81 5.01001 8.5C5.01001 13.19 8.82001 17 13.51 17C18.2 17 22.01 13.19 22.01 8.5C22.01 3.81 18.2 0 13.51 0ZM13.51 16.17C9.27001 16.17 5.84001 12.74 5.84001 8.5C5.84001 4.26 9.27001 0.83 13.51 0.83C17.75 0.83 21.18 4.26 21.18 8.5C21.18 12.74 17.75 16.17 13.51 16.17Z" fill="var(--icon-primary)"/>
<path d="M13.51 1.82007C9.81996 1.82007 6.82996 4.81007 6.82996 8.50007C6.82996 12.1901 9.81996 15.1801 13.51 15.1801C17.2 15.1801 20.19 12.1901 20.19 8.50007C20.19 4.81007 17.2 1.82007 13.51 1.82007ZM14.89 11.8401H14.72C14.66 11.8401 14.64 11.8801 14.64 11.9301V12.3801C14.64 12.5001 14.58 12.5601 14.46 12.5601H12.58C12.46 12.5601 12.4 12.5001 12.4 12.3801V11.9301C12.4 11.8701 12.36 11.8401 12.31 11.8301H12.25C10.72 11.7001 9.72996 10.8201 9.69996 9.68007C9.69996 9.55007 9.75996 9.48007 9.87996 9.48007H12C12.15 9.48007 12.21 9.53007 12.24 9.66007C12.31 9.92007 12.51 10.0701 12.89 10.0701H14.38C14.75 10.0701 14.93 9.92007 14.93 9.67007C14.93 9.44007 14.73 9.32007 14.28 9.27007L11.98 9.21007C10.54 9.11007 9.72996 8.42007 9.72996 7.23007C9.72996 6.04007 10.64 5.31007 12.02 5.20007H12.32C12.38 5.20007 12.41 5.16007 12.41 5.11007V4.66007C12.41 4.54007 12.47 4.48007 12.59 4.48007H14.47C14.59 4.48007 14.65 4.54007 14.65 4.66007V5.11007C14.65 5.16007 14.68 5.20007 14.73 5.21007H14.88C16.44 5.35007 17.18 6.21007 17.18 7.15007C17.18 7.30007 17.11 7.33007 17.01 7.33007H15.05C14.91 7.33007 14.82 7.27007 14.75 7.15007C14.66 6.99007 14.52 6.87007 14.23 6.87007H12.63C12.29 6.87007 12.12 7.00007 12.12 7.19007C12.12 7.38007 12.27 7.49007 12.68 7.53007L14.97 7.60007C16.45 7.68007 17.34 8.29007 17.34 9.65007C17.34 10.9001 16.36 11.7101 14.89 11.8401Z" fill="var(--icon-primary)"/>
</g>
<defs>
<clipPath id="instant-win-clip">
<rect width="22.01" height="22.01" fill="#fff"/>
</clipPath>
</defs>
</svg>
