<svg xmlns="http://www.w3.org/2000/svg" fill="none" viewBox="0 0 24 24"><g clip-path="url(#a)"><path fill="var(--icon-secondary)" d="M20.01 2H3.99C2.89 2 2 2.89 2 3.99v7.39c0 1.1.89 1.99 1.99 1.99h16.02c1.1 0 1.99-.89 1.99-1.99V3.99C22 2.89 21.11 2 20.01 2ZM7.93 6.29l-1.47 3.95c-.08.2-.27.33-.47.33a.492.492 0 0 1-.46-.67L7 5.95c.03-.07 0-.13-.02-.16a.157.157 0 0 0-.14-.07h-1.5c-.28 0-.5-.22-.5-.5s.22-.5.5-.5h1.5c.38 0 .74.19.96.5.22.32.27.72.14 1.08l-.01-.01Zm5.52 0-1.47 3.95c-.08.2-.27.33-.47.33-.06 0-.12 0-.17-.03a.492.492 0 0 1-.29-.64l1.47-3.95c.03-.07 0-.13-.02-.16a.157.157 0 0 0-.14-.07h-1.5c-.28 0-.5-.22-.5-.5s.22-.5.5-.5h1.5c.38 0 .74.19.96.5.22.32.27.72.14 1.08l-.01-.01Zm5.52 0-1.25 3.38c-.08.2-.27.33-.47.33a.492.492 0 0 1-.46-.67l1.25-3.38c.03-.07 0-.13-.02-.16a.157.157 0 0 0-.14-.07h-1.5c-.28 0-.5-.22-.5-.5s.22-.5.5-.5h1.5c.38 0 .74.19.96.5.22.32.27.72.14 1.08l-.01-.01Z"/><path fill="var(--icon-secondary)" fill-rule="evenodd" d="M22.06 17.23c0-1.47-2.54-2.66-5.68-2.66-3.14 0-5.68 1.19-5.68 2.66v1.61c0 1.47 2.54 2.66 5.68 2.66 3.14 0 5.68-1.19 5.68-2.66v-1.61Z" clip-rule="evenodd"/><path fill="#000" d="M16.39 19.89c3.137 0 5.68-1.19 5.68-2.66 0-1.469-2.543-2.66-5.68-2.66-3.137 0-5.68 1.191-5.68 2.66 0 1.47 2.543 2.66 5.68 2.66Z"/><path fill="var(--icon-secondary)" fill-rule="evenodd" d="M22.06 15.26c0-1.47-2.54-2.66-5.68-2.66-3.14 0-5.68 1.19-5.68 2.66v1.61c0 1.47 2.54 2.66 5.68 2.66 3.14 0 5.68-1.19 5.68-2.66v-1.61Z" clip-rule="evenodd"/><path fill="#000" d="M16.39 17.92c3.137 0 5.68-1.19 5.68-2.66 0-1.469-2.543-2.66-5.68-2.66-3.137 0-5.68 1.191-5.68 2.66 0 1.47 2.543 2.66 5.68 2.66Z"/><path fill="var(--icon-secondary)" fill-rule="evenodd" d="M22.06 13.3c0-1.47-2.54-2.66-5.68-2.66-3.14 0-5.68 1.19-5.68 2.66v1.61c0 1.47 2.54 2.66 5.68 2.66 3.14 0 5.68-1.19 5.68-2.66V13.3Z" clip-rule="evenodd"/><path fill="var(--icon-primary)" d="M16.39 15.96c3.137 0 5.68-1.191 5.68-2.66 0-1.47-2.543-2.66-5.68-2.66-3.137 0-5.68 1.19-5.68 2.66 0 1.469 2.543 2.66 5.68 2.66Z"/></g><defs><clipPath id="a"><path fill="#fff" d="M2 2h20.06v19.5H2z"/></clipPath></defs></svg>