<svg xmlns="http://www.w3.org/2000/svg" fill="none" viewBox="0 0 24 24"><g clip-path="url(#a)"><path fill="var(--icon-primary)" d="M10.53 1.54H1.57v8.96h8.96V1.54ZM22.6 13.61h-8.96v8.96h8.96v-8.96ZM6.09 22.58a4.51 4.51 0 1 0 0-9.02 4.51 4.51 0 0 0 0 9.02ZM18.11 10.56a4.51 4.51 0 1 0 0-9.02 4.51 4.51 0 0 0 0 9.02Z"/><path fill="#000" d="M6.13 20c-.08 0-.12-.04-.12-.12v-.66s-.02-.06-.06-.06H4.61c-.08 0-.12-.04-.12-.12v-.65c0-.1.02-.17.06-.23l1.3-2.25c.04-.07.08-.1.16-.1h1.03c.08 0 .12.04.12.12v2.33s.02.06.06.06h.32c.08 0 .12.04.12.12v.61c0 .08-.04.12-.12.12h-.32s-.06.02-.06.06v.66c0 .08-.04.12-.12.12h-.91V20Zm-.11-1.68s.06-.02.06-.06V17.2c0-.06-.05-.07-.08-.02l-.62 1.07s0 .07.04.07h.6ZM16.72 8c-.08 0-.12-.04-.12-.12v-.71c0-.11.03-.17.11-.25l1.42-1.42c.19-.18.27-.31.27-.48v-.03c0-.2-.13-.32-.32-.32-.23 0-.36.14-.36.39v.1c0 .08-.04.12-.12.12h-.88c-.08 0-.12-.04-.11-.12v-.14c.03-.74.53-1.3 1.46-1.3.87 0 1.44.44 1.44 1.24 0 .47-.21.77-.55 1.13l-.79.87s-.01.08.04.08h1.21c.08 0 .12.04.12.12v.72c0 .08-.04.12-.12.12h-2.7Z"/><path fill="var(--icon-secondary)" d="M11.07 11h-10V1h10v10Zm-9-1h8V2h-8v8ZM23.07 23h-10V13h10v10Zm-9-1h8v-8h-8v8ZM18.07 1c-2.76 0-5 2.24-5 5s2.24 5 5 5 5-2.24 5-5-2.24-5-5-5Zm0 9c-2.21 0-4-1.79-4-4s1.79-4 4-4 4 1.79 4 4-1.79 4-4 4ZM6 13.07c-2.76 0-5 2.24-5 5s2.24 5 5 5 5-2.24 5-5-2.24-5-5-5Zm0 9c-2.21 0-4-1.79-4-4s1.79-4 4-4 4 1.79 4 4-1.79 4-4 4Z"/></g><defs><clipPath id="a"><path fill="#fff" d="M1 1h22.07v22.07H1z"/></clipPath></defs></svg>