<svg xmlns="http://www.w3.org/2000/svg" fill="none" viewBox="0 0 24 24"><g clip-path="url(#a)"><path fill="var(--icon-secondary)" d="M8.39 13h7.22c2.97 0 5.39 2.41 5.39 5.39V23H3v-4.61C3 15.42 5.41 13 8.39 13Z"/><path fill="var(--icon-primary)" d="M8.39 13c-.22 0-.44.04-.65.07l3.4 9.93h1.73l3.4-9.93c-.22-.03-.43-.07-.65-.07H8.39ZM12 13a4.87 4.87 0 1 0 0-9.74A4.87 4.87 0 0 0 12 13Z"/><path fill="var(--icon-secondary)" fill-rule="evenodd" d="M15.38 4.64c.16.48.27.99.27 1.53a4.87 4.87 0 0 1-4.87 4.87c-1.32 0-2.54-.53-3.42-1.38A4.882 4.882 0 0 0 11.99 13a4.87 4.87 0 0 0 4.87-4.87c0-1.37-.57-2.61-1.49-3.49h.01Z" clip-rule="evenodd"/><path fill="var(--icon-secondary)" d="M6 12c.02-5.48-.13-11 6-11s5.98 5.52 6 11h-4s2.16-1.34 2.17-1.77c.01-.82.03-1.04.03-1.45V6.66c0-.29-.24-.53-.53-.53H8.32c-.29 0-.53.24-.53.53v3.79c0 .47 1.94 1.56 1.94 1.56H5.99L6 12Z"/><path fill="#000" d="m14.76 14.5-1.89.69a.913.913 0 0 0-1.72.01l-1.92-.7v2.01l1.92-.7a.913.913 0 0 0 1.72.01l1.89.69V14.5Z"/></g><defs><clipPath id="a"><path fill="#fff" d="M3 1h18v22H3z"/></clipPath></defs></svg>