<svg xmlns="http://www.w3.org/2000/svg" fill="none" viewBox="0 0 24 24"><g clip-path="url(#a)"><path fill="var(--icon-secondary)" d="M13.575 11.54c-.62-.32-1.3-.51-2.04-.51h-6.03a4.5 4.5 0 0 0-4.5 4.5v3.85h9.98a6.34 6.34 0 0 1-.45-2.35c0-2.31 1.22-4.34 3.04-5.48v-.01Z"/><path fill="var(--icon-primary)" d="M5.505 11.02c-.19 0-.36.03-.55.05l2.84 8.29h1.44l2.84-8.29c-.18-.02-.36-.05-.54-.05h-6.03ZM8.515 11.02a4.06 4.06 0 1 0 0-8.12 4.06 4.06 0 0 0 0 8.12Z"/><path fill="var(--icon-secondary)" fill-rule="evenodd" d="M11.335 4.05c.13.4.22.83.22 1.27 0 2.24-1.82 4.06-4.06 4.06-1.1 0-2.12-.44-2.85-1.15a4.083 4.083 0 0 0 3.87 2.79c2.24 0 4.06-1.82 4.06-4.06 0-1.15-.48-2.18-1.24-2.91Z" clip-rule="evenodd"/><path fill="var(--icon-secondary)" d="M3.505 10.19c.01-4.57-.11-9.18 5.01-9.18s4.99 4.61 5.01 9.18h-3.34s1.8-1.12 1.81-1.48c.01-.68.03-.87.03-1.21V5.73c0-.24-.2-.44-.44-.44h-6.13c-.24 0-.44.2-.44.44v3.16c0 .39 1.62 1.3 1.62 1.3h-3.13Z"/><path fill="#000" d="m10.825 12.27-1.58.57a.76.76 0 0 0-.71-.5c-.33 0-.61.22-.72.51l-1.6-.58v1.67l1.6-.58c.11.3.38.51.72.51.34 0 .61-.21.71-.5l1.58.57v-1.67Z"/><path fill="var(--icon-primary)" d="m17.837 15.978-1.867 1.867.212.212 1.867-1.867-.212-.212Z"/><path fill="var(--icon-secondary)" d="M16.075 18.25a.3.3 0 1 0 0-.6.3.3 0 0 0 0 .6ZM17.935 16.38a.3.3 0 1 0 0-.6.3.3 0 0 0 0 .6Z"/><path fill="var(--icon-primary)" d="m16.182 15.978-.212.212 1.867 1.866.212-.212-1.867-1.866Z"/><path fill="var(--icon-secondary)" d="M16.075 16.38a.3.3 0 1 0 0-.6.3.3 0 0 0 0 .6ZM17.935 18.25a.3.3 0 1 0 0-.6.3.3 0 0 0 0 .6Z"/><path fill="var(--icon-primary)" d="m17.985 18.74.71 1.73a3.83 3.83 0 0 0 1.75-1.74l-1.72-.72c-.18.31-.43.56-.74.73Z"/><path fill="var(--icon-secondary)" d="M17.005 19.02c-.19 0-.36-.04-.53-.09l-.72 1.71c.39.14.81.22 1.25.22.44 0 .83-.08 1.22-.21l-.7-1.72c-.17.05-.34.08-.52.08v.01Z"/><path fill="var(--icon-primary)" d="m15.285 17.99-1.73.71c.37.76.98 1.37 1.74 1.75l.72-1.72c-.31-.18-.56-.43-.73-.74ZM16.025 15.29l-.71-1.73c-.76.37-1.37.98-1.75 1.74l1.72.72c.18-.31.43-.56.74-.73Z"/><path fill="var(--icon-secondary)" d="M17.005 15.01c.19 0 .36.04.53.09l.72-1.71a3.69 3.69 0 0 0-1.25-.22c-.44 0-.83.08-1.22.21l.7 1.72c.17-.05.34-.08.52-.08v-.01ZM15.005 17.02c0-.19.04-.36.09-.53l-1.71-.72c-.14.39-.22.81-.22 1.25 0 .44.08.83.21 1.22l1.72-.7a1.82 1.82 0 0 1-.08-.52h-.01ZM19.005 17.02c0 .19-.04.36-.09.53l1.71.72c.14-.39.22-.81.22-1.25 0-.44-.08-.83-.21-1.22l-1.72.7c.05.17.08.34.08.52h.01Z"/><path fill="var(--icon-primary)" d="m18.725 16.04 1.73-.71a3.83 3.83 0 0 0-1.74-1.75l-.72 1.72c.31.18.56.43.73.74ZM21.065 12.6a5.97 5.97 0 0 0-3.81-1.58v1.78c.98.06 1.86.44 2.55 1.06l1.25-1.25.01-.01Z"/><path fill="var(--icon-secondary)" d="M16.755 11.02c-1.47.06-2.79.65-3.81 1.58l1.25 1.25c.69-.61 1.58-1 2.55-1.06v-1.78l.01.01Z"/><path fill="var(--icon-primary)" d="M12.595 12.95a5.97 5.97 0 0 0-1.58 3.81h1.77c.06-.98.45-1.86 1.07-2.55l-1.25-1.25-.01-.01Z"/><path fill="var(--icon-secondary)" d="M11.015 17.25c.06 1.47.65 2.79 1.58 3.81l1.24-1.24c-.61-.69-1-1.58-1.06-2.57h-1.76Z"/><path fill="var(--icon-primary)" d="M12.945 21.41a5.97 5.97 0 0 0 3.81 1.58v-1.75c-.98-.06-1.87-.45-2.57-1.07l-1.24 1.24Z"/><path fill="var(--icon-secondary)" d="M17.255 22.99c1.47-.06 2.79-.65 3.81-1.58l-1.24-1.24c-.69.62-1.58 1.01-2.57 1.07v1.75Z"/><path fill="var(--icon-primary)" d="m20.175 19.82 1.24 1.24a5.97 5.97 0 0 0 1.58-3.81h-1.76c-.06.98-.44 1.87-1.06 2.57Z"/><path fill="var(--icon-secondary)" d="M22.995 16.75a5.992 5.992 0 0 0-1.58-3.81l-1.25 1.25c.62.69 1 1.58 1.07 2.56h1.76Z"/></g><defs><clipPath id="a"><path fill="#fff" d="M1.005 1.01h21.99v21.98H1.005z"/></clipPath></defs></svg>