<svg xmlns="http://www.w3.org/2000/svg" fill="none" viewBox="0 0 24 24"><g clip-path="url(#a)"><path fill="var(--icon-primary)" d="M14.57 10c-.15 0-.3-.06-.41-.17a.573.573 0 0 1 0-.82l3.06-3.06c.23-.23.59-.23.82 0 .23.23.23.59 0 .82l-3.06 3.06c-.11.11-.26.17-.41.17ZM20.69 3.88c-.15 0-.3-.06-.41-.17a.573.573 0 0 1 0-.82l1.2-1.2c.23-.23.59-.23.82 0 .23.23.23.59 0 .82l-1.2 1.2c-.11.11-.26.17-.41.17ZM17.66 3.31a.58.58 0 0 1-.58-.58V1.58a.58.58 0 0 1 1.16 0v1.15c0 .32-.26.58-.58.58ZM15.16 4.52c-.15 0-.3-.06-.41-.17l-.4-.42a.583.583 0 0 1 .01-.82c.23-.22.59-.22.82.01l.4.42c.22.23.22.59-.01.82-.11.11-.26.16-.4.16h-.01ZM22.42 6.91h-1.15a.58.58 0 0 1 0-1.16h1.15a.58.58 0 0 1 0 1.16ZM20.47 9.81c-.15 0-.3-.06-.41-.17l-.4-.4a.573.573 0 0 1 0-.82c.23-.23.59-.23.82 0l.4.4c.23.23.23.59 0 .82-.11.11-.26.17-.41.17Z"/><path fill="var(--icon-secondary)" d="M1 14.92c0 4.46 3.61 8.07 8.07 8.07 4.46 0 8.07-3.61 8.07-8.07 0-4.46-3.61-8.07-8.07-8.07C4.61 6.85 1 10.46 1 14.92Z"/><path fill="var(--icon-primary)" d="M2.87 15.43a.58.58 0 0 1-.58-.58c0-3.77 3.07-6.84 6.84-6.84a.58.58 0 0 1 0 1.16c-3.14 0-5.69 2.55-5.69 5.69 0 .32-.26.58-.58.58l.01-.01Z"/></g><defs><clipPath id="a"><path fill="#fff" d="M1 1h21.99v21.99H1z"/></clipPath></defs></svg>