<svg xmlns="http://www.w3.org/2000/svg" fill="none" viewBox="0 0 24 24"><g clip-path="url(#a)"><path fill="var(--icon-primary)" d="m14.93 18.37-1.3-3.14a3.64 3.64 0 0 0 1.6-1.6l3.14 1.3a7.06 7.06 0 0 1-3.44 3.44Z"/><path fill="var(--icon-secondary)" d="M11.98 19.03c-.86 0-1.67-.16-2.43-.44l1.3-3.14c.36.12.73.2 1.13.2.4 0 .77-.08 1.13-.2l1.3 3.14c-.76.28-1.58.44-2.43.44Z"/><path fill="var(--icon-primary)" d="m5.59 14.93 3.14-1.3c.35.69.91 1.25 1.6 1.6l-1.3 3.14a7.06 7.06 0 0 1-3.44-3.44ZM9.03 5.59l1.3 3.14c-.69.35-1.25.91-1.6 1.6l-3.14-1.3a7.06 7.06 0 0 1 3.44-3.44Z"/><path fill="var(--icon-secondary)" d="M11.98 4.93c.86 0 1.67.16 2.43.44l-1.3 3.14c-.36-.12-.73-.2-1.13-.2-.4 0-.77.08-1.13.2l-1.3-3.14c.76-.28 1.58-.44 2.43-.44ZM5.37 9.55l3.14 1.3c-.12.36-.2.73-.2 1.13 0 .4.08.77.2 1.13l-3.14 1.3c-.28-.76-.44-1.58-.44-2.43 0-.85.16-1.67.44-2.43ZM18.59 14.41l-3.14-1.3c.12-.36.2-.73.2-1.13 0-.4-.08-.77-.2-1.13l3.14-1.3c.28.76.44 1.58.44 2.43 0 .85-.16 1.67-.44 2.43Z"/><path fill="var(--icon-primary)" d="M15.23 10.33a3.64 3.64 0 0 0-1.6-1.6l1.3-3.14a7.06 7.06 0 0 1 3.44 3.44l-3.14 1.3Z"/><path fill="var(--icon-secondary)" d="M17.15 6.41c-1.29-1.2-3-1.96-4.89-2.03V1c2.82.07 5.37 1.21 7.28 3.02l-2.39 2.39Z"/><path fill="var(--icon-primary)" d="M11.7 4.38c-1.89.07-3.59.83-4.89 2.03L4.42 4.02A10.95 10.95 0 0 1 11.7 1v3.38Z"/><path fill="var(--icon-secondary)" d="M6.41 6.81c-1.2 1.29-1.96 3-2.03 4.89H1a10.95 10.95 0 0 1 3.02-7.28l2.39 2.39Z"/><path fill="var(--icon-primary)" d="M4.38 12.26c.07 1.89.83 3.59 2.03 4.89l-2.39 2.39A10.95 10.95 0 0 1 1 12.26h3.38Z"/><path fill="var(--icon-secondary)" d="M6.81 17.55c1.29 1.2 3 1.96 4.89 2.03v3.38a10.95 10.95 0 0 1-7.28-3.02l2.39-2.39Z"/><path fill="var(--icon-primary)" d="M12.26 19.58c1.89-.07 3.59-.83 4.89-2.03l2.39 2.39a10.95 10.95 0 0 1-7.28 3.02v-3.38Z"/><path fill="var(--icon-secondary)" d="M17.55 17.15c1.2-1.29 1.96-3 2.03-4.89h3.38a10.95 10.95 0 0 1-3.02 7.28l-2.39-2.39Z"/><path fill="var(--icon-primary)" d="M19.58 11.7a7.595 7.595 0 0 0-2.03-4.89l2.39-2.39a10.95 10.95 0 0 1 3.02 7.28h-3.38ZM13.498 10.078l-3.415 3.415.389.39 3.415-3.416-.389-.39Z"/><path fill="var(--icon-secondary)" d="M10.27 14.24a.55.55 0 1 0 0-1.1.55.55 0 0 0 0 1.1ZM13.69 10.82a.55.55 0 1 0 0-1.1.55.55 0 0 0 0 1.1Z"/><path fill="var(--icon-primary)" d="m10.472 10.078-.389.389 3.415 3.415.39-.389-3.416-3.415Z"/><path fill="var(--icon-secondary)" d="M10.27 10.82a.55.55 0 1 0 0-1.1.55.55 0 0 0 0 1.1ZM13.69 14.24a.55.55 0 1 0 0-1.1.55.55 0 0 0 0 1.1Z"/></g><defs><clipPath id="a"><path fill="#fff" d="M1 1h21.96v21.96H1z"/></clipPath></defs></svg>