<svg xmlns="http://www.w3.org/2000/svg" fill="none" viewBox="0 0 24 24"><g clip-path="url(#a)"><path fill="var(--icon-primary)" d="M10.28 11.48H2.19c-.66 0-1.19-.54-1.19-1.19v-8.1C1 1.54 1.54 1 2.19 1h8.09c.66 0 1.2.54 1.2 1.19v8.09c0 .66-.54 1.19-1.19 1.19l-.01.01ZM2.19 2.05c-.08 0-.15.07-.15.15v8.09c0 .08.07.15.15.15h8.09c.08 0 .15-.07.15-.15v-8.1c0-.08-.07-.15-.15-.15H2.19v.01ZM10.28 23H2.19C1.53 23 1 22.46 1 21.81v-8.09c0-.66.54-1.19 1.19-1.19h8.09c.66 0 1.19.54 1.19 1.19v8.09c0 .66-.54 1.19-1.19 1.19Zm-8.09-9.43c-.08 0-.15.07-.15.15v8.09c0 .08.07.15.15.15h8.09c.08 0 .15-.07.15-.15v-8.09c0-.08-.07-.15-.15-.15H2.19ZM21.81 23h-8.09c-.66 0-1.19-.54-1.19-1.19v-8.09c0-.66.54-1.19 1.19-1.19h8.09c.66 0 1.19.54 1.19 1.19v8.09c0 .66-.54 1.19-1.19 1.19Zm-8.09-9.43c-.08 0-.15.07-.15.15v8.09c0 .08.07.15.15.15h8.09c.08 0 .15-.07.15-.15v-8.09c0-.08-.07-.15-.15-.15h-8.09Z"/><path fill="var(--icon-secondary)" d="M17.76 11.48a5.24 5.24 0 1 0 0-10.48 5.24 5.24 0 0 0 0 10.48Z"/></g><defs><clipPath id="a"><path fill="#fff" d="M1 1h22v22H1z"/></clipPath></defs></svg>