<svg width="37" height="37" viewBox="0 0 37 37" fill="none" xmlns="http://www.w3.org/2000/svg">
<g clip-path="url(#clip0_8255_13229)">
<path d="M19.8157 14.1639C16.0885 14.3956 17.762 19.2499 21.8826 18.9936C25.9133 18.7431 23.7869 13.9172 19.8157 14.1639Z" fill="white"/>
<path d="M18.2424 11.1657C15.8674 11.1657 13.5458 11.87 11.5711 13.1894C9.59639 14.5089 8.05729 16.3843 7.14843 18.5785C6.23958 20.7726 6.00178 23.1871 6.46511 25.5164C6.92844 27.8457 8.0721 29.9853 9.75145 31.6647C11.4308 33.344 13.5704 34.4877 15.8998 34.951C18.2291 35.4144 20.6435 35.1766 22.8377 34.2677C25.0319 33.3588 26.9073 31.8197 28.2267 29.845C29.5462 27.8703 30.2504 25.5487 30.2504 23.1737C30.2504 19.989 28.9853 16.9347 26.7334 14.6828C24.4814 12.4308 21.4271 11.1657 18.2424 11.1657ZM18.2424 33.9233C16.1168 33.9237 14.0389 33.2937 12.2713 32.1131C10.5038 30.9324 9.12607 29.2541 8.31239 27.2905C7.49871 25.3268 7.28562 23.1659 7.70007 21.0812C8.11452 18.9964 9.1379 17.0813 10.6408 15.5782C12.1437 14.075 14.0585 13.0513 16.1432 12.6365C18.2279 12.2217 20.3888 12.4344 22.3527 13.2477C24.3165 14.0611 25.995 15.4385 27.1759 17.2058C28.3569 18.9732 28.9872 21.051 28.9872 23.1766C28.9872 26.0264 27.8552 28.7596 25.8403 30.775C23.8253 32.7903 21.0923 33.9228 18.2424 33.9233ZM17.8803 2.78279C15.0295 4.93762 15.525 8.24219 15.525 8.24219C15.525 8.24219 13.7332 3.59121 11.4063 0.748047C11.0924 4.40813 12.2393 9.25767 12.2393 9.25767C12.2393 9.25767 10.7823 6.25094 7.21204 6.08263C10.1734 7.78456 11.3222 10.8509 11.585 11.6735C13.3498 10.5841 15.368 9.97342 17.4406 9.90156C17.2071 9.1357 16.3769 5.90866 17.8803 2.78279Z" fill="white"/>
<path d="M10.0987 24.3509V26.8641H9.05393V20.3892H11.2551C12.0001 20.3892 12.5612 20.5666 12.9381 20.9215C13.315 21.2764 13.5041 21.7624 13.5054 22.3795C13.5054 22.9916 13.3128 23.4731 12.9277 23.8242C12.5426 24.1753 11.9863 24.3509 11.2589 24.3509H10.0987ZM12.4408 22.3795C12.4408 22.0126 12.3383 21.7328 12.1335 21.5399C11.9286 21.347 11.5999 21.2509 11.1473 21.2515H10.0987V23.498H11.1445C12.0087 23.498 12.4408 23.1252 12.4408 22.3795ZM15.299 26.0481H17.5371V26.8641H14.2533V20.3892H15.299V26.0481ZM22.3242 25.4609H19.5917L19.0962 26.8641H17.9767L20.3623 20.4904H21.5631L23.9391 26.8641H22.8197L22.3242 25.4609ZM22.0311 24.6544L20.9579 21.6288L19.8848 24.6544H22.0311ZM28.1363 20.3892L25.9815 24.5069V26.8641H24.9291V24.5069L22.7648 20.3892H23.976L25.4624 23.3884L26.9478 20.3892H28.1363Z" fill="white"/>
</g>
<defs>
<clipPath id="clip0_8255_13229">
<rect width="36" height="36" fill="white" transform="translate(0.5 0.25)"/>
</clipPath>
</defs>
</svg>
