<svg xmlns="http://www.w3.org/2000/svg" fill="none" viewBox="0 0 24 24"><g clip-path="url(#a)"><path fill="var(--icon-primary)" d="M22.25 1H1.75a.75.75 0 0 0-.75.75v20.5c0 .414.336.75.75.75h20.5a.75.75 0 0 0 .75-.75V1.75a.75.75 0 0 0-.75-.75Z"/><path fill="var(--icon-secondary)" fill-rule="evenodd" d="M22.76 1.2s.02.05.02.07v20.51c0 .41-.33.75-.75.75H1.52c-.2 0-.37-.08-.51-.2.04.38.35.67.73.67h20.51c.41 0 .75-.33.75-.75V1.75c0-.22-.09-.41-.24-.54V1.2Z" clip-rule="evenodd"/><path fill="#000" d="M12 6.43a1.48 1.48 0 1 0 0-2.96 1.48 1.48 0 0 0 0 2.96ZM5.9 7.73a1.48 1.48 0 1 0 0-2.96 1.48 1.48 0 0 0 0 2.96ZM20.7 7.73a1.48 1.48 0 1 0 0-2.96 1.48 1.48 0 0 0 0 2.96Z"/><path fill="var(--icon-secondary)" fill-rule="evenodd" d="M5.01 5.36c.55-.55 1.42-.56 2-.06-.03-.03-.03-.07-.06-.09-.58-.58-1.51-.58-2.09 0-.58.58-.58 1.51 0 2.09.03.03.06.04.09.06-.5-.58-.49-1.45.06-2ZM19.81 5.36c.55-.55 1.42-.56 2-.06-.03-.03-.03-.07-.06-.09-.58-.58-1.51-.58-2.09 0-.58.58-.58 1.51 0 2.09.03.03.06.04.09.06-.5-.58-.49-1.45.06-2ZM14.35 5.2l-1.3-1.3c.58.58.58 1.51 0 2.09-.58.58-1.51.58-2.09 0l1.3 1.3c.58.58 1.51.58 2.09 0 .58-.58.58-1.51 0-2.09Z" clip-rule="evenodd"/><path fill="#000" d="M4.6 6.43a1.48 1.48 0 1 0 0-2.96 1.48 1.48 0 0 0 0 2.96Z"/><path fill="var(--icon-secondary)" fill-rule="evenodd" d="m6.95 5.2-1.3-1.3c.58.58.58 1.51 0 2.09-.58.58-1.51.58-2.09 0l1.3 1.3c.58.58 1.51.58 2.09 0 .58-.58.58-1.51 0-2.09Z" clip-rule="evenodd"/><path fill="#000" d="M19.4 6.43a1.48 1.48 0 1 0 0-2.96 1.48 1.48 0 0 0 0 2.96Z"/><path fill="var(--icon-secondary)" fill-rule="evenodd" d="m21.74 5.2-1.3-1.3c.58.58.58 1.51 0 2.09-.58.58-1.51.58-2.09 0l1.3 1.3c.58.58 1.51.58 2.09 0 .58-.58.58-1.51 0-2.09Z" clip-rule="evenodd"/><path fill="#000" d="M12 18.26a1.48 1.48 0 1 0 0-2.96 1.48 1.48 0 0 0 0 2.96ZM5.9 19.56a1.48 1.48 0 1 0 0-2.96 1.48 1.48 0 0 0 0 2.96ZM20.7 19.56a1.48 1.48 0 1 0 0-2.96 1.48 1.48 0 0 0 0 2.96Z"/><path fill="var(--icon-secondary)" fill-rule="evenodd" d="M5.01 17.19c.55-.55 1.42-.56 2-.06-.03-.03-.03-.07-.06-.09-.58-.58-1.51-.58-2.09 0-.58.58-.58 1.51 0 2.09.03.03.06.04.09.06-.5-.58-.49-1.45.06-2ZM19.81 17.19c.55-.55 1.42-.56 2-.06-.03-.03-.03-.07-.06-.09-.58-.58-1.51-.58-2.09 0-.58.58-.58 1.51 0 2.09.03.03.06.04.09.06-.5-.58-.49-1.45.06-2ZM14.35 17.04l-1.3-1.3c.58.58.58 1.51 0 2.09-.58.58-1.51.58-2.09 0l1.3 1.3c.58.58 1.51.58 2.09 0 .58-.58.58-1.51 0-2.09Z" clip-rule="evenodd"/><path fill="#000" d="M4.6 18.26a1.48 1.48 0 1 0 0-2.96 1.48 1.48 0 0 0 0 2.96Z"/><path fill="var(--icon-secondary)" fill-rule="evenodd" d="m6.95 17.04-1.3-1.3c.58.58.58 1.51 0 2.09-.58.58-1.51.58-2.09 0l1.3 1.3c.58.58 1.51.58 2.09 0 .58-.58.58-1.51 0-2.09Z" clip-rule="evenodd"/><path fill="#000" d="M19.4 18.26a1.48 1.48 0 1 0 0-2.96 1.48 1.48 0 0 0 0 2.96Z"/><path fill="var(--icon-secondary)" fill-rule="evenodd" d="m21.74 17.04-1.3-1.3c.58.58.58 1.51 0 2.09-.58.58-1.51.58-2.09 0l1.3 1.3c.58.58 1.51.58 2.09 0 .58-.58.58-1.51 0-2.09Z" clip-rule="evenodd"/><path fill="#000" d="M15.69 12.35a1.48 1.48 0 1 0 0-2.96 1.48 1.48 0 0 0 0 2.96ZM9.6 13.65a1.48 1.48 0 1 0 0-2.96 1.48 1.48 0 0 0 0 2.96Z"/><path fill="var(--icon-secondary)" fill-rule="evenodd" d="M8.71 11.28c.55-.55 1.42-.56 2-.06-.03-.03-.03-.07-.06-.09-.58-.58-1.51-.58-2.09 0-.58.58-.58 1.51 0 2.09.03.03.06.04.09.06-.5-.58-.49-1.45.06-2ZM18.04 11.12l-1.3-1.3c.58.58.58 1.51 0 2.09-.58.58-1.51.58-2.09 0l1.3 1.3c.58.58 1.51.58 2.09 0 .58-.58.58-1.51 0-2.09Z" clip-rule="evenodd"/><path fill="#000" d="M8.3 12.35a1.48 1.48 0 1 0 0-2.96 1.48 1.48 0 0 0 0 2.96Z"/><path fill="var(--icon-secondary)" fill-rule="evenodd" d="m10.64 11.12-1.3-1.3c.58.58.58 1.51 0 2.09-.58.58-1.51.58-2.09 0l1.3 1.3c.58.58 1.51.58 2.09 0 .58-.58.58-1.51 0-2.09Z" clip-rule="evenodd"/></g><defs><clipPath id="a"><path fill="#fff" d="M1 1h22v22H1z"/></clipPath></defs></svg>