<svg xmlns="http://www.w3.org/2000/svg" fill="none" viewBox="0 0 24 24"><g clip-path="url(#a)"><path fill="var(--icon-secondary)" d="M16.75 14.8a2.18 2.18 0 0 0 1.35-.75c-.25.59-.59 1.14-1.01 1.63-.13.15-.03.37.16.37H20c.19 0 .29-.22.16-.37-.42-.49-.76-1.04-1.01-1.63.34.39.81.67 1.35.75 1.38 0 2.5-.96 2.5-2.14 0-2.61-4.38-5.36-4.38-5.36s-4.38 2.75-4.38 5.36c0 1.18 1.12 2.14 2.5 2.14h.01ZM12.01 22.67l-3.45-3.95a.395.395 0 0 1 0-.52l3.45-3.95a.4.4 0 0 1 .6 0l3.45 3.95c.13.15.13.37 0 .52l-3.45 3.95a.4.4 0 0 1-.6 0ZM14.12 1.31c-.73-.04-1.38.28-1.82.78-.44-.5-1.09-.82-1.82-.78-1.22.06-2.2 1.17-2.15 2.39.1 2.3 2.86 4.67 3.72 5.36.15.12.35.12.5 0 .86-.68 3.62-3.05 3.72-5.36.05-1.22-.93-2.33-2.15-2.39ZM8.34 10c-.09 0-.17.02-.25.03.26-.53.35-1.16.1-1.84-.27-.73-.91-1.31-1.67-1.48A2.35 2.35 0 0 0 3.65 9c0 .37.09.72.25 1.03-.08 0-.16-.03-.25-.03a2.35 2.35 0 0 0-2.26 2.98c.2.76.81 1.39 1.57 1.61 1.01.29 1.95-.09 2.51-.78-.28.67-.66 1.3-1.14 1.85-.13.15-.03.37.16.37h3.02c.19 0 .28-.22.16-.37-.48-.56-.86-1.18-1.14-1.85.56.69 1.49 1.07 2.51.78.76-.22 1.37-.85 1.57-1.61A2.35 2.35 0 0 0 8.35 10h-.01Z"/><path fill="var(--icon-primary)" d="M16.44 14.49a2.18 2.18 0 0 0 1.35-.75c-.25.59-.59 1.14-1.01 1.63-.13.15-.03.37.16.37h2.75c.19 0 .29-.22.16-.37-.42-.49-.76-1.04-1.01-1.63.34.39.81.67 1.35.75 1.38 0 2.5-.96 2.5-2.14 0-2.61-4.38-5.36-4.38-5.36s-4.38 2.75-4.38 5.36c0 1.18 1.12 2.14 2.5 2.14h.01ZM11.7 22.37l-3.45-3.95a.395.395 0 0 1 0-.52l3.45-3.95a.4.4 0 0 1 .6 0l3.45 3.95c.13.15.13.37 0 .52l-3.45 3.95a.4.4 0 0 1-.6 0ZM13.82 1c-.73-.04-1.38.28-1.82.78-.44-.5-1.09-.81-1.82-.78-1.22.06-2.2 1.17-2.15 2.39.1 2.3 2.86 4.67 3.72 5.36.15.12.35.12.5 0 .86-.68 3.62-3.05 3.72-5.36.05-1.22-.93-2.33-2.15-2.39ZM8.04 9.69c-.09 0-.17.02-.25.03.26-.53.35-1.16.1-1.84-.27-.73-.91-1.31-1.67-1.48a2.35 2.35 0 0 0-2.87 2.29c0 .37.09.72.25 1.03-.08 0-.16-.03-.25-.03a2.35 2.35 0 0 0-2.26 2.98c.2.76.81 1.39 1.57 1.61 1.01.29 1.95-.09 2.51-.78-.28.67-.66 1.3-1.14 1.85-.13.15-.03.37.16.37h3.02c.19 0 .28-.22.16-.37-.48-.56-.86-1.18-1.14-1.85.56.69 1.49 1.07 2.51.78.76-.22 1.37-.85 1.57-1.61a2.35 2.35 0 0 0-2.26-2.98h-.01Z"/></g><defs><clipPath id="a"><path fill="#fff" d="M1 1h22v21.8H1z"/></clipPath></defs></svg>