<svg xmlns="http://www.w3.org/2000/svg" fill="none" viewBox="0 0 24 24"><g clip-path="url(#a)"><path fill="var(--icon-secondary)" d="M1.74 20.19c-.26 0-.51-.13-.65-.37-.2-.36-.08-.81.27-1.02l5.72-3.3c.36-.21.81-.08 1.02.27.2.36.08.81-.27 1.02l-5.72 3.3a.71.71 0 0 1-.37.1ZM22.25 20.24a.71.71 0 0 1-.37-.1l-5.95-3.45a.74.74 0 0 1-.27-1.02.74.74 0 0 1 1.02-.27l5.95 3.45a.746.746 0 0 1-.38 1.39Z"/><path fill="var(--icon-primary)" d="M11.97 9.09c-.41 0-.74-.33-.74-.74V1.74c0-.41.33-.74.74-.74s.74.33.74.74v6.61c0 .41-.33.74-.74.74Z"/><path fill="var(--icon-secondary)" d="M3.43 9.16v9.31L11.5 23v-9.18L3.43 9.16Z"/><path fill="var(--icon-primary)" d="m20.03 8.35-8.07-4.66L3.9 8.35l8.06 4.66 8.07-4.66Z"/><path fill="var(--icon-secondary)" d="m20.5 9.16-8.07 4.66V23l8.07-4.53V9.16Z"/></g><defs><clipPath id="a"><path fill="#fff" d="M1 1h22v22H1z"/></clipPath></defs></svg>