<svg width="24" height="24" viewBox="0 0 24 24" fill="none" xmlns="http://www.w3.org/2000/svg">
<g clip-path="url(#clip0_5338_670)">
<path d="M21.4064 14.2596L22.8597 13.1529C22.9799 13.0607 23.01 12.8967 22.9298 12.7738L22.6291 12.2307L21.9275 11.3904C21.8674 11.2982 21.8674 11.1855 21.9275 11.083L22.9499 9.65871C23.0401 9.53575 22.9599 9.44353 22.8897 9.30008L22.6592 8.81847L21.5166 8.36761C21.4264 8.30613 21.3963 8.20366 21.4264 8.10119L21.9476 6.53342C21.9776 6.43095 21.9175 6.31824 21.8474 6.22602C21.8273 6.20552 21.6068 5.76491 21.6068 5.76491L20.1836 5.8059C20.0833 5.77516 20.0132 5.69318 20.0132 5.59071V4.05368C20.0132 3.98196 19.953 3.87949 19.913 3.82825C19.8628 3.74628 19.6323 3.32616 19.6323 3.32616L18.1089 3.91023C17.9986 3.91023 17.9084 3.85899 17.8783 3.76677L17.3972 2.40394C17.3571 2.29122 17.0064 1.7174 17.0064 1.7174L15.523 2.80357C15.4228 2.83431 15.3125 2.80357 15.2524 2.74209L14.3704 1.66617C14.3002 1.57394 14.1499 1.5637 14.0396 1.64567L12.6865 2.55764C12.5963 2.61912 12.4861 2.62937 12.4059 2.57814L11.2032 1.86086C11.1029 1.79938 10.9626 1.83012 10.8724 1.93258L9.83004 3.13147C9.75988 3.21344 9.65965 3.24418 9.55943 3.23394L8.15624 2.93678C8.03596 2.91628 7.90567 2.97776 7.84553 3.10073L7.18403 4.48405C7.14394 4.57627 7.04371 4.63775 6.94348 4.648L5.44006 4.78121C5.31979 4.79146 5.19952 4.89393 5.17947 5.01689L4.94895 6.48219C4.9289 6.57441 4.85874 6.66663 4.75852 6.70762L3.28517 7.28144C3.16489 7.33268 3.07469 7.45564 3.09473 7.5786L3.31524 8.99267C3.32526 9.08489 3.28517 9.18736 3.19496 9.25909L1.87196 10.2428C1.76171 10.3248 1.71159 10.4682 1.77173 10.5707L2.44325 11.8208C2.48335 11.9028 2.47332 12.0155 2.40316 12.0975L1.02002 13.1017C1.02002 13.1017 1.3207 13.6038 1.34075 13.6755C1.34075 13.7165 1.37082 13.7472 1.40089 13.778L2.48335 14.7309C2.5535 14.7924 2.57355 14.9051 2.53346 15.0076L1.53118 16.1962C1.53118 16.1962 1.84189 16.77 1.88198 16.8315C1.90202 16.8725 1.94212 16.9032 1.98221 16.9135L3.39542 17.4566C3.48562 17.4873 3.54576 17.5898 3.53574 17.7025L3.05464 18.9834C3.05464 18.9834 3.36535 19.5674 3.40544 19.6084C3.44553 19.6596 3.50567 19.6904 3.57583 19.6904L5.20954 19.7314C5.31979 19.7314 5.39997 19.8031 5.43004 19.9158L5.48016 21.0737C5.48016 21.0737 5.79086 21.6475 5.80088 21.6578C5.851 21.7705 5.97127 21.8217 6.09155 21.791L7.76535 21.2787C7.8756 21.2479 7.98585 21.2787 8.04599 21.3811L8.94804 22.8464C9.02822 22.9694 9.18858 23.0001 9.31888 22.9181L10.8524 21.873C10.9526 21.8012 11.0729 21.8012 11.1631 21.873L12.5362 22.9489C12.6565 23.0411 12.8269 23.0104 12.9271 22.8874L14.1198 21.4016C14.2 21.3094 14.3202 21.2684 14.4305 21.2991L16.1344 21.8422C16.2747 21.8832 16.4351 21.8115 16.4952 21.6578L17.1868 19.8953C17.2269 19.7826 17.3371 19.7006 17.4574 19.7006L19.2915 19.6392C19.4419 19.6392 19.5722 19.5059 19.5822 19.3522L19.6824 17.5181C19.6824 17.3951 19.7726 17.2926 19.8829 17.2516L21.6269 16.6163C21.7772 16.5651 21.8574 16.4114 21.8173 16.2679L21.3362 14.567C21.3061 14.4542 21.3462 14.3415 21.4464 14.2698L21.4064 14.2596ZM9.91022 19.8646C5.48016 19.1678 3.08471 14.9358 4.3576 10.6322C5.53027 6.65639 9.57947 3.79751 13.5786 4.09467C17.8783 4.41232 20.8351 8.19342 19.933 12.6713C19.031 17.1492 14.4205 20.5614 9.92025 19.8543L9.91022 19.8646Z" fill="var(--icon-primary)"/>
<path d="M21.0856 13.6653L22.5389 12.5587C22.6592 12.4664 22.6892 12.3025 22.609 12.1795L21.6068 10.7962C21.5466 10.704 21.5466 10.5913 21.6068 10.4888L22.6291 9.06448C22.7193 8.94151 22.6892 8.78781 22.569 8.70584L21.1858 7.77337C21.0956 7.71189 21.0655 7.60942 21.0956 7.50695L21.6168 5.93919C21.6569 5.80598 21.5867 5.68301 21.4564 5.64203L19.8628 5.21166C19.7626 5.18092 19.6924 5.09894 19.6924 4.99647V3.45945C19.6924 3.33648 19.5822 3.23401 19.4418 3.24426L17.7881 3.31599C17.6778 3.31599 17.5876 3.26476 17.5576 3.17253L17.0765 1.8097C17.0364 1.69699 16.9061 1.64575 16.7758 1.68674L15.2122 2.20933C15.112 2.24007 15.0018 2.20933 14.9416 2.14785L14.0596 1.07193C13.9895 0.979706 13.8391 0.969459 13.7289 1.05143L12.3758 1.9634C12.2856 2.02489 12.1753 2.03513 12.0952 1.9839L10.8924 1.26662C10.7922 1.20514 10.6519 1.23588 10.5617 1.33835L9.5193 2.53723C9.44914 2.6192 9.34891 2.64994 9.24868 2.6397L7.84549 2.34254C7.72522 2.32204 7.59492 2.38353 7.53479 2.50649L6.87328 3.88981C6.83319 3.98204 6.73296 4.04352 6.63274 4.05376L5.12932 4.18697C5.00905 4.19722 4.88877 4.29969 4.86873 4.42265L4.6382 5.88795C4.61816 5.98017 4.548 6.07239 4.44777 6.11338L2.97442 6.68721C2.85415 6.73844 2.76394 6.8614 2.78399 6.98436L3.00449 8.39843C3.01451 8.49065 2.97442 8.59312 2.88422 8.66485L1.56121 9.64855C1.45096 9.73052 1.40085 9.87398 1.46098 9.97645L2.13251 11.2266C2.1726 11.3085 2.16258 11.4213 2.09242 11.5032L1.0701 12.8353C0.97989 12.948 0.97989 13.1017 1.0701 13.1735L2.15256 14.1264C2.22271 14.1879 2.24276 14.3006 2.20267 14.4031L1.53114 16.0016C1.47101 16.1348 1.53114 16.2783 1.64139 16.3193L3.05461 16.8623C3.14481 16.8931 3.20495 16.9955 3.19492 17.1083L3.01451 18.8297C2.99447 18.9732 3.0947 19.0961 3.22499 19.0961L4.85871 19.1371C4.96896 19.1371 5.04914 19.2089 5.07921 19.3216L5.44003 21.0123C5.47009 21.1558 5.60039 21.2377 5.74071 21.1968L7.41451 20.6844C7.52476 20.6537 7.63502 20.6844 7.69515 20.7869L8.5972 22.2522C8.67738 22.3751 8.83775 22.4059 8.96804 22.3239L10.5015 21.2787C10.6018 21.207 10.722 21.207 10.8122 21.2787L12.1854 22.3547C12.3056 22.4469 12.476 22.4161 12.5762 22.2932L13.769 20.8074C13.8491 20.7152 13.9694 20.6742 14.0797 20.7049L15.7835 21.248C15.9239 21.289 16.0842 21.2172 16.1444 21.0635L16.8359 19.3011C16.876 19.1884 16.9863 19.1064 17.1065 19.1064L18.9407 19.0449C19.091 19.0449 19.2213 18.9117 19.2314 18.758L19.3316 16.9238C19.3316 16.8009 19.4218 16.6984 19.5321 16.6574L21.276 16.0221C21.4264 15.9709 21.5065 15.8172 21.4664 15.6737L20.9854 13.9727C20.9553 13.86 20.9954 13.7473 21.0956 13.6756L21.0856 13.6653ZM9.57944 19.2703C5.14937 18.5736 2.75392 14.3416 4.02681 10.0379C5.19948 6.06215 9.24868 3.20327 13.2478 3.50043C17.5475 3.81809 20.5043 7.59918 19.6022 12.0771C18.7002 16.5549 14.0897 19.9671 9.58946 19.2601L9.57944 19.2703Z" fill="var(--icon-secondary)"/>
<path d="M13.2578 5.66239C10.0305 5.37547 6.79312 7.67077 5.89107 10.8883C4.94892 14.2493 6.84323 17.5078 10.271 18.0508C13.8391 18.6144 17.4473 16.022 18.169 12.3843C18.8605 8.91064 16.6054 5.95954 13.2578 5.66239ZM15.994 11.6978L10.4815 15.5404C10.3011 15.6633 8.6774 14.5464 8.57717 14.3722L6.75302 10.5399C6.64277 10.3759 6.97353 9.74063 7.15394 9.60742L8.86783 7.87571C9.04824 7.7425 9.72979 8.42904 9.84004 8.59299L10.9225 10.3759C10.9225 10.3759 11.0027 10.4272 11.0528 10.3964L14.9116 7.51707C15.102 7.38386 15.3425 7.4146 15.4628 7.57855L17.317 9.77137C17.4373 9.94557 16.1744 11.5748 15.994 11.708V11.6978Z" fill="var(--icon-primary)"/>
<path d="M12.9571 5.11917C9.72981 4.83226 6.49246 7.12756 5.59041 10.3451C4.64827 13.706 6.54257 16.9645 9.97036 17.5076C13.5385 18.0712 17.1467 15.4787 17.8683 11.8411C18.5599 8.36743 16.3048 5.41633 12.9571 5.11917ZM15.8838 9.88396L10.0906 14.0237C9.9002 14.1569 9.64963 14.1262 9.53938 13.952L7.57492 10.8472C7.46467 10.673 7.53483 10.4066 7.72526 10.2733L8.63733 9.61754C8.83779 9.47409 9.08836 9.50483 9.20863 9.67902L10.3713 11.4517C10.3713 11.4517 10.4615 11.503 10.5116 11.4722L14.8114 8.40841C15.0118 8.26496 15.2824 8.2957 15.4027 8.46989L16.0041 9.29989C16.1344 9.48433 16.0742 9.75075 15.8738 9.89421L15.8838 9.88396Z" fill="var(--icon-secondary)"/>
</g>
<defs>
<clipPath id="clip0_5338_670">
<rect width="22" height="22" fill="white" transform="translate(1 1)"/>
</clipPath>
</defs>
</svg>
