<svg xmlns="http://www.w3.org/2000/svg" fill="none" viewBox="0 0 24 24"><g clip-path="url(#a)"><path fill="var(--icon-primary)" d="m14.24 10.38 1.79 3.53 3.43.34c.17.02.31.13.37.28.06.16.02.33-.1.45l-2.83 2.8 1.05 3.81c.04.16-.01.34-.14.45-.13.11-.32.13-.47.05l-3.48-1.72-3.48 1.72c-.15.08-.34.06-.47-.05a.426.426 0 0 1-.14-.45l1.05-3.81-2.83-2.8a.419.419 0 0 1-.1-.45c.06-.16.2-.27.37-.28l3.43-.34 1.79-3.53c.07-.15.22-.24.39-.24.16 0 .31.09.39.24h-.02Z"/><path fill="var(--icon-secondary)" d="M19.02 2.02c.15 1.7 1.08 2.73 2.94 2.93.04 0 .04.06 0 .06-1.79.17-2.74 1.24-2.94 3.12 0 .03-.04.03-.04 0C18.86 6.33 18 5.18 16 5c-.03 0-.03-.05 0-.05 1.76-.17 2.79-1.1 2.97-2.94 0-.03.05-.03.05 0v.01Z"/><path fill="var(--icon-primary)" d="M6.05 3.08c.25 2.21 1.5 3.56 3.94 3.86.07 0 .07.1 0 .11-2.32.26-3.59 1.64-3.92 4.05 0 .07-.1.07-.11 0-.22-2.29-1.37-3.77-3.91-4.04-.07 0-.07-.1 0-.11 2.26-.28 3.61-1.5 3.89-3.86 0-.07.1-.07.1 0l.01-.01Z"/></g><defs><clipPath id="a"><path fill="#fff" d="M2 2h19.99v20.14H2z"/></clipPath></defs></svg>