<svg xmlns="http://www.w3.org/2000/svg" fill="none" viewBox="0 0 24 24"><g clip-path="url(#a)"><path fill="var(--icon-primary)" d="M12 1C5.92 1 1 5.92 1 12c0 2.22.66 4.29 1.8 6.02l-1.74 4.16c-.09.22-.04.47.12.63.11.11.26.17.41.17.08 0 .15-.01.22-.04l4.17-1.74A10.994 10.994 0 0 0 23 12c0-6.08-4.92-11-11-11Zm-.81 8.14c0 .15-.09.25-.25.25H8.26c-.08 0-.13.05-.13.13v1.16c0 .08.05.13.13.13h2.39c.16 0 .25.09.25.25v1.3c0 .15-.09.25-.25.25H8.26c-.08 0-.13.05-.13.13V14c0 .08.05.13.13.13h2.68c.16 0 .25.09.25.25v1.58c0 .15-.09.25-.25.25H5.99c-.15 0-.25-.1-.25-.25V7.63c0-.16.1-.25.25-.25h4.95c.16 0 .25.09.25.25v1.51Zm4.07 7.24h-.16c-1.88 0-3.17-1.07-3.17-2.85v-.09c0-.16.09-.28.25-.28h1.87c.15 0 .28.09.28.25v.09c0 .59.28.88.85.88h.01c.54 0 .82-.24.82-.69 0-.45-.28-.68-.85-.88l-1.39-.52c-1.14-.42-1.79-1.24-1.79-2.49 0-1.63 1.29-2.61 3.1-2.61h.15c2.02 0 3.03 1.21 3.03 2.6v.06c0 .18-.1.25-.24.25h-1.79c-.14 0-.29-.09-.29-.25v-.06c0-.4-.34-.64-.79-.64h-.01c-.53 0-.78.23-.78.62 0 .33.23.57.76.76l1.48.56c1.11.42 1.8 1.15 1.8 2.54 0 1.73-1.27 2.76-3.13 2.76l-.01-.01Z"/><path fill="var(--icon-secondary)" d="M20.82 5.44c.38 1.19.58 2.45.58 3.77 0 6.91-5.6 12.5-12.5 12.5-.85 0-1.68-.09-2.48-.25 1.64.97 3.54 1.53 5.58 1.53 6.08 0 11-4.92 11-11 0-2.46-.82-4.72-2.18-6.56v.01Z"/></g><defs><clipPath id="a"><path fill="#fff" d="M1 1h22v22H1z"/></clipPath></defs></svg>