<svg xmlns="http://www.w3.org/2000/svg" fill="none" viewBox="0 0 24 24"><g clip-path="url(#a)"><path fill="var(--icon-primary)" d="M15.73 5H8.16C4.21 5 1 8.21 1 12.16s3.21 7.16 7.16 7.16h7.57a7.16 7.16 0 0 0 7.16-7.16c0-3.95-3.2-7.16-7.16-7.16Zm-.29 12.05H8.47c-2.69 0-4.88-2.18-4.88-4.86s2.19-4.86 4.88-4.86h6.97c2.69 0 4.88 2.18 4.88 4.86s-2.19 4.86-4.88 4.86Z"/><path fill="var(--icon-secondary)" d="M14.07 8.36H9.84v7.67h4.23V8.36ZM15.44 8.36h-.34v7.66h.34c2.12 0 3.84-1.72 3.84-3.83 0-2.11-1.73-3.83-3.84-3.83ZM4.62 12.19c0 2.11 1.73 3.84 3.84 3.84h.34V8.36h-.34c-2.12 0-3.84 1.72-3.84 3.83Z"/><path fill="var(--icon-secondary)" d="M15.71 5H8.2C4.23 5 1 8.22 1 12.19s3.23 7.19 7.19 7.19h7.51A7.191 7.191 0 0 0 15.71 5Zm0 13.36H8.2c-3.4 0-6.16-2.76-6.16-6.16 0-3.4 2.76-6.17 6.16-6.17h7.51c3.4 0 6.16 2.76 6.16 6.16 0 3.4-2.76 6.16-6.16 6.16v.01Z"/></g><defs><clipPath id="a"><path fill="#fff" d="M1 5h21.9v14.38H1z"/></clipPath></defs></svg>