<svg width="18" height="18" viewBox="0 0 18 18" fill="none" xmlns="http://www.w3.org/2000/svg">
  <path fill-rule="evenodd" clip-rule="evenodd" d="M2.18742 10.2084C2.59013 10.2084 2.91659 10.5348 2.91659 10.9375V13.8542C2.91659 14.0476 2.99341 14.2331 3.13015 14.3698C3.2669 14.5066 3.45237 14.5834 3.64575 14.5834H13.8541C14.0475 14.5834 14.2329 14.5066 14.3697 14.3698C14.5064 14.2331 14.5833 14.0476 14.5833 13.8542V10.9375C14.5833 10.5348 14.9097 10.2084 15.3124 10.2084C15.7151 10.2084 16.0416 10.5348 16.0416 10.9375V13.8542C16.0416 14.4344 15.8111 14.9908 15.4009 15.401C14.9906 15.8112 14.4342 16.0417 13.8541 16.0417H3.64575C3.06559 16.0417 2.50919 15.8112 2.09896 15.401C1.68872 14.9908 1.45825 14.4344 1.45825 13.8542V10.9375C1.45825 10.5348 1.78471 10.2084 2.18742 10.2084Z" fill="currentColor"/>
  <path fill-rule="evenodd" clip-rule="evenodd" d="M4.58857 6.77607C4.87333 6.49131 5.33501 6.49131 5.61977 6.77607L8.75 9.9063L11.8802 6.77607C12.165 6.49131 12.6267 6.49131 12.9114 6.77607C13.1962 7.06083 13.1962 7.52251 12.9114 7.80727L9.2656 11.4531C8.98084 11.7379 8.51916 11.7379 8.2344 11.4531L4.58857 7.80727C4.30381 7.52251 4.30381 7.06083 4.58857 6.77607Z" fill="currentColor"/>
  <path fill-rule="evenodd" clip-rule="evenodd" d="M8.74992 1.45837C9.15263 1.45837 9.47909 1.78483 9.47909 2.18754V10.9375C9.47909 11.3402 9.15263 11.6667 8.74992 11.6667C8.34721 11.6667 8.02075 11.3402 8.02075 10.9375V2.18754C8.02075 1.78483 8.34721 1.45837 8.74992 1.45837Z" fill="currentColor"/>
</svg>

