<svg xmlns="http://www.w3.org/2000/svg" fill="none" viewBox="0 0 24 24"><g clip-path="url(#a)"><circle cx="11.972" cy="12.247" r="10.286" fill="var(--icon-secondary)"/><path fill="var(--icon-primary)" fill-rule="evenodd" d="M20.662 1.71a.847.847 0 0 1 .757.928l-.372 3.684a.847.847 0 0 1-.941.756l-3.699-.431a.847.847 0 1 1 .196-1.683l1.539.18A9.197 9.197 0 0 0 2.97 14.025a.847.847 0 0 1-1.65.389A10.89 10.89 0 0 1 19.564 4.157l.17-1.69a.847.847 0 0 1 .929-.757ZM3.338 22.87a.847.847 0 0 1-.757-.928l.372-3.683a.847.847 0 0 1 .941-.756l3.699.43a.847.847 0 0 1-.196 1.683l-1.539-.179a9.198 9.198 0 0 0 15.172-8.883.847.847 0 0 1 1.65-.388A10.89 10.89 0 0 1 4.436 20.424l-.17 1.689a.847.847 0 0 1-.929.757Z" clip-rule="evenodd"/><path fill="#000" d="M16.78 11.262a1.53 1.53 0 0 1 0 2.65l-4.955 2.86a1.53 1.53 0 0 1-2.295-1.324V9.726a1.53 1.53 0 0 1 2.295-1.325l4.954 2.86Z" opacity=".2"/><path fill="var(--icon-primary)" d="M16.028 10.538a1.53 1.53 0 0 1 0 2.65l-4.954 2.86a1.53 1.53 0 0 1-2.295-1.325v-5.72a1.53 1.53 0 0 1 2.295-1.326l4.954 2.86Z"/></g><defs><clipPath id="a"><path fill="#fff" d="M0 0h24v24H0z"/></clipPath></defs></svg>