<svg xmlns="http://www.w3.org/2000/svg" fill="none" viewBox="0 0 24 24"><g clip-path="url(#a)"><path fill="var(--icon-primary)" d="M11.722 3.505a.59.59 0 0 1 .991 0l1.294 2.002a.59.59 0 0 0 .345.25l2.303.612a.59.59 0 0 1 .306.943l-1.503 1.85a.59.59 0 0 0-.132.404l.13 2.38a.59.59 0 0 1-.803.583l-2.223-.859a.591.591 0 0 0-.425 0l-2.224.86a.59.59 0 0 1-.802-.584l.13-2.38a.59.59 0 0 0-.132-.404l-1.504-1.85a.59.59 0 0 1 .307-.943l2.303-.612a.59.59 0 0 0 .345-.25l1.293-2.002ZM18.082 12.548a.59.59 0 0 1 .992 0l1.294 2.002a.59.59 0 0 0 .344.25l2.303.612a.59.59 0 0 1 .307.943l-1.504 1.85a.59.59 0 0 0-.131.404l.13 2.38a.59.59 0 0 1-.803.583l-2.223-.859a.59.59 0 0 0-.426 0l-2.223.859a.59.59 0 0 1-.803-.583l.13-2.38a.59.59 0 0 0-.131-.405l-1.504-1.849a.59.59 0 0 1 .306-.943l2.304-.612a.59.59 0 0 0 .344-.25l1.294-2.002ZM5.438 12.548a.59.59 0 0 1 .992 0l1.294 2.002a.59.59 0 0 0 .344.25l2.304.612a.59.59 0 0 1 .306.943l-1.503 1.85a.59.59 0 0 0-.132.404l.13 2.38a.59.59 0 0 1-.803.583l-2.223-.859a.59.59 0 0 0-.425 0l-2.224.859a.59.59 0 0 1-.802-.583l.13-2.38a.59.59 0 0 0-.132-.405L1.19 16.355a.59.59 0 0 1 .307-.943L3.8 14.8a.59.59 0 0 0 .344-.25l1.294-2.002Z"/><path fill="var(--icon-secondary)" d="M4.137 3.33a.592.592 0 0 1 1.184 0v2.606a.592.592 0 0 1-1.184 0V3.33Z"/><path fill="var(--icon-secondary)" d="M6.032 4.042a.592.592 0 1 1 0 1.183H3.426a.592.592 0 1 1 0-1.183h2.606ZM1.643 8.924a.592.592 0 0 1 1.183 0v2.606a.592.592 0 1 1-1.183 0V8.924Z"/><path fill="var(--icon-secondary)" d="M3.537 9.635a.592.592 0 1 1 0 1.184H.932a.592.592 0 0 1 0-1.184h2.605ZM17.495 1.436a.592.592 0 0 1 1.184 0v2.606a.592.592 0 0 1-1.184 0V1.436Z"/><path fill="var(--icon-secondary)" d="M19.39 2.147a.592.592 0 1 1 0 1.183h-2.606a.592.592 0 1 1 0-1.183h2.606ZM20.407 8.015a.592.592 0 1 1 1.183 0v2.606a.592.592 0 1 1-1.183 0V8.015Z"/><path fill="var(--icon-secondary)" d="M22.301 8.726a.592.592 0 1 1 0 1.184h-2.605a.592.592 0 1 1 0-1.184H22.3ZM11.665 20.694a.592.592 0 1 1 1.184 0V23.3a.592.592 0 1 1-1.184 0v-2.606Z"/><path fill="var(--icon-secondary)" d="M13.56 21.405a.592.592 0 1 1 0 1.183h-2.606a.592.592 0 0 1 0-1.183h2.606Z"/></g><defs><clipPath id="a"><path fill="#fff" d="M0 0h24v24H0z"/></clipPath></defs></svg>