<svg xmlns="http://www.w3.org/2000/svg" fill="none" viewBox="0 0 24 24"><g clip-path="url(#a)"><path fill="var(--icon-secondary)" d="M6 22.5a5 5 0 1 0 0-10 5 5 0 0 0 0 10Z"/><path fill="var(--icon-secondary)" d="M9 16.75H3v1.5h6v-1.5Z"/><path fill="#000" d="M9 16.75H3v1.5h6v-1.5Z"/><path fill="var(--icon-secondary)" d="M6.75 14.5h-1.5v6h1.5v-6Z"/><path fill="#000" d="M6.75 14.5h-1.5v6h1.5v-6Z"/><path fill="var(--icon-primary)" d="M20.44 16.78c.6 0 1.08-.49 1.08-1.08v-4.38c-.11.02-.22.03-.33.03-.16 0-.31-.03-.45-.06v4.36c0 .38-.31.68-.68.68h-1.58v.45h1.96Z"/><path fill="var(--icon-secondary)" d="M21.64 15.64v-4.36l-.12.03v4.38c0 .6-.49 1.08-1.08 1.08h-1.96v.45h1.58c.88 0 1.59-.71 1.59-1.59l-.01.01Z"/><path fill="var(--icon-primary)" d="M4.91 9.09h3.62v2.98c.32.15.62.32.9.52V9.1h3.62v4.52h-2.49c.13.15.26.31.37.48h6.74c.32 0 .58-.26.58-.58V8.19H4.01v3.67c.29-.1.59-.19.91-.24V9.1l-.01-.01Zm9.04 0h3.62v4.52h-3.62V9.09ZM11.78 19.07h5.41c.59 0 1.06-.47 1.06-1.06v-.78h-.22v-.9h.22v-1.36h-6.82c.36.77.56 1.62.56 2.53 0 .54-.08 1.07-.22 1.57h.01Zm1.27-2.29h3.62v.9h-3.62v-.9Z"/><path fill="var(--icon-primary)" d="M18.25 16.33h-.22v.45h.22v-.45ZM18.25 16.78h-.22v.45h.22v-.45ZM22.96 9.17c.02.12.04.24.04.37 0-.13-.01-.25-.04-.37ZM20.67 11.27s.04.01.06.02c0 0-.04-.01-.06-.02ZM22.85 8.83c.04.09.07.2.1.3-.02-.1-.05-.2-.1-.3ZM20.74 10.62c1 0 1.81-.81 1.81-1.81 0-.2-.04-.39-.1-.57a1.81 1.81 0 0 0-1.26-.52 1.81 1.81 0 0 0-1.08 3.26 1.8 1.8 0 0 1-.63-.88c.33.32.77.51 1.26.51v.01ZM20.74 11.28c.15.05.3.07.45.07-.16 0-.31-.04-.45-.07Z"/><path fill="var(--icon-secondary)" d="m20.67 11.27-.09-.03.09.03ZM22.86 10.25c-.09.22-.22.41-.39.57.16-.16.3-.36.39-.57ZM22.95 9.13s.01.03.01.05c0-.02-.01-.03-.01-.05ZM20.13 11.01s-.01 0-.02-.01c0 0 .01 0 .02.01ZM22.47 10.82Z"/><path fill="var(--icon-secondary)" d="M20.74 11.13h.9v.16c.09-.02.17-.04.25-.08.22-.09.41-.22.58-.39.17-.17.3-.36.39-.57a1.822 1.822 0 0 0 .1-1.07c0-.02-.01-.03-.01-.05-.02-.1-.05-.2-.1-.3v-.02c-.1-.21-.23-.4-.39-.56.06.18.1.37.1.57a1.81 1.81 0 0 1-3.07 1.3c.12.35.34.66.63.88 0 0 .01 0 .02.01.14.1.29.18.45.24l.09.03c.02 0 .04 0 .06.01v-.16Z"/><path fill="var(--icon-secondary)" d="M20.74 11.13v.15c.15.04.29.07.45.07.11 0 .23-.01.33-.03v-.19h-.79.01ZM21.64 11.13h-.12v.19l.12-.03v-.16Z"/><path fill="var(--icon-primary)" d="M18.25 6.74V5.21c0-.1-.03-.2-.06-.29.09.09.16.2.21.32-.16-.39-.53-.67-.98-.67h-.78c-.02-.15-.05-.3-.08-.45C16.06 2.06 13.87.5 11.24.5 8.61.5 6.43 2.05 5.92 4.11c-.04.15-.06.3-.08.46h-.78c-.15 0-.29.03-.41.08-.25.11-.46.31-.56.56-.05.13-.08.27-.08.41V7.3h13.67c.32 0 .58-.26.58-.58l-.01.02Zm-7.01-5.63c2.4 0 4.41 1.47 4.95 3.46h-.46c-.02-.15-.06-.3-.11-.44.05.14.08.29.11.44H6.3c.54-1.98 2.55-3.46 4.95-3.46h-.01Zm6.33 5.72H4.91v-.9h12.66v.9Z"/><path fill="var(--icon-secondary)" d="M17.67 14.1h-6.74c.09.14.18.28.26.42h7.28V8.19h-.23v5.33c0 .32-.26.58-.58.58h.01ZM18.19 4.92c.03.09.06.19.06.29v1.53c0 .32-.26.58-.58.58H4.01v.42h14.47V5.63c0-.14-.03-.27-.08-.39a.988.988 0 0 0-.21-.32ZM18.48 14.97h-.23v1.36h.23v-1.36ZM18.25 18.01c0 .59-.47 1.06-1.06 1.06h-5.41c-.04.14-.09.28-.14.42h5.77c.59 0 1.06-.47 1.06-1.06v-1.2h-.23v.78h.01Z"/><path fill="var(--icon-secondary)" d="M18.48 16.33h-.23v.45h.23v-.45ZM18.48 16.78h-.23v.45h.23v-.45ZM12.74 1.61c.7.2 1.33.53 1.83.97-.5-.43-1.12-.77-1.83-.97ZM7.09 3.6c-.1.18-.18.38-.24.57v.02-.02c.06-.2.14-.39.24-.57ZM7.89 2.6ZM7.09 3.6ZM14.57 2.57c.5.43.86.96 1.05 1.54-.19-.58-.56-1.11-1.05-1.54Z"/><path fill="var(--icon-secondary)" d="M6.84 4.19v-.02c.06-.2.14-.39.24-.57.2-.37.47-.7.8-1 .33-.29.72-.54 1.16-.74.65-.29 1.4-.46 2.2-.46.53 0 1.03.07 1.5.2.7.2 1.33.53 1.83.97.5.44.86.96 1.05 1.54.05.14.08.29.11.44h.46c-.54-1.98-2.55-3.46-4.95-3.46-2.4 0-4.41 1.47-4.95 3.46h.46c.02-.13.05-.26.09-.38v.02ZM6.82 11.56s0-.02.01-.02c.16-.28.28-.52.38-.72H6.7c-.21 0-.35 0-.43.01-.07 0-.13.02-.15.05-.02.03-.05.06-.08.11-.02.05-.04.11-.06.19l-.22-.04c.04-.16.07-.32.1-.48.02-.16.04-.32.05-.48l.39.03h.87c.16 0 .36-.02.6-.03l.13.24c-.18.22-.36.52-.55.92-.04.09-.08.2-.12.3.45.1.88.25 1.29.44V9.1H4.9v2.52c.35-.07.72-.11 1.09-.11.28 0 .55.03.82.06l.01-.01ZM13.05 9.09H9.43v3.49c.42.29.8.64 1.13 1.03h2.49V9.09Zm-1.16 2.24c-.18.39-.35.85-.5 1.36h-.68c.28-.49.5-.87.66-1.15.16-.28.28-.52.38-.72h-.51c-.21 0-.35 0-.43.01-.07 0-.13.02-.15.05-.02.03-.05.06-.08.11-.02.05-.04.11-.06.19l-.22-.04c.04-.16.07-.32.1-.48.02-.16.04-.32.05-.48l.39.03h.87c.16 0 .36-.02.6-.03l.13.24c-.18.22-.36.52-.55.92v-.01ZM17.57 9.09h-3.62v4.52h3.62V9.09Zm-1.16 2.24c-.18.39-.35.85-.5 1.36h-.68c.28-.49.5-.87.66-1.15.16-.28.28-.52.38-.72h-.51c-.21 0-.35 0-.43.01-.08.01-.13.02-.15.05-.02.03-.05.06-.08.11-.02.05-.04.11-.06.19l-.22-.04c.04-.16.07-.32.1-.48.02-.16.04-.32.05-.48l.39.03h.87c.16 0 .36-.02.6-.03l.13.24c-.18.22-.36.52-.55.92v-.01Z"/></g><defs><clipPath id="a"><path fill="#fff" d="M1 .5h22v22H1z"/></clipPath></defs></svg>