<svg xmlns="http://www.w3.org/2000/svg" fill="none" viewBox="0 0 24 24"><g clip-path="url(#a)"><circle cx="12.001" cy="12.852" r="10.503" fill="var(--icon-secondary)"/><path fill="var(--icon-primary)" d="M6.908 2.673a.578.578 0 1 1 1.156 0v2.544a.578.578 0 0 1-1.156 0V2.673Z"/><path fill="var(--icon-primary)" d="M8.758 3.367a.578.578 0 0 1 0 1.156H6.214a.578.578 0 1 1 0-1.156h2.544ZM13.274 5.821a.578.578 0 0 1 1.155 0v2.545a.578.578 0 0 1-1.155 0V5.82Z"/><path fill="var(--icon-primary)" d="M15.123 6.516a.578.578 0 1 1 0 1.155H12.58a.578.578 0 1 1 0-1.155h2.544ZM21.136 14.6a.578.578 0 0 1 1.156 0v2.544a.578.578 0 0 1-1.156 0V14.6Z"/><path fill="var(--icon-primary)" d="M22.986 15.294a.578.578 0 0 1 0 1.156h-2.544a.578.578 0 0 1 0-1.156h2.544ZM9.348 15.589a.578.578 0 1 1 1.155 0v2.544a.578.578 0 0 1-1.155 0V15.59Z"/><path fill="var(--icon-primary)" d="M11.197 16.283a.578.578 0 1 1 0 1.156H8.653a.578.578 0 0 1 0-1.156h2.544ZM14.917 20.68a.578.578 0 1 1 1.155 0v2.544a.578.578 0 1 1-1.155 0V20.68Z"/><path fill="var(--icon-primary)" d="M16.766 21.374a.578.578 0 1 1 0 1.156h-2.544a.578.578 0 0 1 0-1.156h2.544ZM1.827 8.409a.578.578 0 1 1 1.156 0v2.544a.578.578 0 1 1-1.156 0V8.41Z"/><path fill="var(--icon-primary)" d="M3.677 9.103a.578.578 0 0 1 0 1.156H1.133a.578.578 0 0 1 0-1.156h2.544Z"/><path fill="#000" fill-rule="evenodd" d="M23.1 6.52c.479 0 .866.387.866.865v4.576a.865.865 0 1 1-1.73 0V9.435l-6.673 6.498a.865.865 0 0 1-1.21-.003l-3.758-3.699-8.251 7.134a.865.865 0 0 1-1.132-1.308l8.856-7.656a.865.865 0 0 1 1.172.037l3.723 3.665 6.01-5.853h-2.448a.865.865 0 1 1 0-1.73h4.576Z" clip-rule="evenodd" opacity=".2"/><path fill="var(--icon-primary)" fill-rule="evenodd" d="M22.546 5.966c.478 0 .865.388.865.865v4.576a.865.865 0 0 1-1.73 0V8.881l-6.673 6.5a.865.865 0 0 1-1.21-.004l-3.758-3.7-8.251 7.135a.865.865 0 0 1-1.131-1.309l8.855-7.656a.865.865 0 0 1 1.172.038l3.723 3.665 6.01-5.854H17.97a.865.865 0 1 1 0-1.73h4.576Z" clip-rule="evenodd"/></g><defs><clipPath id="a"><path fill="#fff" d="M0 0h24v24H0z"/></clipPath></defs></svg>