<svg xmlns="http://www.w3.org/2000/svg" fill="none" viewBox="0 0 24 24"><g clip-path="url(#a)"><path fill="var(--icon-secondary)" d="M23.092 14.172a9.82 9.82 0 0 1-3.08 7.162.403.403 0 0 1-.622-.496 9.891 9.891 0 0 0 .464-8.509 9.92 9.92 0 0 1 .173 1.843 9.814 9.814 0 0 1-8.243 9.707 9.743 9.743 0 0 1-9.122-3.509 9.803 9.803 0 0 1-.693-1.036.403.403 0 0 1 .625-.496.845.845 0 0 0 .088.08 10.727 10.727 0 0 0 3.827 2.307 9.748 9.748 0 0 0 7.835-.835.405.405 0 0 0-.351-.725 9.551 9.551 0 0 1-1.83.476 9.177 9.177 0 0 1-1.536.125 9.836 9.836 0 0 1-6.69-16.99.4.4 0 0 1 .617.496 9.888 9.888 0 0 0-.46 8.517c-.115-.61-.173-1.23-.174-1.851A9.81 9.81 0 0 1 12.163.73a9.735 9.735 0 0 1 9.118 3.509c.255.33.488.676.698 1.036a.405.405 0 0 1-.629.496c-.028-.028-.056-.057-.085-.08a10.745 10.745 0 0 0-3.83-2.308 9.743 9.743 0 0 0-7.83.834.404.404 0 0 0 .35.726 9.613 9.613 0 0 1 1.83-.475 9.174 9.174 0 0 1 1.532-.125 9.78 9.78 0 0 1 9.775 9.828Z"/><g fill="#000" opacity=".2"><path d="M12.591 16.479a3.63 3.63 0 1 0 0-7.26 3.63 3.63 0 0 0 0 7.26Z"/><path d="M18.237 13.252a.403.403 0 0 1-.404-.403 5.25 5.25 0 0 0-5.242-5.242.403.403 0 0 1 0-.807 6.056 6.056 0 0 1 6.049 6.05.403.403 0 0 1-.403.402ZM12.591 18.898a6.056 6.056 0 0 1-6.049-6.049.403.403 0 0 1 .807 0 5.249 5.249 0 0 0 5.242 5.243.403.403 0 0 1 0 .806Z"/></g><path fill="var(--icon-primary)" d="M11.99 15.934a3.63 3.63 0 1 0 0-7.259 3.63 3.63 0 0 0 0 7.26Z"/><path fill="var(--icon-primary)" d="M17.635 12.708a.404.404 0 0 1-.403-.403 5.248 5.248 0 0 0-5.243-5.243.403.403 0 0 1 0-.806 6.056 6.056 0 0 1 6.05 6.049.403.403 0 0 1-.404.403ZM11.99 18.354a6.056 6.056 0 0 1-6.05-6.049.403.403 0 0 1 .807 0 5.249 5.249 0 0 0 5.243 5.243.403.403 0 0 1 0 .806Z"/></g><defs><clipPath id="a"><path fill="#fff" d="M0 0h24v24H0z"/></clipPath></defs></svg>