<svg width="22" height="22" viewBox="0 0 22 22" fill="none" xmlns="http://www.w3.org/2000/svg">
  <g clip-path="url(#clip0)">
    <path d="M14.8014 15.9651H10.0196V14.1688C10.0196 12.3472 10.6774 11.4111 12.1954 10.7786L13.4351 10.1714C14.2195 9.8172 14.5231 9.463 14.5231 8.7546V8.52689C14.5231 7.74259 13.84 7.31249 12.6508 7.31249H12.499C11.234 7.31249 10.5509 7.86909 10.4244 8.6787L10.3232 9.6401H5.5921V8.7546C5.6174 5.64268 7.89442 3.31506 12.4231 3.31506H12.7014C16.876 3.31506 19.3048 5.16197 19.3048 8.24859V8.55219C19.3048 10.5003 18.4446 11.5629 16.9266 12.3725L15.4845 13.3086C15.0038 13.5869 14.8014 13.8905 14.8014 14.4977V15.9651ZM14.9279 21.3794H9.91843V17.6602H14.9279V21.3794Z" fill="var(--icon-primary)" />
    <path d="M14.1746 15.4231H9.39286V13.6268C9.39286 11.8052 10.0507 10.8691 11.5687 10.2366L12.8084 9.62941C13.5927 9.27521 13.8963 8.92101 13.8963 8.2126V7.9849C13.8963 7.2006 13.2132 6.77049 12.0241 6.77049H11.8723C10.6073 6.77049 9.92416 7.3271 9.79766 8.1367L9.69646 9.09811H4.96533V8.2126C4.99063 5.10068 7.26765 2.77307 11.7964 2.77307H12.0747C16.2492 2.77307 18.678 4.61998 18.678 7.7066V8.0102C18.678 9.95831 17.8178 11.0209 16.2998 11.8305L14.8577 12.7666C14.377 13.0449 14.1746 13.3485 14.1746 13.9557V15.4231ZM14.3011 20.8374H9.29166V17.1183H14.3011V20.8374Z" fill="var(--icon-secondary)" />
    <circle cx="10.7028" cy="1.39291" r="0.298817" fill="var(--icon-secondary)" />
    <circle cx="20.1101" cy="8.08346" r="0.298817" fill="var(--icon-secondary)" />
    <circle cx="5.95392" cy="18.9938" r="0.298817" fill="var(--icon-secondary)" />
  </g>
  <defs>
    <clipPath id="clip0">
      <rect width="21" height="21" fill="white" transform="translate(0.75 0.794006)" />
    </clipPath>
  </defs>
</svg>