<svg xmlns="http://www.w3.org/2000/svg" fill="none" viewBox="0 0 24 24"><path fill="var(--icon-secondary)" d="M10.659 1.105a2.477 2.477 0 0 1 2.682 0l1.606 1.035c.311.2.663.328 1.03.375l1.895.24a2.477 2.477 0 0 1 2.056 1.724l.564 1.824c.11.354.297.679.549.95l1.297 1.401c.66.714.843 1.747.466 2.643l-.74 1.76c-.143.342-.208.71-.19 1.08l.093 1.908c.047.97-.477 1.88-1.341 2.324l-1.699.873c-.33.169-.616.41-.84.705l-1.155 1.52a2.477 2.477 0 0 1-2.521.919l-1.862-.424a2.475 2.475 0 0 0-1.098 0l-1.862.424a2.477 2.477 0 0 1-2.521-.918l-1.155-1.521a2.475 2.475 0 0 0-.84-.705l-1.698-.873a2.477 2.477 0 0 1-1.342-2.324l.093-1.907c.018-.37-.047-.74-.19-1.08l-.74-1.761a2.477 2.477 0 0 1 .466-2.643l1.297-1.4c.252-.272.44-.597.549-.95l.564-1.825a2.477 2.477 0 0 1 2.056-1.725l1.894-.24c.368-.046.72-.174 1.031-.374l1.605-1.035Z"/><g fill="#000" opacity=".2"><path d="M7.94 10.935H6.625V8.231h-1.59V7.224H9.53v1.007H7.94v2.704ZM12.727 11.01h-1.055c-1.14 0-1.961-.711-1.961-1.888v-.09c0-1.172.822-1.882 1.967-1.882h1.05c1.14 0 1.96.71 1.96 1.882v.09c0 1.177-.82 1.887-1.96 1.887Zm-.869-1.019h.69c.487 0 .81-.275.81-.842V9.01c0-.573-.323-.843-.81-.843h-.69c-.488 0-.811.27-.811.843v.138c0 .567.323.842.811.842ZM16.448 10.935h-1.31v-3.71h2.678c1.007 0 1.627.44 1.627 1.372 0 .933-.62 1.368-1.627 1.368h-1.368v.97Zm0-1.924h1.267c.26 0 .419-.133.419-.387v-.059c0-.249-.16-.387-.42-.387h-1.266v.833ZM9.811 18.31H7.554v-3.768H5.515v-1.674h1.302c.5 0 .746-.228.746-.729v-.2h2.248v6.372ZM15.711 18.438H13.9c-1.93 0-3.322-1.192-3.322-3.24v-.155c0-2.039 1.392-3.231 3.33-3.231h1.803c1.93 0 3.322 1.192 3.322 3.231v.155c0 2.048-1.392 3.24-3.322 3.24Zm-1.493-1.747h1.184c.81 0 1.347-.447 1.347-1.448v-.236c0-1.002-.537-1.448-1.347-1.448h-1.184c-.81 0-1.347.446-1.347 1.448v.236c0 1.001.537 1.447 1.347 1.447Z"/></g><path fill="var(--icon-primary)" d="M7.543 10.358H6.228V7.655h-1.59V6.647h4.495v1.008h-1.59v2.703ZM12.33 10.433h-1.055c-1.14 0-1.961-.71-1.961-1.888v-.09c0-1.171.822-1.882 1.967-1.882h1.05c1.14 0 1.961.71 1.961 1.882v.09c0 1.177-.822 1.888-1.962 1.888Zm-.869-1.018h.69c.487 0 .81-.276.81-.843v-.138c0-.573-.323-.843-.81-.843h-.69c-.488 0-.811.27-.811.843v.138c0 .567.323.843.811.843ZM16.05 10.358h-1.309v-3.71h2.678c1.007 0 1.627.44 1.627 1.373s-.62 1.367-1.627 1.367H16.05v.97Zm0-1.924h1.268c.26 0 .419-.132.419-.387v-.058c0-.25-.16-.387-.42-.387h-1.266v.832ZM9.414 17.734H7.157v-3.768H5.118V12.29H6.42c.5 0 .746-.228.746-.728v-.2h2.248v6.37ZM15.314 17.861h-1.811c-1.93 0-3.322-1.192-3.322-3.24v-.155c0-2.038 1.392-3.23 3.33-3.23h1.803c1.93 0 3.322 1.191 3.322 3.23v.155c0 2.048-1.392 3.24-3.322 3.24Zm-1.493-1.747h1.184c.81 0 1.347-.446 1.347-1.447v-.237c0-1.001-.537-1.447-1.347-1.447H13.82c-.81 0-1.347.446-1.347 1.447v.237c0 1 .537 1.447 1.347 1.447Z"/></svg>