<svg xmlns="http://www.w3.org/2000/svg" fill="none" viewBox="0 0 24 24"><g clip-path="url(#a)"><rect width="22" height="22" x="1" y="1" fill="var(--icon-secondary)" rx="11"/><g fill="#000" opacity=".2"><path fill-rule="evenodd" d="M4.697 7.257c0-.48.4-.868.892-.868h4.003a.88.88 0 0 1 .892.868v3.898c0 .48-.4.869-.892.869a.88.88 0 0 1-.892-.869V9.354l-10.826 10.54a.91.91 0 0 1-1.26 0 .852.852 0 0 1 0-1.227L7.438 8.126H5.59a.88.88 0 0 1-.892-.869Z" clip-rule="evenodd"/><path fill-rule="evenodd" d="M5.118 15.213c0-.48.399-.869.891-.869h4.004a.88.88 0 0 1 .892.869v3.898c0 .48-.4.868-.892.868a.88.88 0 0 1-.892-.868v-1.802L-1.705 27.85a.909.909 0 0 1-1.261 0 .852.852 0 0 1 0-1.228L7.86 16.082H6.01a.88.88 0 0 1-.892-.87Z" clip-rule="evenodd"/><path fill-rule="evenodd" d="M13.289 15.622c0-.48.399-.868.892-.868h4.003a.88.88 0 0 1 .892.868v3.898c0 .48-.4.869-.892.869a.88.88 0 0 1-.892-.869V17.72L6.466 28.259a.909.909 0 0 1-1.261 0 .852.852 0 0 1 0-1.227L16.03 16.49h-1.85a.88.88 0 0 1-.892-.869Z" clip-rule="evenodd"/><path d="M16.585 11.738c1.919 0 3.475-1.515 3.475-3.384 0-1.868-1.556-3.383-3.475-3.383S13.11 6.486 13.11 8.354c0 1.869 1.556 3.384 3.475 3.384Z"/></g><path fill="var(--icon-primary)" fill-rule="evenodd" d="M4.07 6.76c0-.48.4-.869.892-.869h4.003a.88.88 0 0 1 .892.869v3.898c0 .48-.4.868-.892.868a.88.88 0 0 1-.892-.868V8.856L-2.753 19.397a.91.91 0 0 1-1.261 0 .852.852 0 0 1 0-1.228L6.812 7.628h-1.85a.88.88 0 0 1-.892-.868Z" clip-rule="evenodd"/><path fill="var(--icon-primary)" fill-rule="evenodd" d="M4.49 14.715c0-.48.4-.868.892-.868h4.003a.88.88 0 0 1 .892.868v3.898c0 .48-.399.869-.892.869a.88.88 0 0 1-.891-.869v-1.801l-10.826 10.54a.91.91 0 0 1-1.262 0 .852.852 0 0 1 0-1.227L7.232 15.584h-1.85a.88.88 0 0 1-.892-.869Z" clip-rule="evenodd"/><path fill="var(--icon-primary)" fill-rule="evenodd" d="M12.661 15.125c0-.48.4-.869.892-.869h4.003a.88.88 0 0 1 .892.869v3.898c0 .48-.399.868-.892.868a.88.88 0 0 1-.891-.868V17.22L5.839 27.762a.91.91 0 0 1-1.262 0 .852.852 0 0 1 0-1.228l10.826-10.54h-1.85a.88.88 0 0 1-.892-.87Z" clip-rule="evenodd"/><path fill="var(--icon-primary)" d="M15.958 11.24c1.919 0 3.474-1.515 3.474-3.383 0-1.869-1.555-3.383-3.474-3.383-1.92 0-3.475 1.514-3.475 3.383 0 1.868 1.556 3.383 3.475 3.383Z"/></g><defs><clipPath id="a"><rect width="22" height="22" x="1" y="1" fill="#fff" rx="11"/></clipPath></defs></svg>